<svg xmlns="http://www.w3.org/2000/svg" width="24" height="24"><g stroke="#1C1814" fill="none" fill-rule="evenodd"><path fill="#C8CDD1" stroke-linecap="round" stroke-linejoin="round" d="M10.5 5.385L11.687 4l.703 1.684 1.557-.95.147 1.819 1.775-.423-.422 1.776 1.819.146-.951 1.558 1.685.702-1.385 1.188L18 12.688l-1.685.701.951 1.558-1.819.147.422 1.775-1.775-.422-.147 1.818-1.557-.95L11.687 19 10.5 17.614 9.313 19l-.703-1.685-1.557.95-.147-1.818-1.775.422.422-1.775-1.819-.147.951-1.558L3 12.688 4.385 11.5 3 10.312l1.685-.702-.951-1.558 1.819-.146-.422-1.776 1.775.423.147-1.819 1.557.95L9.313 4z"/><path fill="#FFF" d="M12.6 11.3a2 2 0 11-4.001-.001 2 2 0 014.001.001z"/><path fill="#EBA97B" stroke-linejoin="round" d="M2 19h20v-4H2z"/><path d="M8 15l-4 4m8-4l-4 4m8-4l-4 4m8-4l-4 4"/></g></svg>