<svg xmlns="http://www.w3.org/2000/svg" xmlns:xlink="http://www.w3.org/1999/xlink" width="115" height="76"><defs><filter id="a" width="151.2%" height="202.2%" x="-25.6%" y="-43.2%" filterUnits="objectBoundingBox"><feGaussianBlur in="SourceGraphic" stdDeviation="3"/></filter><filter id="b" width="163%" height="225.8%" x="-31.5%" y="-55%" filterUnits="objectBoundingBox"><feOffset dy="2" in="SourceAlpha" result="shadowOffsetOuter1"/><feGaussianBlur in="shadowOffsetOuter1" result="shadowBlurOuter1" stdDeviation="2"/><feColorMatrix in="shadowBlurOuter1" values="0 0 0 0 0 0 0 0 0 0 0 0 0 0 0 0 0 0 0.16 0"/></filter><filter id="d" width="126%" height="126%" x="-13%" y="-9.7%" filterUnits="objectBoundingBox"><feMorphology in="SourceAlpha" operator="dilate" radius="1" result="shadowSpreadOuter1"/><feOffset dy="2" in="shadowSpreadOuter1" result="shadowOffsetOuter1"/><feGaussianBlur in="shadowOffsetOuter1" result="shadowBlurOuter1" stdDeviation="2"/><feComposite in="shadowBlurOuter1" in2="SourceAlpha" operator="out" result="shadowBlurOuter1"/><feColorMatrix in="shadowBlurOuter1" values="0 0 0 0 0 0 0 0 0 0 0 0 0 0 0 0 0 0 0.16 0"/></filter><ellipse id="e" cx="62.849" cy="33.482" rx="30.756" ry="30.804"/><path id="c" d="M67.51 65.493c11.665 0 27.441-5.696 35.237-12.723 7.796-7.027 4.659-12.723-7.007-12.723-11.665 0-27.441 5.696-35.237 12.723-7.796 7.027-4.659 12.723 7.007 12.723z"/></defs><g transform="translate(0 .956)" fill="none" fill-rule="evenodd"><g fill="#000" filter="url(#a)" opacity=".1"><use filter="url(#b)" xlink:href="#c"/><use xlink:href="#c"/></g><use fill="#000" filter="url(#d)" xlink:href="#e"/><ellipse cx="62.849" cy="33.482" fill="#D0A70B" stroke="#1C1814" rx="31.256" ry="31.304"/><path fill="#FFD73E" stroke="#1C1814" stroke-linecap="round" d="M82.925 51.994c11.57-5.727 34.018-26.827 25.564-33.85-9.496-5.587-11.292 13.128-21.282 16.917-3.142 9.632-7.669 19.426-4.282 16.933zm-50.85 0c-11.57-5.727-34.018-26.827-25.564-33.85 9.496-5.587 11.292 13.128 21.282 16.917 3.142 9.632 7.669 19.426 4.282 16.933z"/><path stroke="#1C1814" stroke-linecap="round" d="M9.235 11.516c4.086-1.894 7.139-.982 9.156 2.736m-4.06-7.299c2.154-.44 3.67.133 4.548 1.722"/><ellipse cx="57.5" cy="33.482" fill="#FFD73E" stroke="#1C1814" rx="31.256" ry="31.304"/><path stroke="#1C1814" stroke-dasharray="2" stroke-linecap="round" d="M57.5 60.268c14.77 0 26.744-11.993 26.744-26.786C84.244 18.69 72.27 6.696 57.5 6.696S30.756 18.69 30.756 33.482c0 14.793 11.974 26.786 26.744 26.786z" opacity=".7"/><path fill="#1C1814" d="M48.808 29.464c1.108 0 2.006.9 2.006 2.01a2.007 2.007 0 11-4.012-.001c0-1.11.898-2.009 2.006-2.009zm17.384 0c1.108 0 2.006.9 2.006 2.01a2.007 2.007 0 11-4.012-.001c0-1.11.898-2.009 2.006-2.009z"/><path stroke="#1C1814" stroke-linecap="round" d="M49.477 38.84c5.349 3.57 10.697 3.57 16.046 0"/></g></svg>