<svg xmlns="http://www.w3.org/2000/svg" xmlns:xlink="http://www.w3.org/1999/xlink" width="224" height="122"><defs><filter id="b" width="106.5%" height="112.5%" x="-3.2%" y="-4.5%" filterUnits="objectBoundingBox"><feOffset dy="2" in="SourceAlpha" result="shadowOffsetOuter1"/><feGaussianBlur in="shadowOffsetOuter1" result="shadowBlurOuter1" stdDeviation="2"/><feColorMatrix in="shadowBlurOuter1" values="0 0 0 0 0 0 0 0 0 0 0 0 0 0 0 0 0 0 0.16 0"/></filter><path id="a" d="M214 0a2 2 0 012 2v44.2c-4.564.927-8 4.962-8 9.8 0 4.838 3.436 8.873 8 9.8V110a2 2 0 01-2 2H2a2 2 0 01-2-2V2a2 2 0 012-2h212z"/></defs><g fill="none" fill-rule="evenodd" transform="translate(4)"><mask id="c" fill="#fff"><use xlink:href="#a"/></mask><use fill="#000" filter="url(#b)" xlink:href="#a"/><use fill="#1EC68C" xlink:href="#a"/><path fill="#1C1814" fill-rule="nonzero" d="M136.046 55.51c3.707 0 7.266-.7 10.678-2.096 3.412-1.397 6.407-3.372 8.986-5.924 2.579-2.552 4.647-5.6 6.205-9.147 1.558-3.546 2.338-7.468 2.338-11.766 0-4.46-.699-8.502-2.096-12.129-1.397-3.627-3.344-6.73-5.843-9.308-2.498-2.58-5.48-4.58-8.945-6.004C143.903-2.288 140.129-3 136.046-3c-4.084 0-7.831.712-11.243 2.136-3.411 1.423-6.366 3.425-8.865 6.004-2.498 2.579-4.446 5.681-5.843 9.308-1.397 3.627-2.095 7.67-2.095 12.129 0 4.298.698 8.22 2.095 11.766 1.397 3.546 3.345 6.595 5.843 9.147 2.499 2.552 5.454 4.527 8.865 5.924 3.412 1.397 7.16 2.095 11.243 2.095zm-4.675 60.04c1.72 0 3.184-.336 4.393-1.008 1.208-.672 2.216-1.518 3.022-2.539L227.275-1.872H209.06c-2.095 0-3.734.39-4.916 1.169-1.182.779-2.176 1.625-2.982 2.538L112.674 115.55h18.697zm4.675-75.595c-1.29 0-2.472-.215-3.546-.645-1.075-.43-1.988-1.155-2.74-2.176-.753-1.02-1.344-2.39-1.773-4.11-.43-1.72-.645-3.868-.645-6.447 0-2.74.215-5.01.645-6.81.43-1.8 1.02-3.237 1.773-4.312.752-1.074 1.665-1.826 2.74-2.256 1.074-.43 2.256-.645 3.546-.645s2.485.215 3.586.645c1.101.43 2.055 1.182 2.86 2.256.807 1.075 1.438 2.512 1.895 4.312.457 1.8.685 4.07.685 6.81 0 2.579-.228 4.728-.685 6.447-.457 1.72-1.088 3.09-1.894 4.11-.806 1.021-1.76 1.746-2.861 2.176-1.101.43-2.297.645-3.586.645zM203.58 117a27.91 27.91 0 0010.678-2.095c3.412-1.397 6.407-3.372 8.986-5.924 2.579-2.552 4.648-5.614 6.206-9.187 1.558-3.573 2.337-7.509 2.337-11.807 0-4.46-.699-8.502-2.096-12.129-1.397-3.626-3.344-6.73-5.842-9.308-2.499-2.579-5.48-4.58-8.946-6.004-3.465-1.424-7.24-2.136-11.323-2.136s-7.83.712-11.243 2.136c-3.411 1.424-6.366 3.425-8.865 6.004-2.498 2.579-4.445 5.682-5.842 9.308-1.397 3.627-2.096 7.67-2.096 12.13 0 4.297.699 8.233 2.096 11.806 1.397 3.573 3.344 6.635 5.842 9.187 2.499 2.552 5.454 4.527 8.865 5.924 3.412 1.397 7.16 2.095 11.243 2.095zm0-15.635c-1.29 0-2.472-.215-3.546-.644-1.075-.43-1.988-1.156-2.74-2.176-.752-1.021-1.343-2.391-1.773-4.11-.43-1.72-.645-3.869-.645-6.448 0-2.686.215-4.93.645-6.73.43-1.799 1.02-3.236 1.773-4.31.752-1.075 1.665-1.827 2.74-2.257 1.074-.43 2.256-.645 3.546-.645s2.485.215 3.586.645c1.102.43 2.055 1.182 2.861 2.256.806 1.075 1.437 2.512 1.894 4.312.457 1.8.685 4.043.685 6.73 0 2.578-.228 4.727-.685 6.447-.457 1.719-1.088 3.089-1.894 4.11-.806 1.02-1.76 1.746-2.86 2.176-1.102.43-2.298.644-3.587.644z" mask="url(#c)" opacity=".028"/><path fill="#F4F4F4" fill-rule="nonzero" d="M167.5 9.18v3a.5.5 0 001 0v-3a.5.5 0 00-1 0zm0 6v3a.5.5 0 001 0v-3a.5.5 0 00-1 0zm0 6v3a.5.5 0 001 0v-3a.5.5 0 00-1 0zm0 6v3a.5.5 0 001 0v-3a.5.5 0 00-1 0zm0 6v3a.5.5 0 001 0v-3a.5.5 0 00-1 0zm0 6v3a.5.5 0 001 0v-3a.5.5 0 00-1 0zm0 6v3a.5.5 0 001 0v-3a.5.5 0 00-1 0zm0 6v3a.5.5 0 001 0v-3a.5.5 0 00-1 0zm0 6v3a.5.5 0 001 0v-3a.5.5 0 00-1 0zm0 6v3a.5.5 0 001 0v-3a.5.5 0 00-1 0zm0 6v3a.5.5 0 001 0v-3a.5.5 0 00-1 0zm0 6v3a.5.5 0 001 0v-3a.5.5 0 00-1 0zm0 6v3a.5.5 0 001 0v-3a.5.5 0 00-1 0zm0 6v3a.5.5 0 001 0v-3a.5.5 0 00-1 0zm0 6v3a.5.5 0 001 0v-3a.5.5 0 00-1 0zm0 6v3a.5.5 0 001 0v-3a.5.5 0 00-1 0z" opacity=".4"/><path fill="#FFF" fill-rule="nonzero" d="M188.023 26.765h3.78c.42 0 .775.1 1.064.301.29.2.434.483.434.847 0 .345-.117.597-.35.756-.233.159-.55.238-.952.238h-3.976v2.296h3.766c.196 0 .385.023.567.07.182.047.343.119.483.217.14.098.252.22.336.364a1 1 0 01.126.511c0 .205-.04.371-.119.497a.885.885 0 01-.315.301c-.13.075-.287.126-.469.154a3.725 3.725 0 01-.567.042h-3.808v2.296h4.312c.327 0 .66-.044 1.001-.133a2.79 2.79 0 00.924-.427c.275-.196.5-.455.672-.777.173-.322.259-.721.259-1.197 0-.523-.107-.966-.322-1.33a2.655 2.655 0 00-.868-.896c.383-.196.677-.469.882-.819.205-.35.308-.777.308-1.281a2.517 2.517 0 00-.357-1.316 1.999 1.999 0 00-.371-.455 2.435 2.435 0 00-.434-.315v-.028h.966v-2.226h-6.972v2.31zm-.224 14.14c0 .532.089 1.031.266 1.498.177.467.427.877.749 1.232s.714.635 1.176.84c.462.205.978.308 1.547.308a3.72 3.72 0 001.54-.308 3.413 3.413 0 001.162-.84c.317-.355.56-.765.728-1.232a4.39 4.39 0 00.252-1.498c0-.523-.084-1.02-.252-1.491a3.458 3.458 0 00-1.89-2.065 3.72 3.72 0 00-1.54-.308c-.57 0-1.085.103-1.547.308a3.516 3.516 0 00-1.176.833c-.322.35-.572.76-.749 1.232a4.199 4.199 0 00-.266 1.491zm1.932.014c0-.27.051-.509.154-.714a1.55 1.55 0 01.413-.518 1.8 1.8 0 01.581-.315 2.11 2.11 0 011.316 0c.215.07.404.173.567.308.163.135.296.306.399.511.103.205.154.443.154.714a1.577 1.577 0 01-.553 1.232 1.74 1.74 0 01-.567.322 1.99 1.99 0 01-.658.112 2.11 2.11 0 01-.658-.105 1.8 1.8 0 01-.581-.315 1.55 1.55 0 01-.413-.518 1.577 1.577 0 01-.154-.714zm-1.932 8.834c0 .532.089 1.031.266 1.498.177.467.427.877.749 1.232s.714.635 1.176.84c.462.205.978.308 1.547.308a3.72 3.72 0 001.54-.308 3.413 3.413 0 001.162-.84c.317-.355.56-.765.728-1.232a4.39 4.39 0 00.252-1.498c0-.523-.084-1.02-.252-1.491a3.458 3.458 0 00-1.89-2.065 3.72 3.72 0 00-1.54-.308c-.57 0-1.085.103-1.547.308a3.516 3.516 0 00-1.176.833c-.322.35-.572.76-.749 1.232a4.199 4.199 0 00-.266 1.491zm1.932.014c0-.27.051-.509.154-.714a1.55 1.55 0 01.413-.518 1.8 1.8 0 01.581-.315 2.11 2.11 0 011.316 0c.215.07.404.173.567.308.163.135.296.306.399.511.103.205.154.443.154.714a1.577 1.577 0 01-.553 1.232 1.74 1.74 0 01-.567.322 1.99 1.99 0 01-.658.112 2.11 2.11 0 01-.658-.105 1.8 1.8 0 01-.581-.315 1.55 1.55 0 01-.413-.518 1.577 1.577 0 01-.154-.714zm-1.708 7.63h3.78c.196 0 .385.026.567.077.182.051.343.128.483.231.14.103.25.231.329.385.08.154.119.334.119.539 0 .205-.04.376-.119.511a.835.835 0 01-.322.315 1.544 1.544 0 01-.469.161 3.088 3.088 0 01-.56.049h-3.808v2.31h4.312c.345 0 .69-.044 1.036-.133.345-.089.651-.233.917-.434.266-.2.483-.464.651-.791.168-.327.252-.723.252-1.19 0-.243-.033-.471-.098-.686a2.962 2.962 0 00-.252-.595 1.975 1.975 0 00-.371-.476 2.302 2.302 0 00-.441-.329v-.028h.966v-2.226h-6.972v2.31zm-3.36 9.604c0 .616.082 1.178.245 1.687.163.509.41.94.742 1.295.331.355.749.63 1.253.826.504.196 1.097.294 1.778.294h6.314v-2.17h-.896v-.028c.373-.243.649-.565.826-.966.177-.401.266-.821.266-1.26 0-.523-.1-.99-.301-1.4-.2-.41-.469-.758-.805-1.043a3.546 3.546 0 00-1.162-.651c-.439-.15-.9-.224-1.386-.224-.485 0-.945.075-1.379.224a3.4 3.4 0 00-1.141.651 3.102 3.102 0 00-.777 1.043c-.191.41-.287.882-.287 1.414 0 .467.084.882.252 1.246.168.364.392.653.672.868v.042h-.42c-.588 0-1.06-.161-1.414-.483-.355-.322-.532-.819-.532-1.491 0-.392.072-.791.217-1.197.145-.406.366-.777.665-1.113l-1.638-1.148a5.2 5.2 0 00-.812 1.687 6.843 6.843 0 00-.28 1.897zm5.11.224c0-.261.049-.492.147-.693.098-.2.229-.371.392-.511a1.74 1.74 0 01.567-.322 2.03 2.03 0 01.672-.112c.243 0 .471.037.686.112.215.075.401.182.56.322a1.536 1.536 0 01.518 1.204c0 .261-.047.495-.14.7a1.622 1.622 0 01-.385.532c-.163.15-.352.264-.567.343a1.91 1.91 0 01-.672.119 1.97 1.97 0 01-.686-.119 1.691 1.691 0 01-.56-.336 1.66 1.66 0 01-.532-1.239zm-1.974 9.212c0 .532.089 1.031.266 1.498.177.467.427.877.749 1.232s.714.635 1.176.84c.462.205.978.308 1.547.308a3.72 3.72 0 001.54-.308 3.413 3.413 0 001.162-.84c.317-.355.56-.765.728-1.232a4.39 4.39 0 00.252-1.498c0-.523-.084-1.02-.252-1.491a3.458 3.458 0 00-1.89-2.065 3.72 3.72 0 00-1.54-.308c-.57 0-1.085.103-1.547.308a3.516 3.516 0 00-1.176.833c-.322.35-.572.76-.749 1.232a4.199 4.199 0 00-.266 1.491zm1.932.014c0-.27.051-.509.154-.714a1.55 1.55 0 01.413-.518 1.8 1.8 0 01.581-.315 2.11 2.11 0 011.316 0c.215.07.404.173.567.308.163.135.296.306.399.511.103.205.154.443.154.714a1.577 1.577 0 01-.553 1.232 1.74 1.74 0 01-.567.322 1.99 1.99 0 01-.658.112 2.11 2.11 0 01-.658-.105 1.8 1.8 0 01-.581-.315 1.55 1.55 0 01-.413-.518 1.577 1.577 0 01-.154-.714zm-1.708 7.616h3.584c.14 0 .303.028.49.084.187.056.36.147.518.273.159.126.294.294.406.504.112.21.168.469.168.777 0 .093-.005.189-.014.287-.01.098-.028.198-.056.301l2.016.098c.019-.056.033-.128.042-.217.01-.089.014-.18.014-.273 0-.43-.112-.807-.336-1.134a2.263 2.263 0 00-.868-.756v-.028h1.008v-2.212h-6.972v2.296zm7.938 4.424a1.363 1.363 0 00.364.931c.112.117.245.21.399.28.154.07.32.105.497.105s.343-.035.497-.105c.154-.07.287-.163.399-.28a1.363 1.363 0 00.259-1.449 1.516 1.516 0 00-.273-.42 1.145 1.145 0 00-.399-.28 1.224 1.224 0 00-.483-.098c-.345 0-.642.126-.889.378a1.286 1.286 0 00-.371.938zm-7.938 1.148h6.972v-2.296h-6.972v2.296z" opacity=".4"/></g></svg>