<svg xmlns="http://www.w3.org/2000/svg" xmlns:xlink="http://www.w3.org/1999/xlink" width="178" height="110"><defs><filter id="a" width="154.5%" height="209%" x="-27.2%" y="-46.1%" filterUnits="objectBoundingBox"><feGaussianBlur in="SourceGraphic" stdDeviation="3"/></filter><filter id="b" width="167.1%" height="234.2%" x="-33.5%" y="-58.7%" filterUnits="objectBoundingBox"><feOffset dy="2" in="SourceAlpha" result="shadowOffsetOuter1"/><feGaussianBlur in="shadowOffsetOuter1" result="shadowBlurOuter1" stdDeviation="2"/><feColorMatrix in="shadowBlurOuter1" values="0 0 0 0 0 0 0 0 0 0 0 0 0 0 0 0 0 0 0.16 0"/></filter><filter id="d" width="127.7%" height="127.7%" x="-13.8%" y="-10.4%" filterUnits="objectBoundingBox"><feMorphology in="SourceAlpha" operator="dilate" radius="1" result="shadowSpreadOuter1"/><feOffset dy="2" in="shadowSpreadOuter1" result="shadowOffsetOuter1"/><feGaussianBlur in="shadowOffsetOuter1" result="shadowBlurOuter1" stdDeviation="2"/><feComposite in="shadowBlurOuter1" in2="SourceAlpha" operator="out" result="shadowBlurOuter1"/><feColorMatrix in="shadowBlurOuter1" values="0 0 0 0 0 0 0 0 0 0 0 0 0 0 0 0 0 0 0.16 0"/></filter><ellipse id="e" cx="59.023" cy="28.872" rx="28.884" ry="28.872"/><path id="c" d="M63.4 58.876c10.956 0 25.772-5.339 33.093-11.925 7.32-6.587 4.375-11.926-6.58-11.926-10.956 0-25.771 5.34-33.093 11.926-7.32 6.586-4.375 11.925 6.58 11.925z"/></defs><g transform="translate(52 24)" fill="none" fill-rule="evenodd"><g fill="#000" filter="url(#a)" opacity=".1"><use filter="url(#b)" xlink:href="#c"/><use xlink:href="#c"/></g><use fill="#000" filter="url(#d)" xlink:href="#e"/><ellipse cx="59.023" cy="28.872" fill="#D0A70B" stroke="#1C1814" rx="29.384" ry="29.372"/><path fill="#FFD73E" stroke="#1C1814" stroke-linecap="round" d="M77.877 46.223c10.866-5.367 31.948-25.145 24.009-31.727C92.968 9.259 91.28 26.8 81.898 30.352c-2.95 9.028-7.201 18.209-4.02 15.87zm-47.755 0C19.257 40.856-1.826 21.078 6.115 14.496 15.033 9.259 16.719 26.8 26.101 30.352c2.951 9.028 7.203 18.208 4.021 15.87z"/><path stroke="#1C1814" stroke-linecap="round" d="M8.672 8.284c3.84-1.776 6.706-.921 8.6 2.564m-3.813-6.842c2.023-.412 3.446.126 4.27 1.614"/><ellipse cx="54" cy="28.872" fill="#FFD73E" stroke="#1C1814" rx="29.384" ry="29.372"/><path stroke="#1C1814" stroke-dasharray="2" stroke-linecap="round" d="M54 53.979c13.871 0 25.116-11.24 25.116-25.107C79.116 15.006 67.871 3.766 54 3.766s-25.116 11.24-25.116 25.106C28.884 42.738 40.129 53.98 54 53.98z" opacity=".7"/><path fill="#1C1814" d="M45.837 25.106a1.884 1.884 0 110 3.768 1.884 1.884 0 010-3.768zm16.326 0a1.884 1.884 0 110 3.768 1.884 1.884 0 010-3.768z"/><path stroke="#1C1814" stroke-linecap="round" d="M46.465 33.894c5.023 3.347 10.047 3.347 15.07 0"/></g></svg>