<svg xmlns="http://www.w3.org/2000/svg" xmlns:xlink="http://www.w3.org/1999/xlink" width="178" height="110"><defs><filter id="b" width="111.7%" height="122.4%" x="-5.8%" y="-8%" filterUnits="objectBoundingBox"><feOffset dy="2" in="SourceAlpha" result="shadowOffsetOuter1"/><feGaussianBlur in="shadowOffsetOuter1" result="shadowBlurOuter1" stdDeviation="2"/><feColorMatrix in="shadowBlurOuter1" values="0 0 0 0 0 0 0 0 0 0 0 0 0 0 0 0 0 0 0.16 0"/></filter><filter id="d" width="154.5%" height="209%" x="-27.2%" y="-46.1%" filterUnits="objectBoundingBox"><feGaussianBlur in="SourceGraphic" stdDeviation="3"/></filter><filter id="e" width="167.1%" height="234.2%" x="-33.5%" y="-58.7%" filterUnits="objectBoundingBox"><feOffset dy="2" in="SourceAlpha" result="shadowOffsetOuter1"/><feGaussianBlur in="shadowOffsetOuter1" result="shadowBlurOuter1" stdDeviation="2"/><feColorMatrix in="shadowBlurOuter1" values="0 0 0 0 0 0 0 0 0 0 0 0 0 0 0 0 0 0 0.16 0"/></filter><filter id="g" width="127.7%" height="127.7%" x="-13.8%" y="-10.4%" filterUnits="objectBoundingBox"><feMorphology in="SourceAlpha" operator="dilate" radius="1" result="shadowSpreadOuter1"/><feOffset dy="2" in="shadowSpreadOuter1" result="shadowOffsetOuter1"/><feGaussianBlur in="shadowOffsetOuter1" result="shadowBlurOuter1" stdDeviation="2"/><feComposite in="shadowBlurOuter1" in2="SourceAlpha" operator="out" result="shadowBlurOuter1"/><feColorMatrix in="shadowBlurOuter1" values="0 0 0 0 0 0 0 0 0 0 0 0 0 0 0 0 0 0 0.16 0"/></filter><path id="a" d="M118 .38a2 2 0 012 2v23.78a5.578 5.578 0 00-4.444 5.47c0 2.7 1.908 4.951 4.444 5.468V60.88a2 2 0 01-2 2H2a2 2 0 01-2-2V2.38a2 2 0 012-2h116z"/><path id="f" d="M63.4 58.876c10.956 0 25.772-5.339 33.093-11.925 7.32-6.587 4.375-11.926-6.58-11.926-10.956 0-25.771 5.34-33.093 11.926-7.32 6.586-4.375 11.925 6.58 11.925z"/><ellipse id="h" cx="59.023" cy="28.872" rx="28.884" ry="28.872"/></defs><g fill="none" fill-rule="evenodd"><g transform="rotate(5 -16.424 86.599)"><mask id="c" fill="#fff"><use xlink:href="#a"/></mask><use fill="#000" filter="url(#b)" xlink:href="#a"/><use fill="#1EC68C" xlink:href="#a"/><path fill="#1C1814" fill-rule="nonzero" d="M75.467 31.295c2.044 0 4.007-.387 5.889-1.161a15.121 15.121 0 004.955-3.281c1.422-1.414 2.563-3.103 3.422-5.067.86-1.965 1.29-4.137 1.29-6.518 0-2.47-.386-4.71-1.156-6.719-.77-2.009-1.845-3.728-3.223-5.156C85.267 1.964 83.622.856 81.711.067 79.8-.722 77.72-1.116 75.467-1.116s-4.319.394-6.2 1.183a14.507 14.507 0 00-4.89 3.326C63 4.82 61.927 6.54 61.157 8.549S60 12.798 60 15.268c0 2.38.385 4.553 1.156 6.518.77 1.964 1.844 3.653 3.222 5.067a14.375 14.375 0 004.889 3.28c1.881.775 3.948 1.162 6.2 1.162zm-2.578 33.259c.948 0 1.755-.186 2.422-.558a5.496 5.496 0 001.667-1.407l48.8-63.08h-10.045c-1.155 0-2.059.216-2.71.647-.653.432-1.2.9-1.645 1.407l-48.8 62.99h10.31zm2.578-41.875c-.711 0-1.363-.12-1.956-.358-.592-.238-1.096-.64-1.511-1.205-.415-.565-.74-1.324-.978-2.277-.237-.952-.355-2.143-.355-3.571 0-1.518.118-2.775.355-3.772.237-.997.563-1.794.978-2.389.415-.595.919-1.012 1.511-1.25a5.205 5.205 0 011.956-.357c.71 0 1.37.119 1.977.357.608.238 1.134.655 1.578 1.25.445.595.793 1.392 1.045 2.389.252.997.377 2.254.377 3.772 0 1.428-.125 2.619-.377 3.571-.252.953-.6 1.712-1.045 2.277-.444.566-.97.967-1.578 1.205a5.349 5.349 0 01-1.977.358zm37.244 42.678c2.045 0 4.008-.387 5.889-1.16a15.123 15.123 0 004.956-3.282c1.422-1.414 2.563-3.11 3.422-5.09.859-1.978 1.289-4.158 1.289-6.54 0-2.47-.386-4.71-1.156-6.718-.77-2.009-1.844-3.728-3.222-5.156-1.378-1.429-3.022-2.537-4.933-3.326-1.912-.789-3.993-1.183-6.245-1.183-2.252 0-4.318.394-6.2 1.183a14.503 14.503 0 00-4.889 3.326c-1.378 1.428-2.452 3.147-3.222 5.156s-1.156 4.248-1.156 6.719c0 2.38.386 4.56 1.156 6.54.77 1.98 1.844 3.675 3.222 5.09a14.38 14.38 0 004.89 3.28c1.88.774 3.947 1.161 6.2 1.161zm0-8.66c-.711 0-1.363-.12-1.955-.358-.593-.238-1.097-.64-1.512-1.205-.414-.566-.74-1.324-.977-2.277-.237-.952-.356-2.143-.356-3.571 0-1.488.119-2.73.356-3.728.237-.997.563-1.793.977-2.388.415-.596.919-1.012 1.512-1.25a5.197 5.197 0 011.955-.358c.711 0 1.37.12 1.978.358.607.238 1.133.654 1.578 1.25.444.595.792 1.391 1.044 2.388.252.997.378 2.24.378 3.728 0 1.428-.126 2.619-.378 3.571-.252.953-.6 1.711-1.044 2.277-.445.565-.97.967-1.578 1.205a5.378 5.378 0 01-1.978.357z" mask="url(#c)" opacity=".028"/><path fill="#F4F4F4" fill-rule="nonzero" d="M93.056 5.68v1.675c0 .154.223.279.5.279.276 0 .5-.125.5-.28V5.682c0-.154-.224-.28-.5-.28-.277 0-.5.126-.5.28zm0 3.349v1.674c0 .154.223.28.5.28.276 0 .5-.126.5-.28V9.03c0-.154-.224-.279-.5-.279-.277 0-.5.125-.5.279zm0 3.348v1.674c0 .154.223.28.5.28.276 0 .5-.126.5-.28v-1.674c0-.154-.224-.279-.5-.279-.277 0-.5.125-.5.28zm0 3.348V17.4c0 .154.223.279.5.279.276 0 .5-.125.5-.28v-1.674c0-.154-.224-.279-.5-.279-.277 0-.5.125-.5.28zm0 3.349v1.674c0 .154.223.279.5.279.276 0 .5-.125.5-.28v-1.673c0-.154-.224-.28-.5-.28-.277 0-.5.126-.5.28zm0 3.348v1.674c0 .154.223.279.5.279.276 0 .5-.125.5-.279v-1.674c0-.154-.224-.28-.5-.28-.277 0-.5.126-.5.28zm0 3.348v1.674c0 .154.223.28.5.28.276 0 .5-.126.5-.28V25.77c0-.154-.224-.279-.5-.279-.277 0-.5.125-.5.28zm0 3.348v1.674c0 .155.223.28.5.28.276 0 .5-.125.5-.28v-1.674c0-.154-.224-.279-.5-.279-.277 0-.5.125-.5.28zm0 3.349v1.674c0 .154.223.279.5.279.276 0 .5-.125.5-.28v-1.673c0-.155-.224-.28-.5-.28-.277 0-.5.125-.5.28zm0 3.348v1.674c0 .154.223.279.5.279.276 0 .5-.125.5-.28v-1.673c0-.154-.224-.28-.5-.28-.277 0-.5.126-.5.28zm0 3.348v1.674c0 .154.223.28.5.28.276 0 .5-.126.5-.28v-1.674c0-.154-.224-.28-.5-.28-.277 0-.5.126-.5.28zm0 3.348v1.674c0 .154.223.28.5.28.276 0 .5-.126.5-.28v-1.674c0-.154-.224-.279-.5-.279-.277 0-.5.125-.5.28zm0 3.348v1.674c0 .155.223.28.5.28.276 0 .5-.125.5-.28V45.86c0-.154-.224-.279-.5-.279-.277 0-.5.125-.5.28zm0 3.349v1.674c0 .154.223.279.5.279.276 0 .5-.125.5-.28v-1.673c0-.155-.224-.28-.5-.28-.277 0-.5.125-.5.28zm0 3.348v1.674c0 .154.223.279.5.279.276 0 .5-.125.5-.28v-1.673c0-.154-.224-.28-.5-.28-.277 0-.5.126-.5.28zm0 3.348v1.674c0 .154.223.28.5.28.276 0 .5-.126.5-.28v-1.674c0-.154-.224-.279-.5-.279-.277 0-.5.125-.5.279z" mask="url(#c)" opacity=".4"/><path fill="#FFF" fill-rule="nonzero" d="M89.559 34.42v-2.11c0-.234.056-.432.167-.593a.538.538 0 01.47-.243c.193 0 .333.065.42.196.089.13.133.307.133.53v2.22h1.275v-2.102c0-.11.013-.215.04-.316a.79.79 0 01.12-.27.633.633 0 01.202-.187.551.551 0 01.284-.07c.114 0 .206.021.276.066.07.044.126.103.167.176a.75.75 0 01.086.261c.015.102.023.207.023.317v2.125h1.276v-2.407a2.23 2.23 0 00-.074-.558 1.578 1.578 0 00-.237-.516 1.262 1.262 0 00-.432-.375 1.392 1.392 0 00-.665-.144c-.29 0-.537.06-.739.18-.202.12-.368.28-.498.484a1.167 1.167 0 00-.455-.492 1.372 1.372 0 00-.711-.172 1.397 1.397 0 00-.731.199c-.099.06-.183.129-.253.207-.07.078-.129.159-.175.242h-.016v-.539h-1.236v3.89h1.283zm7.855.125c.296 0 .573-.05.833-.149a2.13 2.13 0 00.684-.418c.197-.18.353-.398.467-.656.114-.258.17-.546.17-.863a2.09 2.09 0 00-.17-.86 1.904 1.904 0 00-.467-.648 2.05 2.05 0 00-.684-.406 2.429 2.429 0 00-.833-.141c-.29 0-.566.047-.828.14a2.01 2.01 0 00-.684.407 1.92 1.92 0 00-.463.648 2.09 2.09 0 00-.171.86c0 .317.057.605.17.863a1.974 1.974 0 001.148 1.074c.262.1.538.149.828.149zm.008-1.078a.888.888 0 01-.396-.086.88.88 0 01-.288-.23 1.012 1.012 0 01-.175-.325 1.15 1.15 0 010-.734.882.882 0 01.455-.54.874.874 0 01.396-.085.879.879 0 01.685.308.977.977 0 01.179.317c.041.12.062.242.062.367s-.02.247-.058.367c-.04.12-.098.228-.175.324a.863.863 0 01-.685.317zm4.908 1.078c.296 0 .573-.05.832-.149.26-.099.488-.238.685-.418.197-.18.352-.398.466-.656.114-.258.171-.546.171-.863 0-.318-.057-.604-.17-.86a1.917 1.917 0 00-.467-.648 2.054 2.054 0 00-.685-.406 2.419 2.419 0 00-.832-.141c-.29 0-.566.047-.828.14-.262.094-.49.23-.685.407a1.949 1.949 0 00-.463.648 2.09 2.09 0 00-.17.86c0 .317.056.605.17.863a1.972 1.972 0 001.148 1.074c.262.1.538.149.828.149zm.008-1.078a.892.892 0 01-.397-.086.89.89 0 01-.288-.23 1.032 1.032 0 01-.175-.325 1.178 1.178 0 010-.734.888.888 0 01.455-.54.879.879 0 01.397-.085c.15 0 .283.028.397.085.114.058.21.132.287.223a.98.98 0 01.18.317 1.154 1.154 0 01.003.734.997.997 0 01-.175.324.855.855 0 01-.684.317zm4.239.953v-2.11c0-.11.014-.215.042-.316a.844.844 0 01.129-.27.6.6 0 01.514-.25c.113 0 .208.022.283.067a.459.459 0 01.175.18.891.891 0 01.09.261c.018.1.027.203.027.313v2.125h1.283v-2.407c0-.192-.025-.385-.074-.578a1.452 1.452 0 00-.241-.511 1.256 1.256 0 00-.44-.364 1.428 1.428 0 00-.66-.14c-.135 0-.262.018-.382.054-.119.037-.23.084-.33.141-.101.057-.19.126-.265.207-.075.08-.136.163-.182.246h-.016v-.539h-1.237v3.89h1.284zm5.335 1.875c.342 0 .655-.046.937-.137.283-.091.523-.23.72-.414.197-.185.35-.418.459-.7.109-.28.163-.611.163-.992V30.53h-1.205v.5h-.016a1.21 1.21 0 00-.537-.46c-.223-.1-.456-.15-.7-.15a1.737 1.737 0 00-1.357.618 1.976 1.976 0 00-.362.648 2.396 2.396 0 00-.124.774c0 .27.041.527.124.77.083.241.204.454.362.636s.351.327.58.434c.228.106.49.16.785.16.26 0 .49-.047.692-.14.203-.095.363-.22.483-.376h.023v.234c0 .329-.09.592-.268.79-.18.197-.455.296-.829.296-.218 0-.44-.04-.665-.12a1.877 1.877 0 01-.618-.372l-.638.914c.265.198.577.35.937.453.36.105.712.157 1.054.157zm.125-2.852a.855.855 0 01-.669-.301.964.964 0 01-.18-.316 1.179 1.179 0 01.001-.758.907.907 0 01.179-.312.831.831 0 01.284-.211.9.9 0 01.385-.078.899.899 0 01.684.292.944.944 0 01.19.317 1.105 1.105 0 01.001.758.915.915 0 01-.875.609zm5.117 1.102c.296 0 .573-.05.833-.149a2.13 2.13 0 00.684-.418c.197-.18.353-.398.467-.656.114-.258.17-.546.17-.863a2.09 2.09 0 00-.17-.86 1.904 1.904 0 00-.467-.648 2.05 2.05 0 00-.684-.406 2.429 2.429 0 00-.833-.141c-.29 0-.566.047-.828.14a2.01 2.01 0 00-.684.407 1.92 1.92 0 00-.463.648 2.09 2.09 0 00-.171.86c0 .317.057.605.17.863a1.974 1.974 0 001.148 1.074c.262.1.538.149.828.149zm.008-1.078a.888.888 0 01-.396-.086.88.88 0 01-.288-.23 1.012 1.012 0 01-.175-.325 1.15 1.15 0 010-.734.882.882 0 01.455-.54.874.874 0 01.396-.085.879.879 0 01.685.308.977.977 0 01.179.317c.041.12.062.242.062.367s-.02.247-.058.367c-.04.12-.098.228-.175.324a.863.863 0 01-.685.317zm4.231.953v-2a.983.983 0 01.199-.563.875.875 0 01.28-.226.895.895 0 01.431-.094c.052 0 .105.002.16.008.054.005.11.015.167.03l.054-1.124a.63.63 0 00-.12-.024c-.05-.005-.1-.007-.152-.007-.238 0-.448.062-.63.187a1.27 1.27 0 00-.42.485h-.015v-.563h-1.23v3.89h1.276zm2.458-4.43a.744.744 0 00.517-.203.722.722 0 00.156-.223.678.678 0 00-.156-.777.759.759 0 00-1.038.008.634.634 0 00-.156.222.692.692 0 00.156.766c.14.138.314.207.521.207zm.638 4.43v-3.891h-1.276v3.89h1.276z" mask="url(#c)" opacity=".4" transform="rotate(90 106.429 32.44)"/></g><path d="M64.614 56.889l.543-6.21-1.169-.102-.416 4.76-1.532-.135-.07.801 1.532.134-.057.65 1.169.102zm-4.005-3.38c1.186.104 2.079-.41 2.155-1.282.076-.872-.712-1.541-1.899-1.645-1.195-.104-2.09.418-2.165 1.29-.077.871.714 1.532 1.91 1.637zm.075-.854c-.55-.048-.913-.286-.878-.687.035-.4.436-.58.984-.532.54.047.902.295.867.694-.035.4-.433.572-.973.525zm3.946 6.09l.082-.934-4.88-.427.097-1.12 1.125.098.136-1.547c.659.012 1.32-.001 1.968-.061l-.006-.844c-1.738.073-3.723-.084-5.212-.205l.07.948c.61.053 1.293.103 2.014.13l-.096 1.095-1.134-.1-.213 2.438 6.047.53zm-47.541-4.083c.59.052 1.157.014 1.701-.112a4.158 4.158 0 001.461-.638 3.66 3.66 0 001.065-1.156c.28-.472.447-1.029.503-1.67.065-.751-.07-1.393-.403-1.924-.334-.532-.874-.952-1.62-1.263.328-.08.624-.187.89-.325a2.418 2.418 0 001.158-1.312c.119-.302.196-.659.232-1.067a3.166 3.166 0 00-.156-1.332 3.089 3.089 0 00-.682-1.121 3.69 3.69 0 00-1.157-.81 4.752 4.752 0 00-1.576-.393 5.255 5.255 0 00-1.61.097c-.506.114-.964.31-1.372.588a3.928 3.928 0 00-1.054 1.082 4.834 4.834 0 00-.655 1.578l1.133.305c.105.027.204.045.299.053.2.017.367-.018.5-.105.132-.087.244-.24.334-.459.174-.421.444-.754.81-1 .366-.246.81-.347 1.33-.301.572.05 1.01.246 1.314.587.302.34.427.814.374 1.426a2.372 2.372 0 01-.192.77c-.104.23-.268.421-.492.572-.224.151-.517.258-.88.322-.363.063-.813.075-1.35.034l-.137 1.565c.65.057 1.163.153 1.54.288.378.134.663.3.854.496.191.195.308.422.35.68s.052.54.025.85a2.029 2.029 0 01-.201.713c-.113.23-.27.438-.474.617a2.12 2.12 0 01-.737.415c-.287.097-.617.13-.989.097a2.264 2.264 0 01-.842-.222 2.171 2.171 0 01-.591-.437 2.475 2.475 0 01-.41-.578 7.888 7.888 0 01-.294-.644.684.684 0 00-.254-.31.867.867 0 00-.404-.133 1.282 1.282 0 00-.514.062l-1 .316c.128.568.299 1.072.51 1.514.211.443.481.825.81 1.147.329.321.725.578 1.19.767.465.191 1.02.314 1.664.37zm6.167 2.942a5.47 5.47 0 00.905-.746c.267-.275.497-.563.69-.863.193-.3.346-.602.46-.91.113-.306.182-.602.207-.887a2.05 2.05 0 00-.03-.58 1.374 1.374 0 00-.206-.502c-.1-.15-.23-.271-.388-.366a1.335 1.335 0 00-.573-.17 1.42 1.42 0 00-.531.047 1.181 1.181 0 00-.858 1.041c-.017.19-.002.367.047.533.047.165.12.312.22.44s.222.233.37.314c.147.082.312.13.495.147a1.97 1.97 0 01-.216.488 3.712 3.712 0 01-.614.743l-.262.242c-.051.043-.096.092-.134.15s-.059.108-.063.155a.413.413 0 00.13.343l.351.381zm7.94-1.708a4.43 4.43 0 001.898-.233 4.02 4.02 0 001.602-1.074c.469-.502.86-1.157 1.17-1.963.312-.806.517-1.77.615-2.891.099-1.126.065-2.113-.102-2.957s-.438-1.557-.813-2.133a4.04 4.04 0 00-1.391-1.337 4.443 4.443 0 00-1.829-.558 4.378 4.378 0 00-1.89.234 4.002 4.002 0 00-1.59 1.076c-.465.502-.853 1.155-1.16 1.959-.308.803-.512 1.769-.611 2.896-.098 1.12-.065 2.104.099 2.952.164.848.43 1.56.803 2.137a4.017 4.017 0 001.379 1.335c.546.313 1.153.5 1.82.557zm.159-1.823a2.017 2.017 0 01-.888-.298c-.28-.17-.516-.447-.71-.828-.192-.381-.328-.883-.407-1.505-.08-.623-.078-1.4.003-2.33.082-.931.215-1.697.402-2.295.186-.6.407-1.07.663-1.412.256-.342.537-.574.841-.694a2.035 2.035 0 011.83.16c.281.172.52.448.716.83.196.382.334.884.417 1.506.082.623.083 1.4.002 2.331-.082.93-.218 1.696-.407 2.294-.189.6-.412 1.07-.672 1.411-.259.342-.542.573-.85.693a2.084 2.084 0 01-.94.136zm10.112 2.722c.667.059 1.3-.02 1.9-.233a4.025 4.025 0 001.601-1.075c.469-.502.86-1.156 1.17-1.962.312-.806.517-1.77.615-2.892.098-1.125.064-2.112-.103-2.957s-.438-1.556-.812-2.133a4.045 4.045 0 00-1.39-1.336 4.467 4.467 0 00-1.831-.558 4.373 4.373 0 00-1.89.235 4.002 4.002 0 00-1.588 1.075c-.466.502-.854 1.156-1.162 1.96-.308.803-.512 1.769-.61 2.895-.098 1.12-.065 2.105.099 2.953.163.848.431 1.56.803 2.136a4.017 4.017 0 001.378 1.335c.546.313 1.153.5 1.82.558zm.16-1.823a2.017 2.017 0 01-.888-.298c-.28-.17-.516-.447-.709-.828-.193-.382-.329-.883-.408-1.506-.08-.622-.078-1.399.003-2.33.082-.93.215-1.696.402-2.294.186-.6.407-1.07.663-1.412.256-.342.536-.574.84-.694a2.035 2.035 0 011.83.16c.282.171.521.447.717.83.196.381.335.883.417 1.506.083.622.083 1.4.002 2.33-.082.931-.217 1.696-.407 2.294-.189.6-.413 1.07-.671 1.412-.26.342-.542.573-.851.693a2.08 2.08 0 01-.94.136zm10.113 2.722c.667.058 1.3-.02 1.897-.234a4.013 4.013 0 001.603-1.074c.47-.502.859-1.157 1.17-1.962.312-.806.517-1.771.615-2.892.098-1.126.064-2.112-.103-2.957s-.437-1.556-.812-2.133a4.045 4.045 0 00-1.39-1.336 4.466 4.466 0 00-1.83-.558 4.38 4.38 0 00-1.89.234 4.002 4.002 0 00-1.59 1.076c-.465.502-.854 1.156-1.16 1.96-.309.802-.513 1.768-.612 2.895-.098 1.12-.064 2.104.1 2.953.163.847.431 1.56.802 2.136a4.017 4.017 0 001.38 1.335c.545.313 1.152.5 1.82.558zm.16-1.823a2.025 2.025 0 01-.89-.299c-.28-.17-.515-.446-.708-.828-.193-.38-.33-.883-.408-1.505s-.078-1.4.003-2.33c.081-.931.216-1.696.401-2.294.186-.6.407-1.07.664-1.413.256-.342.536-.573.84-.693a2.036 2.036 0 011.83.16c.282.171.522.447.717.83.196.381.334.883.416 1.506.084.622.084 1.4.002 2.33-.081.931-.216 1.696-.406 2.294-.19.6-.413 1.07-.672 1.412-.258.341-.542.573-.85.692a2.073 2.073 0 01-.94.137zm-30.68-37l.456-5.222-1.03-.09-.457 5.222 1.03.09zm-5.348-1.431c.854-.217 1.463-.752 1.853-1.447a2.75 2.75 0 001.513 1.615l.59-.772c-1.13-.475-1.544-1.437-1.462-2.378l.061-.703-1.039-.09-.061.7c-.083.95-.682 1.909-1.903 2.21l.448.863zm5.367 3.26l.071-.817-3.905-.342.13-1.494-1.021-.09-.202 2.312 4.927.43zm3.336.432l.252-2.879 1.457.128-.252 2.879 1.015.088.252-2.879 1.518.133.073-.832-1.023-.09c.305-1.158.378-1.99.431-2.597l.04-.459-4.874-.426-.073.832 3.86.337a12.91 12.91 0 01-.414 2.223l-4.393-.384-.073.832 1.442.126-.252 2.88 1.014.088zm10.478.902l.627-7.168-1.023-.09-.627 7.168 1.023.09zm-1-5.702l.07-.802-1.627-.142.067-.771-1.022-.09-.067.771-1.635-.143-.07.802 4.283.375zm-.188 4.1l-.012-.746c-.565.03-1.149.017-1.733-.003l.05-.568c.772-.08 1.31-.52 1.368-1.182.07-.809-.609-1.418-1.648-1.51-1.046-.09-1.822.392-1.893 1.2-.058.662.396 1.188 1.15 1.403l-.053.608c-.637-.041-1.241-.094-1.775-.14l.05.843c1.264.11 2.915.247 4.497.095zm-2.143-2.085c-.472-.04-.78-.273-.749-.637.033-.375.377-.548.849-.507.48.042.78.272.747.645-.032.366-.367.54-.846.499zm10.527 2.568l.475-5.432-1.022-.09-.364 4.164-1.341-.117-.061.7 1.34.118-.05.567 1.023.09zm-3.505-2.957c1.04.091 1.82-.359 1.886-1.122.067-.762-.623-1.348-1.66-1.44-1.047-.09-1.83.367-1.896 1.13-.067.762.625 1.34 1.671 1.431zm.066-.747c-.48-.042-.797-.25-.767-.601.03-.35.38-.508.86-.466.473.041.79.258.76.609-.03.348-.38.498-.853.457zm3.453 5.328l.072-.817-4.27-.373.086-.98.984.086.119-1.355c.577.011 1.155 0 1.722-.053l-.006-.738c-1.52.063-3.257-.074-4.56-.18l.062.829c.534.046 1.13.092 1.761.116l-.083.956-.992-.087-.186 2.133 5.291.463zm7.153-5.161l.067-.771-1.587-.139.051-.584-1.03-.09-.052.584-1.589-.14-.067.772 4.207.368zm1.193 2.692l.133-1.51.945.083.074-.841-.947-.083.133-1.524-1.022-.09-.339 3.876 1.023.09zm-3.512-.363c1.06.092 1.79-.298 1.852-1.015.063-.723-.586-1.236-1.647-1.328-1.054-.093-1.791.299-1.854 1.022-.063.716.595 1.228 1.649 1.32zm.063-.724c-.473-.041-.762-.216-.736-.512.026-.303.341-.425.814-.383.473.041.761.216.735.519-.026.296-.34.418-.813.376zm3.367 4.35l.065-.748-3.89-.34.035-.398 3.689.323.159-1.82-4.712-.412-.065.747 3.704.324-.032.374-3.696-.324-.162 1.845 4.905.43zm7.27-1.342l.45-5.141-1.03-.09-.45 5.144 1.03.09zm-3.79-1.398c1.093.096 2.005-.6 2.096-1.643.093-1.058-.685-1.895-1.777-1.99-1.093-.096-2.012.592-2.104 1.65-.091 1.043.693 1.888 1.786 1.983zm.078-.886c-.528-.046-.915-.434-.865-1.01.052-.591.5-.896 1.028-.85.534.047.907.423.855 1.015-.05.576-.484.891-1.018.845zm3.724 4.191l.072-.817-3.905-.341.138-1.58-1.022-.089-.21 2.397 4.927.431zm4.61.514l.222-2.536 2.72.238.072-.833-.945-.083c.342-1.146.415-1.98.48-2.718l.056-.648-4.997-.437-.071.817 4.013.35c-.02.235-.042.476-.08.732l-4.242-.238.04.882 4.063.144c-.066.315-.15.66-.27 1.027l-4.493-.393-.073.833 2.704.236-.222 2.537 1.023.09zm9.929-1.743l.071-.817-2.72-.238.057-.647 2.092.183.07-.808-.852-.074.106-1.207.906.08.072-.817-5.307-.464-.072.817.907.079-.106 1.205-.86-.075-.071.81 2.092.183-.057.646-2.703-.236-.072.817 6.446.564zm-2.297-2.49l-1.464-.128.105-1.206 1.464.128-.105 1.205zm1.36 4.91l.07-.817-3.92-.343.105-1.205-1.023-.09-.177 2.023 4.944.432z" fill="#FFF" fill-rule="nonzero"/><g transform="translate(57 28)"><g fill="#000" filter="url(#d)" opacity=".1"><use filter="url(#e)" xlink:href="#f"/><use xlink:href="#f"/></g><use fill="#000" filter="url(#g)" xlink:href="#h"/><ellipse cx="59.023" cy="28.872" fill="#D0A70B" stroke="#1C1814" rx="29.384" ry="29.372"/><path fill="#FFD73E" stroke="#1C1814" stroke-linecap="round" d="M77.877 46.223c10.866-5.367 31.948-25.145 24.009-31.727C92.968 9.259 91.28 26.8 81.898 30.352c-2.95 9.028-7.201 18.209-4.02 15.87zm-47.755 0C19.257 40.856-1.826 21.078 6.115 14.496 15.033 9.259 16.719 26.8 26.101 30.352c2.951 9.028 7.203 18.208 4.021 15.87z"/><path stroke="#1C1814" stroke-linecap="round" d="M8.672 8.284c3.84-1.776 6.706-.921 8.6 2.564m-3.813-6.842c2.023-.412 3.446.126 4.27 1.614"/><ellipse cx="54" cy="28.872" fill="#FFD73E" stroke="#1C1814" rx="29.384" ry="29.372"/><path stroke="#1C1814" stroke-dasharray="2" stroke-linecap="round" d="M54 53.979c13.871 0 25.116-11.24 25.116-25.107C79.116 15.006 67.871 3.766 54 3.766s-25.116 11.24-25.116 25.106C28.884 42.738 40.129 53.98 54 53.98z" opacity=".7"/><path fill="#1C1814" d="M45.837 25.106a1.884 1.884 0 110 3.768 1.884 1.884 0 010-3.768zm16.326 0a1.884 1.884 0 110 3.768 1.884 1.884 0 010-3.768z"/><path stroke="#1C1814" stroke-linecap="round" d="M46.465 33.894c5.023 3.347 10.047 3.347 15.07 0"/></g></g></svg>