<svg xmlns="http://www.w3.org/2000/svg" width="24" height="24"><path d="M24 12c0 6.627-5.373 12-12 12S0 18.627 0 12 5.373 0 12 0s12 5.373 12 12z" fill="#62d7ab"/><path d="M13.06 4.06l6.88 6.88a1.49 1.49 0 01.013 2.107l-.013.013-6.88 6.88a1.49 1.49 0 01-2.107.013l-.013-.013-6.88-6.88a1.49 1.49 0 01-.013-2.107l.013-.013 6.88-6.88a1.49 1.49 0 012.12 0z" fill="#fff"/><path d="M20.32 11.69a1.492 1.492 0 01-.38 1.37l-6.88 6.88a1.49 1.49 0 01-2.107.013l-.013-.013-2.82-2.82 12.2-5.43z" fill="#62d7ab" opacity=".1"/><path d="M14.75 8.25h-5v8h1.81v-3.11h2.66V11.7h-2.66v-2h3.19V8.25z" fill="#62d7ab"/></svg>