<svg xmlns="http://www.w3.org/2000/svg" width="24" height="24"><path d="M24 12c0 6.627-5.373 12-12 12S0 18.627 0 12 5.373 0 12 0s12 5.373 12 12z" fill="#fdd036"/><path d="M18.44 6a1.49 1.49 0 011.3 2.24l-6.43 11.44a1.51 1.51 0 01-2.05.57 1.654 1.654 0 01-.57-.57L4.26 8.24a1.51 1.51 0 01.57-2c.22-.14.47-.222.73-.24h12.88z" fill="#fff"/><path d="M18.7 10.08l-5.39 9.6a1.51 1.51 0 01-2.05.57 1.654 1.654 0 01-.57-.57l-2.41-4.29 10.42-5.31z" fill="#fdd036" opacity=".1"/><path d="M14.5 8H10v7.2h1.63v-2.8H14v-1.29h-2.37V9.28h2.87V8z" fill="#fdd036"/></svg>