<svg xmlns="http://www.w3.org/2000/svg" width="24" height="24"><path d="M24 12c0 6.627-5.373 12-12 12S0 18.627 0 12 5.373 0 12 0s12 5.373 12 12z" fill="#869efc"/><path d="M12.9 3.8l6.47 4.73a1.55 1.55 0 01.55 1.73l-2.46 7.67A1.54 1.54 0 0116 19H8a1.54 1.54 0 01-1.46-1.07l-2.46-7.67a1.55 1.55 0 01.55-1.73L11.1 3.8a1.5 1.5 0 011.8 0z" fill="#fff"/><path d="M20 9.45c.075.265.075.545 0 .81l-2.46 7.67A1.54 1.54 0 0116 19H8a1.531 1.531 0 01-1-.45l13-9.1z" fill="#869efc" opacity=".1"/><path d="M9.48 8.25H8l3.17 8h1.66l3.17-8h-1.49a.602.602 0 00-.38.12.698.698 0 00-.18.21v.07l-1.55 4.28c-.07.19-.13.39-.2.61a6.857 6.857 0 00-.18.69c-.06-.24-.13-.47-.2-.69s-.09-.28-.14-.41l-.07-.2-1.53-4.28a.557.557 0 00-.49-.39l-.11-.01z" fill="#869efc"/></svg>