<svg xmlns="http://www.w3.org/2000/svg" xmlns:xlink="http://www.w3.org/1999/xlink" width="178" height="110" viewBox="0 0 178 110">
    <defs>
        <filter id="sutn8tjg3b" width="111.7%" height="122.4%" x="-5.8%" y="-8%" filterUnits="objectBoundingBox">
            <feOffset dy="2" in="SourceAlpha" result="shadowOffsetOuter1"/>
            <feGaussianBlur in="shadowOffsetOuter1" result="shadowBlurOuter1" stdDeviation="2"/>
            <feColorMatrix in="shadowBlurOuter1" values="0 0 0 0 0 0 0 0 0 0 0 0 0 0 0 0 0 0 0.16 0"/>
        </filter>
        <filter id="u69m3abtzd" width="154.5%" height="209%" x="-27.2%" y="-46.1%" filterUnits="objectBoundingBox">
            <feGaussianBlur in="SourceGraphic" stdDeviation="3"/>
        </filter>
        <filter id="mnzq7h22ue" width="167.1%" height="234.2%" x="-33.5%" y="-58.7%" filterUnits="objectBoundingBox">
            <feOffset dy="2" in="SourceAlpha" result="shadowOffsetOuter1"/>
            <feGaussianBlur in="shadowOffsetOuter1" result="shadowBlurOuter1" stdDeviation="2"/>
            <feColorMatrix in="shadowBlurOuter1" values="0 0 0 0 0 0 0 0 0 0 0 0 0 0 0 0 0 0 0.16 0"/>
        </filter>
        <filter id="xo129htkag" width="127.7%" height="127.7%" x="-13.8%" y="-10.4%" filterUnits="objectBoundingBox">
            <feMorphology in="SourceAlpha" operator="dilate" radius="1" result="shadowSpreadOuter1"/>
            <feOffset dy="2" in="shadowSpreadOuter1" result="shadowOffsetOuter1"/>
            <feGaussianBlur in="shadowOffsetOuter1" result="shadowBlurOuter1" stdDeviation="2"/>
            <feComposite in="shadowBlurOuter1" in2="SourceAlpha" operator="out" result="shadowBlurOuter1"/>
            <feColorMatrix in="shadowBlurOuter1" values="0 0 0 0 0 0 0 0 0 0 0 0 0 0 0 0 0 0 0.16 0"/>
        </filter>
        <path id="ybhvdyodsa" d="M118 .38c1.105 0 2 .895 2 2v23.78c-2.536.518-4.444 2.77-4.444 5.47 0 2.7 1.908 4.951 4.444 5.468V60.88c0 1.105-.895 2-2 2H2c-1.105 0-2-.895-2-2V2.38c0-1.104.895-2 2-2h116z"/>
        <path id="aa9ih37g3f" d="M63.4 58.876c10.956 0 25.772-5.339 33.093-11.925 7.32-6.587 4.375-11.926-6.58-11.926-10.956 0-25.771 5.34-33.093 11.926-7.32 6.586-4.375 11.925 6.58 11.925z"/>
        <ellipse id="qfx1grnwyh" cx="59.023" cy="28.872" rx="28.884" ry="28.872"/>
    </defs>
    <g fill="none" fill-rule="evenodd">
        <g>
            <g>
                <g>
                    <g>
                        <g>
                            <g transform="translate(-750 -744) translate(512 150) translate(0 496) translate(237 98) rotate(5 -7.824 75.457) translate(2 .62)">
                                <mask id="agvl6klm0c" fill="#fff">
                                    <use xlink:href="#ybhvdyodsa"/>
                                </mask>
                                <g>
                                    <use fill="#000" filter="url(#sutn8tjg3b)" xlink:href="#ybhvdyodsa"/>
                                    <use fill="#1EC68C" xlink:href="#ybhvdyodsa"/>
                                </g>
                                <path fill="#1C1814" fill-rule="nonzero" d="M75.467 31.295c2.044 0 4.007-.387 5.889-1.161 1.881-.774 3.533-1.868 4.955-3.281 1.422-1.414 2.563-3.103 3.422-5.067.86-1.965 1.29-4.137 1.29-6.518 0-2.47-.386-4.71-1.156-6.719-.77-2.009-1.845-3.728-3.223-5.156C85.267 1.964 83.622.856 81.711.067 79.8-.722 77.72-1.116 75.467-1.116s-4.319.394-6.2 1.183c-1.882.789-3.511 1.897-4.89 3.326C63 4.82 61.927 6.54 61.157 8.549S60 12.798 60 15.268c0 2.38.385 4.553 1.156 6.518.77 1.964 1.844 3.653 3.222 5.067 1.378 1.413 3.007 2.507 4.889 3.28 1.881.775 3.948 1.162 6.2 1.162zm-2.578 33.259c.948 0 1.755-.186 2.422-.558.667-.372 1.222-.841 1.667-1.407l48.8-63.08h-10.045c-1.155 0-2.059.216-2.71.647-.653.432-1.2.9-1.645 1.407l-48.8 62.99h10.31zm2.578-41.875c-.711 0-1.363-.12-1.956-.358-.592-.238-1.096-.64-1.511-1.205-.415-.565-.74-1.324-.978-2.277-.237-.952-.355-2.143-.355-3.571 0-1.518.118-2.775.355-3.772.237-.997.563-1.794.978-2.389.415-.595.919-1.012 1.511-1.25.593-.238 1.245-.357 1.956-.357.71 0 1.37.119 1.977.357.608.238 1.134.655 1.578 1.25.445.595.793 1.392 1.045 2.389.252.997.377 2.254.377 3.772 0 1.428-.125 2.619-.377 3.571-.252.953-.6 1.712-1.045 2.277-.444.566-.97.967-1.578 1.205-.607.239-1.266.358-1.977.358zm37.244 42.678c2.045 0 4.008-.387 5.889-1.16 1.881-.774 3.533-1.868 4.956-3.282 1.422-1.414 2.563-3.11 3.422-5.09.859-1.978 1.289-4.158 1.289-6.54 0-2.47-.386-4.71-1.156-6.718-.77-2.009-1.844-3.728-3.222-5.156-1.378-1.429-3.022-2.537-4.933-3.326-1.912-.789-3.993-1.183-6.245-1.183-2.252 0-4.318.394-6.2 1.183-1.881.789-3.511 1.897-4.889 3.326-1.378 1.428-2.452 3.147-3.222 5.156s-1.156 4.248-1.156 6.719c0 2.38.386 4.56 1.156 6.54.77 1.98 1.844 3.675 3.222 5.09 1.378 1.413 3.008 2.507 4.89 3.28 1.88.774 3.947 1.161 6.2 1.161zm0-8.66c-.711 0-1.363-.12-1.955-.358-.593-.238-1.097-.64-1.512-1.205-.414-.566-.74-1.324-.977-2.277-.237-.952-.356-2.143-.356-3.571 0-1.488.119-2.73.356-3.728.237-.997.563-1.793.977-2.388.415-.596.919-1.012 1.512-1.25.592-.238 1.244-.358 1.955-.358.711 0 1.37.12 1.978.358.607.238 1.133.654 1.578 1.25.444.595.792 1.391 1.044 2.388.252.997.378 2.24.378 3.728 0 1.428-.126 2.619-.378 3.571-.252.953-.6 1.711-1.044 2.277-.445.565-.97.967-1.578 1.205-.608.238-1.267.357-1.978.357z" mask="url(#agvl6klm0c)" opacity=".028"/>
                                <path fill="#F4F4F4" fill-rule="nonzero" d="M93.056 5.68v1.675c0 .154.223.279.5.279.276 0 .5-.125.5-.28V5.682c0-.154-.224-.28-.5-.28-.277 0-.5.126-.5.28zm0 3.349v1.674c0 .154.223.28.5.28.276 0 .5-.126.5-.28V9.03c0-.154-.224-.279-.5-.279-.277 0-.5.125-.5.279zm0 3.348v1.674c0 .154.223.28.5.28.276 0 .5-.126.5-.28v-1.674c0-.154-.224-.279-.5-.279-.277 0-.5.125-.5.28zm0 3.348V17.4c0 .154.223.279.5.279.276 0 .5-.125.5-.28v-1.674c0-.154-.224-.279-.5-.279-.277 0-.5.125-.5.28zm0 3.349v1.674c0 .154.223.279.5.279.276 0 .5-.125.5-.28v-1.673c0-.154-.224-.28-.5-.28-.277 0-.5.126-.5.28zm0 3.348v1.674c0 .154.223.279.5.279.276 0 .5-.125.5-.279v-1.674c0-.154-.224-.28-.5-.28-.277 0-.5.126-.5.28zm0 3.348v1.674c0 .154.223.28.5.28.276 0 .5-.126.5-.28V25.77c0-.154-.224-.279-.5-.279-.277 0-.5.125-.5.28zm0 3.348v1.674c0 .155.223.28.5.28.276 0 .5-.125.5-.28v-1.674c0-.154-.224-.279-.5-.279-.277 0-.5.125-.5.28zm0 3.349v1.674c0 .154.223.279.5.279.276 0 .5-.125.5-.28v-1.673c0-.155-.224-.28-.5-.28-.277 0-.5.125-.5.28zm0 3.348v1.674c0 .154.223.279.5.279.276 0 .5-.125.5-.28v-1.673c0-.154-.224-.28-.5-.28-.277 0-.5.126-.5.28zm0 3.348v1.674c0 .154.223.28.5.28.276 0 .5-.126.5-.28v-1.674c0-.154-.224-.28-.5-.28-.277 0-.5.126-.5.28zm0 3.348v1.674c0 .154.223.28.5.28.276 0 .5-.126.5-.28v-1.674c0-.154-.224-.279-.5-.279-.277 0-.5.125-.5.28zm0 3.348v1.674c0 .155.223.28.5.28.276 0 .5-.125.5-.28V45.86c0-.154-.224-.279-.5-.279-.277 0-.5.125-.5.28zm0 3.349v1.674c0 .154.223.279.5.279.276 0 .5-.125.5-.28v-1.673c0-.155-.224-.28-.5-.28-.277 0-.5.125-.5.28zm0 3.348v1.674c0 .154.223.279.5.279.276 0 .5-.125.5-.28v-1.673c0-.154-.224-.28-.5-.28-.277 0-.5.126-.5.28zm0 3.348v1.674c0 .154.223.28.5.28.276 0 .5-.126.5-.28v-1.674c0-.154-.224-.279-.5-.279-.277 0-.5.125-.5.279z" mask="url(#agvl6klm0c)" opacity=".4"/>
                                <path fill="#FFF" fill-rule="nonzero" d="M89.559 34.42v-2.11c0-.234.056-.432.167-.593.112-.162.268-.243.47-.243.193 0 .333.065.42.196.089.13.133.307.133.53v2.22h1.275v-2.102c0-.11.013-.215.04-.316.025-.102.065-.192.12-.27.054-.078.122-.14.202-.187.08-.047.175-.07.284-.07.114 0 .206.021.276.066.07.044.126.103.167.176.042.072.07.16.086.261.015.102.023.207.023.317v2.125h1.276v-2.407c0-.182-.025-.368-.074-.558-.05-.19-.128-.362-.237-.516-.11-.153-.253-.278-.432-.375-.179-.096-.4-.144-.665-.144-.29 0-.537.06-.739.18-.202.12-.368.28-.498.484-.109-.214-.26-.378-.455-.492-.194-.115-.431-.172-.711-.172-.146 0-.279.018-.4.054-.123.037-.233.085-.331.145-.099.06-.183.129-.253.207-.07.078-.129.159-.175.242h-.016v-.539h-1.236v3.89h1.283zm7.855.125c.296 0 .573-.05.833-.149.259-.099.487-.238.684-.418.197-.18.353-.398.467-.656.114-.258.17-.546.17-.863 0-.318-.056-.604-.17-.86-.114-.255-.27-.471-.467-.648-.197-.177-.425-.313-.684-.406-.26-.094-.537-.141-.833-.141-.29 0-.566.047-.828.14-.262.094-.49.23-.684.407-.195.177-.349.393-.463.648-.114.256-.171.542-.171.86 0 .317.057.605.17.863.115.258.27.477.464.656.194.18.422.32.684.418.262.1.538.149.828.149zm.008-1.078c-.15 0-.282-.03-.396-.086-.115-.058-.21-.135-.288-.23-.078-.097-.136-.205-.175-.325-.04-.12-.059-.242-.059-.367s.02-.248.059-.367c.039-.12.096-.226.17-.317.076-.091.17-.165.285-.223.114-.057.246-.085.396-.085.15 0 .283.028.397.085.114.058.21.132.288.223.078.091.137.197.179.317.041.12.062.242.062.367s-.02.247-.058.367c-.04.12-.098.228-.175.324-.078.096-.174.173-.288.23-.114.058-.246.087-.397.087zm4.908 1.078c.296 0 .573-.05.832-.149.26-.099.488-.238.685-.418.197-.18.352-.398.466-.656.114-.258.171-.546.171-.863 0-.318-.057-.604-.17-.86-.115-.255-.27-.471-.467-.648-.197-.177-.426-.313-.685-.406-.259-.094-.536-.141-.832-.141-.29 0-.566.047-.828.14-.262.094-.49.23-.685.407-.194.177-.348.393-.463.648-.114.256-.17.542-.17.86 0 .317.056.605.17.863.115.258.269.477.463.656.195.18.423.32.685.418.262.1.538.149.828.149zm.008-1.078c-.15 0-.283-.03-.397-.086-.114-.058-.21-.135-.288-.23-.077-.097-.136-.205-.175-.325-.039-.12-.058-.242-.058-.367s.02-.248.058-.367c.04-.12.096-.226.171-.317.076-.091.17-.165.284-.223.114-.057.247-.085.397-.085.15 0 .283.028.397.085.114.058.21.132.287.223.078.091.138.197.18.317.04.12.062.242.062.367s-.02.247-.059.367c-.039.12-.097.228-.175.324-.078.096-.173.173-.288.23-.114.058-.246.087-.396.087zm4.239.953v-2.11c0-.11.014-.215.042-.316.029-.102.072-.192.129-.27.057-.078.128-.139.214-.183.085-.045.185-.067.3-.067.113 0 .208.022.283.067.075.044.134.104.175.18.041.075.071.162.09.261.018.1.027.203.027.313v2.125h1.283v-2.407c0-.192-.025-.385-.074-.578-.05-.192-.13-.363-.241-.511-.111-.149-.258-.27-.44-.364-.18-.093-.401-.14-.66-.14-.135 0-.262.018-.382.054-.119.037-.23.084-.33.141-.101.057-.19.126-.265.207-.075.08-.136.163-.182.246h-.016v-.539h-1.237v3.89h1.284zm5.335 1.875c.342 0 .655-.046.937-.137.283-.091.523-.23.72-.414.197-.185.35-.418.459-.7.109-.28.163-.611.163-.992V30.53h-1.205v.5h-.016c-.135-.208-.314-.362-.537-.46-.223-.1-.456-.15-.7-.15-.29 0-.55.057-.777.169-.229.112-.422.261-.58.449-.158.187-.279.403-.362.648-.083.245-.124.503-.124.774 0 .27.041.527.124.77.083.241.204.454.362.636s.351.327.58.434c.228.106.49.16.785.16.26 0 .49-.047.692-.14.203-.095.363-.22.483-.376h.023v.234c0 .329-.09.592-.268.79-.18.197-.455.296-.829.296-.218 0-.44-.04-.665-.12-.225-.081-.431-.205-.618-.372l-.638.914c.265.198.577.35.937.453.36.105.712.157 1.054.157zm.125-2.852c-.146 0-.274-.027-.385-.082-.112-.055-.206-.128-.284-.219-.078-.09-.138-.196-.18-.316-.04-.12-.061-.245-.061-.375 0-.136.02-.263.062-.383.041-.12.101-.224.179-.312.078-.089.172-.16.284-.211.111-.052.24-.078.385-.078.145 0 .274.026.389.078.114.052.212.123.295.214.083.092.147.197.19.317.045.12.067.245.067.375 0 .135-.022.263-.066.383-.044.12-.107.224-.187.312-.08.089-.179.16-.296.215-.116.055-.247.082-.392.082zm5.117 1.102c.296 0 .573-.05.833-.149.259-.099.487-.238.684-.418.197-.18.353-.398.467-.656.114-.258.17-.546.17-.863 0-.318-.056-.604-.17-.86-.114-.255-.27-.471-.467-.648-.197-.177-.425-.313-.684-.406-.26-.094-.537-.141-.833-.141-.29 0-.566.047-.828.14-.262.094-.49.23-.684.407-.195.177-.349.393-.463.648-.114.256-.171.542-.171.86 0 .317.057.605.17.863.115.258.27.477.464.656.194.18.422.32.684.418.262.1.538.149.828.149zm.008-1.078c-.15 0-.282-.03-.396-.086-.115-.058-.21-.135-.288-.23-.078-.097-.136-.205-.175-.325-.04-.12-.059-.242-.059-.367s.02-.248.059-.367c.039-.12.096-.226.17-.317.076-.091.17-.165.285-.223.114-.057.246-.085.396-.085.15 0 .283.028.397.085.114.058.21.132.288.223.078.091.137.197.179.317.041.12.062.242.062.367s-.02.247-.058.367c-.04.12-.098.228-.175.324-.078.096-.174.173-.288.23-.114.058-.246.087-.397.087zm4.231.953v-2c0-.078.016-.17.047-.274.031-.104.082-.2.152-.289.07-.088.163-.164.28-.226.116-.063.26-.094.431-.094.052 0 .105.002.16.008.054.005.11.015.167.03l.054-1.124c-.03-.01-.07-.018-.12-.024-.05-.005-.1-.007-.152-.007-.238 0-.448.062-.63.187-.181.125-.321.287-.42.485h-.015v-.563h-1.23v3.89h1.276zm2.458-4.43c.099 0 .193-.018.284-.055.09-.036.169-.086.233-.148.065-.063.117-.137.156-.223.039-.086.058-.178.058-.277 0-.1-.02-.192-.058-.278-.039-.085-.09-.16-.156-.222-.064-.063-.142-.112-.233-.149-.09-.036-.185-.054-.284-.054-.104 0-.2.02-.288.058-.088.04-.166.09-.233.153-.067.062-.12.136-.156.222-.036.086-.054.176-.054.27 0 .193.07.358.21.496.14.138.314.207.521.207zm.638 4.43v-3.891h-1.276v3.89h1.276z" mask="url(#agvl6klm0c)" opacity=".4" transform="rotate(90 106.429 32.44)"/>
                            </g>
                            <g fill="#FFF" fill-rule="nonzero">
                                <g>
                                    <path d="M52.271 11.612V5.379h-1.173v4.777H49.56v.804h1.538v.652h1.173zm-4.284-3.018c1.19 0 2.035-.59 2.035-1.465 0-.875-.844-1.473-2.035-1.473-1.2 0-2.045.598-2.045 1.473 0 .875.845 1.465 2.045 1.465zm0-.857c-.551 0-.934-.206-.934-.608 0-.401.383-.616.934-.616.542 0 .924.215.924.616 0 .402-.382.608-.924.608zm4.462 5.723v-.938H47.55v-1.125h1.129V9.844c.658-.045 1.316-.116 1.956-.232l-.08-.84c-1.725.224-3.716.241-5.21.25l.152.938c.613 0 1.298-.01 2.018-.045v1.098h-1.138v2.447h6.07zM4.733 13.536c.593 0 1.154-.087 1.685-.26.53-.172.997-.426 1.4-.763.403-.336.723-.751.96-1.245.237-.494.355-1.063.355-1.706 0-.755-.19-1.383-.569-1.883-.379-.5-.954-.872-1.724-1.117.32-.107.606-.24.858-.401.252-.161.465-.357.64-.59.175-.232.308-.504.4-.817.092-.312.138-.674.138-1.084 0-.47-.09-.908-.272-1.313-.18-.405-.44-.757-.777-1.058C7.489 1 7.08.763 6.604.594 6.127.424 5.593.339 5 .339c-.569 0-1.1.08-1.596.237-.494.158-.933.393-1.315.705-.382.313-.7.703-.956 1.17C.88 2.918.707 3.46.618 4.08l1.155.205c.107.018.208.027.303.027.201 0 .364-.05.488-.148.125-.098.223-.26.294-.486.136-.435.376-.79.72-1.067.343-.277.776-.416 1.298-.416.574 0 1.028.157 1.36.47.331.312.497.774.497 1.388 0 .285-.041.547-.124.785-.083.238-.23.442-.44.612-.21.17-.493.302-.849.397-.356.095-.803.146-1.342.152v1.571c.652 0 1.172.051 1.56.152.388.101.686.241.893.42.208.178.344.394.409.647s.098.534.098.844c0 .244-.046.487-.138.728-.092.24-.231.46-.418.656-.186.196-.419.356-.698.478-.278.122-.604.183-.977.183-.332 0-.618-.05-.858-.148-.24-.098-.449-.226-.627-.384-.178-.157-.33-.337-.458-.54-.127-.202-.244-.408-.35-.616-.066-.125-.16-.22-.28-.286-.122-.065-.26-.098-.414-.098-.172 0-.34.036-.507.107l-.969.402c.178.554.392 1.042.64 1.464.25.423.552.78.907 1.072.356.291.773.512 1.253.66.48.15 1.043.224 1.69.224zm6.4 2.393c.314-.25.593-.524.836-.822.243-.297.447-.604.613-.92.166-.315.292-.63.378-.946.086-.315.129-.616.129-.902 0-.202-.027-.394-.08-.576-.053-.181-.136-.342-.249-.482-.113-.14-.252-.25-.418-.33-.166-.08-.361-.12-.586-.12-.19 0-.365.03-.525.093-.16.063-.296.149-.409.259-.112.11-.2.238-.262.384-.062.146-.093.302-.093.469 0 .19.03.366.093.527.062.16.148.3.258.42.11.118.241.212.395.28.154.069.323.103.507.103-.036.179-.093.347-.173.505-.08.157-.168.303-.263.437-.094.134-.19.253-.284.357l-.24.264c-.047.047-.087.1-.12.16s-.049.113-.049.161c0 .131.053.241.16.33l.382.349zm7.76-2.393c.67 0 1.294-.133 1.871-.398.578-.264 1.079-.668 1.503-1.21.423-.541.755-1.227.995-2.057.24-.83.36-1.809.36-2.934 0-1.13-.12-2.11-.36-2.937s-.572-1.512-.995-2.054c-.424-.541-.925-.945-1.503-1.21-.577-.264-1.201-.397-1.87-.397-.67 0-1.291.133-1.863.398-.572.264-1.068.668-1.489 1.21-.42.541-.75 1.226-.986 2.053-.237.827-.356 1.807-.356 2.938 0 1.125.119 2.102.356 2.933.237.83.565 1.516.986 2.058.421.541.917.945 1.49 1.21.571.264 1.192.397 1.861.397zm0-1.83c-.314 0-.617-.074-.91-.22-.294-.145-.553-.4-.779-.763-.225-.363-.404-.851-.537-1.464-.134-.613-.2-1.387-.2-2.322 0-.934.066-1.708.2-2.32.133-.614.312-1.102.537-1.465.226-.363.485-.618.778-.764.294-.145.597-.218.911-.218.32 0 .628.073.925.218.296.146.558.4.786.764.229.363.41.851.547 1.464.136.613.205 1.387.205 2.322 0 .934-.069 1.708-.205 2.32-.136.614-.318 1.102-.547 1.465-.228.363-.49.618-.786.764-.297.145-.605.218-.925.218zm10.311 1.83c.67 0 1.294-.133 1.872-.398.577-.264 1.078-.668 1.502-1.21.423-.541.755-1.227.995-2.057.24-.83.36-1.809.36-2.934 0-1.13-.12-2.11-.36-2.937s-.572-1.512-.995-2.054c-.424-.541-.925-.945-1.502-1.21C30.498.473 29.874.34 29.204.34c-.67 0-1.29.133-1.862.398-.572.264-1.068.668-1.489 1.21-.42.541-.75 1.226-.986 2.053-.237.827-.356 1.807-.356 2.938 0 1.125.119 2.102.356 2.933.237.83.566 1.516.986 2.058.421.541.917.945 1.49 1.21.571.264 1.192.397 1.861.397zm0-1.83c-.314 0-.617-.074-.91-.22-.294-.145-.553-.4-.778-.763-.226-.363-.405-.851-.538-1.464-.134-.613-.2-1.387-.2-2.322 0-.934.066-1.708.2-2.32.133-.614.312-1.102.538-1.465.225-.363.484-.618.777-.764.294-.145.597-.218.911-.218.32 0 .629.073.925.218.296.146.558.4.787.764.228.363.41.851.546 1.464.137.613.205 1.387.205 2.322 0 .934-.068 1.708-.205 2.32-.136.614-.318 1.102-.546 1.465-.229.363-.49.618-.787.764-.296.145-.605.218-.925.218zm10.312 1.83c.67 0 1.293-.133 1.87-.398.578-.264 1.08-.668 1.503-1.21.424-.541.755-1.227.995-2.057.24-.83.36-1.809.36-2.934 0-1.13-.12-2.11-.36-2.937s-.571-1.512-.995-2.054c-.424-.541-.925-.945-1.502-1.21C40.809.473 40.185.34 39.516.34c-.67 0-1.29.133-1.863.398-.572.264-1.068.668-1.489 1.21-.42.541-.75 1.226-.986 2.053-.237.827-.356 1.807-.356 2.938 0 1.125.119 2.102.356 2.933.237.83.566 1.516.986 2.058.421.541.917.945 1.49 1.21.571.264 1.192.397 1.862.397zm0-1.83c-.315 0-.618-.074-.912-.22-.293-.145-.552-.4-.777-.763-.226-.363-.405-.851-.538-1.464s-.2-1.387-.2-2.322c0-.934.067-1.708.2-2.32.133-.614.312-1.102.538-1.465.225-.363.484-.618.777-.764.294-.145.597-.218.912-.218.32 0 .628.073.924.218.296.146.559.4.787.764.228.363.41.851.546 1.464.137.613.205 1.387.205 2.322 0 .934-.068 1.708-.205 2.32-.136.614-.318 1.102-.546 1.465-.228.363-.49.618-.787.764-.296.145-.604.218-.924.218z" transform="translate(-750 -744) translate(512 150) translate(0 496) translate(237 98) rotate(5 -7.824 75.457) translate(10.889 11.045) translate(.556 27.902)"/>
                                </g>
                                <path d="M6.284 5.423V.181H5.25v5.242h1.034zm-5.452-.96c.832-.29 1.392-.876 1.72-1.603.31.672.855 1.204 1.648 1.477l.521-.82C3.554 3.142 3.057 2.22 3.057 1.275V.57H2.014v.704c0 .953-.513 1.96-1.703 2.367l.521.82zm5.631 2.78v-.82h-3.92v-1.5H1.517v2.32h4.946zm3.361.14v-2.89h1.463v2.89h1.019v-2.89h1.524v-.836h-1.027c.203-1.18.203-2.015.203-2.625v-.46H8.113v.835h3.874c-.008.563-.04 1.29-.218 2.25h-4.41v.836h1.447v2.89h1.018zm10.517-.015V.173h-1.027v7.195h1.027zm-1.493-5.593V.97h-1.634V.196h-1.026V.97h-1.641v.805h4.3zm.17 4.101l-.077-.742c-.56.078-1.143.117-1.727.148v-.57c.763-.148 1.26-.633 1.26-1.297 0-.812-.73-1.36-1.773-1.36-1.05 0-1.781.548-1.781 1.36 0 .664.498 1.149 1.268 1.297v.61c-.638.015-1.245.015-1.781.015l.124.836c1.268 0 2.925-.008 4.488-.297zm-2.317-1.89c-.474 0-.801-.204-.801-.57 0-.376.327-.579.801-.579.482 0 .801.203.801.578 0 .367-.319.57-.8.57zm10.711 1.64V.173h-1.026v4.18H25.04v.703h1.346v.57h1.026zm-3.749-2.64c1.043 0 1.781-.516 1.781-1.282 0-.765-.738-1.289-1.78-1.289-1.05 0-1.79.524-1.79 1.29 0 .765.74 1.28 1.79 1.28zm0-.75c-.482 0-.816-.18-.816-.532 0-.351.334-.539.816-.539.475 0 .81.188.81.54 0 .35-.335.53-.81.53zm3.905 5.007v-.82h-4.286v-.984h.988v-1.36c.576-.039 1.151-.101 1.711-.203l-.07-.734c-1.509.195-3.251.21-4.558.218l.133.82c.536 0 1.135-.007 1.765-.038v.96h-.995v2.141h5.312zm6.675-5.765V.704H32.65V.118h-1.035v.586H30.02v.774h4.223zm1.424 2.578V2.54h.949v-.844h-.95V.166H34.64v3.89h1.027zM32.136 4c1.065 0 1.757-.453 1.757-1.172 0-.726-.692-1.18-1.757-1.18-1.058 0-1.758.454-1.758 1.18 0 .719.7 1.172 1.758 1.172zm0-.726c-.475 0-.778-.149-.778-.446 0-.304.303-.453.778-.453.474 0 .777.149.777.453 0 .297-.303.446-.777.446zm3.733 4.039v-.75h-3.905v-.399h3.703V4.337h-4.73v.75h3.719v.375h-3.71v1.852h4.923zm7.125-1.97V.182H41.96v5.164h1.034zm-3.896-1.062c1.096 0 1.944-.773 1.944-1.82 0-1.062-.848-1.828-1.944-1.828-1.097 0-1.952.766-1.952 1.828 0 1.047.855 1.82 1.952 1.82zm0-.89c-.53 0-.95-.352-.95-.93 0-.594.42-.937.95-.937.536 0 .94.343.94.937 0 .578-.404.93-.94.93zm4.075 3.851v-.82h-3.92V4.837h-1.026v2.406h4.946zm4.637.11V4.806h2.73V3.97h-.949c.241-1.172.241-2.008.241-2.75V.57h-5.016v.82h4.028c0 .235 0 .477-.015.735l-4.247.133.117.875 4.06-.211c-.039.32-.093.672-.179 1.047h-4.511v.836h2.714v2.547h1.027zm9.739-2.602v-.82h-2.73v-.649h2.1V2.47h-.856V1.259h.91v-.82h-5.327v.82h.91v1.21h-.864v.813h2.1v.649h-2.714v.82h6.47zM55.044 2.47h-1.47V1.259h1.47v1.21zm1.782 4.773v-.82H52.89v-1.21h-1.027v2.03h4.963z" transform="translate(-750 -744) translate(512 150) translate(0 496) translate(237 98) rotate(5 -7.824 75.457) translate(10.889 11.045)"/>
                            </g>
                        </g>
                        <g transform="translate(-750 -744) translate(512 150) translate(0 496) translate(237 98) translate(58 28)">
                            <g fill="#000" filter="url(#u69m3abtzd)" opacity=".1">
                                <use filter="url(#mnzq7h22ue)" xlink:href="#aa9ih37g3f"/>
                                <use xlink:href="#aa9ih37g3f"/>
                            </g>
                            <g>
                                <use fill="#000" filter="url(#xo129htkag)" xlink:href="#qfx1grnwyh"/>
                                <ellipse cx="59.023" cy="28.872" fill="#D0A70B" stroke="#1C1814" rx="29.384" ry="29.372"/>
                            </g>
                            <path fill="#FFD73E" stroke="#1C1814" stroke-linecap="round" d="M104.392 43.903c-11.633-3.398-35.829-19.215-29.153-27.076 7.873-6.706 12.58 10.277 22.437 12.145 4.473 8.378 10.254 16.681 6.716 14.931z" transform="scale(-1 1) rotate(10 0 -996.61)"/>
                            <path fill="#FFD73E" stroke="#1C1814" stroke-linecap="round" d="M32.81 43.903C21.178 40.505-3.019 24.688 3.658 16.827c7.873-6.706 12.58 10.277 22.436 12.145 4.474 8.378 10.255 16.681 6.716 14.931z" transform="rotate(10 18.21 29.703)"/>
                            <path stroke="#1C1814" stroke-linecap="round" d="M8.63 8.666c3.67-2.104 6.6-1.502 8.79 1.805" transform="rotate(5 13.026 8.955)"/>
                            <path stroke="#1C1814" stroke-linecap="round" d="M13.408 4.196c1.979-.587 3.444-.175 4.395 1.235" transform="rotate(5 15.605 4.684)"/>
                            <ellipse cx="54" cy="28.872" fill="#FFD73E" stroke="#1C1814" rx="29.384" ry="29.372"/>
                            <path stroke="#1C1814" stroke-dasharray="2" stroke-linecap="round" d="M54 53.979c13.871 0 25.116-11.24 25.116-25.107C79.116 15.006 67.871 3.766 54 3.766s-25.116 11.24-25.116 25.106C28.884 42.738 40.129 53.98 54 53.98z" opacity=".7"/>
                            <path fill="#1C1814" d="M45.837 25.106c1.04 0 1.884.843 1.884 1.883s-.843 1.883-1.884 1.883c-1.04 0-1.884-.843-1.884-1.883s.844-1.883 1.884-1.883zm16.326 0c1.04 0 1.884.843 1.884 1.883s-.844 1.883-1.884 1.883-1.884-.843-1.884-1.883.843-1.883 1.884-1.883z"/>
                            <path stroke="#1C1814" stroke-linecap="round" d="M46.465 33.894c5.023 3.347 10.047 3.347 15.07 0"/>
                        </g>
                    </g>
                </g>
            </g>
        </g>
    </g>
</svg>
