<svg xmlns="http://www.w3.org/2000/svg" xmlns:xlink="http://www.w3.org/1999/xlink" width="224" height="122" viewBox="0 0 224 122">
  <defs>
    <path id="coupon_slice-a" d="M214,0 C215.104569,-2.02906125e-16 216,0.8954305 216,2 L216.000019,46.2000324 C211.435529,47.1265656 208,51.1620774 208,56 C208,60.8379226 211.435529,64.8734344 216.000019,65.7999676 L216,110 C216,111.104569 215.104569,112 214,112 L2,112 C0.8954305,112 1.3527075e-16,111.104569 0,110 L0,2 C-1.3527075e-16,0.8954305 0.8954305,2.02906125e-16 2,0 L214,0 Z"/>
    <filter id="coupon_slice-b" width="106.5%" height="112.5%" x="-3.2%" y="-4.5%" filterUnits="objectBoundingBox">
      <feOffset dy="2" in="SourceAlpha" result="shadowOffsetOuter1"/>
      <feGaussianBlur in="shadowOffsetOuter1" result="shadowBlurOuter1" stdDeviation="2"/>
      <feColorMatrix in="shadowBlurOuter1" values="0 0 0 0 0   0 0 0 0 0   0 0 0 0 0  0 0 0 0.16 0"/>
    </filter>
  </defs>
  <g fill="none" fill-rule="evenodd" transform="translate(4)">
    <mask id="coupon_slice-c" fill="#fff">
      <use xlink:href="#coupon_slice-a"/>
    </mask>
    <use fill="#000" filter="url(#coupon_slice-b)" xlink:href="#coupon_slice-a"/>
    <use fill="#1EC68C" xlink:href="#coupon_slice-a"/>
    <path fill="#1C1814" fill-rule="nonzero" d="M136.045668,55.5090665 C139.752854,55.5090665 143.31229,54.8106111 146.723976,53.4137005 C150.135662,52.0167898 153.13096,50.0423103 155.709872,47.4902619 C158.288784,44.9382136 160.357287,41.8891874 161.915379,38.3431833 C163.473472,34.7971793 164.252518,30.8750839 164.252518,26.5768972 C164.252518,22.1175285 163.554063,18.0745467 162.157152,14.4479516 C160.760242,10.8213566 158.812626,7.71860309 156.314305,5.13969107 C153.815984,2.56077905 150.834117,0.559435863 147.368704,-0.864338482 C143.903291,-2.28811283 140.128946,-3 136.045668,-3 C131.962391,-3 128.214909,-2.28811283 124.803224,-0.864338482 C121.391538,0.559435863 118.436535,2.56077905 115.938214,5.13969107 C113.439893,7.71860309 111.492277,10.8213566 110.095366,14.4479516 C108.698455,18.0745467 108,22.1175285 108,26.5768972 C108,30.8750839 108.698455,34.7971793 110.095366,38.3431833 C111.492277,41.8891874 113.439893,44.9382136 115.938214,47.4902619 C118.436535,50.0423103 121.391538,52.0167898 124.803224,53.4137005 C128.214909,54.8106111 131.962391,55.5090665 136.045668,55.5090665 Z M131.37139,115.549362 C133.090665,115.549362 134.554735,115.213566 135.7636,114.541974 C136.972465,113.870383 137.979852,113.024177 138.785762,112.003358 L138.785762,112.003358 L227.274681,-1.87172599 L209.061115,-1.87172599 C206.965749,-1.87172599 205.327065,-1.48220282 204.145064,-0.703156481 C202.963062,0.075889859 201.969107,0.922095366 201.163197,1.83546004 L201.163197,1.83546004 L112.674278,115.549362 L131.37139,115.549362 Z M136.045668,39.9550034 C134.756212,39.9550034 133.574211,39.740094 132.499664,39.3102754 C131.425118,38.8804567 130.511753,38.1551377 129.75957,37.1343183 C129.007388,36.113499 128.416387,34.743452 127.986568,33.0241773 C127.556749,31.3049026 127.34184,29.1558093 127.34184,26.5768972 C127.34184,23.8368032 127.556749,21.5668234 127.986568,19.7669577 C128.416387,17.967092 129.007388,16.5298858 129.75957,15.4553392 C130.511753,14.3807925 131.425118,13.6286098 132.499664,13.1987911 C133.574211,12.7689725 134.756212,12.5540631 136.045668,12.5540631 C137.335124,12.5540631 138.530557,12.7689725 139.631968,13.1987911 C140.733378,13.6286098 141.687038,14.3807925 142.492948,15.4553392 C143.298858,16.5298858 143.930154,17.967092 144.386837,19.7669577 C144.843519,21.5668234 145.07186,23.8368032 145.07186,26.5768972 C145.07186,29.1558093 144.843519,31.3049026 144.386837,33.0241773 C143.930154,34.743452 143.298858,36.113499 142.492948,37.1343183 C141.687038,38.1551377 140.733378,38.8804567 139.631968,39.3102754 C138.530557,39.740094 137.335124,39.9550034 136.045668,39.9550034 Z M203.580927,117 C207.288113,117 210.847549,116.301545 214.259234,114.904634 C217.67092,113.507723 220.666219,111.533244 223.245131,108.981195 C225.824043,106.429147 227.892545,103.366689 229.450638,99.7938214 C231.008731,96.2209537 231.787777,92.2854265 231.787777,87.9872398 C231.787777,83.5278711 231.089322,79.4848892 229.692411,75.8582942 C228.2955,72.2316991 226.347884,69.1289456 223.849563,66.5500336 C221.351242,63.9711216 218.369375,61.9697784 214.903962,60.546004 C211.438549,59.1222297 207.664204,58.4103425 203.580927,58.4103425 C199.497649,58.4103425 195.750168,59.1222297 192.338482,60.546004 C188.926797,61.9697784 185.971793,63.9711216 183.473472,66.5500336 C180.975151,69.1289456 179.027535,72.2316991 177.630625,75.8582942 C176.233714,79.4848892 175.535259,83.5278711 175.535259,87.9872398 C175.535259,92.2854265 176.233714,96.2209537 177.630625,99.7938214 C179.027535,103.366689 180.975151,106.429147 183.473472,108.981195 C185.971793,111.533244 188.926797,113.507723 192.338482,114.904634 C195.750168,116.301545 199.497649,117 203.580927,117 Z M203.580927,101.365346 C202.291471,101.365346 201.109469,101.150437 200.034923,100.720618 C198.960376,100.290799 198.047011,99.5654802 197.294829,98.5446608 C196.542646,97.5238415 195.951645,96.1537945 195.521827,94.4345198 C195.092008,92.7152451 194.877099,90.5661518 194.877099,87.9872398 C194.877099,85.3008731 195.092008,83.0577569 195.521827,81.2578912 C195.951645,79.4580255 196.542646,78.0208193 197.294829,76.9462727 C198.047011,75.871726 198.960376,75.1195433 200.034923,74.6897246 C201.109469,74.259906 202.291471,74.0449966 203.580927,74.0449966 C204.870383,74.0449966 206.065816,74.259906 207.167226,74.6897246 C208.268637,75.1195433 209.222297,75.871726 210.028207,76.9462727 C210.834117,78.0208193 211.465413,79.4580255 211.922095,81.2578912 C212.378778,83.0577569 212.607119,85.3008731 212.607119,87.9872398 C212.607119,90.5661518 212.378778,92.7152451 211.922095,94.4345198 C211.465413,96.1537945 210.834117,97.5238415 210.028207,98.5446608 C209.222297,99.5654802 208.268637,100.290799 207.167226,100.720618 C206.065816,101.150437 204.870383,101.365346 203.580927,101.365346 Z" mask="url(#coupon_slice-c)" opacity=".028"/>
    <path fill="#F4F4F4" fill-rule="nonzero" d="M167.5,9.18 L167.5,12.18 C167.5,12.4561424 167.723858,12.68 168,12.68 C168.276142,12.68 168.5,12.4561424 168.5,12.18 L168.5,9.18 C168.5,8.90385763 168.276142,8.68 168,8.68 C167.723858,8.68 167.5,8.90385763 167.5,9.18 Z M167.5,15.18 L167.5,18.18 C167.5,18.4561424 167.723858,18.68 168,18.68 C168.276142,18.68 168.5,18.4561424 168.5,18.18 L168.5,15.18 C168.5,14.9038576 168.276142,14.68 168,14.68 C167.723858,14.68 167.5,14.9038576 167.5,15.18 Z M167.5,21.18 L167.5,24.18 C167.5,24.4561424 167.723858,24.68 168,24.68 C168.276142,24.68 168.5,24.4561424 168.5,24.18 L168.5,21.18 C168.5,20.9038576 168.276142,20.68 168,20.68 C167.723858,20.68 167.5,20.9038576 167.5,21.18 Z M167.5,27.18 L167.5,30.18 C167.5,30.4561424 167.723858,30.68 168,30.68 C168.276142,30.68 168.5,30.4561424 168.5,30.18 L168.5,27.18 C168.5,26.9038576 168.276142,26.68 168,26.68 C167.723858,26.68 167.5,26.9038576 167.5,27.18 Z M167.5,33.18 L167.5,36.18 C167.5,36.4561424 167.723858,36.68 168,36.68 C168.276142,36.68 168.5,36.4561424 168.5,36.18 L168.5,33.18 C168.5,32.9038576 168.276142,32.68 168,32.68 C167.723858,32.68 167.5,32.9038576 167.5,33.18 Z M167.5,39.18 L167.5,42.18 C167.5,42.4561424 167.723858,42.68 168,42.68 C168.276142,42.68 168.5,42.4561424 168.5,42.18 L168.5,39.18 C168.5,38.9038576 168.276142,38.68 168,38.68 C167.723858,38.68 167.5,38.9038576 167.5,39.18 Z M167.5,45.18 L167.5,48.18 C167.5,48.4561424 167.723858,48.68 168,48.68 C168.276142,48.68 168.5,48.4561424 168.5,48.18 L168.5,45.18 C168.5,44.9038576 168.276142,44.68 168,44.68 C167.723858,44.68 167.5,44.9038576 167.5,45.18 Z M167.5,51.18 L167.5,54.18 C167.5,54.4561424 167.723858,54.68 168,54.68 C168.276142,54.68 168.5,54.4561424 168.5,54.18 L168.5,51.18 C168.5,50.9038576 168.276142,50.68 168,50.68 C167.723858,50.68 167.5,50.9038576 167.5,51.18 Z M167.5,57.18 L167.5,60.18 C167.5,60.4561424 167.723858,60.68 168,60.68 C168.276142,60.68 168.5,60.4561424 168.5,60.18 L168.5,57.18 C168.5,56.9038576 168.276142,56.68 168,56.68 C167.723858,56.68 167.5,56.9038576 167.5,57.18 Z M167.5,63.18 L167.5,66.18 C167.5,66.4561424 167.723858,66.68 168,66.68 C168.276142,66.68 168.5,66.4561424 168.5,66.18 L168.5,63.18 C168.5,62.9038576 168.276142,62.68 168,62.68 C167.723858,62.68 167.5,62.9038576 167.5,63.18 Z M167.5,69.18 L167.5,72.18 C167.5,72.4561424 167.723858,72.68 168,72.68 C168.276142,72.68 168.5,72.4561424 168.5,72.18 L168.5,69.18 C168.5,68.9038576 168.276142,68.68 168,68.68 C167.723858,68.68 167.5,68.9038576 167.5,69.18 Z M167.5,75.18 L167.5,78.18 C167.5,78.4561424 167.723858,78.68 168,78.68 C168.276142,78.68 168.5,78.4561424 168.5,78.18 L168.5,75.18 C168.5,74.9038576 168.276142,74.68 168,74.68 C167.723858,74.68 167.5,74.9038576 167.5,75.18 Z M167.5,81.18 L167.5,84.18 C167.5,84.4561424 167.723858,84.68 168,84.68 C168.276142,84.68 168.5,84.4561424 168.5,84.18 L168.5,81.18 C168.5,80.9038576 168.276142,80.68 168,80.68 C167.723858,80.68 167.5,80.9038576 167.5,81.18 Z M167.5,87.18 L167.5,90.18 C167.5,90.4561424 167.723858,90.68 168,90.68 C168.276142,90.68 168.5,90.4561424 168.5,90.18 L168.5,87.18 C168.5,86.9038576 168.276142,86.68 168,86.68 C167.723858,86.68 167.5,86.9038576 167.5,87.18 Z M167.5,93.18 L167.5,96.18 C167.5,96.4561424 167.723858,96.68 168,96.68 C168.276142,96.68 168.5,96.4561424 168.5,96.18 L168.5,93.18 C168.5,92.9038576 168.276142,92.68 168,92.68 C167.723858,92.68 167.5,92.9038576 167.5,93.18 Z M167.5,99.18 L167.5,102.18 C167.5,102.456142 167.723858,102.68 168,102.68 C168.276142,102.68 168.5,102.456142 168.5,102.18 L168.5,99.18 C168.5,98.9038576 168.276142,98.68 168,98.68 C167.723858,98.68 167.5,98.9038576 167.5,99.18 Z" opacity=".4"/>
    <path fill="#FFF" fill-rule="nonzero" d="M161.206,60.68 L161.206,56.9 C161.206,56.48 161.306333,56.1253333 161.507,55.836 C161.707667,55.5466667 161.99,55.402 162.354,55.402 C162.699333,55.402 162.951333,55.5186667 163.11,55.752 C163.268667,55.9853333 163.348,56.3026667 163.348,56.704 L163.348,56.704 L163.348,60.68 L165.644,60.68 L165.644,56.914 C165.644,56.718 165.667333,56.529 165.714,56.347 C165.760667,56.165 165.833,56.004 165.931,55.864 C166.029,55.724 166.150333,55.612 166.295,55.528 C166.439667,55.444 166.61,55.402 166.806,55.402 C167.011333,55.402 167.177,55.4416667 167.303,55.521 C167.429,55.6003333 167.529333,55.7053333 167.604,55.836 C167.678667,55.9666667 167.73,56.123 167.758,56.305 C167.786,56.487 167.8,56.676 167.8,56.872 L167.8,56.872 L167.8,60.68 L170.096,60.68 L170.096,56.368 C170.096,56.0413333 170.051667,55.7076667 169.963,55.367 C169.874333,55.0263333 169.732,54.7183333 169.536,54.443 C169.34,54.1676667 169.081,53.9436667 168.759,53.771 C168.437,53.5983333 168.038,53.512 167.562,53.512 C167.039333,53.512 166.596,53.6193333 166.232,53.834 C165.868,54.0486667 165.569333,54.338 165.336,54.702 C165.14,54.3193333 164.867,54.0253333 164.517,53.82 C164.167,53.6146667 163.74,53.512 163.236,53.512 C162.974667,53.512 162.734333,53.5446667 162.515,53.61 C162.295667,53.6753333 162.097333,53.7616667 161.92,53.869 C161.742667,53.9763333 161.591,54.1 161.465,54.24 C161.339,54.38 161.234,54.5246667 161.15,54.674 L161.15,54.674 L161.122,54.674 L161.122,53.708 L158.896,53.708 L158.896,60.68 L161.206,60.68 Z M175.346,60.904 C175.878,60.904 176.377333,60.8153333 176.844,60.638 C177.310667,60.4606667 177.721333,60.211 178.076,59.889 C178.430667,59.567 178.710667,59.175 178.916,58.713 C179.121333,58.251 179.224,57.7353333 179.224,57.166 C179.224,56.5966667 179.121333,56.0833333 178.916,55.626 C178.710667,55.1686667 178.430667,54.7813333 178.076,54.464 C177.721333,54.1466667 177.310667,53.904 176.844,53.736 C176.377333,53.568 175.878,53.484 175.346,53.484 C174.823333,53.484 174.326333,53.568 173.855,53.736 C173.383667,53.904 172.973,54.1466667 172.623,54.464 C172.273,54.7813333 171.995333,55.1686667 171.79,55.626 C171.584667,56.0833333 171.482,56.5966667 171.482,57.166 C171.482,57.7353333 171.584667,58.251 171.79,58.713 C171.995333,59.175 172.273,59.567 172.623,59.889 C172.973,60.211 173.383667,60.4606667 173.855,60.638 C174.326333,60.8153333 174.823333,60.904 175.346,60.904 Z M175.36,58.972 C175.089333,58.972 174.851333,58.9206667 174.646,58.818 C174.440667,58.7153333 174.268,58.5776667 174.128,58.405 C173.988,58.2323333 173.883,58.0386667 173.813,57.824 C173.743,57.6093333 173.708,57.39 173.708,57.166 C173.708,56.942 173.743,56.7226667 173.813,56.508 C173.883,56.2933333 173.985667,56.1043333 174.121,55.941 C174.256333,55.7776667 174.426667,55.6446667 174.632,55.542 C174.837333,55.4393333 175.075333,55.388 175.346,55.388 C175.616667,55.388 175.854667,55.4393333 176.06,55.542 C176.265333,55.6446667 176.438,55.7776667 176.578,55.941 C176.718,56.1043333 176.825333,56.2933333 176.9,56.508 C176.974667,56.7226667 177.012,56.942 177.012,57.166 C177.012,57.39 176.977,57.6093333 176.907,57.824 C176.837,58.0386667 176.732,58.2323333 176.592,58.405 C176.452,58.5776667 176.279333,58.7153333 176.074,58.818 C175.868667,58.9206667 175.630667,58.972 175.36,58.972 Z M184.194,60.904 C184.726,60.904 185.225333,60.8153333 185.692,60.638 C186.158667,60.4606667 186.569333,60.211 186.924,59.889 C187.278667,59.567 187.558667,59.175 187.764,58.713 C187.969333,58.251 188.072,57.7353333 188.072,57.166 C188.072,56.5966667 187.969333,56.0833333 187.764,55.626 C187.558667,55.1686667 187.278667,54.7813333 186.924,54.464 C186.569333,54.1466667 186.158667,53.904 185.692,53.736 C185.225333,53.568 184.726,53.484 184.194,53.484 C183.671333,53.484 183.174333,53.568 182.703,53.736 C182.231667,53.904 181.821,54.1466667 181.471,54.464 C181.121,54.7813333 180.843333,55.1686667 180.638,55.626 C180.432667,56.0833333 180.33,56.5966667 180.33,57.166 C180.33,57.7353333 180.432667,58.251 180.638,58.713 C180.843333,59.175 181.121,59.567 181.471,59.889 C181.821,60.211 182.231667,60.4606667 182.703,60.638 C183.174333,60.8153333 183.671333,60.904 184.194,60.904 Z M184.208,58.972 C183.937333,58.972 183.699333,58.9206667 183.494,58.818 C183.288667,58.7153333 183.116,58.5776667 182.976,58.405 C182.836,58.2323333 182.731,58.0386667 182.661,57.824 C182.591,57.6093333 182.556,57.39 182.556,57.166 C182.556,56.942 182.591,56.7226667 182.661,56.508 C182.731,56.2933333 182.833667,56.1043333 182.969,55.941 C183.104333,55.7776667 183.274667,55.6446667 183.48,55.542 C183.685333,55.4393333 183.923333,55.388 184.194,55.388 C184.464667,55.388 184.702667,55.4393333 184.908,55.542 C185.113333,55.6446667 185.286,55.7776667 185.426,55.941 C185.566,56.1043333 185.673333,56.2933333 185.748,56.508 C185.822667,56.7226667 185.86,56.942 185.86,57.166 C185.86,57.39 185.825,57.6093333 185.755,57.824 C185.685,58.0386667 185.58,58.2323333 185.44,58.405 C185.3,58.5776667 185.127333,58.7153333 184.922,58.818 C184.716667,58.9206667 184.478667,58.972 184.208,58.972 Z M191.838,60.68 L191.838,56.9 C191.838,56.704 191.863667,56.515 191.915,56.333 C191.966333,56.151 192.043333,55.99 192.146,55.85 C192.248667,55.71 192.377,55.6003333 192.531,55.521 C192.685,55.4416667 192.864667,55.402 193.07,55.402 C193.275333,55.402 193.445667,55.4416667 193.581,55.521 C193.716333,55.6003333 193.821333,55.7076667 193.896,55.843 C193.970667,55.9783333 194.024333,56.1346667 194.057,56.312 C194.089667,56.4893333 194.106,56.676 194.106,56.872 L194.106,56.872 L194.106,60.68 L196.416,60.68 L196.416,56.368 C196.416,56.0226667 196.371667,55.6773333 196.283,55.332 C196.194333,54.9866667 196.049667,54.681 195.849,54.415 C195.648333,54.149 195.384667,53.932 195.058,53.764 C194.731333,53.596 194.334667,53.512 193.868,53.512 C193.625333,53.512 193.396667,53.5446667 193.182,53.61 C192.967333,53.6753333 192.769,53.7593333 192.587,53.862 C192.405,53.9646667 192.246333,54.0883333 192.111,54.233 C191.975667,54.3776667 191.866,54.5246667 191.782,54.674 L191.782,54.674 L191.754,54.674 L191.754,53.708 L189.528,53.708 L189.528,60.68 L191.838,60.68 Z M201.442,64.04 C202.058,64.04 202.620333,63.9583333 203.129,63.795 C203.637667,63.6316667 204.069333,63.3843333 204.424,63.053 C204.778667,62.7216667 205.054,62.304 205.25,61.8 C205.446,61.296 205.544,60.7033333 205.544,60.022 L205.544,60.022 L205.544,53.708 L203.374,53.708 L203.374,54.604 L203.346,54.604 C203.103333,54.2306667 202.781333,53.9553333 202.38,53.778 C201.978667,53.6006667 201.558667,53.512 201.12,53.512 C200.597333,53.512 200.130667,53.6123333 199.72,53.813 C199.309333,54.0136667 198.961667,54.282 198.677,54.618 C198.392333,54.954 198.175333,55.3413333 198.026,55.78 C197.876667,56.2186667 197.802,56.6806667 197.802,57.166 C197.802,57.6513333 197.876667,58.111 198.026,58.545 C198.175333,58.979 198.392333,59.3593333 198.677,59.686 C198.961667,60.0126667 199.309333,60.2716667 199.72,60.463 C200.130667,60.6543333 200.602,60.75 201.134,60.75 C201.600667,60.75 202.016,60.666 202.38,60.498 C202.744,60.33 203.033333,60.106 203.248,59.826 L203.248,59.826 L203.29,59.826 L203.29,60.246 C203.29,60.834 203.129,61.3053333 202.807,61.66 C202.485,62.0146667 201.988,62.192 201.316,62.192 C200.924,62.192 200.525,62.1196667 200.119,61.975 C199.713,61.8303333 199.342,61.6086667 199.006,61.31 L199.006,61.31 L197.858,62.948 C198.334,63.3026667 198.896333,63.5733333 199.545,63.76 C200.193667,63.9466667 200.826,64.04 201.442,64.04 Z M201.666,58.93 C201.404667,58.93 201.173667,58.881 200.973,58.783 C200.772333,58.685 200.602,58.5543333 200.462,58.391 C200.322,58.2276667 200.214667,58.0386667 200.14,57.824 C200.065333,57.6093333 200.028,57.3853333 200.028,57.152 C200.028,56.9093333 200.065333,56.6806667 200.14,56.466 C200.214667,56.2513333 200.322,56.0646667 200.462,55.906 C200.602,55.7473333 200.772333,55.6213333 200.973,55.528 C201.173667,55.4346667 201.404667,55.388 201.666,55.388 C201.927333,55.388 202.160667,55.4346667 202.366,55.528 C202.571333,55.6213333 202.748667,55.7496667 202.898,55.913 C203.047333,56.0763333 203.161667,56.2653333 203.241,56.48 C203.320333,56.6946667 203.36,56.9186667 203.36,57.152 C203.36,57.3946667 203.320333,57.6233333 203.241,57.838 C203.161667,58.0526667 203.049667,58.2393333 202.905,58.398 C202.760333,58.5566667 202.583,58.685 202.373,58.783 C202.163,58.881 201.927333,58.93 201.666,58.93 Z M210.878,60.904 C211.41,60.904 211.909333,60.8153333 212.376,60.638 C212.842667,60.4606667 213.253333,60.211 213.608,59.889 C213.962667,59.567 214.242667,59.175 214.448,58.713 C214.653333,58.251 214.756,57.7353333 214.756,57.166 C214.756,56.5966667 214.653333,56.0833333 214.448,55.626 C214.242667,55.1686667 213.962667,54.7813333 213.608,54.464 C213.253333,54.1466667 212.842667,53.904 212.376,53.736 C211.909333,53.568 211.41,53.484 210.878,53.484 C210.355333,53.484 209.858333,53.568 209.387,53.736 C208.915667,53.904 208.505,54.1466667 208.155,54.464 C207.805,54.7813333 207.527333,55.1686667 207.322,55.626 C207.116667,56.0833333 207.014,56.5966667 207.014,57.166 C207.014,57.7353333 207.116667,58.251 207.322,58.713 C207.527333,59.175 207.805,59.567 208.155,59.889 C208.505,60.211 208.915667,60.4606667 209.387,60.638 C209.858333,60.8153333 210.355333,60.904 210.878,60.904 Z M210.892,58.972 C210.621333,58.972 210.383333,58.9206667 210.178,58.818 C209.972667,58.7153333 209.8,58.5776667 209.66,58.405 C209.52,58.2323333 209.415,58.0386667 209.345,57.824 C209.275,57.6093333 209.24,57.39 209.24,57.166 C209.24,56.942 209.275,56.7226667 209.345,56.508 C209.415,56.2933333 209.517667,56.1043333 209.653,55.941 C209.788333,55.7776667 209.958667,55.6446667 210.164,55.542 C210.369333,55.4393333 210.607333,55.388 210.878,55.388 C211.148667,55.388 211.386667,55.4393333 211.592,55.542 C211.797333,55.6446667 211.97,55.7776667 212.11,55.941 C212.25,56.1043333 212.357333,56.2933333 212.432,56.508 C212.506667,56.7226667 212.544,56.942 212.544,57.166 C212.544,57.39 212.509,57.6093333 212.439,57.824 C212.369,58.0386667 212.264,58.2323333 212.124,58.405 C211.984,58.5776667 211.811333,58.7153333 211.606,58.818 C211.400667,58.9206667 211.162667,58.972 210.892,58.972 Z M218.508,60.68 L218.508,57.096 C218.508,56.956 218.536,56.7926667 218.592,56.606 C218.648,56.4193333 218.739,56.2466667 218.865,56.088 C218.991,55.9293333 219.159,55.794 219.369,55.682 C219.579,55.57 219.838,55.514 220.146,55.514 C220.239333,55.514 220.335,55.5186667 220.433,55.528 C220.531,55.5373333 220.631333,55.556 220.734,55.584 L220.734,55.584 L220.832,53.568 C220.776,53.5493333 220.703667,53.5353333 220.615,53.526 C220.526333,53.5166667 220.435333,53.512 220.342,53.512 C219.912667,53.512 219.534667,53.624 219.208,53.848 C218.881333,54.072 218.629333,54.3613333 218.452,54.716 L218.452,54.716 L218.424,54.716 L218.424,53.708 L216.212,53.708 L216.212,60.68 L218.508,60.68 Z M222.932,52.742 C223.109333,52.742 223.279667,52.7093333 223.443,52.644 C223.606333,52.5786667 223.746333,52.49 223.863,52.378 C223.979667,52.266 224.073,52.133 224.143,51.979 C224.213,51.825 224.248,51.6593333 224.248,51.482 C224.248,51.3046667 224.213,51.139 224.143,50.985 C224.073,50.831 223.979667,50.698 223.863,50.586 C223.746333,50.474 223.606333,50.3853333 223.443,50.32 C223.279667,50.2546667 223.109333,50.222 222.932,50.222 C222.745333,50.222 222.572667,50.257 222.414,50.327 C222.255333,50.397 222.115333,50.488 221.994,50.6 C221.872667,50.712 221.779333,50.845 221.714,50.999 C221.648667,51.153 221.616,51.314 221.616,51.482 C221.616,51.8273333 221.742,52.1236667 221.994,52.371 C222.246,52.6183333 222.558667,52.742 222.932,52.742 Z M224.08,60.68 L224.08,53.708 L221.784,53.708 L221.784,60.68 L224.08,60.68 Z" opacity=".4" transform="rotate(90 191.572 57.131)"/>
  </g>
</svg>
