<svg xmlns="http://www.w3.org/2000/svg" xmlns:xlink="http://www.w3.org/1999/xlink" width="216" height="112" viewBox="0 0 216 112">
    <defs>
        <filter id="fysuspcppa" width="124.5%" height="203.6%" x="-12.2%" y="-51.8%" filterUnits="objectBoundingBox">
            <feGaussianBlur in="SourceGraphic" stdDeviation="4"/>
        </filter>
        <filter id="pu5v71qi3b" width="235.8%" height="480.2%" x="-67.9%" y="-190.1%" filterUnits="objectBoundingBox">
            <feGaussianBlur in="SourceGraphic" stdDeviation="3"/>
        </filter>
        <path id="2bt32ljuyc" d="M6.085 8.037L2.123 4.032l-.133-.115c-.555-.39-1.245-.305-1.663.17-.455.516-.433 1.316.051 1.805l5.707 5.767 9.338-9.431.115-.135c.372-.536.336-1.216-.063-1.67-.476-.541-1.29-.567-1.796-.055L6.085 8.037z"/>
    </defs>
    <g fill="none" fill-rule="evenodd">
        <g>
            <g>
                <g>
                    <g>
                        <path fill="#F1F9F6" d="M177 77c0-40.317-33.13-73-74-73S29 36.683 29 77" transform="translate(-612 -450) translate(512 246) translate(100 204) translate(6 20)"/>
                        <path fill="#030303" d="M1 75h203c.552 0 1 .448 1 1s-.448 1-1 1H1c-.552 0-1-.448-1-1s.448-1 1-1z" transform="translate(-612 -450) translate(512 246) translate(100 204) translate(6 20)"/>
                        <g transform="translate(-612 -450) translate(512 246) translate(100 204) translate(6 20) translate(67)">
                            <path fill="#000" d="M10.322 79.637h48.797c3.35 0 6.632-.935 9.479-2.698 2.735-1.695 5.21-2.79 7.423-3.285 4.836-1.082 9.228 2.474 16.678.943 4.966-1.02 9.457-2.204 13.472-3.551 2.934-2.559 2.934-4.433 0-5.623-4.401-1.785-10.245 3.337-24.631-4.687-9.59-5.35-18.54-5.68-26.849-.989l-44.37 19.89z" filter="url(#fysuspcppa)" opacity=".063"/>
                            <ellipse cx="94.628" cy="75.367" fill="#000" filter="url(#pu5v71qi3b)" opacity=".067" rx="6.628" ry="2.367" transform="rotate(-10 94.628 75.367)"/>
                            <path fill="#FFF" stroke="#030303" stroke-width="1.2" d="M69.268.608l-.516.678 1.465-.223c.22-.034.57-.059.928-.059.511 0 .882-.02 1.115.006-.744 1.18-1.567 2.446-1.567 4.298 0 .458-.093.843-.304 1.146-.207.298-.524.509-.936.651-1.088.376-2.752.291-4.983-.187h0l-.733.96-.517 63.19c-.02 2.307-.966 4.39-2.485 5.896-1.518 1.506-3.609 2.436-5.915 2.436h0-11.992L9.6 79.379v-66.06c0-3.408 1.376-6.497 3.603-8.74C15.431 2.339 18.51.943 21.918.92h0l47.35-.311z"/>
                            <path fill="#EAEAEA" stroke="#030303" stroke-width="1.2" d="M46.827 68.6l-.045 2.379c-.01.51.026 1.02.106 1.523.267 1.673 1 3.156 2.045 4.338.964 1.088 2.192 1.921 3.565 2.41h0l-44.626.16c-2.394.003-4.564-.965-6.135-2.532C.165 75.31-.81 73.144-.812 70.749c0-.27.012-.54.037-.808.042-.458.116-.906.219-1.34h0l47.383-.001z"/>
                            <path fill="#EAEAEA" stroke="#000" d="M63.637 8.5v-.91c0-3.9 3.183-7.09 7.032-7.09 3.848 0 6.968 3.161 6.968 7.06v.883l-14 .057z"/>
                        </g>
                        <path fill="#000" d="M104 47c.552 0 1 .448 1 1s-.448 1-1 1H86c-.552 0-1-.448-1-1s.448-1 1-1h18zm0-10c.552 0 1 .448 1 1s-.448 1-1 1H86c-.552 0-1-.448-1-1s.448-1 1-1h18zm16-10c.552 0 1 .448 1 1s-.448 1-1 1H86c-.552 0-1-.448-1-1s.448-1 1-1h34zm0-10c.552 0 1 .448 1 1s-.448 1-1 1H86c-.552 0-1-.448-1-1s.448-1 1-1h34z" transform="translate(-612 -450) translate(512 246) translate(100 204) translate(6 20)"/>
                        <g transform="translate(-612 -450) translate(512 246) translate(100 204) translate(6 20) translate(112 33)">
                            <circle cx="17.723" cy="17.723" r="17.123" fill="#1EC68C" stroke="#000" stroke-width="1.2"/>
                            <path fill="#000" d="M31.845 28.206L33.665 28.206 33.665 33.665 31.845 33.665z" transform="rotate(-45 32.755 30.935)"/>
                            <path fill="#FFF" stroke="#000" stroke-width="1.2" d="M35.7 30.04l10.633 10.634c.494.493.74 1.14.74 1.787s-.246 1.294-.74 1.787c-.493.494-1.14.74-1.787.74s-1.294-.246-1.787-.74h0L32.125 33.615 35.7 30.04z"/>
                        </g>
                        <g transform="translate(-612 -450) translate(512 246) translate(100 204) translate(6 20) translate(122 45)">
                            <use fill="#FFF" fill-rule="nonzero" xlink:href="#2bt32ljuyc"/>
                        </g>
                        <g>
                            <path fill="#FFF" stroke="#000" stroke-width="1.2" d="M1.6 23.6H32.4V31.400000000000002H1.6z" transform="translate(-612 -450) translate(512 246) translate(100 204) translate(6 20) matrix(0 -1 -1 0 56 77)"/>
                            <path fill="#000" d="M25 24H28V32H25z" transform="translate(-612 -450) translate(512 246) translate(100 204) translate(6 20) matrix(0 -1 -1 0 56 77)"/>
                            <path fill="#FFF" stroke="#000" stroke-width="1.2" d="M25 15.6c.387 0 .737.157.99.41s.41.603.41.99h0v5c0 .387-.157.737-.41.99s-.603.41-.99.41h0H3c-.387 0-.737-.157-.99-.41s-.41-.603-.41-.99h0v-5c0-.387.157-.737.41-.99s.603-.41.99-.41h0z" transform="translate(-612 -450) translate(512 246) translate(100 204) translate(6 20) matrix(0 -1 -1 0 56 77)"/>
                            <path fill="#000" d="M19 16H22V24H19z" transform="translate(-612 -450) translate(512 246) translate(100 204) translate(6 20) matrix(0 -1 -1 0 56 77)"/>
                            <path fill="#FFF" stroke="#000" stroke-width="1.2" d="M25.898 7.381c.374.097.674.337.855.646.182.308.246.687.15 1.056h0l-1.246 4.648c-.1.372-.339.668-.647.847-.308.18-.685.242-1.057.146h0L2.658 9.196c-.374-.097-.673-.336-.855-.645-.181-.31-.245-.687-.15-1.057h0L2.9 2.846c.1-.371.34-.668.648-.847.308-.18.684-.242 1.056-.146h0z" transform="translate(-612 -450) translate(512 246) translate(100 204) translate(6 20) matrix(0 -1 -1 0 56 77)"/>
                            <path fill="#000" d="M19.145 6.731L22.137 6.731 22.145 13.731 19.153 13.731z" transform="translate(-612 -450) translate(512 246) translate(100 204) translate(6 20) matrix(0 -1 -1 0 56 77) rotate(15 20.645 10.231)"/>
                        </g>
                    </g>
                </g>
            </g>
        </g>
    </g>
</svg>
