<svg xmlns="http://www.w3.org/2000/svg" xmlns:xlink="http://www.w3.org/1999/xlink" width="115" height="76" viewBox="0 0 115 76">
    <defs>
        <filter id="x2gdhhgcya" width="151.2%" height="202.2%" x="-25.6%" y="-43.2%" filterUnits="objectBoundingBox">
            <feGaussianBlur in="SourceGraphic" stdDeviation="3"/>
        </filter>
        <filter id="fxilx04pgb" width="163%" height="225.8%" x="-31.5%" y="-55%" filterUnits="objectBoundingBox">
            <feOffset dy="2" in="SourceAlpha" result="shadowOffsetOuter1"/>
            <feGaussianBlur in="shadowOffsetOuter1" result="shadowBlurOuter1" stdDeviation="2"/>
            <feColorMatrix in="shadowBlurOuter1" values="0 0 0 0 0 0 0 0 0 0 0 0 0 0 0 0 0 0 0.16 0"/>
        </filter>
        <filter id="codqj8uwid" width="126%" height="126%" x="-13%" y="-9.7%" filterUnits="objectBoundingBox">
            <feMorphology in="SourceAlpha" operator="dilate" radius="1" result="shadowSpreadOuter1"/>
            <feOffset dy="2" in="shadowSpreadOuter1" result="shadowOffsetOuter1"/>
            <feGaussianBlur in="shadowOffsetOuter1" result="shadowBlurOuter1" stdDeviation="2"/>
            <feComposite in="shadowBlurOuter1" in2="SourceAlpha" operator="out" result="shadowBlurOuter1"/>
            <feColorMatrix in="shadowBlurOuter1" values="0 0 0 0 0 0 0 0 0 0 0 0 0 0 0 0 0 0 0.16 0"/>
        </filter>
        <ellipse id="xaj7obgvue" cx="62.849" cy="33.482" rx="30.756" ry="30.804"/>
        <path id="286kq00qac" d="M67.51 65.493c11.665 0 27.441-5.696 35.237-12.723 7.796-7.027 4.659-12.723-7.007-12.723-11.665 0-27.441 5.696-35.237 12.723-7.796 7.027-4.659 12.723 7.007 12.723z"/>
    </defs>
    <g fill="none" fill-rule="evenodd">
        <g>
            <g>
                <g>
                    <g transform="translate(-748 -488) translate(512 282) translate(64 63) translate(172 143.956)">
                        <g fill="#000" filter="url(#x2gdhhgcya)" opacity=".1">
                            <use filter="url(#fxilx04pgb)" xlink:href="#286kq00qac"/>
                            <use xlink:href="#286kq00qac"/>
                        </g>
                        <g>
                            <use fill="#000" filter="url(#codqj8uwid)" xlink:href="#xaj7obgvue"/>
                            <ellipse cx="62.849" cy="33.482" fill="#D0A70B" stroke="#1C1814" rx="31.256" ry="31.304"/>
                        </g>
                        <path fill="#FFD73E" stroke="#1C1814" stroke-linecap="round" d="M111.163 49.523c-12.389-3.63-38.16-20.512-31.054-28.896 8.382-7.151 13.4 10.968 23.896 12.964 4.767 8.94 10.926 17.8 7.158 15.932z" transform="scale(-1 1) rotate(10 0 -1058.457)"/>
                        <path fill="#FFD73E" stroke="#1C1814" stroke-linecap="round" d="M34.943 49.523c-12.389-3.63-38.16-20.512-31.054-28.896 8.382-7.151 13.4 10.968 23.896 12.964 4.767 8.94 10.926 17.8 7.158 15.932z" transform="rotate(10 19.39 34.37)"/>
                        <path stroke="#1C1814" stroke-linecap="round" d="M9.19 11.923c3.906-2.243 7.026-1.601 9.36 1.927" transform="rotate(5 13.87 12.233)"/>
                        <path stroke="#1C1814" stroke-linecap="round" d="M14.277 7.155c2.107-.626 3.667-.187 4.68 1.319" transform="rotate(5 16.617 7.676)"/>
                        <ellipse cx="57.5" cy="33.482" fill="#FFD73E" stroke="#1C1814" rx="31.256" ry="31.304"/>
                        <path stroke="#1C1814" stroke-dasharray="2" stroke-linecap="round" d="M57.5 60.268c14.77 0 26.744-11.993 26.744-26.786C84.244 18.69 72.27 6.696 57.5 6.696S30.756 18.69 30.756 33.482c0 14.793 11.974 26.786 26.744 26.786z" opacity=".7"/>
                        <path fill="#1C1814" d="M48.808 29.464c1.108 0 2.006.9 2.006 2.01 0 1.109-.898 2.008-2.006 2.008-1.108 0-2.006-.9-2.006-2.009 0-1.11.898-2.009 2.006-2.009zm17.384 0c1.108 0 2.006.9 2.006 2.01 0 1.109-.898 2.008-2.006 2.008-1.108 0-2.006-.9-2.006-2.009 0-1.11.898-2.009 2.006-2.009z"/>
                        <path stroke="#1C1814" stroke-linecap="round" d="M49.477 38.84c5.349 3.57 10.697 3.57 16.046 0"/>
                    </g>
                </g>
            </g>
        </g>
    </g>
</svg>
