<svg xmlns="http://www.w3.org/2000/svg" viewBox="0 0 24 24" width="24" height="24">
<path style="fill:#869EFC;" d="M24,12c0,6.627-5.373,12-12,12S0,18.627,0,12S5.373,0,12,0S24,5.373,24,12z"/>
<path style="fill:#FFFFFF;" d="M12.9,3.8l6.47,4.73c0.537,0.398,0.759,1.095,0.55,1.73l-2.46,7.67C17.256,18.565,16.667,18.997,16,19H8c-0.667-0.003-1.256-0.435-1.46-1.07l-2.46-7.67C3.871,9.625,4.093,8.928,4.63,8.53L11.1,3.8C11.633,3.4,12.367,3.4,12.9,3.8z"/>
<path style="fill:#869EFC; opacity:0.1;" d="M20,9.45c0.075,0.265,0.075,0.545,0,0.81l-2.46,7.67C17.328,18.594,16.696,19.033,16,19H8c-0.377-0.021-0.734-0.182-1-0.45L20,9.45z"/>
<path style="fill:#869EFC;" d="M9.48,8.25H8l3.17,8h1.66l3.17-8h-1.49c-0.137-0.004-0.271,0.038-0.38,0.12c-0.073,0.057-0.135,0.129-0.18,0.21v0.07l-1.55,4.28c-0.07,0.19-0.13,0.39-0.2,0.61c-0.072,0.227-0.132,0.457-0.18,0.69c-0.06-0.24-0.13-0.47-0.2-0.69s-0.09-0.28-0.14-0.41l-0.07-0.2l-1.53-4.28c-0.036-0.117-0.11-0.219-0.21-0.29c-0.082-0.059-0.179-0.094-0.28-0.1L9.48,8.25z"/>
</svg>
