<svg xmlns="http://www.w3.org/2000/svg" viewBox="0 0 24 24" width="24" height="24">
<filter id="dropshadow"><feGaussianBlur stdDeviation="1"/></filter>
<path style="fill:#485058;" d="M24,12c0,6.627-5.373,12-12,12S0,18.627,0,12S5.373,0,12,0S24,5.373,24,12z"/>
<path style="filter: url('#dropshadow'); opacity: 0.25;" transform="translate(0,1)" d="M13.06,4.06l6.88,6.88c0.585,0.578,0.591,1.522,0.013,2.107c-0.004,0.004-0.009,0.009-0.013,0.013l-6.88,6.88c-0.578,0.585-1.522,0.591-2.107,0.013c-0.004-0.004-0.009-0.009-0.013-0.013l-6.88-6.88c-0.585-0.578-0.591-1.522-0.013-2.107c0.004-0.004,0.009-0.009,0.013-0.013l6.88-6.88c0.578-0.585,1.522-0.591,2.107-0.013C13.051,4.051,13.056,4.056,13.06,4.06z"/>
<path style="fill:#E6E9EC;" d="M13.06,4.06l6.88,6.88c0.585,0.578,0.591,1.522,0.013,2.107c-0.004,0.004-0.009,0.009-0.013,0.013l-6.88,6.88c-0.578,0.585-1.522,0.591-2.107,0.013c-0.004-0.004-0.009-0.009-0.013-0.013l-6.88-6.88c-0.585-0.578-0.591-1.522-0.013-2.107c0.004-0.004,0.009-0.009,0.013-0.013l6.88-6.88c0.578-0.585,1.522-0.591,2.107-0.013C13.051,4.051,13.056,4.056,13.06,4.06z"/>
<path style="fill:#FFFFFF; opacity:0.7;" d="M20.32,11.69c0.113,0.492-0.03,1.007-0.38,1.37l-6.88,6.88c-0.578,0.585-1.522,0.591-2.107,0.013c-0.004-0.004-0.009-0.009-0.013-0.013l-2.82-2.82L20.32,11.69z"/>
<path style="fill:#485058;" d="M12.14,7.75C11.748,7.76,11.361,7.845,11,8c-0.315,0.114-0.605,0.291-0.85,0.52c-0.223,0.212-0.4,0.467-0.52,0.75c-0.119,0.271-0.18,0.564-0.18,0.86C9.448,10.427,9.499,10.721,9.6,11c0.089,0.232,0.225,0.443,0.4,0.62c0.158,0.165,0.345,0.3,0.55,0.4c0.209,0.105,0.426,0.192,0.65,0.26c0.21,0.07,0.43,0.14,0.64,0.19c0.187,0.056,0.371,0.123,0.55,0.2c0.153,0.066,0.29,0.165,0.4,0.29c0.104,0.122,0.158,0.28,0.15,0.44c0.026,0.262-0.079,0.52-0.28,0.69c-0.223,0.161-0.496,0.239-0.77,0.22c-0.214,0.006-0.428-0.028-0.63-0.1c-0.165-0.065-0.326-0.142-0.48-0.23l-0.37-0.22c-0.094-0.066-0.205-0.104-0.32-0.11c-0.084,0-0.166,0.02-0.24,0.06l-0.12,0.1v0.06l-0.54,0.85c0.165,0.158,0.346,0.299,0.54,0.42c0.214,0.125,0.438,0.232,0.67,0.32c0.24,0.091,0.488,0.161,0.74,0.21c0.243,0.051,0.491,0.078,0.74,0.08c0.405,0.005,0.809-0.062,1.19-0.2c0.329-0.124,0.631-0.311,0.89-0.55c0.235-0.237,0.419-0.519,0.54-0.83c0.128-0.318,0.193-0.657,0.19-1c0.007-0.284-0.044-0.566-0.15-0.83c-0.092-0.222-0.228-0.423-0.4-0.59c-0.165-0.161-0.354-0.296-0.56-0.4c-0.21-0.1-0.42-0.19-0.64-0.27l-0.64-0.21c-0.191-0.054-0.378-0.121-0.56-0.2c-0.148-0.066-0.283-0.158-0.4-0.27c-0.098-0.106-0.152-0.246-0.15-0.39c-0.009-0.224,0.083-0.441,0.25-0.59c0.218-0.164,0.488-0.243,0.76-0.22c0.18-0.002,0.359,0.025,0.53,0.08c0.141,0.045,0.278,0.102,0.41,0.17l0.33,0.18c0.079,0.045,0.169,0.069,0.26,0.07c0.081,0.004,0.161-0.017,0.23-0.06L14,9.51l0.05-0.08l0.45-0.85c-0.144-0.13-0.302-0.244-0.47-0.34C13.857,8.145,13.677,8.064,13.49,8c-0.211-0.076-0.428-0.129-0.65-0.16C12.61,7.789,12.376,7.759,12.14,7.75z"/>
</svg>
