<svg xmlns="http://www.w3.org/2000/svg" viewBox="0 0 24 24" width="24" height="24">
<path style="fill:#C08EFF;" d="M24,12c0,6.627-5.373,12-12,12S0,18.627,0,12S5.373,0,12,0S24,5.373,24,12z"/>
<path style="fill:#FFFFFF;" d="M12.15,10.22c-0.091-0.097-0.243-0.101-0.339-0.011c-0.004,0.003-0.007,0.007-0.011,0.011L11,11.4c-0.267,0.356-0.267,0.844,0,1.2l0.85,1.13l0,0c0.091,0.097,0.243,0.101,0.339,0.011c0.004-0.003,0.007-0.007,0.011-0.011l0.85-1.13c0.267-0.356,0.267-0.844,0-1.2l-0.85-1.13L12.15,10.22z M12.39,5.13c0.076,0.061,0.14,0.136,0.19,0.22L15,9.41L19.09,8c0.364-0.113,0.751,0.091,0.863,0.455c0.007,0.021,0.012,0.043,0.017,0.065c0.04,0.151,0.04,0.309,0,0.46L18.3,15H5.7L4,8.93C3.96,8.779,3.96,8.621,4,8.47c0.08-0.356,0.419-0.59,0.78-0.54h0.1L9,9.41l2.41-4.06c0.17-0.322,0.569-0.446,0.892-0.276C12.333,5.09,12.362,5.109,12.39,5.13z M15.25,16.5c-0.414,0-0.75,0.336-0.75,0.75S14.836,18,15.25,18S16,17.664,16,17.25C15.995,16.838,15.662,16.505,15.25,16.5z M12,16.5c-0.414,0-0.75,0.336-0.75,0.75S11.586,18,12,18s0.75-0.336,0.75-0.75C12.745,16.838,12.412,16.505,12,16.5z M9,16.5c-0.414,0-0.75,0.336-0.75,0.75S8.586,18,9,18s0.75-0.336,0.75-0.75C9.745,16.838,9.412,16.505,9,16.5z M18.16,15.5l-0.65,2.4c-0.183,0.649-0.775,1.099-1.45,1.1H7.94c-0.675-0.001-1.267-0.451-1.45-1.1l-0.65-2.4H18.16z"/>
<path style="fill:#CDA6FF; opacity:0.1;" d="M18.3,15h-6.13l7.59-5.32L18.3,15z M16.06,19H7.94c-0.368,0.009-0.726-0.123-1-0.37l1.4-1C8.476,17.865,8.729,18.007,9,18c0.412-0.005,0.745-0.338,0.75-0.75c-0.004-0.16-0.06-0.315-0.16-0.44l1.86-1.31h6.71l-0.65,2.4C17.327,18.549,16.735,18.999,16.06,19z M12.75,17.25c0-0.414-0.336-0.75-0.75-0.75s-0.75,0.336-0.75,0.75S11.586,18,12,18C12.412,17.995,12.745,17.662,12.75,17.25z M16,17.25c0-0.414-0.336-0.75-0.75-0.75s-0.75,0.336-0.75,0.75S14.836,18,15.25,18C15.662,17.995,15.995,17.662,16,17.25z"/>
</svg>