<svg xmlns="http://www.w3.org/2000/svg" viewBox="0 0 24 24" width="24" height="24">
<path style="fill:#62D7AB;" d="M24,12c0,6.627-5.373,12-12,12S0,18.627,0,12S5.373,0,12,0S24,5.373,24,12z"/>
<path style="fill:#FFFFFF;" d="M13.06,4.06l6.88,6.88c0.585,0.578,0.591,1.522,0.013,2.107c-0.004,0.004-0.009,0.009-0.013,0.013l-6.88,6.88c-0.578,0.585-1.522,0.591-2.107,0.013c-0.004-0.004-0.009-0.009-0.013-0.013l-6.88-6.88c-0.585-0.578-0.591-1.522-0.013-2.107c0.004-0.004,0.009-0.009,0.013-0.013l6.88-6.88c0.578-0.585,1.522-0.591,2.107-0.013C13.051,4.051,13.056,4.056,13.06,4.06z"/>
<path style="fill:#62D7AB; opacity:0.1;" d="M20.32,11.69c0.113,0.492-0.03,1.007-0.38,1.37l-6.88,6.88c-0.578,0.585-1.522,0.591-2.107,0.013c-0.004-0.004-0.009-0.009-0.013-0.013l-2.82-2.82L20.32,11.69z"/>
<path style="fill:#62D7AB;" d="M14.75,8.25h-5v8h1.81v-3.11h2.66V11.7h-2.66v-2h3.19V8.25z"/>
</svg>
