<svg xmlns="http://www.w3.org/2000/svg" viewBox="0 0 24 24" width="24" height="24">
<filter id="dropshadow"><feGaussianBlur stdDeviation="1"/></filter>
<path style="fill:#585448;" d="M24,12c0,6.627-5.373,12-12,12S0,18.627,0,12S5.373,0,12,0S24,5.373,24,12z"/>
<path style="filter: url('#dropshadow'); opacity: 0.25;" transform="translate(0,1)" d="M12.9,3.8l6.47,4.73c0.537,0.398,0.759,1.095,0.55,1.73l-2.46,7.67C17.256,18.565,16.667,18.997,16,19H8c-0.667-0.003-1.256-0.435-1.46-1.07l-2.46-7.67C3.871,9.625,4.093,8.928,4.63,8.53L11.1,3.8C11.633,3.4,12.367,3.4,12.9,3.8z"/>
<path style="fill:#FAD77F;" d="M12.9,3.8l6.47,4.73c0.537,0.398,0.759,1.095,0.55,1.73l-2.46,7.67C17.256,18.565,16.667,18.997,16,19H8c-0.667-0.003-1.256-0.435-1.46-1.07l-2.46-7.67C3.871,9.625,4.093,8.928,4.63,8.53L11.1,3.8C11.633,3.4,12.367,3.4,12.9,3.8z"/>
<path style="fill:#FFFFFF; opacity:0.3;" d="M19.94,10.16c0,0,0,0.07,0,0.1l-2.46,7.67C17.274,18.572,16.674,19.006,16,19H8c-0.185-0.001-0.369-0.038-0.54-0.11L19.94,10.16z"/>
<path style="fill:#585448;" d="M12.36,8c-0.58-0.007-1.155,0.092-1.7,0.29c-0.487,0.183-0.929,0.466-1.3,0.83C9.001,9.473,8.721,9.9,8.54,10.37C8.341,10.89,8.242,11.443,8.25,12c-0.006,0.541,0.096,1.078,0.3,1.58c0.189,0.471,0.472,0.9,0.83,1.26c0.364,0.354,0.791,0.636,1.26,0.83c0.502,0.204,1.039,0.306,1.58,0.3c0.296,0.016,0.594,0.016,0.89,0c0.273-0.04,0.533-0.09,0.78-0.15c0.236-0.07,0.466-0.157,0.69-0.26c0.142-0.07,0.279-0.15,0.41-0.24l0.21-0.14v-3.35h-2.77v1c-0.005,0.088,0.032,0.173,0.1,0.23c0.051,0.051,0.118,0.083,0.19,0.09h0.84v1.18c-0.174,0.073-0.355,0.13-0.54,0.17c-0.216,0.051-0.438,0.075-0.66,0.07c-0.312,0.003-0.622-0.058-0.91-0.18c-0.27-0.113-0.513-0.283-0.71-0.5c-0.211-0.235-0.371-0.511-0.47-0.81c-0.119-0.347-0.177-0.713-0.17-1.08c-0.002-0.339,0.049-0.676,0.15-1c0.094-0.286,0.243-0.551,0.44-0.78c0.19-0.216,0.425-0.387,0.69-0.5c0.287-0.123,0.597-0.184,0.91-0.18c0.166-0.011,0.334-0.011,0.5,0c0.139,0.011,0.277,0.038,0.41,0.08c0.133,0.041,0.263,0.091,0.39,0.15L14,10c0.095,0.072,0.211,0.111,0.33,0.11c0.081,0,0.16-0.02,0.23-0.06c0.045-0.031,0.085-0.068,0.12-0.11l0.06-0.07l0.52-0.79c-0.164-0.156-0.341-0.296-0.53-0.42c-0.207-0.134-0.429-0.244-0.66-0.33c-0.256-0.098-0.52-0.172-0.79-0.22C12.977,8.046,12.669,8.009,12.36,8z"/>
</svg>