<svg xmlns="http://www.w3.org/2000/svg" width="40" height="40"><g fill="none" fill-rule="evenodd"><rect width="26.8" height="34.8" x="6.6" y="2.6" fill="#FFF" stroke="#1C1814" stroke-width="1.2" rx="2"/><rect width="18.8" height="4.8" x="10.6" y="8.6" fill="#62D7AB" stroke="#1C1814" stroke-width="1.2" rx="1"/><path fill="#1C1814" d="M17.5 31a1 1 0 110 2 1 1 0 010-2zm-5 0a1 1 0 110 2 1 1 0 010-2zm10 0a1 1 0 110 2 1 1 0 010-2zm5-5a.6.6 0 01.6.6v5.8a.6.6 0 01-1.2 0v-5.8a.6.6 0 01.6-.6zm-10-1a1 1 0 110 2 1 1 0 010-2zm-5 0a1 1 0 110 2 1 1 0 010-2zm10 0a1 1 0 110 2 1 1 0 010-2zm-5-6a1 1 0 110 2 1 1 0 010-2zm-5 0a1 1 0 110 2 1 1 0 010-2zm10 0a1 1 0 110 2 1 1 0 010-2zm5 0a1 1 0 110 2 1 1 0 010-2z"/></g></svg>