<svg xmlns="http://www.w3.org/2000/svg" width="24" height="24"><path d="M9.6 9.7v4.7H8v-4.2c0-1.3-.7-1.4-.8-1.4V7c2.3 0 2.4 2.2 2.4 2.7zm-3 2.2c0 2.6-2.4 2.7-2.4 2.7-1 0-1.4-.7-1.4-.7v.6H1V7.2h1.7v2.7c.7-.7 1.5-.7 1.5-.7 2.3 0 2.4 2.7 2.4 2.7zm-1.7 0c0-.6-.5-1.1-1.1-1.1-.6 0-1.1.5-1.1 1.1 0 .6.5 1.1 1.1 1.1.6 0 1.1-.5 1.1-1.1zM23 9.4v4.9c0 2.6-2.2 2.7-2.5 2.7h-.7v-1.5h.4c1.2 0 1.1-1.3 1.1-1.3v-.4c-.5.6-1.3.7-1.5.7-2.2 0-2.4-2.2-2.4-2.5 0-2.5 2-2.6 2.4-2.6 1 0 1.5.7 1.5.7v-.7H23zm-1.6 2.5c0-.6-.5-1.1-1.1-1.1-.6 0-1.1.5-1.1 1.1 0 .6.5 1.1 1.1 1.1.6 0 1.1-.5 1.1-1.1zm-4.8 0c0 2.7-2.9 2.7-2.9 2.7-2.7 0-2.8-2.2-2.8-2.6v-.1c0-2.5 2.5-2.6 2.8-2.7 2.7.1 2.9 2.3 2.9 2.7zm-1.8 0c0-.6-.5-1.1-1.1-1.1-.6 0-1.1.5-1.1 1.1 0 .6.5 1.1 1.1 1.1.6 0 1.1-.5 1.1-1.1z"/></svg>