<svg xmlns="http://www.w3.org/2000/svg" width="24" height="24"><path d="M17.5 11c.3 0 .5.2.5.5s-.2.5-.5.5h-1.3v.8h1.3c.3 0 .5.2.5.5s-.2.5-.5.5h-1.8c-.3 0-.5-.2-.5-.5V9.7c0-.3.2-.5.5-.5h1.8c.3 0 .5.2.5.5s-.2.5-.5.5h-1.3v.8h1.3zm-2.9 2.2c0 .2-.1.4-.3.4h-.1c-.1 0-.3-.1-.4-.2L11.9 11v2.2c0 .3-.2.5-.5.5s-.5-.2-.5-.5V9.7c0-.2.1-.4.3-.4h.1c.1 0 .3.1.4.2l1.8 2.5V9.7c0-.3.2-.5.5-.5s.5.2.5.5v3.5zm-4.3 0c0 .3-.2.5-.5.5s-.5-.2-.5-.5V9.7c0-.3.2-.5.5-.5s.5.2.5.5v3.5zm-1.8.5H6.7c-.3 0-.5-.2-.5-.5V9.7c0-.3.2-.5.5-.5s.5.2.5.5v3.1h1.3c.3 0 .5.2.5.5s-.3.4-.5.4zM21 11.3c0-4-4-7.3-9-7.3s-9 3.3-9 7.3c0 3.6 3.2 6.6 7.5 7.2.3.1.7.2.8.4.1.2.1.6 0 .8 0 0-.1.6-.1.8 0 .2-.2.9.8.5s5.2-3.1 7.1-5.2c1.3-1.4 1.9-2.9 1.9-4.5z"/></svg>