<svg xmlns="http://www.w3.org/2000/svg" width="24" height="24"><path d="M15.5 14.9c-.7 0-1.4.3-1.9.8L10 12.9v-.3c0-.3-.1-.7-.2-.9l3.9-3.1c.5.4 1.1.6 1.7.6C16.8 9.2 18 8 18 6.6S16.8 4 15.4 4s-2.6 1.2-2.6 2.6c0 .3.1.7.2 1l-3.9 3.1c-.5-.4-1.1-.7-1.7-.7-1.4 0-2.6 1.2-2.6 2.6s1.2 2.6 2.6 2.6c.9 0 1.6-.4 2.1-1.1l3.4 2.7c-.1.2-.1.5-.1.8 0 1.4 1.2 2.6 2.6 2.6S18 19 18 17.6s-1.1-2.7-2.5-2.7zm0-9.8c.8 0 1.4.6 1.4 1.4s-.6 1.4-1.4 1.4-1.4-.6-1.4-1.4.6-1.4 1.4-1.4zm-8 8.8c-.8 0-1.4-.6-1.4-1.4s.6-1.4 1.4-1.4 1.4.6 1.4 1.4-.6 1.4-1.4 1.4zm8 5c-.8 0-1.4-.6-1.4-1.4s.6-1.4 1.4-1.4 1.4.6 1.4 1.4-.6 1.4-1.4 1.4z"/></svg>