<svg xmlns="http://www.w3.org/2000/svg" xmlns:xlink="http://www.w3.org/1999/xlink" width="24" height="24"><defs><rect id="a" width="24" height="24" x="0" y="0" rx="8"/></defs><g fill="none" fill-rule="evenodd"><mask id="b" fill="#fff"><use xlink:href="#a"/></mask><use fill="#1EC68C" xlink:href="#a"/><g fill="#FFF" mask="url(#b)"><path d="M9.543 8A3.51 3.51 0 0112 9.003h.004A3.516 3.516 0 0114.504 8c1.927.022 3.465 1.618 3.496 3.544v3.376c0 .567-.435 1.031-.988 1.076-.628.051-1.145-.446-1.164-1.073v-3.376c0-.782-.65-1.415-1.436-1.387-.737.027-1.312.648-1.332 1.383v3.377c0 .567-.435 1.031-.989 1.076-.627.052-1.145-.446-1.164-1.073v-3.376c0-.782-.649-1.415-1.435-1.387-.737.027-1.312.648-1.333 1.383v3.377c0 .567-.435 1.031-.989 1.076-.627.051-1.145-.446-1.163-1.073l-.001-.035v-2.862c0-.087 0-.172-.002-.254L6 11.648C5.951 9.65 7.55 8 9.543 8z"/></g></g></svg>