<svg xmlns="http://www.w3.org/2000/svg" width="40" height="40"><g stroke="#1C1814" stroke-width="1.2" fill="none" fill-rule="evenodd"><g fill="#FFF" transform="translate(5 2)"><path d="M1.6.6h26.8v34.8H1.6z"/><rect width="28.8" height="1" x=".6" y="35.4" rx=".5"/><rect width="28.8" height="1" x=".6" y=".6" rx=".5"/></g><path fill="#62D7AB" stroke-linejoin="round" d="M31.476 2.6C30.092 3 29.4 3.833 29.4 5.1l-.001.057.001 9.443a2 2 0 01-4 .025V8.1a1.5 1.5 0 00-3 0h0v2.5h0a2 2 0 11-4 0l-.001-5.543-.002-.128C18.343 3.628 17.68 2.6 16.4 2.6h15.076z"/><circle cx="11.5" cy="10.5" r="1.9" fill="#FFF"/><path stroke-linecap="round" stroke-linejoin="round" d="M11.245 10.77c-2.897 5.018-.01 12.107 6.447 15.835s14.039 2.683 16.936-2.335c1.751-3.034.96-6.824-1.028-10.173"/></g></svg>