<svg xmlns="http://www.w3.org/2000/svg" width="40" height="40"><g fill="none" fill-rule="evenodd"><path fill="#FFF" stroke="#1C1814" stroke-width="1.2" d="M32 2.6A1.396 1.396 0 0133.4 4h0v8.398l2.132-3.041c.222-.317.551-.514.904-.576.353-.062.73.01 1.046.232h0l1.1.77a1.398 1.398 0 01.472 1.723h0L33.4 24.015V36a1.396 1.396 0 01-1.4 1.4h0H8A1.396 1.396 0 016.6 36h0V4A1.396 1.396 0 018 2.6h24z"/><path fill="#1C1814" d="M9.6 12a.6.6 0 01-.6-.6V2.6a.6.6 0 011.2 0v8.8a.6.6 0 01-.6.6zm3-7a.6.6 0 01-.6-.6V2.6a.6.6 0 011.2 0v1.8a.6.6 0 01-.6.6zm0 3a.6.6 0 01-.6-.6v-.8a.6.6 0 011.2 0v.8a.6.6 0 01-.6.6zm18 22a.6.6 0 01-.6-.6v-1.8a.6.6 0 011.2 0v1.8a.6.6 0 01-.6.6zm0 8a.6.6 0 01-.6-.6v-5.8a.6.6 0 011.2 0v5.8a.6.6 0 01-.6.6zm-19 0a.6.6 0 01-.6-.6v-4.8a.6.6 0 011.2 0v4.8a.6.6 0 01-.6.6zm16 0a.6.6 0 01-.6-.6v-2.8a.6.6 0 011.2 0v2.8a.6.6 0 01-.6.6z"/><g transform="translate(13.5 12)"><rect width="8" height="1.2" x="7.5" y="11" fill="#1C1814" rx=".6" transform="rotate(45 11.5 11.6)"/><circle cx="6" cy="6" r="5.4" fill="#62D7AB" stroke="#1C1814" stroke-width="1.2"/></g></g></svg>