<svg xmlns="http://www.w3.org/2000/svg" width="24" height="24"><path d="M4.6 9.4C3.2 9.4 2 10.6 2 12s1.2 2.6 2.6 2.6c1.4 0 2.6-1.2 2.6-2.6S6 9.4 4.6 9.4zm0 4c-.8 0-1.4-.6-1.4-1.4s.6-1.4 1.4-1.4c.8 0 1.4.6 1.4 1.4s-.6 1.4-1.4 1.4zm14.8-4c-1.4 0-2.6 1.2-2.6 2.6s1.2 2.6 2.6 2.6c1.4 0 2.6-1.2 2.6-2.6s-1.2-2.6-2.6-2.6zm0 4c-.8 0-1.4-.6-1.4-1.4s.6-1.4 1.4-1.4c.8 0 1.4.6 1.4 1.4s-.6 1.4-1.4 1.4zm-7.4-4c-1.4 0-2.6 1.2-2.6 2.6s1.2 2.6 2.6 2.6 2.6-1.2 2.6-2.6-1.2-2.6-2.6-2.6zm0 4c-.8 0-1.4-.6-1.4-1.4s.6-1.4 1.4-1.4 1.4.6 1.4 1.4-.6 1.4-1.4 1.4z"/></svg>