<svg xmlns="http://www.w3.org/2000/svg" width="24" height="24"><path d="M13.8 8.7c0 .1-.1.2-.2.2H13v.5c0 .1-.1.3-.3.3-.1 0-.2-.1-.2-.2V9H12c-.1 0-.3-.1-.3-.3 0-.1.1-.2.2-.2h.6V8c0-.1.1-.3.3-.3.1 0 .2.1.2.2v.6h.5c.2 0 .3.1.3.2zm-.3 7.8H13v-.6c0-.1-.1-.2-.2-.2s-.3.1-.3.3v.5h-.6c-.1 0-.2.1-.2.2s.1.3.3.3h.5v.6c0 .1.1.2.2.2s.3-.1.3-.3V17h.6c.1 0 .2-.1.2-.2 0-.2-.1-.3-.3-.3zm5-8H18v-.6c0-.1-.1-.2-.2-.2s-.3.1-.3.3v.5h-.6c-.1 0-.2.1-.2.2.1.2.2.3.3.3h.5v.6c0 .1.1.2.2.2s.3-.1.3-.3V9h.6c.1 0 .2-.1.2-.2 0-.2-.1-.3-.3-.3zm3.3-2.6v13.7c0 .8-.6 1.5-1.5 1.6h-14c-2.2 0-4-1.7-4.3-3.9V6.4c0-2.3 1.8-4.2 4.1-4.2 1.4 0 2.7.8 3.4 1.9l.1.2h10.6c.8 0 1.5.6 1.6 1.5v.1zM3.2 14c.7-.8 1.8-1.2 2.9-1.2 1.1 0 2 .4 2.8 1.1l.1.2V6.4c0-1.6-1.3-3-2.9-3-1.5 0-2.8 1.2-2.9 2.8V14zm17.4-8.1c0-.2-.1-.4-.3-.4H10.1c0 .2.1.4.1.6V17c0 .3-.3.6-.6.6S9 17.3 9 17c0-1.6-1.3-3-2.9-3-1.6 0-2.9 1.3-2.9 3 .1 1.6 1.3 2.9 2.9 3h14.1c.2 0 .4-.1.4-.3V5.9zm-2.1 10.6H18v-.6c0-.1-.1-.2-.2-.2s-.3.1-.3.3v.5h-.6c-.1 0-.2.1-.2.2s.1.3.3.3h.5v.6c0 .1.1.2.2.2s.3-.1.3-.3V17h.6c.1 0 .2-.1.2-.2 0-.2-.1-.3-.3-.3zm-2.5-4h-.5v-.6c0-.1-.1-.2-.2-.2s-.3.1-.3.3v.5h-.6c-.1 0-.2.1-.2.2s.1.3.3.3h.5v.6c0 .1.1.2.2.2s.3-.1.3-.3V13h.6c.1 0 .2-.1.2-.2 0-.2-.1-.3-.3-.3z"/></svg>