<svg xmlns="http://www.w3.org/2000/svg" width="24" height="24"><path d="M15.7 15c0 .3-.3.6-.6.6s-.6-.3-.6-.6.3-.6.6-.6.6.3.6.6zm-6.6-.6c-.3 0-.6.3-.6.6s.3.6.6.6.6-.3.6-.6-.3-.6-.6-.6zm11.1 1.2v1.5h1.2c.3 0 .6.3.6.6s-.3.6-.6.6H2.5c-.3 0-.6-.3-.6-.6s.3-.6.6-.6H4v-1.5H2.6c-.3 0-.6-.3-.6-.6s.3-.6.6-.6H4v-1.8H2.6c-.3 0-.6-.3-.6-.6s.3-.6.6-.6H4V9.6H2.6c-.3 0-.6-.3-.6-.6s.3-.6.6-.6H4V6.9H2.6c-.3 0-.6-.3-.6-.6s.3-.6.6-.6h18.9c.3 0 .6.3.6.6s-.3.6-.6.6h-1.3v1.5h1.3c.3 0 .6.3.6.6s-.3.6-.6.6h-1.3v1.8h1.3c.3 0 .6.3.6.6s-.3.6-.6.6h-1.3v1.8h1.3c.3 0 .6.3.6.6s-.3.6-.6.6h-1.3zM6 6.9h-.8v10.2H6V6.9zm11 0H7.2v10.2H17V6.9zm2 0h-.8v10.2h.8V6.9zm-3.9 2.7c.3 0 .6-.3.6-.6s-.3-.6-.6-.6-.6.3-.6.6.3.6.6.6zm-3.1 6L8.3 12 12 8.4l3.6 3.6-3.6 3.6zm0-1.6l2-2-2-2-2 2 2 2zM9.1 9.6c.3 0 .6-.3.6-.6s-.3-.6-.6-.6-.6.3-.6.6.3.6.6.6z"/></svg>