<svg xmlns="http://www.w3.org/2000/svg" width="24" height="24"><path d="M18.6 4.5c1.3 0 2.4 1.1 2.4 2.4v7.9c0 1.3-1.1 2.4-2.4 2.4H14l-1.6 3.7c0 .1-.1.2-.3.3-.2 0-.3-.2-.3-.2l-1.6-3.7H5.4c-1.3 0-2.4-1.1-2.4-2.4v-8c0-1.3 1.1-2.4 2.4-2.4h13.2zm-.8 5.5c-.2-.2-.4-.3-.6-.4H17c-.7.1-1.1.4-1.3.8v.9c0 .6.3 1 .7 1.2h.4c.5 0 .7-.1.9-.2 0 .6-.2.8-.4.9H17v1h.5c.8 0 1.2-.4 1.4-.8V9.7h-1.1v.3zM13 9.6c-1 0-1.8.7-1.8 1.6 0 .9.8 1.6 1.8 1.6s1.8-.7 1.8-1.6c0-.8-.8-1.6-1.8-1.6zm-6.7.4V8.3H5.2v4.4h1.1v-.3c.1.1.4.2.7.3h.4c.4-.2.7-.5.7-1.2v-.8c.3-.6-.1-1-.8-1.1H7c-.4.1-.6.2-.7.4zM9 8.2v1.1c.1.1.3.2.3.4v3h1.1V9.6c-.2-1-.6-1.4-1.4-1.4zm4 2.4c.4 0 .7.3.7.7 0 .4-.3.7-.7.7s-.7-.3-.7-.7.4-.7.7-.7zm4.1 0c.4 0 .7.3.7.7 0 .4-.3.7-.7.7-.4 0-.7-.3-.7-.7.1-.4.4-.7.7-.7zm-10.2.1c.3 0 .6.3.6.6s-.3.6-.6.6-.6-.3-.6-.6c0-.4.3-.6.6-.6z"/></svg>