<svg xmlns="http://www.w3.org/2000/svg" width="24" height="24"><path d="M16 4.4h-.2c-1.5.1-2.8.8-3.7 1.9l-.1.1-.1-.1C11 5.2 9.5 4.4 8 4.4c-2.6 0-4.6 2-4.6 4.5 0 .8.2 1.6.6 2.4.6 1.1 1.5 2.2 3 3.7l4.1 3.9.5.5c.2.2.6.2.8 0l1.3-1.2c1.3-1.2 3-2.8 3.3-3.2l.5-.5c1.2-1.2 1.9-2.1 2.4-3.1.4-.8.6-1.6.6-2.4.1-2.6-1.9-4.6-4.5-4.6zm2.9 6.4c-.5.9-1.2 1.8-2.5 3.1l-.4.5c-.7.7-2.7 2.6-3.8 3.7l-.2.1-4.2-4c-1.4-1.4-2.2-2.4-2.7-3.3-.3-.6-.5-1.3-.5-1.9 0-2 1.5-3.4 3.4-3.4 1.5 0 2.9 1 3.4 2.2.2.5.9.5 1.1 0 .5-1.3 2-2.2 3.4-2.2 1.9 0 3.4 1.4 3.4 3.3.1.7-.1 1.3-.4 1.9z"/></svg>