<svg xmlns="http://www.w3.org/2000/svg" width="24" height="24"><path d="M13 17c0 .6-.4 1-1 1s-1-.4-1-1 .4-1 1-1 1 .4 1 1zM8 9c-.6 0-1 .4-1 1s.4 1 1 1 1-.4 1-1-.4-1-1-1zm4 3.5c-.6 0-1 .4-1 1s.4 1 1 1 1-.4 1-1-.4-1-1-1zm-4 0c-.6 0-1 .4-1 1s.4 1 1 1 1-.4 1-1-.4-1-1-1zM8 16c-.6 0-1 .4-1 1s.4 1 1 1 1-.4 1-1-.4-1-1-1zm8-3.5c-.6 0-1 .4-1 1s.4 1 1 1 1-.4 1-1-.4-1-1-1zM16 9c-.6 0-1 .4-1 1s.4 1 1 1 1-.4 1-1-.4-1-1-1zm-4 0c-.6 0-1 .4-1 1s.4 1 1 1 1-.4 1-1-.4-1-1-1zm10-2.2v12.5c0 1.5-1.2 2.8-2.8 2.8H4.8C3.2 22 2 20.8 2 19.3V6.8C2 5.2 3.2 4 4.8 4H7V2.8c0-.5.3-.8.8-.8.4 0 .7.3.7.6V4h2.8V2.8c0-.5.3-.8.7-.8.4 0 .7.3.7.6V4h2.8V2.8c0-.4.3-.8.8-.8.4 0 .7.3.7.6V4h2.3C20.8 4 22 5.2 22 6.8zm-1.5 0c0-.7-.6-1.3-1.3-1.3H17v.8c0 .4-.3.7-.7.7-.4 0-.7-.3-.7-.6v-.9h-2.8v.8c0 .4-.4.7-.8.7s-.7-.3-.7-.6v-.9H8.5v.8c0 .4-.3.7-.7.7-.4 0-.7-.3-.8-.6v-.9H4.8c-.7 0-1.3.6-1.3 1.3v12.5c0 .7.6 1.3 1.3 1.3h14.5c.7 0 1.3-.6 1.3-1.3V6.8zM16 16c-.6 0-1 .4-1 1s.4 1 1 1 1-.4 1-1-.4-1-1-1z"/></svg>