<svg xmlns="http://www.w3.org/2000/svg" width="24" height="24"><path d="M7 9.8v6.1c0 .3-.3.6-.6.6s-.5-.2-.6-.5V9.9c0-.3.3-.6.6-.6s.6.2.6.5zm10.4-.5c-.3 0-.6.3-.6.6V16c0 .3.3.5.6.5s.6-.3.6-.6V9.8c0-.3-.3-.5-.6-.5zM21.3 8v12c0 .6-.4 1.2-.9 1.4-.2.1-.4.1-.6.1-.3 0-.5-.1-.8-.2l-.1-.1-4.1-2.3c-.5.8-1.7 1.3-2.9 1.3s-2.2-.4-2.7-1.1l-.1-.1L5 21.2c-.2.2-.5.3-.8.3-.2 0-.4 0-.6-.1-.5-.2-.8-.7-.9-1.3V8c0-.6.3-1.1.7-1.3l.1-.1 5.2-2.3c.1-.2.3-.2.5-.2.1-1 1.4-1.8 2.9-1.8 1.6 0 2.8.8 2.9 1.8h.3l5.1 2.3c.5.3.8.7.9 1.3V8zM8.9 17.7V5.4L4 7.6c-.1 0-.1.1-.2.3V20c0 .2.1.3.2.4h.3l4.6-2.7zm5-11.8c-.5.2-1.1.4-1.7.4-.7 0-1.3-.2-1.8-.4l-.2-.1v12.3c0 .4.8.9 1.8.9s1.8-.5 1.9-.9V5.9zm0-1.6c0-.3-.7-.8-1.7-.8s-1.7.5-1.7.8c0 .3.7.8 1.7.8s1.7-.5 1.7-.8zM20.2 8c0-.1-.1-.2-.1-.3H20l-5-2.3v12.3l4.5 2.5c.2.1.3.1.3.1.1 0 .2-.1.2-.3V8z"/></svg>