<svg xmlns="http://www.w3.org/2000/svg" width="24" height="24"><path d="M21 20.2c-.8-2.7-2.6-4.3-5.7-4.9 2-1.1 3.3-3.3 3.3-5.7C18.6 6 15.6 3 12 3S5.4 6 5.4 9.6c0 2.4 1.3 4.6 3.3 5.7-3 .6-4.9 2.2-5.6 4.9-.1.3.1.6.4.7.3.1.6-.1.7-.4.8-3 3.3-4.4 7.8-4.4s7 1.4 7.8 4.4c.1.3.4.5.7.4.4 0 .6-.3.5-.7zM6.6 9.6c0-3 2.4-5.4 5.4-5.4s5.4 2.4 5.4 5.4S15 15 12 15s-5.4-2.4-5.4-5.4zm7.3 1.6c.2.2.1.5-.1.7-.5.4-1.1.6-1.8.6s-1.3-.2-1.8-.6c-.2-.2-.3-.5-.1-.7.2-.2.5-.3.7-.1.3.3.8.4 1.2.4.4 0 .9-.1 1.2-.4.2-.2.5-.1.7.1z"/></svg>