<svg xmlns="http://www.w3.org/2000/svg" width="24" height="24"><path d="M20.8 7l-1.2-1c-.4-.4-.9-.5-1.5-.4v-.9c0-.9-.8-1.7-1.7-1.7H5.7C4.8 3 4 3.8 4 4.7v14.6c0 .9.8 1.7 1.7 1.7h10.7c.9 0 1.7-.8 1.7-1.7v-6.9l2.7-2.9c.3-.3.5-.8.4-1.2.1-.5-.1-1-.4-1.3zM17 19.3c0 .3-.2.5-.5.5H5.7c-.3 0-.5-.2-.5-.5V4.7c0-.3.2-.5.5-.5h10.7c.3 0 .5.2.5.5v1.7l-1 1.1H7.6c-.3 0-.6.3-.6.6s.3.6.6.6h7.2l-2.1 2.2H7.6c-.3 0-.6.3-.6.6s.3.6.6.6h4l-1.3 1.3-.1 1H7.6c-.3 0-.6.2-.6.6 0 .3.3.6.6.6h2.5l-.3 2.1 4.1-.7 3.1-3.3v5.6zm3-10.7l-6.7 7.2-2.1.4.3-2.2 6.6-7c.2-.2.5-.2.7 0l1.2.9c.1.1.2.2.2.3 0 .2-.1.3-.2.4z"/></svg>