<svg xmlns="http://www.w3.org/2000/svg" width="24" height="24"><path d="M10 12c0 .6-.4 1-1 1s-1-.4-1-1 .4-1 1-1 1 .4 1 1zm5-1c-.6 0-1 .4-1 1s.4 1 1 1 1-.4 1-1-.4-1-1-1zm4 1c0 3.9-3.1 7-7 7s-7-3.1-7-7 3.1-7 7-7 7 3.1 7 7zm-1.2 0c0-3-2.3-5.5-5.2-5.8v1.2c0 .3-.3.6-.6.6s-.6-.3-.6-.6V6.2C8.5 6.5 6.2 9 6.2 12s2.3 5.5 5.2 5.8v-1.2c0-.3.3-.6.6-.6s.6.3.6.6v1.2c2.9-.3 5.2-2.8 5.2-5.8zM22 4v16c0 1.1-.9 2-2 2H4c-1.1 0-2-.9-2-2V4c0-1.1.9-2 2-2h16c1.1 0 2 .9 2 2zm-1.2 0c0-.4-.3-.7-.7-.8H4c-.4 0-.7.3-.8.7V20c0 .4.3.7.7.8H20c.4 0 .7-.3.8-.7V4z"/></svg>