<svg xmlns="http://www.w3.org/2000/svg" width="24" height="24"><path d="M15 17.8c0-.4.3-.8.8-.8s.8.3.8.8-.3.8-.8.8-.8-.4-.8-.8zm-3 .7c.4 0 .8-.3.8-.8s-.4-.7-.8-.7-.8.3-.8.8.4.7.8.7zm-3.7 0c.4 0 .8-.3.8-.8s-.3-.7-.8-.7-.8.3-.8.8.4.7.8.7zm13.6-10l-3 11c-.2.9-1.1 1.6-2 1.6H7c-1 0-1.8-.6-2-1.6l-3-11c0-.3 0-.6.1-.9.2-.7.9-1.2 1.7-1.1H4l4.4 1.6L11 3.7c.4-.7 1.3-1 2-.4.2.1.3.3.4.4L16 8.1l4.4-1.6c.7-.3 1.5.2 1.8.9v.1c-.2.4-.2.7-.3 1zM18.7 16H5.3l.8 3.1c.1.4.4.6.7.7H17c.4 0 .8-.3.9-.7l.8-3.1zm2.1-8c-.1-.3-.2-.3-.3-.3l-5.3 1.9-3.1-5.3s0-.1-.1-.1-.1 0-.2.1l-3 5.3-5.3-1.9h-.1c-.1 0-.2.1-.2.2v.2L5 14.8h14l1.8-6.6V8z"/></svg>