<svg xmlns="http://www.w3.org/2000/svg" width="24" height="24"><path d="M16.7 16.9c.5-.3.9-.7 1.3-1.2.4-.4.7-.9 1-1.5.3-.5.5-1.1.6-1.7.1-.6.2-1.2.2-1.9 0-1.1-.2-2.1-.5-3s-.9-1.7-1.5-2.4c-.8-.7-1.6-1.2-2.6-1.6-.9-.4-2-.6-3.1-.6s-2.2.2-3.1.6c-.9.4-1.7.9-2.4 1.6-.7.6-1.2 1.5-1.6 2.4-.4.9-.5 1.9-.5 3s.2 2.1.5 3 .9 1.7 1.6 2.4c.7.7 1.5 1.2 2.4 1.6.9.4 2 .6 3.1.6.4 0 .8 0 1.2-.1.4 0 .7-.1 1.1-.2l2.2 2.4c.2.2.5.4.7.5.3.1.6.1.9.1h2.3l-3.8-4zm-.2-4.1c-.2.6-.5 1.2-.9 1.6-.4.5-.9.8-1.5 1-.6.2-1.2.4-2 .4-.7 0-1.4-.1-2-.4-.6-.2-1.1-.6-1.5-1-.4-.5-.7-1-1-1.7-.2-.6-.3-1.4-.3-2.2s.1-1.6.3-2.2c.2-.7.5-1.2 1-1.7.4-.3.9-.6 1.5-.9.6-.2 1.3-.4 2-.4s1.4.1 2 .4c.6.2 1.1.6 1.5 1 .4.5.7 1 .9 1.7.2.6.3 1.4.3 2.2s-.1 1.6-.3 2.2z"/></svg>