<svg xmlns="http://www.w3.org/2000/svg" width="24" height="24"><path d="M17.5 14.5h-1v-1h1v1zm0-3h-1v1h1v-1zm0-2h-1v1h1v-1zm0-2h-1v1h1v-1zM21 12c0 .6.4 1 1 1v5c0 .6-.4 1-1 1H3c-.6 0-1-.4-1-1V6c0-.6.4-1 1-1h18c.6 0 1 .4 1 1v5c-.6 0-1 .4-1 1zm-.2-5.8H3.2v11.6h17.6v-4l-.1-.1c-.5-.4-.9-1-.9-1.6v-.2c0-.7.4-1.4.9-1.8l.1-.1V6.2zm-3.3 9.3h-1v1h1v-1zM8.4 15h.2s.1 0 .1-.1l4.4-5.7h-.9c-.1 0-.2 0-.2.1l-.1.1-.1.1L7.4 15h1zm-1.1-3.8c-.1-.2-.1-.4-.1-.6 0-.2 0-.4.1-.6.1-.2.2-.3.3-.5.1-.1.3-.2.4-.3.2-.1.4-.1.6-.1s.4 0 .6.1c.2.1.3.2.4.3.1.1.2.3.3.5s.1.4.1.6c0 .2 0 .4-.1.6-.1.2-.2.3-.3.5s-.3.2-.4.3h-.6c-.2 0-.4 0-.6-.1-.2-.1-.3-.2-.4-.3-.1-.1-.2-.3-.3-.4zm.9-.6v.3c0 .1 0 .2.1.2 0 .1.1.1.1.1h.4c.1 0 .1-.1.1-.1.1 0 .1-.1.1-.2v-.6c0-.1 0-.2-.1-.3 0-.1-.1-.1-.1-.1h-.4l-.1.1c0 .1-.1.1-.1.2v.4zm4.8 2c.1.1.2.3.3.5.1.2.1.4.1.6 0 .2 0 .4-.1.6-.1.2-.2.3-.3.5-.1.1-.3.2-.4.3-.2.1-.3.1-.5.1s-.4 0-.6-.1c-.2-.1-.3-.2-.4-.3-.1-.1-.2-.3-.3-.5s-.1-.4-.1-.6c0-.2 0-.4.1-.6.1-.2.2-.3.3-.5.1-.1.3-.2.4-.3.2-.1.4-.1.6-.1.2 0 .4 0 .6.1l.3.3zm-.6 1v-.3c0-.1-.1-.2-.1-.2 0-.1-.1-.1-.1-.1h-.4c-.1 0-.1.1-.1.1 0 .1-.1.1-.1.2v.6c0 .1 0 .2.1.2l.1.1h.4c.1 0 .1-.1.1-.1s.1-.1.1-.2v-.3z"/></svg>