<svg xmlns="http://www.w3.org/2000/svg" width="24" height="24"><path d="M12.5 12c0 .6-.4 1-1 1s-1-.4-1-1 .4-1 1-1 1 .5 1 1zm8.8 0c0 1.2-.9 2.1-2 2.2h-1.7v6c0 .9-.7 1.6-1.5 1.7H6.7c-.9 0-1.6-.7-1.7-1.5V3.7c0-.9.7-1.6 1.5-1.7h9.4c.9 0 1.6.7 1.7 1.5v.1l-.1 6.1h1.6c1.2.1 2.2 1.1 2.2 2.3zm-4.9 2.2h-2.1c-.7.9-1.7 1.4-2.8 1.4-2 0-3.6-1.6-3.6-3.6s1.6-3.6 3.6-3.6c1 0 2 .4 2.6 1.2l.1.2h2l.1-6.1c0-.2-.2-.4-.4-.5H6.7c-.2 0-.4.2-.5.4v16.6c0 .2.2.4.4.5H16c.2 0 .4-.2.5-.4v-6.1zm3.7-2.2c0-.5-.4-.9-.9-1h-5.6l-.2-.3c-.4-.7-1.2-1.1-2-1.1C10.1 9.6 9 10.7 9 12c0 1.3 1.1 2.4 2.4 2.4.8 0 1.5-.4 1.9-1l.1-.2.2-.3h5.5c.6.1 1-.3 1-.9z"/></svg>