<svg xmlns="http://www.w3.org/2000/svg" width="24" height="24"><path d="M18 5.4v9c0 .8-.6 1.4-1.3 1.4h-8c-.2 0-1.7 0-2.3.9L6 17l-.7.7-.7.8c-.1 0-.1.1-.2.1 0 0-.1-.1-.1-.4V5.1c0-.8.6-1.4 1.3-1.4h11.1c.6 0 1.1.4 1.2 1 .1.1.1.3.1.4v.3zm1.8-.1l-1.7-1.6c-.3-.4-.8-.7-1.4-.7H5.6c-1.1 0-2 1-2 2.1v13.1c0 .4.1.6.2.8 0 .1.1.1.2.2l1.6 1.6.1.1s.1 0 .1.1H6c.3 0 .6-.2.6-.2l1.9-2c.4-.5 1.5-.6 1.8-.6h8.1c1.1 0 2-1 2-2.1V6.8c0-.6-.2-1.1-.6-1.5zM8.4 7.8c.7 0 1.2.5 1.2 1.2v2.5c0 .6-.5 1.2-1.2 1.2s-1.2-.5-1.2-1.2V9c0-.7.5-1.2 1.2-1.2zm6 0c.7 0 1.2.5 1.2 1.2v2.5c0 .6-.5 1.2-1.2 1.2s-1.2-.5-1.2-1.2V9c0-.7.5-1.2 1.2-1.2z"/></svg>