<svg xmlns="http://www.w3.org/2000/svg" width="24" height="24"><path d="M11 8.8c0-.5.3-.8.8-.8s.8.3.8.8c0 .4-.3.8-.8.8s-.8-.4-.8-.8zM9.8 6.5c.4 0 .8-.3.8-.8 0-.4-.3-.8-.8-.8s-.8.4-.8.9c0 .4.3.7.8.7zm4 0c.4 0 .8-.3.8-.8 0-.4-.3-.8-.8-.8s-.8.4-.8.9c0 .4.3.7.8.7zm0 6c.4 0 .8-.3.8-.8 0-.4-.3-.8-.8-.8s-.8.4-.8.9c0 .4.3.7.8.7zm-8-6c.4 0 .8-.3.8-.8-.1-.4-.4-.7-.8-.7s-.8.3-.8.8c0 .4.3.7.8.7zm4 6c.4 0 .8-.3.8-.8 0-.4-.3-.8-.8-.8s-.8.4-.8.9c0 .4.3.7.8.7zM22 18c0 2.2-.9 4-2 4H4c-1.1 0-2-1.8-2-4V4c0-1.1.9-2 2-2h12c1.1 0 2 .9 2 2v10h2.1c1.1.1 1.9 1.9 1.9 4zM3.2 14.3c.2-.2.5-.3.8-.3h12.8V3.9c0-.4-.4-.7-.8-.7H3.9c-.4.1-.7.4-.7.8v10.3zM4.8 18c0-1.6-.5-2.7-.8-2.8-.2.1-.8 1.2-.8 2.8 0 1.6.6 2.8.8 2.8s.8-1.2.8-2.8zm16 0c0-.9-.2-1.7-.4-2.2-.1-.3-.2-.4-.3-.5l-.1-.1H5.4c.4.7.6 1.7.6 2.8s-.2 2.1-.6 2.8H20c.3-.1.8-1.2.8-2.8zm-15-5.5c.4 0 .8-.3.8-.8 0-.4-.3-.8-.8-.8s-.8.4-.8.9c0 .4.3.7.8.7zm2-3c.4 0 .8-.3.8-.8-.1-.4-.4-.7-.8-.7s-.8.3-.8.8c0 .4.3.7.8.7z"/></svg>