<svg xmlns="http://www.w3.org/2000/svg" width="24" height="24"><path d="M4.9 19.1c.3.3.3.8 0 1.1-.3.3-.8.3-1.1 0-.3-.3-.3-.8 0-1.1.3-.3.8-.3 1.1 0zm3.4 2.2c-.4-.2-.9 0-1 .4-.2.4 0 .9.4 1 .4.2.9 0 1-.4.2-.4 0-.9-.4-1zM4.9 4.9c.3-.3.3-.8 0-1.1-.3-.3-.8-.3-1.1 0-.3.3-.3.8 0 1.1.3.3.8.3 1.1 0zM1.7 15.5c-.4.2-.6.6-.4 1 .2.4.6.6 1 .4.4-.2.6-.6.4-1-.1-.4-.5-.6-1-.4zm0-6.8c.4.2.9 0 1-.4.2-.4 0-.9-.4-1-.4-.2-.9 0-1 .4-.2.4 0 .8.4 1zM12 2c.4 0 .8-.4.8-.8s-.4-.8-.8-.8-.8.4-.8.8.4.8.8.8zm0 20c-.4 0-.8.4-.8.8s.4.8.8.8.8-.4.8-.8-.4-.8-.8-.8zM2 12c0-.4-.4-.8-.8-.8s-.8.4-.8.8.4.8.8.8.8-.4.8-.8zm6.1-9.2c.4-.2.6-.6.4-1-.2-.4-.6-.6-1-.4-.4.1-.6.6-.5 1 .2.4.7.6 1.1.4zm14.2 12.5c-.4-.2-.9 0-1 .4-.2.4 0 .9.4 1 .4.2.9 0 1-.4.2-.4 0-.8-.4-1zm0-6.8c.4-.2.6-.6.4-1-.2-.4-.6-.6-1-.4-.4.2-.6.6-.4 1 .1.4.5.6 1 .4zm-2.1 10.6c-.3-.3-.8-.3-1.1 0-.3.3-.3.8 0 1.1.3.3.8.3 1.1 0 .3-.3.3-.8 0-1.1zM14.4 8.5c-.3 0-.6.3-.6.6v4.3l-3.7-4.7-.1-.1s-.1 0-.1-.1H9v6.4c0 .3.3.6.6.6s.6-.3.6-.6v-4.3l3.7 4.7.2.2h.9V9.1c0-.3-.3-.6-.6-.6zm8.4 2.7c-.4 0-.8.4-.8.8s.4.8.8.8.8-.4.8-.8-.4-.8-.8-.8zm-2.6-6.3c.3-.3.3-.8 0-1.1-.3-.3-.8-.3-1.1 0-.3.3-.3.8 0 1.1.3.3.8.3 1.1 0zm-4.5-2.2c.4.2.9 0 1-.4.2-.4 0-.9-.4-1-.4-.2-.9 0-1 .4-.2.4 0 .9.4 1zM17 21.6c-.2-.4-.6-.6-1-.4-.4.2-.6.6-.4 1 .2.4.6.6 1 .4.3-.1.5-.6.4-1z"/></svg>