<svg xmlns="http://www.w3.org/2000/svg" width="24" height="24"><path d="M11.9 11.2c.2.2.1.5-.1.7-.5.4-1.1.6-1.8.6s-1.3-.2-1.8-.6c-.2-.2-.3-.5-.1-.7.2-.2.5-.3.7-.1.3.3.8.4 1.2.4.4 0 .9-.1 1.2-.4.2-.2.5-.1.7.1zM6.8 8c-.5 0-.8.3-.8.8s.3.8.8.8c.4 0 .8-.3.8-.8S7.2 8 6.8 8zm6.5 0c-.4 0-.8.3-.8.8s.3.8.8.8c.4 0 .8-.3.8-.8s-.4-.8-.8-.8zM22 6.6v6.9c0 .6-.4 1-1 1-.1 0-.3 0-.4-.1L18 13.2V16c0 1.1-.9 2-2 2H9.6l-2.8 3.6c-.3.4-1 .5-1.4.2-.3-.2-.4-.5-.4-.8v-3H4c-1.1 0-2-.9-2-2V5c0-1.1.9-2 2-2h12c1.1 0 2 .9 2 2v1.8l2.6-1.2c.5-.2 1.1 0 1.3.5.1.2.1.3.1.5zm-1.2.3l-4 1.8V5c0-.4-.3-.7-.7-.8H4c-.4 0-.7.3-.8.7V16c0 .4.3.7.7.8h2.3v3.6l2.9-3.6H16c.4 0 .7-.3.8-.7v-4.8l4 1.8V6.9z"/></svg>