<svg xmlns="http://www.w3.org/2000/svg" width="24" height="24"><path d="M10.4 9.7l4 2.3-4 2.3V9.7zm10.5 2.1v.3c0 .4 0 2.8-.4 4.1-.2.9-1 1.6-1.9 1.9-1.3.3-5.5.4-6.5.4h-.3c-1 0-5.2 0-6.5-.4-.9-.2-1.6-1-1.9-1.9-.3-1.1-.4-3.3-.4-3.9v-.4c0-.7.1-2.8.4-3.9.3-1 1-1.8 1.9-2 1.2-.3 4.9-.4 6.3-.4h.8c1.3 0 5.1.1 6.2.4.9.2 1.6 1 1.9 1.9.4 1.1.4 3.2.4 3.9zm-1.5-3.6c-.1-.5-.5-.9-1-1-1-.3-4.9-.3-6.3-.3-1.4 0-5.3.1-6.3.3-.5.1-.9.5-1 1-.5 1.2-.5 3.8-.5 3.8s0 2.6.3 3.8c.1.5.5.9 1 1 1 .3 4.9.3 6.3.3 1.4 0 5.3-.1 6.3-.3.5-.1.9-.5 1-1 .3-1.2.3-3.8.3-3.8.2 0 .2-2.6-.1-3.8z"/></svg>