<svg xmlns="http://www.w3.org/2000/svg" width="24" height="24"><path d="M21 17.9l-1.4-7.8v-.2c-.3-1.2-1.3-2-2.5-2h-1.4V6.4C15.5 4.5 13.9 3 12 3c-2 0-3.6 1.6-3.6 3.6V8H7c-1.3 0-2.3.9-2.6 2.1L3 17.9v.5C3 19.8 4.2 21 5.6 21h13.3c1.4-.3 2.3-1.6 2.1-3.1zM9.6 6.6v-.2c.1-1.3 1.1-2.3 2.4-2.3 1.3 0 2.4 1.1 2.4 2.4v1.4H9.6V6.6zm9 13.2h-13c-.8 0-1.4-.6-1.4-1.4v-.3l1.4-7.8v-.1c.2-.6.7-1 1.3-1h1.4v1.9c0 .3.3.5.6.5s.6-.3.6-.6V9.2h4.8v1.9c0 .3.3.5.6.5s.6-.3.6-.6V9.2H17c.7 0 1.3.5 1.4 1.2l1.4 7.8c.1.7-.4 1.4-1.2 1.6z"/></svg>