<svg xmlns="http://www.w3.org/2000/svg" width="24" height="24"><path d="M20 10.8c-.1-1.1-.8-1.8-1.8-1.8h-5.4l.7-1.8c.5-2 .2-3-.8-3.7-1.1-.8-2.5-.7-2.8.7l-.1.5c-.1.2-.1.4-.2.6-.2.5-.3 1-.5 1.5-.4.9-.8 1.5-1.4 2-.2.1-.4.2-.8.2H4v11h2.9c.4 0 .7-.3 1.1-.8v-.1l.1.1c.4.5.9.8 1.4.8h7c.8 0 1.4-.5 1.7-1.2l.4-1.3c1-3.4 1.5-5.5 1.5-6.5l-.1-.2zm-13.2-.6v8.5H5.2v-8.6h1.6v.1zM17 18.3c-.1.3-.3.5-.6.5h-7c-.2 0-.5-.4-.9-1.1l-.5-.9V10h.1c.1-.1.2-.1.3-.2.8-.6 1.3-1.5 1.8-2.5.2-.5.4-1 .6-1.6l.1-.4.2-.8c.1-.3.4-.4.9-.1l.1.1c.6.4.7.9.3 2.3l-1 2.5-.3.8h7.1c.3 0 .6.2.6.7 0 1.1-.6 3.6-1.8 7.5z"/></svg>