<svg xmlns="http://www.w3.org/2000/svg" width="24" height="24"><path d="M21.7 11.7c-2.2-4.2-5.5-6.3-9.7-6.3-4.1 0-7.4 2-9.6 6l-.3.6.1.3c2.2 4.2 5.5 6.3 9.7 6.3 4.1 0 7.4-2 9.6-6l.3-.6-.1-.3zm-1.4.7c-2 3.4-4.7 5-8.3 5h-.3c-3.4-.1-6.1-1.8-8-5l-.2-.4.2-.4c2-3.4 4.7-5 8.3-5h.3c3.4.1 6.1 1.8 8 5l.2.4-.2.4zm-4.7-.4c0 2-1.6 3.6-3.6 3.6S8.4 14 8.4 12c0-.4.1-.8.2-1.2.1-.3.5-.5.8-.4.3.1.5.5.4.8-.1.3-.1.5-.1.8 0 1.3 1.1 2.4 2.4 2.4s2.4-1.1 2.4-2.4-1.2-2.4-2.5-2.4c-.3 0-.5 0-.8.1-.1 0-.3.1-.4.2-.3.2-.7.1-.8-.2-.2-.3-.1-.7.2-.8l.6-.3c.4-.1.8-.2 1.2-.2 2 0 3.6 1.6 3.6 3.6zM12 13c-.6 0-1-.4-1-1s.4-1 1-1 1 .4 1 1-.4 1-1 1z"/></svg>