<svg xmlns="http://www.w3.org/2000/svg" width="24" height="24"><path d="M15.8 10.3l-.2-.2-.2.2c-.9.8-1.9 1.2-3.2 1.2h-.3c-1.4 0-2.5-.4-3.5-1.2l-.2-.2-.2.2c-.8.7-1.8 1.1-2.9 1.2h-.6c-1.1 0-2.1-.3-2.9-.8v11.2h20.3V10.7c-.8.5-1.8.8-2.9.8-1.1.1-2.3-.4-3.2-1.2zM8 15.8c-.6 0-1-.4-1-1s.4-1 1-1 1 .4 1 1c0 .5-.4 1-1 1zm6 3h-4c-.3 0-.5-.2-.5-.5s.2-.5.5-.5h4c.3 0 .5.2.5.5s-.2.5-.5.5zm2-3c-.6 0-1-.4-1-1s.4-1 1-1 1 .4 1 1c0 .5-.4 1-1 1zM.8 7.3v-.1l.6-1.4.6-1.5.2-.3 1.1-2.5h17.4l1.4 3.1.8 1.9.3.7v.2c0 1.9-1.6 3.4-4 3.4-1.3 0-2.4-.5-3.2-1.4l-.4-.4-.4.5c-.8.8-1.8 1.3-3 1.3h-.3c-1.3 0-2.4-.5-3.2-1.4L8.4 9l-.4.4c-.8.8-1.8 1.3-3 1.3h-.3C2.4 10.8.8 9.3.8 7.3z"/></svg>