<svg xmlns="http://www.w3.org/2000/svg" width="24" height="24"><path d="M19 2H5c-.6 0-1 .4-1 1v18c0 .6.4 1 1 1h14c.6 0 1-.4 1-1V3c0-.6-.4-1-1-1zM8 19c-.4 0-.8-.3-.8-.8s.3-.8.8-.8.8.3.8.8-.4.8-.8.8zm0-3.7c-.4 0-.8-.3-.8-.8s.3-.8.8-.8.8.3.8.8-.4.8-.8.8zm0-3.8c-.4 0-.8-.3-.8-.8s.4-.7.8-.7.8.3.8.8-.4.7-.8.7zm4 7.5c-.4 0-.8-.3-.8-.8s.3-.8.8-.8.8.3.8.8-.4.8-.8.8zm0-3.7c-.4 0-.8-.3-.8-.8s.3-.8.8-.8.8.3.8.8-.4.8-.8.8zm0-3.8c-.4 0-.8-.3-.8-.8s.4-.7.8-.7.8.3.8.8-.4.7-.8.7zm4.6 7.1c0 .3-.3.6-.6.6s-.6-.3-.6-.6v-4.5c0-.3.3-.6.6-.6s.6.3.6.6v4.5zm-.6-7.1c-.4 0-.8-.3-.8-.8s.4-.7.8-.7.8.3.8.8-.4.7-.8.7zM18.5 7c0 .3-.3.5-.6.5H6.1c-.3 0-.6-.2-.6-.5V4c0-.3.3-.5.6-.5h11.8c.3 0 .6.2.6.5v3z"/></svg>