<svg xmlns="http://www.w3.org/2000/svg" width="24" height="24"><path d="M21.8 13.2v-3c0-.3-.3-.6-.6-.6s-.6.3-.6.6v1.3l-7.7-5.1c-.1-.1-.2-.1-.3-.1V3.6c0-.3-.3-.6-.6-.6s-.6.3-.6.6v2.7c-.1 0-.2.1-.3.1l-7.7 5.1v-1.3c0-.3-.3-.6-.6-.6s-.6.3-.6.6v3c0 .5.3 1 .7 1.3l8.2 5.4c.3.2.6.3.9.3s.6-.1.9-.3l8.2-5.4c.4-.3.7-.8.7-1.3zm-10-5.7c.1 0 .1-.1.2-.1s.2 0 .2.1l5.5 3.6-1.9 1.2L10 8.5l1.8-1zm3 5.6l-2.7 1.8-2.6-1.7 2.7-1.8 2.6 1.7zm-11.2.4c-.2-.1-.2-.3-.2-.3 0-.1 0-.2.2-.3L9 9.3l2 1.3-5.9 4-1.5-1.1zm8.6 5.4c-.1.1-.3.1-.4 0l-5.5-3.6 2.1-1.4 5.7 3.8-1.9 1.2zm8.2-5.4L15.2 17l-2-1.4 5.7-3.8 1.6 1c.2.1.2.3.2.3-.1.2-.1.3-.3.4z"/></svg>