<svg xmlns="http://www.w3.org/2000/svg" width="24" height="24"><path d="M10.8 11.2c0 .3-.2.5-.5.5s-.5-.2-.5-.5.2-.5.5-.5c.2 0 .5.2.5.5zm-.5-3.4c-.3 0-.5.2-.5.5s.2.5.5.5.5-.2.5-.5-.3-.5-.5-.5zm3.9 2.9c-.3 0-.5.2-.5.5s.2.5.5.5.5-.2.5-.5-.2-.5-.5-.5zm7.7 1.8v5.2H21v1.1h-1.2v-1.1H4v1.1H2.8v-1.1h-.7v-5.2c0-1.3 1-2.3 2.3-2.4h.3c.4 0 .8.1 1.1.3l.2.1V6.8c0-.9.8-1.7 1.7-1.7h8.7c1 0 1.8.7 1.8 1.6v3.8c.3-.2.7-.3 1.1-.4h.3c1.3 0 2.3 1 2.4 2.3l-.1.1zm-16 4v-4c0-.6-.5-1.1-1.1-1.2h-.3c-.6 0-1.2.5-1.2 1.1v4.1h2.6zm10.9-1.4c0-.3-.2-.6-.5-.6H7.7c-.3 0-.6.2-.6.5v1.5h9.7v-1.4zm.1-8.4c0-.3-.2-.5-.5-.5H7.8c-.3 0-.6.2-.6.5v6.7c.1 0 .3-.1.4-.1h8.6c.2 0 .4 0 .6.1l.1.1V6.7zm3.8 5.8c0-.6-.5-1.1-1.1-1.2h-.2c-.6 0-1.2.5-1.2 1.1v4.1h2.6v-4zm-6.5-4.7c-.3 0-.5.2-.5.5s.2.5.5.5.5-.2.5-.5-.2-.5-.5-.5z"/></svg>