<svg xmlns="http://www.w3.org/2000/svg" width="24" height="24"><path d="M12.8 18.3c0 .4-.3.8-.8.8s-.8-.3-.8-.8.3-.8.8-.8.8.3.8.8zM8 10c-.4 0-.8.3-.8.8s.3.8.8.8.8-.3.8-.8-.4-.8-.8-.8zm4 3.8c-.4 0-.8.3-.8.8s.3.8.8.8.8-.3.8-.8-.4-.8-.8-.8zm-4 0c-.4 0-.8.3-.8.8s.3.8.8.8.8-.3.8-.8-.4-.8-.8-.8zm0 3.7c-.4 0-.8.3-.8.8s.4.7.8.7.8-.3.8-.8-.4-.7-.8-.7zm4-7.5c-.4 0-.8.3-.8.8s.3.8.8.8.8-.3.8-.8-.4-.8-.8-.8zm5.5-6h-11c-.3 0-.5.2-.5.5v3c0 .3.2.5.5.5h11c.3 0 .5-.2.5-.5v-3c0-.3-.2-.5-.5-.5zm3.1-1v18c0 .9-.7 1.6-1.6 1.6H5c-.9 0-1.6-.7-1.6-1.6V3c0-.9.7-1.6 1.6-1.6h14c.9 0 1.6.7 1.6 1.6zm-1.2 0c0-.2-.2-.4-.4-.4H5c-.2 0-.4.2-.4.4v18c0 .2.2.4.4.4h14c.2 0 .4-.2.4-.4V3zM16 10c-.4 0-.8.3-.8.8s.3.8.8.8.8-.3.8-.8-.4-.8-.8-.8zm0 3.5c-.3 0-.6.3-.6.6v4.5c0 .3.3.6.6.6s.6-.3.6-.6v-4.5c0-.3-.3-.6-.6-.6z"/></svg>