<svg xmlns="http://www.w3.org/2000/svg" width="24" height="24"><path d="M12 8.4c-2 0-3.6 1.6-3.6 3.6s1.6 3.6 3.6 3.6 3.6-1.6 3.6-3.6S14 8.4 12 8.4zm0 6c-1.3 0-2.4-1.1-2.4-2.4s1.1-2.4 2.4-2.4 2.4 1.1 2.4 2.4-1.1 2.4-2.4 2.4zm4.4-6.2c0 .4-.4.8-.8.8s-.8-.4-.8-.8.4-.8.8-.8.8.4.8.8zm-1.1-3.1H8.7c-2 0-3.6 1.6-3.6 3.6v6.6c0 2 1.6 3.6 3.6 3.6h6.6c2 0 3.6-1.6 3.6-3.6V8.7c0-2-1.6-3.6-3.6-3.6zm2.4 10.2c0 1.3-1.1 2.4-2.4 2.4H8.7c-1.3 0-2.4-1.1-2.4-2.4V8.7c0-1.3 1.1-2.4 2.4-2.4h6.6c1.3 0 2.4 1.1 2.4 2.4v6.6z"/></svg>