<svg xmlns="http://www.w3.org/2000/svg" width="24" height="24"><path d="M20 13.5V20H4v-6.4c0-.3.3-.6.6-.6s.5.2.6.5v5.3h13.6v-5.2c0-.3.2-.5.5-.6h.1c.3 0 .5.2.6.5zm1.6-4.9c0 2-1.4 3.6-3.6 3.6-1.2 0-2.2-.5-2.9-1.4l-.1-.1-.1.1c-.7.8-1.6 1.3-2.7 1.4H12c-1.2 0-2.2-.5-2.9-1.4l-.1-.1-.1.1c-.7.8-1.6 1.3-2.7 1.4H6c-2.2 0-3.6-1.6-3.6-3.6v-.2c.2-.7.6-1.7 1.1-2.9l1-2.5h14.8l.2.4c.8 1.9 1.4 3.3 1.8 4.4l.2.6.1.2zm-13.2.8V4.2h-3C4.7 5.8 4.2 7.1 3.9 8l-.3.7v.1c.1 1.2.9 2.1 2.2 2.2H6c1.1 0 1.8-.5 2.4-1.6zm6 0V4.2H9.6v5.2c.6 1.1 1.3 1.6 2.4 1.6 1.1 0 1.8-.5 2.4-1.6zm6-.7l-.2-.5c-.2-.4-.4-1-.6-1.6l-1-2.4h-3v5.3c.6 1.1 1.3 1.5 2.4 1.5 1.4 0 2.4-1 2.4-2.3z"/></svg>