<svg version="1.1" id="Layer_1" xmlns="http://www.w3.org/2000/svg" x="0" y="0" viewBox="0 0 24 24" xml:space="preserve" enable-background="new 0 0 24 24"><style>.st1{fill-rule:evenodd;clip-rule:evenodd;fill:#fff}</style><defs><filter id="Adobe_OpacityMaskFilter" filterUnits="userSpaceOnUse" x="2" y="2" width="20" height="20"><feColorMatrix values="1 0 0 0 0 0 1 0 0 0 0 0 1 0 0 0 0 0 1 0"/></filter></defs><mask maskUnits="userSpaceOnUse" x="2" y="2" width="20" height="20" id="hbfb7erfjb_1_"><g filter="url(#Adobe_OpacityMaskFilter)"><circle id="mr6uajdnca_2_" class="st1" cx="12" cy="12" r="10"/></g></mask><path d="M2 2h20v20H2V2z" mask="url(#hbfb7erfjb_1_)" fill-rule="evenodd" clip-rule="evenodd" fill="#ef4384"/><defs><filter id="Adobe_OpacityMaskFilter_1_" filterUnits="userSpaceOnUse" x="2" y="17.6" width="11.7" height="4.4"><feColorMatrix values="1 0 0 0 0 0 1 0 0 0 0 0 1 0 0 0 0 0 1 0"/></filter></defs><mask maskUnits="userSpaceOnUse" x="2" y="17.6" width="11.7" height="4.4" id="hbfb7erfjb_2_"><g filter="url(#Adobe_OpacityMaskFilter_1_)"><circle id="mr6uajdnca_3_" class="st1" cx="12" cy="12" r="10"/></g></mask><path d="M2 17.6L13.7 22H2v-4.4z" mask="url(#hbfb7erfjb_2_)" fill-rule="evenodd" clip-rule="evenodd" fill="#df1a59"/><defs><filter id="Adobe_OpacityMaskFilter_2_" filterUnits="userSpaceOnUse" x="11.4" y="10.3" width="7.1" height="11.7"><feColorMatrix values="1 0 0 0 0 0 1 0 0 0 0 0 1 0 0 0 0 0 1 0"/></filter></defs><mask maskUnits="userSpaceOnUse" x="11.4" y="10.3" width="7.1" height="11.7" id="hbfb7erfjb_3_"><g filter="url(#Adobe_OpacityMaskFilter_2_)"><circle id="mr6uajdnca_4_" class="st1" cx="12" cy="12" r="10"/></g></mask><path d="M11.4 12.1l5.3-1.8L18.5 22h-.9l-6.2-9.9z" mask="url(#hbfb7erfjb_3_)" fill-rule="evenodd" clip-rule="evenodd" fill="#f06fab"/><defs><filter id="Adobe_OpacityMaskFilter_3_" filterUnits="userSpaceOnUse" x="16.8" y="10.3" width="5.2" height="11.7"><feColorMatrix values="1 0 0 0 0 0 1 0 0 0 0 0 1 0 0 0 0 0 1 0"/></filter></defs><mask maskUnits="userSpaceOnUse" x="16.8" y="10.3" width="5.2" height="11.7" id="hbfb7erfjb_4_"><g filter="url(#Adobe_OpacityMaskFilter_3_)"><circle id="mr6uajdnca_5_" class="st1" cx="12" cy="12" r="10"/></g></mask><path d="M16.8 10.3L22 18v4h-3.5l-1.7-11.7z" mask="url(#hbfb7erfjb_4_)" fill-rule="evenodd" clip-rule="evenodd" fill="#6e036b"/><defs><filter id="Adobe_OpacityMaskFilter_4_" filterUnits="userSpaceOnUse" x="16.8" y="8.6" width="5.2" height="10.6"><feColorMatrix values="1 0 0 0 0 0 1 0 0 0 0 0 1 0 0 0 0 0 1 0"/></filter></defs><mask maskUnits="userSpaceOnUse" x="16.8" y="8.6" width="5.2" height="10.6" id="hbfb7erfjb_5_"><g filter="url(#Adobe_OpacityMaskFilter_4_)"><circle id="mr6uajdnca_6_" class="st1" cx="12" cy="12" r="10"/></g></mask><path d="M16.8 10.3L22 8.6v10.6l-5.2-8.9z" mask="url(#hbfb7erfjb_5_)" fill-rule="evenodd" clip-rule="evenodd" fill="#4f2f6d"/><defs><filter id="Adobe_OpacityMaskFilter_5_" filterUnits="userSpaceOnUse" x="16.8" y="5.6" width="5.2" height="4.7"><feColorMatrix values="1 0 0 0 0 0 1 0 0 0 0 0 1 0 0 0 0 0 1 0"/></filter></defs><mask maskUnits="userSpaceOnUse" x="16.8" y="5.6" width="5.2" height="4.7" id="hbfb7erfjb_6_"><g filter="url(#Adobe_OpacityMaskFilter_5_)"><circle id="mr6uajdnca_7_" class="st1" cx="12" cy="12" r="10"/></g></mask><path d="M16.8 10.3L22 9.2V5.6l-5.2 4.7z" mask="url(#hbfb7erfjb_6_)" fill-rule="evenodd" clip-rule="evenodd" fill="#d7a3cd"/><defs><filter id="Adobe_OpacityMaskFilter_6_" filterUnits="userSpaceOnUse" x="16.8" y="2" width="5.2" height="8.3"><feColorMatrix values="1 0 0 0 0 0 1 0 0 0 0 0 1 0 0 0 0 0 1 0"/></filter></defs><mask maskUnits="userSpaceOnUse" x="16.8" y="2" width="5.2" height="8.3" id="hbfb7erfjb_7_"><g filter="url(#Adobe_OpacityMaskFilter_6_)"><circle id="mr6uajdnca_8_" class="st1" cx="12" cy="12" r="10"/></g></mask><path d="M16.8 10.3L22 2v5.3l-5.2 3z" mask="url(#hbfb7erfjb_7_)" fill-rule="evenodd" clip-rule="evenodd" fill="#c954a0"/><defs><filter id="Adobe_OpacityMaskFilter_7_" filterUnits="userSpaceOnUse" x="12.8" y="2" width="9.2" height="8.3"><feColorMatrix values="1 0 0 0 0 0 1 0 0 0 0 0 1 0 0 0 0 0 1 0"/></filter></defs><mask maskUnits="userSpaceOnUse" x="12.8" y="2" width="9.2" height="8.3" id="hbfb7erfjb_8_"><g filter="url(#Adobe_OpacityMaskFilter_7_)"><circle id="mr6uajdnca_9_" class="st1" cx="12" cy="12" r="10"/></g></mask><path d="M16.8 10.3l-3.9-2.1 6-6.2H22v1.7l-5.2 6.6z" mask="url(#hbfb7erfjb_8_)" fill-rule="evenodd" clip-rule="evenodd" fill="#fddcce"/><defs><filter id="Adobe_OpacityMaskFilter_8_" filterUnits="userSpaceOnUse" x="2" y="2" width="20" height="6.1"><feColorMatrix values="1 0 0 0 0 0 1 0 0 0 0 0 1 0 0 0 0 0 1 0"/></filter></defs><mask maskUnits="userSpaceOnUse" x="2" y="2" width="20" height="6.1" id="hbfb7erfjb_9_"><g filter="url(#Adobe_OpacityMaskFilter_8_)"><circle id="mr6uajdnca_10_" class="st1" cx="12" cy="12" r="10"/></g></mask><path d="M12.8 8.1L2 3.4V2h20l-9.2 6.1z" mask="url(#hbfb7erfjb_9_)" fill-rule="evenodd" clip-rule="evenodd" fill="#ffc622"/><defs><filter id="Adobe_OpacityMaskFilter_9_" filterUnits="userSpaceOnUse" x="2" y="2" width="10.8" height="6.1"><feColorMatrix values="1 0 0 0 0 0 1 0 0 0 0 0 1 0 0 0 0 0 1 0"/></filter></defs><mask maskUnits="userSpaceOnUse" x="2" y="2" width="10.8" height="6.1" id="hbfb7erfjb_10_"><g filter="url(#Adobe_OpacityMaskFilter_9_)"><circle id="mr6uajdnca_11_" class="st1" cx="12" cy="12" r="10"/></g></mask><path d="M12.8 8.1L2 2v5l10.8 1.1z" mask="url(#hbfb7erfjb_10_)" fill-rule="evenodd" clip-rule="evenodd" fill="#d56025"/><defs><filter id="Adobe_OpacityMaskFilter_10_" filterUnits="userSpaceOnUse" x="2" y="6.1" width="10.8" height="11.7"><feColorMatrix values="1 0 0 0 0 0 1 0 0 0 0 0 1 0 0 0 0 0 1 0"/></filter></defs><mask maskUnits="userSpaceOnUse" x="2" y="6.1" width="10.8" height="11.7" id="hbfb7erfjb_11_"><g filter="url(#Adobe_OpacityMaskFilter_10_)"><circle id="mr6uajdnca_12_" class="st1" cx="12" cy="12" r="10"/></g></mask><path d="M12.8 8.1L2 17.8V6.1l10.8 2z" mask="url(#hbfb7erfjb_11_)" fill-rule="evenodd" clip-rule="evenodd" fill="#f99300"/><defs><filter id="Adobe_OpacityMaskFilter_11_" filterUnits="userSpaceOnUse" x="2" y="8.1" width="14.8" height="9.4"><feColorMatrix values="1 0 0 0 0 0 1 0 0 0 0 0 1 0 0 0 0 0 1 0"/></filter></defs><mask maskUnits="userSpaceOnUse" x="2" y="8.1" width="14.8" height="9.4" id="hbfb7erfjb_12_"><g filter="url(#Adobe_OpacityMaskFilter_11_)"><circle id="mr6uajdnca_13_" class="st1" cx="12" cy="12" r="10"/></g></mask><path d="M12.8 8.1L2 17.6l14.8-7.3-4-2.2z" mask="url(#hbfb7erfjb_12_)" fill-rule="evenodd" clip-rule="evenodd" fill="#fa9ea0"/></svg>