<svg xmlns="http://www.w3.org/2000/svg" width="24" height="24"><path d="M12 10c-1.7 0-3 1.3-3 3s1.3 3 3 3 3-1.3 3-3-1.3-3-3-3zm0 4.8c-1 0-1.8-.8-1.8-1.8s.8-1.8 1.8-1.8 1.8.8 1.8 1.8-.8 1.8-1.8 1.8zM19.5 6h-3.3l-.8-1.3c-.2-.4-.7-.7-1.2-.7H9.8c-.5 0-1 .3-1.3.7L7.8 6H4.5C3.7 6 3 6.7 3 7.5v11c0 .8.7 1.5 1.5 1.5h15c.8 0 1.5-.7 1.5-1.5v-11c0-.8-.7-1.5-1.5-1.5zm.3 12.5c0 .2-.2.3-.3.3H4.4c-.1 0-.2-.1-.2-.3V7.4c0-.1.1-.2.3-.2h4l1.1-1.9c.1-.1.1-.1.2-.1h4.4c.1 0 .2.1.2.1l1.1 1.9h4.1c.1 0 .2.1.2.3v11z"/></svg>