<svg xmlns="http://www.w3.org/2000/svg" width="24" height="24"><path d="M22 14.5c0-.8-.7-1.3-1.8-1.7V5.5c-.1-.9-.8-1.5-1.6-1.5H3.5c-.9.1-1.5.8-1.5 1.6v10.1c.1.8.8 1.5 1.6 1.5h9.2v1.7c.1 1.3 2.2 2.1 4.6 2.1 2.5 0 4.6-.8 4.6-2.2v-4.3zm-1.2 0c0 .2-.3.4-.9.6l-.3.1c-.6.2-1.3.3-2.2.3-.8 0-1.6-.1-2.2-.3l-.3-.1c-.6-.2-.9-.4-.9-.6 0-.2.3-.4.9-.6l.3-.1c.6-.2 1.3-.3 2.2-.3.8 0 1.6.1 2.2.3l.3.1c.6.2.9.4.9.6zm0 1.5v.6c-.1.4-1.6.9-3.4.9-1.9 0-3.4-.6-3.4-1V16c.8.4 2.1.6 3.4.6 1.3 0 2.6-.2 3.4-.6zM3.5 16c-.2 0-.3-.2-.3-.4V5.5c0-.2.2-.3.4-.3h15.1c.2 0 .3.2.3.4v6.9c-.5-.1-1-.1-1.6-.1-2.4 0-4.5.7-4.6 2V16H3.5zm17.3 2.8c-.1.4-1.6 1-3.4 1-1.9 0-3.4-.6-3.4-1v-.7c.8.4 2.1.7 3.4.7 1.3 0 2.6-.2 3.4-.7v.7zm-7.6-5.3l1.1-3.5h1.2V9h-.9l.5-1.5H14L13.5 9H12l-.4-1.5h-1L10.1 9H8.5l-.4-1.5H7L7.5 9h-1v1h1.3l1.1 3.5h1l1-3.5h.4l1 3.5h.9zm0-3.5l-.5 1.6-.4-1.6h.9zm-3.9 1.6L8.8 10h1l-.5 1.6z"/></svg>