<svg xmlns="http://www.w3.org/2000/svg" width="24" height="24"><path d="M18.2 5.5c.1 0 .1 0 0 0zm.5-.1l-.4.1c.2-.1.3-.1.4-.1zm1.8-.5c-.1 0-.2 0-.2.1l.2-.1zM12 6c1.8 0 3.5-.1 5-.3l.4-.1h.1c.2 0 .3-.1.5-.1h.3c.1 0 .3-.1.4-.1.2-.1.5-.1.7-.2.3-.1.5-.1.8-.2h.1C22 4.5 23 3.8 23 3c0-1.7-4.9-3-11-3S1 1.3 1 3s4.9 3 11 3zm8.5-.2c1-.3 1.9-.8 2.5-1.2V20c0 1.7-4.9 3-11 3-6 0-10.8-1.3-11-2.9V4.6C2.8 6 7.1 7 12 7c1.8 0 3.5-.1 5-.4v3.9c0 .3.2.5.5.5s.5-.2.5-.5V8.4c0-.2.3-.4.5-.4.3 0 .5.2.5.5V12c0 .6.2 1 .8 1s.8-.4.8-1l-.1-6.2zM6 13c0-.6-.4-1-1-1s-1 .4-1 1 .4 1 1 1 1-.4 1-1zm5.5 3.5c0-.3-.2-.5-.5-.5H7c-.3 0-.5.2-.5.5s.2.5.5.5h4c.3 0 .5-.2.5-.5zM14 13c0-.6-.4-1-1-1s-1 .4-1 1 .4 1 1 1 1-.4 1-1zm9-8.4z"/></svg>