<svg xmlns="http://www.w3.org/2000/svg" width="24" height="24"><path d="M20 15.7l-2.1-2.1c-.8-.8-1.9-.8-2.7 0L14 14.8l-.5-.3-.1-.1c-1.1-.7-2.2-1.7-3.1-2.9l-.3-.2c-.3-.4-.6-.8-.8-1.2V10l.2-.2.9-.9c.8-.8.8-1.9 0-2.8l-2-2V4c-.8-.8-1.9-.8-2.7 0L4.4 5.1l-.1.2c-.5.5-.8 1.1-.9 1.8-.1 1 .1 1.8.5 2.9.6 1.7 1.6 3.3 2.9 4.9 1.7 2 3.7 3.6 6 4.7 1.2.6 2.3.9 3.4 1 1 .1 1.9-.2 2.5-1l.2-.2.1-.1.8-.8.1-.1c.9-.8.9-1.9.1-2.7zm-.9 1.9l-.8.8-.3.3-.2.2c-.4.4-.9.6-1.5.6-.9-.1-1.9-.3-3-.9-2.2-1.1-4-2.5-5.6-4.4-1.2-1.5-2.1-3-2.7-4.5-.3-1-.4-1.8-.4-2.5 0-.4.2-.8.5-1l.3-.2 1.1-1.1c.3-.3.7-.3 1 0L9.6 7c.4.4.4.7 0 1.1l-.6.4-.4.4-.3.4c-.3.3-.4.6-.3 1 .3.7.7 1.3 1.3 2 1.1 1.3 2.2 2.3 3.4 3.1l.2.1.3.1.5.2c.4.2.8.1 1.1-.2l.7-.7.6-.6c.3-.3.7-.3 1 0l2.1 2.1c.3.5.3.8-.1 1.2z"/></svg>