<svg xmlns="http://www.w3.org/2000/svg" width="24" height="24"><path d="M12.5 6l.4 6.7 4.5 3c.2.1.3.5.1.7-.1.2-.4.3-.6.2L11.6 14c-.3-.1-.4-.4-.5-.6 0-.1-.1-.2-.1-.3V13l.4-7c0-.3.3-.5.5-.5.4 0 .6.2.6.5zm2.3-2.2c.4 0 .8-.3.8-.8s-.3-.8-.8-.8-.7.4-.7.8.3.8.7.8zm2.7 1.3c.4 0 .8-.3.8-.8s-.3-.8-.8-.8-.8.3-.8.8.4.8.8.8zm2.2.7c-.4 0-.8.3-.8.8s.3.8.8.8.8-.3.8-.8-.4-.8-.8-.8zM21 10c.4 0 .8-.3.8-.8s-.4-.7-.8-.7-.8.3-.8.8.3.7.8.7zm.4 1.5c-.3 0-.5.2-.6.5v.3c-.1 4.7-4 8.5-8.8 8.5-4.9 0-8.8-3.9-8.8-8.8S7.1 3.2 12 3.2h.1c.3 0 .6-.3.6-.6s-.3-.6-.6-.6h-.4C6.3 2.2 2 6.6 2 12c0 5.5 4.5 10 10 10s10-4.5 10-10c-.1-.3-.3-.5-.6-.5zM21 2c-.8 0-1.5.3-2.1.8 1.6 1.2 2.9 2.8 3.7 4.7C23.4 7 24 6.1 24 5c0-1.7-1.3-3-3-3zm-15.9.8C4.5 2.3 3.8 2 3 2 1.3 2 0 3.3 0 5c0 1.1.6 2 1.4 2.5.8-1.8 2.1-3.5 3.7-4.7z"/></svg>