<svg xmlns="http://www.w3.org/2000/svg" width="24" height="24"><path d="M13.9 13.7c.2.2.2.5 0 .8l-.1.1-1.8 1.7c-.1.1-.3.2-.4.2-.2 0-.3-.1-.4-.2-.2-.2-.2-.5 0-.8l.1-.1 1.8-1.7c.2-.3.6-.3.8 0zm3.4-.1c0 3-2.4 5.4-5.4 5.4-3 0-5.4-2.4-5.4-5.4 0-3 2.4-5.4 5.4-5.4 3 0 5.4 2.4 5.4 5.4zm-1.2 0c0-2.3-1.9-4.2-4.2-4.2s-4.2 1.9-4.2 4.2c0 2.3 1.9 4.2 4.2 4.2s4.2-1.9 4.2-4.2zm-3-2.7l-1.8 1.7-.1.1c-.2.2-.2.6 0 .8.1.1.3.2.4.2.1 0 .3-.1.4-.2l1.8-1.7.1-.1c.2-.2.2-.6 0-.8-.2-.2-.6-.2-.8 0zm7.2 2.7c0 4.6-3.8 8.4-8.4 8.4-4.6 0-8.4-3.8-8.4-8.4 0-2.7 1.3-5.2 3.4-6.7 0 0 0-.1.1-.1l4-4.4c.2-.2.5-.4.8-.4h.2c.3 0 .6.1.8.3l.1.1L17.1 7s0 .1.1.1c1.9 1.5 3.1 3.9 3.1 6.5zM9.8 5.5c.7-.2 1.4-.3 2.1-.3.6 0 1.3.1 1.9.2l.4.1-2-2.1c-.1-.1-.3-.1-.4-.1h-.1L9.8 5.5zm9.3 8.1c0-4-3.2-7.2-7.2-7.2s-7.2 3.2-7.2 7.2 3.2 7.2 7.2 7.2 7.2-3.2 7.2-7.2z"/></svg>