<svg xmlns="http://www.w3.org/2000/svg" width="40" height="40"><g fill="none" fill-rule="evenodd"><g transform="scale(-1 1) rotate(-5 48.26 338.775)"><path fill="#1C1814" d="M1.6 5a.6.6 0 00-.6.6v16.838a.562.562 0 001.126 0L2.197 5.6a.597.597 0 00-.594-.6H1.6z"/><circle cx="3.5" cy="3.5" r="3.5" fill="#62D7AB" stroke="#1C1814" stroke-width="1.2" transform="matrix(-1 0 0 1 7 0)"/></g><path fill="#FFF" stroke="#1C1814" stroke-width="1.2" d="M5 3.428c.371 0 .727.148.99.41h0L36.162 34.01a1.397 1.397 0 010 1.98c-.263.263-.62.41-.99.41h0H5A1.396 1.396 0 013.6 35h0V4.828a1.4 1.4 0 011.4-1.4z"/><path fill="#FFF" stroke="#1C1814" stroke-width="1.2" d="M10.717 18.131c.39-.117.49-.075.566 0h0l10.586 10.586a.398.398 0 010 .566.4.4 0 01-.283.117h0H11a.403.403 0 01-.4-.4h0V18.414c0-.11.045-.21.117-.283z"/><path fill="#1C1814" d="M9.6 33a.6.6 0 01.6.6v2.8a.6.6 0 01-1.2 0v-2.8a.6.6 0 01.6-.6zm3 1a.6.6 0 01.6.6v1.8a.6.6 0 01-1.2 0v-1.8a.6.6 0 01.6-.6zm3-1a.6.6 0 01.6.6v2.8a.6.6 0 01-1.2 0v-2.8a.6.6 0 01.6-.6zm3 1a.6.6 0 01.6.6v1.8a.6.6 0 01-1.2 0v-1.8a.6.6 0 01.6-.6zm3-1a.6.6 0 01.6.6v2.8a.6.6 0 01-1.2 0v-2.8a.6.6 0 01.6-.6zm3 1a.6.6 0 01.6.6v1.8a.6.6 0 01-1.2 0v-1.8a.6.6 0 01.6-.6zm3-1a.6.6 0 01.6.6v2.8a.6.6 0 01-1.2 0v-2.8a.6.6 0 01.6-.6z"/><g transform="rotate(85 11.304 27.204)"><path fill="#1C1814" d="M1.6 5a.6.6 0 00-.6.6v16.838a.562.562 0 001.126 0L2.197 5.6a.597.597 0 00-.594-.6H1.6z"/><circle cx="3.5" cy="3.5" r="3.5" fill="#62D7AB" stroke="#1C1814" stroke-width="1.2" transform="matrix(-1 0 0 1 7 0)"/></g></g></svg>