<svg xmlns="http://www.w3.org/2000/svg" width="24" height="24"><path d="M20.3 10.6h-3.9v-1h-1.2v1h-2.8V5.7c0-1.5.6-1.5.9-1.5.3 0 .9 0 .9 1.5v.5h1.2v-.5c0-2.4-1.5-2.7-2.1-2.7-.6 0-2.1.3-2.1 2.7v4.9H8.4v-1H7.2v1H3.6c-.9 0-1.6.7-1.6 1.6v.5c0 .8.6 1.5 1.3 1.6v1C3.3 18.5 5.9 21 9 21h5.9c3.1 0 5.6-2.5 5.6-5.6v-1c.8-.1 1.4-.8 1.4-1.6v-.5c0-1-.7-1.7-1.6-1.7zm-1 4.8c0 2.4-2 4.4-4.4 4.4H9c-2.4 0-4.4-2-4.4-4.4v-1h14.8v1zm1.4-2.7c0 .1-.1.2-.2.3H3.3c-.1-.1-.1-.2-.1-.3v-.5c0-.2.2-.4.4-.4h16.7c.2 0 .4.2.4.4v.5z"/></svg>