<svg xmlns="http://www.w3.org/2000/svg" width="24" height="24"><path d="M8.4 9.1H2.6c-.3 0-.6-.3-.6-.6s.2-.5.5-.6h5.9c.3 0 .6.3.6.6s-.2.5-.6.6zm.1 3.4c.3 0 .5-.3.5-.6s-.3-.6-.6-.6H3.5c-.3 0-.5.3-.5.6s.3.6.6.6h4.9zm13.5.1v3.3c0 .8-.6 1.5-1.5 1.6H19c-.3 1.1-1.3 2-2.5 2s-2.3-.9-2.5-2h-3.8c-.3 1.1-1.3 2-2.5 2-1.4 0-2.6-1.2-2.6-2.6 0-1.4 1.2-2.6 2.6-2.6 1.2 0 2.3.9 2.5 2H14c.3-1.1 1.3-2 2.5-2s2.3.9 2.5 2h1.4c.2 0 .4-.1.4-.3v-3l-.3-.5h-7.1V6.1c0-.2-.1-.4-.3-.4H5.6c-.3 0-.6-.3-.6-.6s.2-.5.5-.6H13c.8 0 1.5.6 1.6 1.4h3.6l3.8 6.7zm-2.1-1.3l-2.4-4.2h-2.9v4.2h5.3zM9 16.9c0-.8-.6-1.4-1.4-1.4-.8 0-1.4.6-1.4 1.4 0 .8.6 1.4 1.4 1.4.8 0 1.4-.6 1.4-1.4zm8.9 0c0-.8-.6-1.4-1.4-1.4s-1.4.6-1.4 1.4c0 .8.6 1.4 1.4 1.4s1.4-.6 1.4-1.4z"/></svg>