<svg xmlns="http://www.w3.org/2000/svg" width="24" height="24"><path d="M22.6 6.6c.1-.1.2-.2.2-.3.1-.3-.1-.5-.3-.6L8.2 1.6c-1.1-.4-2.3.3-2.6 1.4l-.9 3.5C2.2 8.1.8 10.4 1.5 11.8c.3.5.8.8 1.5.9l-1.2 4.7c-.3 1.1.4 2.3 1.5 2.6l10.3 2.8c1.1.3 2.3-.4 2.6-1.5l3.4-12.5 3-2.2zm-20 4.5c-.1-.2 0-.8.4-1.5.3-.4.7-.9 1.2-1.3l-.8 3.1c-.5 0-.7-.1-.8-.3zm12.5 9.8c-.2.5-.7.8-1.1.6L3.6 18.7h-.1c-.4-.2-.7-.6-.6-1.1l1.3-4.9c1.2-.1 2.6-.6 4-1.3 2.4-1.4 4-3.4 3.9-4.9 0-.3-.3-.6-.6-.6h-.1c-.3 0-.5.3-.5.6v.1c0 .3-.1.8-.5 1.3-.6.9-1.6 1.8-2.8 2.5-1 .6-2.1 1-3 1.1l2.2-8.1v-.1c.2-.5.7-.7 1.1-.6l12.8 3.7-2.1 1.5-3.5 13zM23 18c0 1.1-.9 2-2 2s-2-.9-2-2c0-.7.7-2.4 2-5 1.3 2.6 2 4.3 2 5z"/></svg>