<svg xmlns="http://www.w3.org/2000/svg" width="24" height="24"><path d="M10.5 9.8c0 .4-.3.8-.8.8-.4-.1-.7-.4-.7-.8s.3-.8.8-.8c.4 0 .7.3.7.8zm3.7 2.3c-.3.3-.8.4-1.2.4-.4 0-.9-.1-1.2-.4-.2-.2-.5-.1-.7.1-.2.2-.1.5.1.7.5.4 1.1.6 1.8.6s1.3-.2 1.8-.6c.2-.2.3-.5.1-.7-.2-.2-.5-.3-.7-.1zm6.6.1c0 4.9-3.9 8.8-8.8 8.8H3.8c-.2 0-.4-.1-.5-.3-.1-.2-.1-.4.1-.6l1.8-2.4c-1.2-1.6-1.9-3.5-1.9-5.5 0-4.9 3.9-8.8 8.8-8.8 4.8 0 8.7 3.9 8.7 8.8zm-1.2 0c0-4.2-3.4-7.6-7.6-7.6-4.2 0-7.6 3.4-7.6 7.6 0 1.9.7 3.6 1.9 5 .2.2.2.5 0 .8L5 19.8h7c4.2 0 7.6-3.4 7.6-7.6zM16.3 9c-.4 0-.8.3-.8.8s.3.8.8.8c.4 0 .8-.3.8-.8s-.4-.8-.8-.8z"/></svg>