<svg xmlns="http://www.w3.org/2000/svg" width="24" height="24"><path d="M18.1 4.1c-.3-.2-.6-.2-.8.1-.3.2-.2.6.1.8.8.6 1.4 1.3 2 2.1l-5.5 3.2c-.5-.5-1.1-.8-1.8-.8s-1.3.3-1.8.8L4.7 7.1c.5-.8 1.2-1.5 1.9-2.1.3-.2.3-.6.1-.8-.2-.3-.5-.3-.8-.1C3.5 6 2 8.9 2 12c0 5.5 4.5 10 10 10s10-4.5 10-10c0-3.1-1.5-6.1-3.9-7.9zM3.2 12c0-1.4.3-2.7.9-3.9l5.5 3.2c-.1.2-.1.5-.1.7s0 .5.1.7l-5.5 3.2c-.6-1.2-.9-2.5-.9-3.9zm8.2 8.8c-2.8-.2-5.2-1.7-6.7-3.9l5.5-3.2c.3.3.7.6 1.2.7v6.4zm-.7-8.8c0-.7.6-1.3 1.3-1.3s1.3.6 1.3 1.3-.6 1.3-1.3 1.3-1.3-.6-1.3-1.3zm1.9 8.8v-6.4c.5-.1.9-.4 1.2-.7l5.5 3.2c-1.5 2.2-3.9 3.7-6.7 3.9zm1.8-8.1c.1-.2.1-.5.1-.7 0-.2 0-.5-.1-.7l5.5-3.2c.6 1.2.9 2.5.9 3.9s-.3 2.7-.9 3.9l-5.5-3.2zm-3.6-5.6c0 .1.1.2.2.3l.3.6.2.3c.2.4.8.4 1 0l.3-.6.2-.3.3-.5c.9-1.6 1.3-2.8 1.3-3.5 0-1.6-1.1-2.9-2.6-2.9S9.4 1.7 9.4 3.3c0 .7.4 1.8 1.1 3.3l.3.5zM12 1.6c.8 0 1.4.8 1.4 1.7v.1c0 .5-.3 1.2-.8 2.2l-.3.5-.3.5v.2l-.1-.2-.3-.5c-.7-1.3-1-2.2-1-2.8 0-.9.7-1.7 1.4-1.7z"/></svg>