<svg xmlns="http://www.w3.org/2000/svg" width="24" height="24"><path d="M22 21.4v-.2L12.7 5.9 14.5 3c.2-.3.1-.7-.2-.8-.3-.2-.7-.1-.8.2L12 4.7l-1.5-2.4c-.2-.3-.5-.4-.8-.2-.3.2-.4.5-.2.8l1.8 2.9-9.2 15.3v.5s0 .1.1.1l.1.1h.1c0 .2.1.2.2.2h18.8c.1 0 .2 0 .3-.1h.1l.1-.1s0-.1.1-.1v-.3zM12 7l1.6 2.6-1.6 1.2-1.6-1.2L12 7zM8.5 20.8H3.7L5 18.6h3.5v2.2zm5.7 0H9.7v-3c0-1.3 1-2.3 2.3-2.3 1.3 0 2.3 1 2.3 2.3v3zm-2.3-6.5c-1.8 0-3.3 1.4-3.4 3.1H5.7l4.1-6.8 2.2 1.7 2.2-1.6 4.1 6.7h-2.9c-.2-1.7-1.7-3.1-3.5-3.1zm3.5 6.5v-2.2H19l1.3 2.2h-4.9z"/></svg>