<svg xmlns="http://www.w3.org/2000/svg" width="64" height="48"><path d="M57 48H24.3l-.1-.8c-.3-1.9-.3-13.4.1-15.3h32.1s1.1 13.4.6 16.1z" fill="#f7d6b2"/><path d="M57 41.4l-8.2 2.5s-5 0-9.4 4C33 42.7 26.7 40.4 24 39.5c0-3.3.1-6.6.3-7.6h32.1c0 .2.3 3.6.5 7.3v1.7l.1.5z" fill="#ecc59b"/><path d="M58.9 35.1c1 .1 1.9-.6 2-1.6l1.9-18.2c.1-1-.6-1.9-1.6-2l-7.8-.8c-.3.8-1.1 1.3-1.9 1.2-.8-.1-1.5-.7-1.6-1.6L24.8 9.5c-1-.1-1.9.6-2 1.6l-1.9 18.2c-.1 1 .6 1.9 1.6 2l36.4 3.8z" fill="#fff3c2"/><path d="M18.8 37.4c-.8 0-1.4-.6-1.4-1.4V16.9c0-.8.6-1.4 1.4-1.4h26.1c.4.9 1.2 1.4 2.2 1.4 1 0 1.8-.6 2.2-1.4h7.9c.8 0 1.4.6 1.4 1.4V36c0 .8-.6 1.4-1.4 1.4H18.8z" fill="#ffea8c"/><path d="M57.1 14.9h-8.2c-.2.8-1 1.4-1.8 1.4-.9 0-1.6-.6-1.8-1.4H18.8c-1.1 0-1.9.9-1.9 1.9V36c0 1.1.9 1.9 1.9 1.9h38.3c1.1 0 1.9-.9 1.9-1.9V16.9c0-1.1-.9-2-1.9-2m0 1c.5 0 .9.4.9.9V36c0 .5-.4.9-.9.9H18.8c-.5 0-.9-.4-.9-.9V16.9c0-.5.4-.9.9-.9h25.8c.5.9 1.5 1.4 2.5 1.4s2-.6 2.5-1.4h7.5" fill="#f9da82"/><path d="M29.1 28.1c.1 0 .3 0 .4.1.1 0 .2.1.3.2.1.1.1.2.2.3 0 .1.1.2.1.3 0 .2 0 .3-.1.5s-.1.4-.2.5c-.1.2-.2.4-.4.5l-.5.5-.3-.2-.1-.1v-.2l.1-.1.1-.1.2-.2c.1-.1.1-.1.1-.2s.1-.2.1-.3c-.1 0-.2 0-.3-.1-.1 0-.2-.1-.2-.2-.1-.1-.1-.2-.2-.2 0-.1-.1-.2-.1-.3 0-.1 0-.2.1-.3 0-.1.1-.2.2-.2.1-.1.2-.1.3-.2-.1.1 0 .1.2 0zm-3.9-5.3c.4 0 .7 0 1 .1.3.1.5.2.7.4.2.2.3.4.4.6.1.2.1.4.1.7 0 .2 0 .4-.1.6 0 .2-.1.3-.2.4l-.3.3c-.1.1-.3.2-.5.2.8.3 1.2.8 1.2 1.6 0 .4-.1.7-.2 1-.1.3-.3.5-.6.7-.2.2-.5.3-.8.4-.3.1-.6.1-1 .1-.3 0-.7 0-.9-.1-.3-.1-.5-.2-.7-.3-.2-.1-.4-.3-.6-.6-.2-.2-.3-.5-.4-.8l.7-.3c.1 0 .1 0 .2-.1h.2c.1 0 .2 0 .3.1.1 0 .1.1.2.2.2.3.3.5.5.6.2.1.4.2.6.2.2 0 .3 0 .5-.1.1-.1.2-.1.3-.2.1-.1.1-.2.2-.3 0-.1.1-.2.1-.3v-.4c0-.1-.1-.2-.2-.3-.1-.1-.3-.1-.5-.2-.2 0-.5-.1-.8-.1v-1c.3 0 .5 0 .7-.1.2 0 .3-.1.4-.2.1-.1.2-.2.2-.3 0-.1.1-.2.1-.4 0-.3-.1-.5-.2-.6-.1-.1-.4-.2-.6-.2h-.3c-.1 0-.2.1-.3.1l-.2.2c-.1.1-.1.1-.1.2-.1.1-.1.2-.2.3-.1.1-.2.1-.3.1h-.2l-.8-.1.3-.9c.2-.3.3-.5.6-.6.2-.2.5-.3.8-.4.1-.2.4-.2.7-.2zm7.9 0c.4 0 .7.1 1.1.2.3.1.6.4.9.6.2.3.4.7.6 1.1.1.4.2 1 .2 1.6 0 .6-.1 1.1-.2 1.6-.1.4-.3.8-.6 1.1-.2.3-.5.5-.9.6-.3.1-.7.2-1.1.2-.4 0-.7-.1-1.1-.2-.3-.1-.6-.4-.9-.6-.2-.3-.4-.7-.6-1.1-.1-.4-.2-1-.2-1.6 0-.6.1-1.1.2-1.6.1-.4.3-.8.6-1.1.2-.3.5-.5.9-.6.4-.2.8-.2 1.1-.2zm5.8 0c.4 0 .7.1 1.1.2.3.1.6.4.9.6.2.3.4.7.6 1.1.1.4.2 1 .2 1.6 0 .6-.1 1.1-.2 1.6-.1.4-.3.8-.6 1.1-.2.3-.5.5-.9.6-.3.1-.7.2-1.1.2-.4 0-.7-.1-1.1-.2-.3-.1-.6-.4-.9-.6-.2-.3-.4-.7-.6-1.1-.1-.4-.2-1-.2-1.6 0-.6.1-1.1.2-1.6.1-.4.3-.8.6-1.1.2-.3.5-.5.9-.6.4-.2.8-.2 1.1-.2zm5.9 0c.4 0 .7.1 1.1.2.3.1.6.4.9.6.2.3.4.7.6 1.1.1.4.2 1 .2 1.6 0 .6-.1 1.1-.2 1.6-.1.4-.3.8-.6 1.1-.2.3-.5.5-.9.6-.3.1-.7.2-1.1.2-.4 0-.7-.1-1.1-.2-.3-.1-.6-.4-.9-.6-.2-.3-.4-.7-.6-1.1-.1-.4-.2-1-.2-1.6 0-.6.1-1.1.2-1.6.1-.4.3-.8.6-1.1.2-.3.5-.5.9-.6.3-.2.7-.2 1.1-.2zm-11.7 1.1c-.1 0-.3 0-.4.1l-.4.4c-.1.2-.2.4-.2.7-.1.3-.1.7-.1 1.2s0 .9.1 1.2c.1.3.1.5.2.7.1.2.2.3.4.4.1.1.3.1.4.1.1 0 .3 0 .4-.1.1-.1.3-.2.4-.4.1-.2.2-.4.3-.7.1-.3.1-.7.1-1.2s0-.9-.1-1.2c-.1-.3-.1-.5-.3-.7-.1-.2-.2-.3-.4-.4-.1 0-.2-.1-.4-.1zm5.8 0c-.1 0-.3 0-.4.1-.1.1-.2.2-.3.4-.1.2-.2.4-.2.7-.1.3-.1.7-.1 1.2s0 .9.1 1.2c.1.3.1.5.2.7.1.2.2.3.3.4.1.1.3.1.4.1.1 0 .3 0 .4-.1.1-.1.3-.2.4-.4.1-.2.2-.4.3-.7.1-.3.1-.7.1-1.2s0-.9-.1-1.2c-.1-.3-.1-.5-.3-.7-.1-.2-.2-.3-.4-.4-.1 0-.2-.1-.4-.1zm5.9 0c-.1 0-.3 0-.4.1l-.4.4c-.1.2-.2.4-.2.7-.1.3-.1.7-.1 1.2s0 .9.1 1.2c.1.3.1.5.2.7s.2.3.4.4c.1.1.3.1.4.1.1 0 .3 0 .4-.1.1-.1.3-.2.4-.4.1-.2.2-.4.3-.7.1-.3.1-.7.1-1.2s0-.9-.1-1.2c-.1-.3-.1-.5-.3-.7-.1-.2-.2-.3-.4-.4-.2 0-.3-.1-.4-.1z" fill="#ef8b30"/><path d="M49 29.9v17h8v-17c0-2.2-1.8-4-4-4s-4 1.8-4 4" fill="#f7d6b2"/><path d="M18.6 11.8c-.4.1-.8-.1-.9-.5L16.5 7c-.1-.5.1-.9.5-1 .4-.1.8.1.9.5l1.2 4.3c.1.5-.1.9-.5 1zm-5.4 4.1L9.1 14c-.4-.2-.8 0-1 .4-.2.4 0 .8.4 1l4.1 1.9c.4.2.8 0 1-.4.1-.4 0-.8-.4-1zm-1-6.7c-.3-.3-.8-.3-1.1 0-.3.3-.3.8 0 1.1l3.2 3.2c.3.3.8.3 1.1 0 .3-.3.3-.8 0-1.1l-3.2-3.2z" fill="#fff" opacity=".5"/></svg>