<svg xmlns="http://www.w3.org/2000/svg" width="63" height="128"><g fill="none" fill-rule="evenodd"><path fill="#F6F1DF" d="M63 122c0 3.314-12.76 6-28.5 6S6 125.314 6 122s12.76-6 28.5-6 28.5 2.686 28.5 6"/><path fill="#009260" d="M51 0s-4.549 6.126-3.5 11.427c1.131 5.723 5.145 12.597-2.597 17.765C37.16 34.361 35.106 37 35.106 37s-6.463-12.593-3.172-18.91c3.29-6.318 5.235-4.4 9.678-8.04C45 7.274 46.742.192 51 0"/><path fill="#009260" d="M46.388 10c-1.413.967-2.184 2.854-2.96 4.3-1.3 2.417-2.615 4.817-3.689 7.343-1.078 2.536-2.114 5.29-2.52 8.026-.164 1.097-.16 2.222-.219 3.331.463-.517 2.219-2.312 6.74-5.342 5.433-3.641 2.616-8.483 1.822-12.515-.346-1.756.176-3.64.826-5.143M59 25s-3.028 6.496-3.327 11.569c-.35 5.962 1.86 11.372-5.967 16.666C41.88 58.53 40.412 60 40.412 60s-2.74-10.686-.587-16.274c2.616-6.79 4.528-6.166 9.02-9.895C52.267 30.988 54.694 25.196 59 25"/><path fill="#009260" d="M52.964 40.925C53.199 38.46 55.29 32.576 56 31c-2.253 2.59-6.5 9.32-8.679 13.98C45.588 48.69 43.803 52.858 43 56c1.016-.706 2.661-1.797 5.28-3.422 5.72-3.55 4.282-7.439 4.684-11.653M3.06 24s2.694 6.035 8.55 8.912C17.678 35.894 23.533 41.045 25 49c-5.103-2.98-9.53-.586-16.956-3.378C.737 42.875-3.069 30.316 3.06 24"/><path fill="#009260" d="M12.879 40.107C15.514 41.369 18.502 42.385 21 44c-2.084-4.221-5.742-7.169-9.504-9.07-2.535-1.28-4.347-3.304-5.494-4.93-.093 4.738 2.725 8.119 6.877 10.107"/><path fill="#006B46" d="M33.723 75a.274.274 0 01-.276-.249C31.592 50.86 22.782 46.86 18.548 44.936 9.723 40.93 7.06 39.72 4.026 33.383a.267.267 0 01.134-.358.28.28 0 01.368.13c2.948 6.16 5.344 7.247 14.255 11.293C25.377 47.444 32.342 53.381 34 74.71a.273.273 0 01-.254.29h-.022m1.158 0a.274.274 0 01-.275-.244c-.626-6.595-.974-23.043 0-36.773.973-13.728 8.812-24.758 8.891-24.868a.28.28 0 01.385-.066.266.266 0 01.067.375c-.078.109-7.83 11.022-8.792 24.596-.972 13.702-.625 30.11 0 36.686a.272.272 0 01-.25.293l-.026.001m3.388-1a.268.268 0 01-.268-.253c-.005-.096-.106-2.507 2.186-14.719 2.297-12.24 12.226-25.784 12.326-25.919a.27.27 0 01.376-.057c.12.088.146.256.058.374-.1.135-9.956 13.583-12.23 25.7-2.267 12.079-2.18 14.569-2.179 14.593a.267.267 0 01-.255.28L38.27 74"/><path fill="#AB7349" d="M40.81 117H29.189L24 72h22z"/><path fill="#FFBBB3" d="M23 88h25v-2H23zm3.196 34L25 121.869 29.804 88l1.196.131zm18.608 0L40 88.131 41.196 88 46 121.869z"/></g></svg>