<svg xmlns="http://www.w3.org/2000/svg" xmlns:xlink="http://www.w3.org/1999/xlink" width="320" height="120"><defs><filter id="a" width="124.5%" height="203.6%" x="-12.2%" y="-51.8%" filterUnits="objectBoundingBox"><feGaussianBlur in="SourceGraphic" stdDeviation="4"/></filter><filter id="b" width="235.8%" height="480.2%" x="-67.9%" y="-190.1%" filterUnits="objectBoundingBox"><feGaussianBlur in="SourceGraphic" stdDeviation="3"/></filter><path id="c" d="M6.085 8.037L2.123 4.032l-.133-.115c-.555-.39-1.245-.305-1.663.17a1.333 1.333 0 00.051 1.805l5.707 5.767 9.338-9.431.115-.135c.372-.536.336-1.216-.063-1.67a1.22 1.22 0 00-1.796-.055L6.085 8.037z"/></defs><g fill="none" fill-rule="evenodd"><path fill="#F1F9F6" d="M235 97c0-40.317-33.13-73-74-73S87 56.683 87 97"/><path fill="#030303" d="M59 95h203a1 1 0 010 2H59a1 1 0 010-2z"/><g transform="translate(125 20)"><path fill="#000" d="M10.322 79.637h48.797c3.35 0 6.632-.935 9.479-2.698 2.735-1.695 5.21-2.79 7.423-3.285 4.836-1.082 9.228 2.474 16.678.943 4.966-1.02 9.457-2.204 13.472-3.551 2.934-2.559 2.934-4.433 0-5.623-4.401-1.785-10.245 3.337-24.631-4.687-9.59-5.35-18.54-5.68-26.849-.989l-44.37 19.89z" filter="url(#a)" opacity=".063"/><ellipse cx="94.628" cy="75.367" fill="#000" filter="url(#b)" opacity=".067" rx="6.628" ry="2.367" transform="rotate(-10 94.628 75.367)"/><path fill="#FFF" stroke="#030303" stroke-width="1.2" d="M69.268.608l-.516.678 1.465-.223c.22-.034.57-.059.928-.059.511 0 .882-.02 1.115.006-.744 1.18-1.567 2.446-1.567 4.298 0 .458-.093.843-.304 1.146-.207.298-.524.509-.936.651-1.088.376-2.752.291-4.983-.187h0l-.733.96-.517 63.19a8.378 8.378 0 01-2.485 5.896A8.374 8.374 0 0154.82 79.4h0-11.992L9.6 79.379v-66.06c0-3.408 1.376-6.497 3.603-8.74A12.373 12.373 0 0121.918.92h0l47.35-.311z"/><path fill="#EAEAEA" stroke="#030303" stroke-width="1.2" d="M46.827 68.6l-.045 2.379c-.01.51.026 1.02.106 1.523a8.565 8.565 0 002.045 4.338 8.646 8.646 0 003.565 2.41h0l-44.626.16a8.646 8.646 0 01-6.135-2.532 8.64 8.64 0 01-2.512-6.937c.042-.458.116-.906.219-1.34h0l47.383-.001z"/><path fill="#EAEAEA" stroke="#000" d="M63.637 8.5v-.91c0-3.9 3.183-7.09 7.032-7.09 3.848 0 6.968 3.161 6.968 7.06v.883l-14 .057z"/></g><path fill="#000" d="M162 67a1 1 0 010 2h-18a1 1 0 010-2h18zm0-10a1 1 0 010 2h-18a1 1 0 010-2h18zm16-10a1 1 0 010 2h-34a1 1 0 010-2h34zm0-10a1 1 0 010 2h-34a1 1 0 010-2h34z"/><g transform="translate(170 53)"><circle cx="17.723" cy="17.723" r="17.123" fill="#1EC68C" stroke="#000" stroke-width="1.2"/><path fill="#000" d="M30.182 29.649l1.287-1.287 3.86 3.86-1.287 1.287z"/><path fill="#FFF" stroke="#000" stroke-width="1.2" d="M35.7 30.04l10.633 10.634c.494.493.74 1.14.74 1.787s-.246 1.294-.74 1.787c-.493.494-1.14.74-1.787.74s-1.294-.246-1.787-.74h0L32.125 33.615 35.7 30.04z"/></g><use fill="#FFF" fill-rule="nonzero" xlink:href="#c" transform="translate(180 65)"/><path fill="#FFF" stroke="#000" stroke-width="1.2" d="M90.4 95.4V64.6h-7.8v30.8z"/><path fill="#000" d="M90 72v-3h-8v3z"/><path fill="#FFF" stroke="#000" stroke-width="1.2" d="M98.4 72a1.396 1.396 0 00-1.4-1.4h0-5a1.396 1.396 0 00-1.4 1.4h0v22a1.396 1.396 0 001.4 1.4h5a1.396 1.396 0 001.4-1.4h0z"/><path fill="#000" d="M98 78v-3h-8v3z"/><path fill="#FFF" stroke="#000" stroke-width="1.2" d="M106.619 71.102a1.394 1.394 0 00-.646-.855 1.39 1.39 0 00-1.056-.15h0l-4.648 1.246a1.398 1.398 0 00-.993 1.704h0l5.528 21.295a1.401 1.401 0 001.702 1.005h0l4.648-1.247a1.397 1.397 0 00.993-1.704h0z"/><path fill="#000" d="M107.538 76.898l-.774-2.89L100 75.812l.774 2.89z"/></g></svg>