<svg xmlns="http://www.w3.org/2000/svg" width="48" height="20"><path d="M31.8 4.6c1.6 0 2.6.4 3.5 1.1.2.2.4.5.4.9 0 .6-.5 1.1-1.1 1.1-.3 0-.5-.1-.7-.2-.6-.5-1.3-.7-2.1-.7-1.8 0-3 1.5-3 3.2 0 1.8 1.2 3.3 3 3.3 1 0 1.6-.3 2.3-.8.2-.1.4-.3.7-.3.6 0 1.1.5 1.1 1.1 0 .4-.2.6-.4.8-.9.8-2 1.3-3.7 1.3-3.1 0-5.3-2.4-5.3-5.3-.1-3.1 2.2-5.5 5.3-5.5zm10.2 0c3.2 0 5.5 2.4 5.5 5.3 0 3-2.3 5.4-5.5 5.4s-5.5-2.4-5.5-5.3c-.1-3 2.3-5.4 5.5-5.4zm-37.8.1c2.5 0 4 1.5 4 3.6C8.2 10.7 6.4 12 4 12H2.3v2.2c0 .6-.5 1.1-1.1 1.1S0 14.8 0 14.1V5.9c0-.6.5-1.1 1.1-1.1l3.1-.1zm8.7-.1c.6 0 1.1.3 1.3.9l3.6 8.2c.2.2.2.3.2.5 0 .6-.5 1.1-1.1 1.1-.5 0-.9-.3-1.1-.8l-.7-1.6h-4.6l-.7 1.7c-.2.4-.6.7-1.1.7-.6 0-1.1-.5-1.1-1.1 0-.2.1-.3.1-.5l3.6-8.2c.3-.6.7-.9 1.3-.9h.3zm12.3.1c.7 0 1.1.5 1.1 1.1 0 .3-.1.6-.3.8l-3.4 4.5v3c0 .6-.5 1.1-1.1 1.1s-1.1-.5-1.1-1.1v-3L17 6.5c-.2-.2-.3-.5-.3-.8 0-.6.5-1.1 1.1-1.1.5 0 .8.3 1.1.7l2.5 3.6L24 5.2c.4-.2.8-.5 1.2-.5zm16.7 2c-1.8 0-3.1 1.5-3.1 3.2 0 1.8 1.3 3.3 3.1 3.3S45 11.7 45 10c.1-1.8-1.2-3.3-3.1-3.3zm-29.1.7l-1.4 3.4h2.9l-1.5-3.4zm-8.7-.6H2.3V10h1.8c1.1 0 1.8-.7 1.8-1.6 0-1.1-.7-1.6-1.8-1.6z"/></svg>