<svg xmlns="http://www.w3.org/2000/svg" width="24" height="24"><path d="M38.2 7.2c-.2-.3-.5-.5-.8-.7-.3-.2-.6-.3-.9-.4-.3 0-.6-.1-.8-.1h-3.1c-.2 0-.3 0-.4.1-.1.1-.2.3-.2.5V17h1.5v-4.1h1.3c.7 0 1.3-.1 1.8-.3.5-.2.9-.4 1.3-.7.3-.3.6-.7.8-1.1.2-.4.3-.9.3-1.5 0-.4-.1-.8-.2-1.1-.2-.4-.4-.7-.6-1zm-1 3.1c-.1.3-.3.5-.5.7-.2.2-.5.4-.8.5-.3.1-.7.2-1.1.2h-1.3V7.2h1.4c.3 0 .5 0 .8.1.3 0 .5.1.8.3.3.1.5.4.6.7.2.3.3.7.3 1.1-.1.3-.1.6-.2.9zm9-.8c-.2-.2-.6-.4-1-.6-.4-.1-.9-.2-1.4-.2-.3 0-.6 0-.9.1-.3.1-.6.1-.8.2-.2.1-.5.2-.7.3-.2.1-.3.2-.4.3-.1.1-.1.2-.1.2v.5c0 .1 0 .1.1.2l.1.1h.1c.1 0 .2 0 .3-.1.1-.1.3-.2.5-.3.2-.1.5-.2.7-.3.3-.1.6-.1 1-.1.3 0 .6 0 .8.1l.6.3c.1.2.2.3.3.6.1.2.1.5.1.8v.6h-1.1c-.6 0-1.2.1-1.6.2-.5.1-.9.3-1.2.5-.3.2-.6.5-.8.8-.2.3-.3.7-.3 1.1 0 .4.1.7.2 1 .1.3.3.5.5.7.2.2.5.4.9.5.3.1.7.2 1.1.2.5 0 .9-.1 1.3-.3.4-.2.8-.5 1.1-.8v.8c0 .1 0 .1.1.2h1.1s.1-.1.1-.2v-5.2c0-.5-.1-.9-.2-1.3-.1-.3-.2-.6-.5-.9zm-.7 5.5c-.4.4-.7.7-1 .9-.3.2-.7.3-1 .3-.5 0-.8-.1-1.1-.4-.3-.2-.4-.6-.4-1 0-.2 0-.4.1-.6.1-.2.2-.3.4-.5.2-.1.4-.2.7-.3s.6-.1 1-.1h1.2V15zM56 9.2c0 .1 0 .2-.1.3l-2.8 7.7-1 2.8c0 .1-.1.2-.3.2-.1 0-.4.1-.6.1h-.4c-.1 0-.2 0-.2-.1-.1 0-.1-.1-.1-.1v-.2l1.1-2.7c-.1 0-.1-.1-.1-.1 0-.1-.1-.1-.1-.2l-2.8-7.4c0-.1-.1-.2-.1-.3 0-.1 0-.1.1-.2h1.3c.1 0 .1 0 .1.1 0 0 .1.1.1.2l2.2 6.2 2.2-6.2c0-.1.1-.2.1-.2h1.3c.1-.1.1 0 .1.1zM8 3v18h18V3H8zm13.5 13.1h-3.1L15.6 12v4.2h-3.1V7.9h3.1l2.8 4.2V7.9h3.1v8.2z"/></svg>