<svg xmlns="http://www.w3.org/2000/svg" width="224" height="122"><filter id="a"/><path d="M218 3c1.1 0 2 .9 2 2v44.2c-4.6.9-8 5-8 9.8s3.4 8.9 8 9.8V113c0 1.1-.9 2-2 2H6c-1.1 0-2-.9-2-2V5c0-1.1.9-2 2-2h212z" fill="#1ec68c" filter="url(#a)"/><path d="M220 5v9.8l-77.4 99.7c-.1.2-.3.3-.5.5H119L204.5 5.1c.7-.8 1.5-1.5 2.4-2.1H218c1.1 0 2 .9 2 2zm0 63.8V113c0 1.1-.9 2-2 2h-26.8c-1.6-1-3-2.2-4.3-3.5-2.5-2.5-4.4-5.6-5.8-9.1s-2.1-7.5-2.1-11.7c0-4.4.7-8.4 2.1-12 1.4-3.6 3.3-6.7 5.8-9.2 2.5-2.6 5.4-4.5 8.8-6 3.4-1.4 7.1-2.1 11.2-2.1 1.9 0 3.7.2 5.5.5 1 3.4 3.9 6.2 7.6 6.9zm-4.2 21.8c0-2.7-.2-4.9-.7-6.7-.5-1.8-1.1-3.2-1.9-4.3-.8-1.1-1.7-1.8-2.8-2.2s-2.3-.6-3.6-.6c-1.3 0-2.5.2-3.5.6-1.1.4-2 1.2-2.7 2.2s-1.3 2.5-1.8 4.3c-.4 1.8-.6 4-.6 6.7 0 2.6.2 4.7.6 6.4.4 1.7 1 3.1 1.8 4.1s1.7 1.7 2.7 2.2c1.1.4 2.2.6 3.5.6 1.3 0 2.5-.2 3.6-.6s2-1.1 2.8-2.2c.8-1 1.4-2.4 1.9-4.1.5-1.7.7-3.8.7-6.4zm-95.9-40.2c-2.5-2.5-4.4-5.6-5.8-9.1-1.4-3.5-2.1-7.4-2.1-11.7 0-4.4.7-8.4 2.1-12 1.4-3.6 3.3-6.7 5.8-9.2 2.2-2.3 4.7-4 7.6-5.4h24.8c2.9 1.4 5.5 3.1 7.7 5.4 2.5 2.6 4.4 5.6 5.8 9.2 1.4 3.6 2.1 7.6 2.1 12 0 4.3-.8 8.2-2.3 11.7-1.5 3.5-3.6 6.5-6.2 9.1s-5.5 4.5-8.9 5.9-6.9 2.1-10.6 2.1c-4.1 0-7.8-.7-11.2-2.1s-6.3-3.3-8.8-5.9zm11.3-20.7c0 2.6.2 4.7.6 6.4.4 1.7 1 3.1 1.8 4.1.7 1 1.7 1.7 2.7 2.2s2.2.6 3.5.6c1.3 0 2.5-.2 3.6-.6 1.1-.4 2-1.1 2.8-2.2s1.4-2.4 1.9-4.1c.5-1.7.7-3.8.7-6.4 0-2.7-.2-5-.7-6.8-.5-1.8-1.1-3.2-1.9-4.3s-1.7-1.8-2.8-2.2c-1.1-.4-2.3-.6-3.6-.6-1.3 0-2.5.2-3.5.6s-2 1.2-2.7 2.2-1.3 2.5-1.8 4.3c-.4 1.8-.6 4.1-.6 6.8z" fill="rgba(0,0,0,.03)"/><path d="M171.5 12.5v3c0 .3.2.5.5.5s.5-.2.5-.5v-3c0-.3-.2-.5-.5-.5s-.5.2-.5.5zm0 6v3c0 .3.2.5.5.5s.5-.2.5-.5v-3c0-.3-.2-.5-.5-.5s-.5.2-.5.5zm0 6v3c0 .3.2.5.5.5s.5-.2.5-.5v-3c0-.3-.2-.5-.5-.5s-.5.2-.5.5zm0 6v3c0 .3.2.5.5.5s.5-.2.5-.5v-3c0-.3-.2-.5-.5-.5s-.5.2-.5.5zm0 6v3c0 .3.2.5.5.5s.5-.2.5-.5v-3c0-.3-.2-.5-.5-.5s-.5.2-.5.5zm0 6v3c0 .3.2.5.5.5s.5-.2.5-.5v-3c0-.3-.2-.5-.5-.5s-.5.2-.5.5zm0 6v3c0 .3.2.5.5.5s.5-.2.5-.5v-3c0-.3-.2-.5-.5-.5s-.5.2-.5.5zm0 6v3c0 .3.2.5.5.5s.5-.2.5-.5v-3c0-.3-.2-.5-.5-.5s-.5.2-.5.5zm0 6v3c0 .3.2.5.5.5s.5-.2.5-.5v-3c0-.3-.2-.5-.5-.5s-.5.2-.5.5zm0 6v3c0 .3.2.5.5.5s.5-.2.5-.5v-3c0-.3-.2-.5-.5-.5s-.5.2-.5.5zm0 6v3c0 .3.2.5.5.5s.5-.2.5-.5v-3c0-.3-.2-.5-.5-.5s-.5.2-.5.5zm0 6v3c0 .3.2.5.5.5s.5-.2.5-.5v-3c0-.3-.2-.5-.5-.5s-.5.2-.5.5zm0 6v3c0 .3.2.5.5.5s.5-.2.5-.5v-3c0-.3-.2-.5-.5-.5s-.5.2-.5.5zm0 6v3c0 .3.2.5.5.5s.5-.2.5-.5v-3c0-.3-.2-.5-.5-.5s-.5.2-.5.5zm0 6v3c0 .3.2.5.5.5s.5-.2.5-.5v-3c0-.3-.2-.5-.5-.5s-.5.2-.5.5zm0 6v3c0 .3.2.5.5.5s.5-.2.5-.5v-3c0-.3-.2-.5-.5-.5s-.5.2-.5.5zM192 30.1h3.8c.4 0 .8.1 1.1.3.3.2.4.5.4.8 0 .3-.1.6-.3.8-.2.2-.6.2-1 .2h-4v2.3h3.8c.2 0 .4 0 .6.1.2 0 .3.1.5.2.1.1.3.2.3.4.1.1.1.3.1.5s0 .4-.1.5l-.3.3c-.1.1-.3.1-.5.2H192V39h4.3c.3 0 .7 0 1-.1.3-.1.6-.2.9-.4.3-.2.5-.5.7-.8.2-.3.3-.7.3-1.2s-.1-1-.3-1.3c-.2-.4-.5-.7-.9-.9.4-.2.7-.5.9-.8s.3-.8.3-1.3c0-.3 0-.5-.1-.7l-.3-.6c-.1-.2-.2-.3-.4-.5s-.3-.2-.4-.3h1v-2.2h-7v2.2zm-.2 14.1c0 .5.1 1 .3 1.5s.4.9.7 1.2c.3.4.7.6 1.2.8.5.2 1 .3 1.5.3.6 0 1.1-.1 1.5-.3s.8-.5 1.2-.8.6-.8.7-1.2.3-1 .3-1.5-.1-1-.3-1.5-.4-.9-.7-1.2c-.3-.4-.7-.6-1.2-.8-.5-.2-1-.3-1.5-.3s-1.1.1-1.5.3c-.5.2-.9.5-1.2.8-.3.4-.6.8-.7 1.2-.2.5-.3 1-.3 1.5zm1.9 0c0-.3.1-.5.2-.7.1-.2.2-.4.4-.5l.6-.3c.2-.1.4-.1.7-.1s.4 0 .7.1l.6.3c.2.1.3.3.4.5s.2.4.2.7c0 .3-.1.5-.2.7-.1.2-.2.4-.4.5l-.6.3c-.2.1-.4.1-.7.1s-.4 0-.7-.1l-.6-.3c-.2-.1-.3-.3-.4-.5-.1-.2-.2-.4-.2-.7zm-1.9 8.9c0 .5.1 1 .3 1.5s.4.9.7 1.2c.3.4.7.6 1.2.8.5.2 1 .3 1.5.3.6 0 1.1-.1 1.5-.3s.8-.5 1.2-.8.6-.8.7-1.2.3-1 .3-1.5-.1-1-.3-1.5-.4-.9-.7-1.2c-.3-.4-.7-.6-1.2-.8-.5-.2-1-.3-1.5-.3s-1.1.1-1.5.3c-.5.2-.9.5-1.2.8-.3.4-.6.8-.7 1.2-.2.5-.3.9-.3 1.5zm1.9 0c0-.3.1-.5.2-.7.1-.2.2-.4.4-.5l.6-.3c.2-.1.4-.1.7-.1s.4 0 .7.1l.6.3c.2.1.3.3.4.5s.2.4.2.7c0 .3-.1.5-.2.7-.1.2-.2.4-.4.5l-.6.3c-.2.1-.4.1-.7.1s-.4 0-.7-.1l-.6-.3c-.2-.1-.3-.3-.4-.5-.1-.2-.2-.4-.2-.7zm-1.7 7.6h3.8c.2 0 .4 0 .6.1.2.1.3.1.5.2.1.1.3.2.3.4.1.2.1.3.1.5s0 .4-.1.5l-.3.3c-.1.1-.3.1-.5.2s-.4 0-.6 0H192v2.3h4.3c.3 0 .7 0 1-.1.3-.1.7-.2.9-.4.3-.2.5-.5.7-.8s.3-.7.3-1.2c0-.2 0-.5-.1-.7l-.3-.6c-.1-.2-.2-.3-.4-.5-.1-.1-.3-.2-.4-.3h1v-2.2h-7v2.3zm-3.3 9.6c0 .6.1 1.2.2 1.7s.4.9.7 1.3c.3.4.7.6 1.3.8s1.1.3 1.8.3h6.3v-2.2h-.9c.4-.2.6-.6.8-1 .2-.4.3-.8.3-1.3s-.1-1-.3-1.4c-.2-.4-.5-.8-.8-1s-.7-.5-1.2-.7c-.4-.1-.9-.2-1.4-.2-.5 0-.9.1-1.4.2-.4.1-.8.4-1.1.7s-.6.6-.8 1c-.2.5-.2 1-.2 1.5s.1.9.3 1.2.4.7.7.9h-.4c-.6 0-1.1-.2-1.4-.5-.4-.3-.5-.8-.5-1.5 0-.4.1-.8.2-1.2s.4-.8.7-1.1l-1.6-1.1c-.4.5-.6 1-.8 1.7-.4.7-.5 1.3-.5 1.9zm5.1.2c0-.3 0-.5.1-.7.1-.2.2-.4.4-.5l.6-.3c.2-.1.4-.1.7-.1.2 0 .5 0 .7.1l.6.3c.2.1.3.3.4.5.1.2.1.4.1.7 0 .3 0 .5-.1.7s-.2.4-.4.5c-.2.1-.4.3-.6.3-.2.1-.4.1-.7.1-.2 0-.5 0-.7-.1l-.6-.3c-.2-.1-.3-.3-.4-.5-.1-.2-.1-.4-.1-.7zm-2 9.3c0 .5.1 1 .3 1.5s.4.9.7 1.2c.3.4.7.6 1.2.8.5.2 1 .3 1.5.3.6 0 1.1-.1 1.5-.3s.8-.5 1.2-.8.6-.8.7-1.2.3-1 .3-1.5-.1-1-.3-1.5-.4-.9-.7-1.2c-.3-.4-.7-.6-1.2-.8-.5-.2-1-.3-1.5-.3s-1.1.1-1.5.3c-.5.2-.9.5-1.2.8-.3.4-.6.8-.7 1.2-.2.4-.3.9-.3 1.5zm1.9 0c0-.3.1-.5.2-.7.1-.2.2-.4.4-.5l.6-.3c.2-.1.4-.1.7-.1s.4 0 .7.1l.6.3c.2.1.3.3.4.5s.2.4.2.7c0 .3-.1.5-.2.7-.1.2-.2.4-.4.5l-.6.3c-.2.1-.4.1-.7.1s-.4 0-.7-.1l-.6-.3c-.2-.1-.3-.3-.4-.5-.1-.2-.2-.5-.2-.7zm-1.7 7.6h3.6c.1 0 .3 0 .5.1s.4.1.5.3c.2.1.3.3.4.5.1.2.2.5.2.8v.3c0 .1 0 .2-.1.3l2 .1v-.5c0-.4-.1-.8-.3-1.1s-.5-.6-.9-.8h1v-2.2h-7v2.2zm8 4.4c0 .2 0 .3.1.5s.2.3.3.4.2.2.4.3c.2.1.3.1.5.1s.3 0 .5-.1.3-.2.4-.3.2-.3.3-.4c.1-.2.1-.3.1-.5s0-.4-.1-.5c-.1-.2-.2-.3-.3-.4s-.2-.2-.4-.3c-.2-.1-.3-.1-.5-.1-.3 0-.6.1-.9.4s-.4.5-.4.9zm-8 1.2h7v-2.3h-7V93z" fill="rgba(255,255,255,.4)"/></svg>