<svg xmlns="http://www.w3.org/2000/svg" width="88" height="24"><path d="M59.1 6.6c3 0 5.5 2.4 5.5 5.3v4.5c0 .3-.1.7-.2 1v.2c-.7 2.3-2.8 3.9-5.3 3.9-1.4 0-2.7-.5-3.7-1.4-.4-.3-.6-.7-.6-1.2 0-.8.6-1.4 1.4-1.4.5 0 .9.2 1.1.5.5.4 1.1.6 1.7.6 1.2 0 2.1-.7 2.5-1.7v-.1c-.8.4-1.6.6-2.5.6-3 0-5.5-2.4-5.5-5.4s2.6-5.4 5.6-5.4zM5 6.5c1.4 0 2.6.5 3.5 1.4.9-.9 2.2-1.4 3.6-1.4 2.7 0 4.9 2.3 5 5v4.7c0 .8-.6 1.4-1.4 1.5-.9.1-1.6-.6-1.7-1.5v-4.7c0-1.1-.9-2-2-1.9-1 0-1.9.9-1.9 1.9v4.7c0 .8-.6 1.4-1.4 1.5-.9.1-1.7-.6-1.7-1.5v-4.7c0-1.1-.9-2-2-1.9-1 0-1.9.9-1.9 1.9v4.7c0 .8-.6 1.4-1.4 1.5-.9.1-1.7-.6-1.7-1.5v-4.7c-.1-2.7 2.2-5 5-5zm18.4.1c3 0 5.5 2.4 5.5 5.4 0 3-2.5 5.4-5.5 5.4S17.9 15 17.9 12c0-2.9 2.5-5.4 5.5-5.4zm11.9 0c3 0 5.5 2.4 5.5 5.4 0 3-2.5 5.4-5.5 5.4S29.8 15 29.8 12c0-2.9 2.5-5.4 5.5-5.4zm47.6 0c.8 0 1.4.6 1.4 1.4 0 .8-.6 1.4-1.4 1.4h-.1c-1.4 0-2.6 1.1-2.7 2.6v4.1c0 .8-.6 1.4-1.4 1.4-.8 0-1.4-.6-1.4-1.4V8c0-.8.6-1.4 1.4-1.4.6 0 1 .3 1.3.8.9-.5 1.8-.8 2.9-.8zm3.7-.1c.8 0 1.4.6 1.4 1.4v8.2c0 .8-.6 1.4-1.4 1.4-.8 0-1.4-.6-1.4-1.4V7.9c0-.8.6-1.4 1.4-1.4zM71 6.6c3 0 5.5 2.4 5.5 5.4 0 3-2.5 5.4-5.5 5.4S65.5 15 65.5 12c0-2.9 2.4-5.4 5.5-5.4zm-23.8-.1c3 0 5.5 2.4 5.5 5.4v4.2c0 .8-.6 1.4-1.4 1.4-.8 0-1.4-.6-1.4-1.4v-4.2c0-1.4-1.2-2.6-2.7-2.6s-2.7 1.2-2.7 2.6v4.2c0 .8-.6 1.4-1.4 1.4-.8 0-1.4-.6-1.4-1.4v-4.2c0-3 2.5-5.4 5.5-5.4zm11.9 2.9c-1.5 0-2.7 1.2-2.7 2.7s1.2 2.7 2.7 2.7 2.7-1.2 2.7-2.7-1.2-2.7-2.7-2.7zm-35.7 0c-1.5 0-2.7 1.2-2.7 2.6 0 1.4 1.2 2.6 2.7 2.6s2.7-1.2 2.7-2.6c0-1.4-1.2-2.6-2.7-2.6zm11.9 0c-1.5 0-2.7 1.2-2.7 2.6 0 1.4 1.2 2.6 2.7 2.6S38 13.4 38 12c0-1.4-1.2-2.6-2.7-2.6zm35.7 0c-1.5 0-2.7 1.2-2.7 2.6 0 1.4 1.2 2.6 2.7 2.6s2.7-1.2 2.7-2.6c-.1-1.4-1.3-2.6-2.7-2.6z"/></svg>