<svg xmlns="http://www.w3.org/2000/svg" xmlns:xlink="http://www.w3.org/1999/xlink" width="86" height="52"><defs><filter id="a" width="168.4%" height="236.8%" x="-34.2%" y="-57.9%" filterUnits="objectBoundingBox"><feGaussianBlur in="SourceGraphic" stdDeviation="3"/></filter><filter id="b" width="184.2%" height="268.4%" x="-42.1%" y="-73.7%" filterUnits="objectBoundingBox"><feOffset dy="2" in="SourceAlpha" result="shadowOffsetOuter1"/><feGaussianBlur in="shadowOffsetOuter1" result="shadowBlurOuter1" stdDeviation="2"/><feColorMatrix in="shadowBlurOuter1" values="0 0 0 0 0 0 0 0 0 0 0 0 0 0 0 0 0 0 0.16 0"/></filter><filter id="d" width="134.8%" height="134.8%" x="-17.4%" y="-13%" filterUnits="objectBoundingBox"><feMorphology in="SourceAlpha" operator="dilate" radius="1" result="shadowSpreadOuter1"/><feOffset dy="2" in="shadowSpreadOuter1" result="shadowOffsetOuter1"/><feGaussianBlur in="shadowOffsetOuter1" result="shadowBlurOuter1" stdDeviation="2"/><feComposite in="shadowBlurOuter1" in2="SourceAlpha" operator="out" result="shadowBlurOuter1"/><feColorMatrix in="shadowBlurOuter1" values="0 0 0 0 0 0 0 0 0 0 0 0 0 0 0 0 0 0 0.16 0"/></filter><circle id="e" cx="47" cy="23" r="23"/><path id="c" d="M50.485 46.901c8.724 0 20.522-4.253 26.352-9.5 5.83-5.246 3.484-9.5-5.24-9.5-8.723 0-20.521 4.254-26.351 9.5-5.83 5.247-3.484 9.5 5.24 9.5z"/></defs><g transform="translate(0 1)" fill="none" fill-rule="evenodd"><g fill="#000" filter="url(#a)" opacity=".1"><use filter="url(#b)" xlink:href="#c"/><use xlink:href="#c"/></g><use fill="#000" filter="url(#d)" xlink:href="#e"/><circle cx="47" cy="23" r="23.5" fill="#D0A70B" stroke="#1C1814"/><path fill="#FFD73E" stroke="#1C1814" stroke-linecap="round" d="M62.013 36.822c8.653-4.275 25.44-20.032 19.118-25.274-7.102-4.173-8.443 9.802-15.916 12.631-2.349 7.191-5.734 14.505-3.202 12.643zm-38.026 0C15.334 32.547-1.453 16.79 4.869 11.548c7.102-4.173 8.443 9.802 15.916 12.631 2.349 7.191 5.734 14.505 3.202 12.643z"/><path stroke="#1C1814" stroke-linecap="round" d="M6.905 6.599c3.057-1.414 5.34-.734 6.848 2.042m-3.035-5.449c1.61-.329 2.743.1 3.4 1.285"/><circle cx="43" cy="23" r="23.5" fill="#FFD73E" stroke="#1C1814"/><path stroke="#1C1814" stroke-dasharray="2" stroke-linecap="round" d="M43 43c11.046 0 20-8.954 20-20S54.046 3 43 3s-20 8.954-20 20 8.954 20 20 20z" opacity=".7"/><path fill="#1C1814" d="M36.5 20a1.5 1.5 0 11-.001 3.001A1.5 1.5 0 0136.5 20zm13 0a1.5 1.5 0 11-.001 3.001A1.5 1.5 0 0149.5 20z"/><path stroke="#1C1814" stroke-linecap="round" d="M37 27c4 2.667 8 2.667 12 0"/></g></svg>