<svg xmlns="http://www.w3.org/2000/svg" viewBox="0 0 49 20" width="48" height="20"><path d="M3.7 4.6c1.4 0 2.7.5 3.4 1l-.5 1c-.7-.4-1.7-.9-2.9-.9-1.3 0-2.1.6-2.1 1.5 0 1 .7 1.6 1.8 1.8l1.1.2c1.8.4 2.8 1.2 2.8 2.9 0 1.9-1.7 3.2-3.8 3.2-1.3 0-2.7-.5-3.5-.9l.4-1.2c.7.5 2 .9 3 .9 1.5 0 2.5-.8 2.5-1.9 0-1-.6-1.5-1.9-1.8l-1.2-.3C1.5 10 .2 9 .2 7.4s1.3-2.8 3.5-2.8zm7.9 0c1.4 0 2.7.5 3.4 1l-.5 1.1c-.7-.5-1.7-.9-2.9-.9-1.3 0-2.1.6-2.1 1.5 0 1 .7 1.6 1.8 1.8l1.1.2c1.8.4 2.8 1.2 2.8 2.9 0 1.9-1.7 3.2-3.9 3.2-1.3 0-2.7-.5-3.5-.9l.4-1.2c.7.5 2 .9 3 .9 1.5 0 2.5-.8 2.5-1.9 0-1-.6-1.5-1.9-1.8l-1.2-.3C9.4 10 8.1 9 8.1 7.4c0-1.6 1.3-2.8 3.5-2.8zm9.2 0c1.3 0 2.5.4 3.2.9l-.5 1.1c-.7-.5-1.5-.8-2.7-.8-1.9 0-3.5 1.7-3.5 4v.3c0 2.1 1.3 4.1 3.4 4.1 1.1 0 1.9-.3 2.3-.7v-2.7h-2V9.7h3.4v4.4c-.7.8-2 1.3-3.7 1.3-2.7 0-4.7-2.1-4.7-5.4v-.2c-.1-3.4 2.3-5.2 4.8-5.2zm8.9.3c2.3 0 3.7 1 3.7 3.2s-1.5 3.3-3.6 3.3h-2.4v4h-1.3V4.9h3.6zm11.7 0l3 3.7 2.8-3.7h1.4L45 9.7v5.7h-1.3V9.7l-3.8-4.9h1.5v.1zm6.8 8.9c.2 0 .4.1.6.2s.2.4.2.6c0 .2-.1.4-.2.6s-.3.2-.6.2-.5-.1-.6-.2-.2-.4-.2-.6c0-.2.1-.4.2-.6s.3-.2.6-.2zM37.5 4.9l2 5.3H42v1.2h-2l1.5 4H40l-.8-2.1-.7-1.8v-.1h-2v-1.2h1.6l-1.4-3.8-3.3 9H32l4.1-10.6 1.4.1zM29.6 6h-2.1v4.2h2.1c1.6 0 2.5-.7 2.5-2.1 0-1.4-.9-2.1-2.5-2.1z"/></svg>