<svg xmlns="http://www.w3.org/2000/svg" width="88" height="24"><path class="st0" d="M17 6.7c2 0 3.4.6 4.4 1.7.8.9 1.2 2.1 1.2 3.4 0 1.5-.5 2.8-1.5 3.7-1 1-2.4 1.5-4.1 1.5-1.6 0-2.8-.4-3.8-1.2-1.2-1-1.8-2.3-1.8-3.9 0-1.5.5-2.7 1.5-3.7s2.3-1.5 4.1-1.5zm27.2 0c1.1 0 2 .1 2.7.2.7.1 1.3.4 1.7.8.3.3.6.7.8 1.2.2.5.3 1 .3 1.5v4.4c0 .5 0 .8.1 1.1.1.3.2.6.4 1h-3.5c-.1-.3-.2-.4-.3-.6 0-.1-.1-.3-.1-.6-.5.5-1 .8-1.5 1-.7.3-1.4.4-2.3.4-1.2 0-2.1-.3-2.7-.8s-.9-1.2-.9-2 .2-1.4.7-1.9 1.2-.8 2.4-1.1c.8-.2 1.5-.3 2-.4l.3-.1c.2 0 .3-.1.4-.1.4-.1.9-.3 1.3-.5 0-.5-.1-.8-.3-1-.2-.2-.5-.3-1-.3-.6 0-1.1.1-1.4.3-.2.2-.4.4-.6.9l-3.6-.4c.1-.6.3-1.1.6-1.5.3-.4.6-.7 1.1-.9.3-.2.8-.3 1.4-.4.7-.2 1.3-.2 2-.2zm30.1 0c1.4 0 2.5.2 3.3.6.8.4 1.4 1 1.9 1.9.4.8.6 1.9.6 3.2v.4h-7.5c.1.6.2 1.1.5 1.4.4.4.8.6 1.4.6.4 0 .7-.1 1.1-.3.2-.1.4-.3.7-.6l3.7.3c-.6 1-1.2 1.7-2 2.1-.8.4-1.9.6-3.4.6-1.3 0-2.3-.2-3.1-.6s-1.4-1-1.8-1.8c-.5-.8-.7-1.7-.7-2.8 0-1.5.5-2.8 1.5-3.7.7-.8 2.1-1.3 3.8-1.3zM7 6.7c1 0 1.9.3 2.4.9.6.6.9 1.6.9 2.9v6.3H6.6v-5.4c0-.6-.1-1.1-.3-1.3-.3-.3-.6-.5-1-.5-.5 0-.8.2-1.1.5-.3.3-.4 1-.4 1.9v4.7H0V6.9h3.5v1.6c.5-.6 1-1.1 1.6-1.4.5-.3 1.2-.4 1.9-.4zm27.5 0c1 0 1.8.3 2.4.9.6.6.9 1.6.9 2.9v6.3H34v-5.4c0-.6-.1-1.1-.3-1.3-.2-.3-.5-.4-1-.4s-.8.2-1.1.5c-.3.3-.4 1-.4 1.9v4.7h-3.7V6.9H31v1.6c.5-.7 1.1-1.1 1.6-1.4.5-.3 1.2-.4 1.9-.4zm29.9 0c1.1 0 1.9.3 2.5.9.6.6.9 1.6.9 3v6.2H64v-5.6c0-.4-.1-.8-.3-1-.3-.3-.6-.5-.9-.5-.4 0-.8.2-1.1.5-.3.3-.4.8-.4 1.6v5.1h-3.8v-5.4c0-.4 0-.7-.1-.9-.1-.2-.2-.4-.4-.6-.2-.2-.4-.2-.7-.2-.4 0-.8.2-1.1.5-.3.3-.4.9-.4 1.6v5H51v-10h3.5v1.4c.5-.6 1-1 1.5-1.3.5-.3 1.1-.4 1.9-.4.8 0 1.4.1 1.9.4.5.3.8.7 1.1 1.2.6-.6 1.1-1.1 1.6-1.3.6-.1 1.2-.2 1.9-.2zM46 12.1c-.5.2-1.1.4-1.6.5-.8.2-1.2.4-1.4.6-.2.2-.3.4-.3.7 0 .3.1.5.3.7.2.2.5.3.9.3s.8-.1 1.2-.3c.4-.2.6-.5.8-.7.2-.3.2-.7.2-1.1-.1-.1-.1-.7-.1-.7zM17 9.3c-.5 0-1 .2-1.4.6-.4.4-.5 1.1-.5 1.9 0 .9.2 1.5.5 2 .4.4.8.6 1.3.6s1-.2 1.3-.6c.3-.4.5-1.1.5-2 0-.9-.2-1.5-.5-1.9-.2-.4-.7-.6-1.2-.6zM85 5c.3 0 .5 0 .8.1.3.1.5.2.7.3.2.1.4.3.6.5.2.2.3.4.5.6.1.2.2.5.3.7.1.3.1.5.1.8 0 .3 0 .5-.1.8-.1.3-.2.5-.3.7-.1.2-.3.4-.5.6-.2.2-.4.3-.6.5-.2.1-.5.2-.7.3-.3.1-.5.1-.8.1-.3 0-.5 0-.8-.1-.3-.1-.5-.2-.7-.3-.2-.1-.4-.3-.6-.5-.2-.2-.3-.4-.5-.6-.1-.2-.2-.5-.3-.7 0-.2-.1-.5-.1-.8 0-.3 0-.5.1-.8.1-.3.2-.5.3-.7.1-.2.3-.4.5-.6.2-.2.4-.3.6-.5.2-.1.5-.2.7-.3.3-.1.5-.1.8-.1zM74.5 8.9c-.6 0-1.1.2-1.4.7-.2.3-.4.7-.4 1.3h3.7c-.1-.7-.3-1.3-.6-1.6-.4-.2-.8-.4-1.3-.4zm10.5-3c-.2 0-.4 0-.6.1-.1 0-.3.1-.4.2-.2.1-.3.2-.4.3-.1.1-.2.3-.3.4-.1.2-.2.3-.2.5s-.1.4-.1.5c0 .2 0 .4.1.6.1.2.1.3.2.5s.2.3.3.4c.1.1.3.2.4.3.2.1.3.2.5.2.2.1.4.1.5.1.3 0 .6-.1.8-.2.3-.1.5-.3.7-.4.2-.2.3-.4.4-.7.1-.1.2-.4.2-.7 0-.2 0-.4-.1-.6 0-.1-.1-.3-.2-.4-.1-.2-.2-.3-.3-.4-.1-.1-.3-.2-.4-.3-.2-.2-.4-.3-.5-.3-.2-.1-.4-.1-.6-.1zm.4.7c.1 0 .3 0 .4.1.1.1.2.1.3.2.1.1.1.2.2.3 0 .1.1.2.1.4s0 .3-.1.5c-.1.1-.2.3-.3.3l.5 1s0 .1-.1.1h-.7s-.1 0-.1-.1l-.6-.9h-.3v1h-.8V6.6h1.5zm-.2.6h-.4v.5h.4c.1 0 .1 0 .2-.1 0-.1.1-.1.1-.2v-.1s0-.1-.1-.1c0 0-.1 0-.1-.1s-.1.1-.1.1z"/></svg>