<svg xmlns="http://www.w3.org/2000/svg" xmlns:xlink="http://www.w3.org/1999/xlink" width="143" height="86"><defs><filter id="b" width="114.6%" height="128%" x="-7.3%" y="-10%" filterUnits="objectBoundingBox"><feOffset dy="2" in="SourceAlpha" result="shadowOffsetOuter1"/><feGaussianBlur in="shadowOffsetOuter1" result="shadowBlurOuter1" stdDeviation="2"/><feColorMatrix in="shadowBlurOuter1" values="0 0 0 0 0 0 0 0 0 0 0 0 0 0 0 0 0 0 0.16 0"/></filter><filter id="d" width="168.4%" height="236.8%" x="-34.2%" y="-57.9%" filterUnits="objectBoundingBox"><feGaussianBlur in="SourceGraphic" stdDeviation="3"/></filter><filter id="e" width="184.2%" height="268.4%" x="-42.1%" y="-73.7%" filterUnits="objectBoundingBox"><feOffset dy="2" in="SourceAlpha" result="shadowOffsetOuter1"/><feGaussianBlur in="shadowOffsetOuter1" result="shadowBlurOuter1" stdDeviation="2"/><feColorMatrix in="shadowBlurOuter1" values="0 0 0 0 0 0 0 0 0 0 0 0 0 0 0 0 0 0 0.16 0"/></filter><filter id="g" width="134.8%" height="134.8%" x="-17.4%" y="-13%" filterUnits="objectBoundingBox"><feMorphology in="SourceAlpha" operator="dilate" radius="1" result="shadowSpreadOuter1"/><feOffset dy="2" in="shadowSpreadOuter1" result="shadowOffsetOuter1"/><feGaussianBlur in="shadowOffsetOuter1" result="shadowBlurOuter1" stdDeviation="2"/><feComposite in="shadowBlurOuter1" in2="SourceAlpha" operator="out" result="shadowBlurOuter1"/><feColorMatrix in="shadowBlurOuter1" values="0 0 0 0 0 0 0 0 0 0 0 0 0 0 0 0 0 0 0.16 0"/></filter><path id="a" d="M94 .304a2 2 0 012 2v18.624c-2.028.414-3.556 2.216-3.556 4.376s1.528 3.961 3.556 4.375v18.625a2 2 0 01-2 2H2a2 2 0 01-2-2v-46a2 2 0 012-2h92z"/><path id="f" d="M50.485 46.901c8.724 0 20.522-4.253 26.352-9.5 5.83-5.246 3.484-9.5-5.24-9.5-8.723 0-20.521 4.254-26.351 9.5-5.83 5.247-3.484 9.5 5.24 9.5z"/><circle id="h" cx="47" cy="23" r="23"/></defs><g fill="none" fill-rule="evenodd"><g transform="rotate(5 -36.634 109.315)"><mask id="c" fill="#fff"><use xlink:href="#a"/></mask><use fill="#000" filter="url(#b)" xlink:href="#a"/><use fill="#1EC68C" xlink:href="#a"/><path fill="#1C1814" fill-rule="nonzero" d="M60.373 25.036c1.636 0 3.206-.31 4.711-.929a12.08 12.08 0 003.965-2.625c1.138-1.13 2.05-2.482 2.738-4.053.687-1.572 1.03-3.31 1.03-5.215 0-1.976-.307-3.768-.924-5.375-.616-1.607-1.475-2.982-2.577-4.125a11.505 11.505 0 00-3.947-2.66c-1.529-.631-3.194-.947-4.996-.947-1.801 0-3.454.316-4.96.947a11.566 11.566 0 00-3.91 2.66C50.4 3.857 49.54 5.232 48.923 6.84c-.616 1.607-.924 3.4-.924 5.375 0 1.905.308 3.643.924 5.215.617 1.571 1.476 2.922 2.578 4.053a11.504 11.504 0 003.911 2.625c1.506.62 3.159.929 4.96.929zm-2.062 26.607c.759 0 1.405-.149 1.938-.447a4.377 4.377 0 001.333-1.125l39.04-50.464h-8.035c-.925 0-1.648.173-2.17.518-.52.345-.96.72-1.315 1.125l-39.04 50.393h8.25zm2.062-33.5c-.569 0-1.09-.095-1.564-.286-.474-.19-.877-.512-1.209-.964-.332-.453-.593-1.06-.782-1.822-.19-.761-.285-1.714-.285-2.857 0-1.214.095-2.22.285-3.018.19-.797.45-1.434.782-1.91s.735-.81 1.209-1c.474-.19.995-.286 1.564-.286.57 0 1.097.095 1.583.286.485.19.906.524 1.262 1 .355.476.634 1.113.835 1.91.202.798.303 1.804.303 3.018 0 1.143-.101 2.096-.303 2.857-.201.762-.48 1.37-.835 1.822-.356.452-.777.774-1.262.964a4.312 4.312 0 01-1.583.286zM90.17 52.286c1.635 0 3.206-.31 4.711-.929a12.076 12.076 0 003.964-2.625c1.138-1.13 2.05-2.488 2.738-4.071.688-1.584 1.031-3.328 1.031-5.232 0-1.977-.308-3.768-.924-5.375-.616-1.608-1.476-2.983-2.578-4.125-1.102-1.143-2.418-2.03-3.947-2.661-1.528-.631-3.194-.947-4.995-.947-1.802 0-3.455.316-4.96.947a11.594 11.594 0 00-3.911 2.66c-1.102 1.143-1.962 2.518-2.578 4.126-.616 1.607-.924 3.398-.924 5.375 0 1.904.308 3.648.924 5.232.616 1.583 1.476 2.94 2.578 4.071a11.51 11.51 0 003.91 2.625c1.506.62 3.16.929 4.96.929zm0-6.929c-.569 0-1.09-.095-1.565-.286a2.755 2.755 0 01-1.208-.964c-.332-.452-.593-1.06-.783-1.821-.19-.762-.284-1.715-.284-2.857 0-1.19.095-2.185.284-2.983.19-.797.45-1.434.783-1.91.331-.476.734-.81 1.208-1 .475-.19.996-.286 1.565-.286s1.096.095 1.582.286c.486.19.907.524 1.262 1 .356.476.634 1.113.836 1.91.201.798.302 1.792.302 2.983 0 1.142-.1 2.095-.302 2.857-.202.762-.48 1.369-.836 1.821a2.966 2.966 0 01-1.262.964 4.306 4.306 0 01-1.582.286z" mask="url(#c)" opacity=".028"/><path fill="#F4F4F4" fill-rule="nonzero" d="M74.444 4.545v1.339c0 .123.224.223.5.223.277 0 .5-.1.5-.223v-1.34c0-.123-.223-.223-.5-.223-.276 0-.5.1-.5.224zm0 2.678v1.34c0 .123.224.223.5.223.277 0 .5-.1.5-.223v-1.34c0-.123-.223-.223-.5-.223-.276 0-.5.1-.5.223zm0 2.679v1.34c0 .122.224.222.5.222.277 0 .5-.1.5-.223v-1.34c0-.122-.223-.222-.5-.222-.276 0-.5.1-.5.223zm0 2.678v1.34c0 .123.224.223.5.223.277 0 .5-.1.5-.223v-1.34c0-.123-.223-.223-.5-.223-.276 0-.5.1-.5.223zm0 2.679v1.34c0 .122.224.222.5.222.277 0 .5-.1.5-.223v-1.34c0-.122-.223-.222-.5-.222-.276 0-.5.1-.5.223zm0 2.678v1.34c0 .123.224.223.5.223.277 0 .5-.1.5-.223v-1.34c0-.123-.223-.223-.5-.223-.276 0-.5.1-.5.224zm0 2.68v1.338c0 .124.224.224.5.224.277 0 .5-.1.5-.224v-1.339c0-.123-.223-.223-.5-.223-.276 0-.5.1-.5.223zm0 2.678v1.339c0 .123.224.223.5.223.277 0 .5-.1.5-.223v-1.34c0-.123-.223-.223-.5-.223-.276 0-.5.1-.5.224zm0 2.678v1.34c0 .123.224.223.5.223.277 0 .5-.1.5-.224v-1.339c0-.123-.223-.223-.5-.223-.276 0-.5.1-.5.223zm0 2.679v1.34c0 .122.224.222.5.222.277 0 .5-.1.5-.223v-1.34c0-.122-.223-.222-.5-.222-.276 0-.5.1-.5.223zm0 2.678v1.34c0 .123.224.223.5.223.277 0 .5-.1.5-.223v-1.34c0-.123-.223-.223-.5-.223-.276 0-.5.1-.5.223zm0 2.679v1.34c0 .122.224.222.5.222.277 0 .5-.1.5-.223v-1.34c0-.122-.223-.222-.5-.222-.276 0-.5.1-.5.223zm0 2.678v1.34c0 .123.224.223.5.223.277 0 .5-.1.5-.223v-1.34c0-.123-.223-.223-.5-.223-.276 0-.5.1-.5.224zm0 2.68v1.338c0 .124.224.224.5.224.277 0 .5-.1.5-.224v-1.339c0-.123-.223-.223-.5-.223-.276 0-.5.1-.5.223zm0 2.678v1.339c0 .123.224.223.5.223.277 0 .5-.1.5-.223v-1.34c0-.123-.223-.223-.5-.223-.276 0-.5.1-.5.224zm0 2.678v1.34c0 .123.224.223.5.223.277 0 .5-.1.5-.224v-1.339c0-.123-.223-.223-.5-.223-.276 0-.5.1-.5.223z" mask="url(#c)" opacity=".4"/><path fill="#FFF" fill-rule="nonzero" d="M71.647 27.536v-1.688c0-.187.045-.346.134-.475a.433.433 0 01.376-.194c.154 0 .266.053.336.157.07.104.106.246.106.425v1.775h1.02v-1.682a.97.97 0 01.032-.253.657.657 0 01.096-.215.503.503 0 01.162-.15.437.437 0 01.227-.057c.091 0 .165.018.22.054a.394.394 0 01.135.14.604.604 0 01.068.21c.013.08.019.165.019.253v1.7h1.02V25.61c0-.146-.02-.295-.059-.447a1.267 1.267 0 00-.19-.413.988.988 0 00-.345-.3 1.11 1.11 0 00-.532-.115c-.232 0-.43.048-.591.143a1.172 1.172 0 00-.398.388.951.951 0 00-.364-.394 1.114 1.114 0 00-.57-.137 1.116 1.116 0 00-.585.159.896.896 0 00-.202.166 1.123 1.123 0 00-.14.193h-.012v-.43h-.99v3.112h1.027zm6.285.1c.236 0 .458-.04.665-.119.208-.08.39-.19.548-.334.158-.144.282-.32.373-.525.091-.207.137-.437.137-.691 0-.254-.046-.483-.137-.688a1.506 1.506 0 00-.373-.518 1.643 1.643 0 00-.548-.325 1.939 1.939 0 00-.665-.113c-.233 0-.454.038-.663.113a1.54 1.54 0 00-.918.843 1.677 1.677 0 00-.137.688c0 .254.046.484.137.69a1.572 1.572 0 00.918.86c.21.08.43.119.663.119zm.006-.863a.702.702 0 01-.318-.069c-.09-.045-.168-.107-.23-.184s-.109-.163-.14-.26a.97.97 0 010-.587.694.694 0 01.682-.5.695.695 0 01.547.247c.062.073.11.157.143.253a.899.899 0 01.003.588.78.78 0 01-.14.26.688.688 0 01-.547.253zm3.926.863c.236 0 .458-.04.666-.119.207-.08.39-.19.547-.334a1.57 1.57 0 00.374-.525c.09-.207.137-.437.137-.691 0-.254-.046-.483-.137-.688a1.522 1.522 0 00-.374-.518 1.639 1.639 0 00-.547-.325 1.949 1.949 0 00-.666-.113c-.232 0-.453.038-.663.113a1.59 1.59 0 00-.547.325c-.156.141-.28.314-.37.518a1.66 1.66 0 00-.137.688c0 .254.045.484.137.69.09.207.214.382.37.526.155.143.338.255.547.334.21.08.43.119.663.119zm.006-.863a.679.679 0 01-.547-.253.761.761 0 01-.14-.26.94.94 0 010-.587.73.73 0 01.137-.253.684.684 0 01.544-.247.695.695 0 01.547.247c.063.073.11.157.144.253a.899.899 0 01.003.588.818.818 0 01-.14.26.7.7 0 01-.548.253zm3.391.763v-1.688c0-.087.012-.172.035-.253a.673.673 0 01.102-.216.49.49 0 01.411-.2c.091 0 .167.018.227.054a.37.37 0 01.14.143c.033.06.057.13.072.21.014.079.021.162.021.25v1.7h1.027V25.61c0-.154-.02-.309-.06-.463a1.02 1.02 0 00-.544-.7 1.138 1.138 0 00-.528-.112c-.108 0-.21.014-.305.043-.096.03-.184.067-.265.113a1.023 1.023 0 00-.358.362h-.012v-.43h-.99v3.112h1.027zm4.269 1.5c.274 0 .523-.037.75-.11.226-.073.417-.183.575-.33.158-.149.28-.335.367-.56.087-.225.13-.49.13-.794v-2.819h-.964v.4h-.012a.974.974 0 00-.43-.369 1.363 1.363 0 00-.56-.118c-.232 0-.439.045-.622.134-.182.09-.337.21-.463.36-.127.15-.223.322-.29.518a1.925 1.925 0 00-.099.619c0 .217.033.422.1.616.066.193.162.363.289.509.126.146.28.261.463.347.183.085.392.128.629.128.207 0 .392-.038.554-.113.161-.075.29-.175.385-.3h.02v.188c0 .262-.072.473-.216.631-.143.159-.364.238-.662.238-.174 0-.352-.033-.532-.097a1.51 1.51 0 01-.495-.297l-.51.731c.211.159.461.28.75.363.288.083.569.125.843.125zm.1-2.282a.689.689 0 01-.536-.24.777.777 0 01-.143-.253.941.941 0 010-.607.682.682 0 01.678-.481.712.712 0 01.548.235.763.763 0 01.152.253.847.847 0 01.053.3c0 .108-.017.21-.053.306a.746.746 0 01-.149.25.734.734 0 01-.551.237zm4.094.882c.236 0 .458-.04.665-.119.208-.08.39-.19.548-.334.158-.144.282-.32.373-.525.091-.207.137-.437.137-.691 0-.254-.046-.483-.137-.688a1.506 1.506 0 00-.373-.518 1.643 1.643 0 00-.548-.325 1.939 1.939 0 00-.665-.113c-.233 0-.454.038-.663.113a1.54 1.54 0 00-.918.843 1.677 1.677 0 00-.137.688c0 .254.046.484.137.69a1.572 1.572 0 00.918.86c.21.08.43.119.663.119zm.006-.863a.702.702 0 01-.318-.069c-.09-.045-.168-.107-.23-.184s-.109-.163-.14-.26a.97.97 0 010-.587.694.694 0 01.682-.5.695.695 0 01.547.247c.062.073.11.157.143.253a.899.899 0 01.003.588.78.78 0 01-.14.26.688.688 0 01-.547.253zm3.385.763v-1.6a.77.77 0 01.158-.45.707.707 0 01.224-.182.728.728 0 01.346-.075c.041 0 .084.003.127.007a.732.732 0 01.134.025l.044-.9c-.025-.009-.057-.015-.097-.019s-.08-.006-.121-.006a.866.866 0 00-.504.15c-.145.1-.257.229-.336.387h-.013v-.45h-.983v3.113h1.02zm1.966-3.544a.607.607 0 00.414-.163.564.564 0 00.171-.4.557.557 0 00-.358-.518.588.588 0 00-.457.003.679.679 0 00-.187.122.53.53 0 00-.168.393c0 .155.056.287.168.397.112.11.251.166.417.166zm.51 3.544v-3.113h-1.02v3.113h1.02z" mask="url(#c)" opacity=".4" transform="rotate(90 85.143 25.951)"/></g><path d="M54.827 47.787l.428-4.901-.828-.073-.321 3.664-1.204-.105-.053.598 1.206.105-.056.64.827.073zm-3.11-2.645c.922.08 1.623-.345 1.682-1.028s-.555-1.24-1.476-1.32c-.92-.08-1.645.358-1.703 1.028-.061.697.577 1.24 1.497 1.32zm.055-.625c-.481-.043-.742-.33-.718-.608s.333-.537.814-.495c.469.04.734.35.71.628-.025.278-.338.515-.805.475zm.41 2.732l.105-1.19c.492.007.963.005 1.401-.028l.004-.617c-.895.037-2.488-.024-4.04-.16.024.218.04.449.056.665.475.042 1.091.088 1.753.125l-.1 1.132.822.072zm2.632 1.814l.058-.661-3.803-.333.106-1.21-.83-.072-.163 1.87 4.632.406zM17.071 45.93c.472.04.925.011 1.36-.09.435-.1.824-.27 1.17-.51.344-.24.628-.549.852-.926.223-.377.357-.822.401-1.335.053-.601-.054-1.116-.321-1.54-.267-.425-.7-.761-1.297-1.01.262-.063.5-.15.712-.26a1.97 1.97 0 00.551-.425c.156-.173.28-.38.376-.624.094-.242.157-.528.185-.855a2.54 2.54 0 00-.125-1.065c-.116-.335-.297-.634-.545-.897s-.557-.479-.925-.648a3.835 3.835 0 00-1.262-.314 4.154 4.154 0 00-1.288.078c-.405.09-.771.247-1.097.47a3.122 3.122 0 00-.843.865c-.236.355-.41.775-.524 1.263l.906.244c.083.022.163.036.239.042a.617.617 0 00.4-.082c.106-.07.195-.193.268-.368a1.73 1.73 0 01.648-.8c.293-.197.647-.276 1.063-.24.458.04.808.196 1.051.468.242.273.343.653.3 1.14-.02.229-.071.434-.155.619a1.085 1.085 0 01-.392.457 1.85 1.85 0 01-.705.257c-.29.05-.65.06-1.08.027l-.11 1.254c.52.045.93.122 1.234.23.301.107.529.24.682.396a.998.998 0 01.28.545c.035.206.042.432.02.68-.017.193-.07.383-.16.57-.09.185-.217.35-.38.493a1.71 1.71 0 01-.589.332c-.23.077-.495.103-.792.077a1.796 1.796 0 01-.673-.177 1.712 1.712 0 01-.473-.35 1.997 1.997 0 01-.327-.462 5.916 5.916 0 01-.236-.515.538.538 0 00-.204-.247.677.677 0 00-.322-.108 1.021 1.021 0 00-.412.05l-.8.253c.103.454.239.858.408 1.212.17.354.384.66.647.917.264.257.581.462.953.613.373.153.816.251 1.33.297zm4.934 2.352a4.429 4.429 0 001.276-1.286c.154-.24.277-.482.366-.728.092-.245.147-.482.167-.71a1.639 1.639 0 00-.024-.463 1.113 1.113 0 00-.165-.403c-.08-.118-.183-.217-.31-.292s-.28-.12-.46-.137a1.15 1.15 0 00-.424.038.943.943 0 00-.686.832c-.013.152 0 .295.037.427.039.133.098.25.177.352a.948.948 0 00.295.252.98.98 0 00.396.117c-.04.14-.098.27-.172.39a2.77 2.77 0 01-.24.33c-.085.1-.169.189-.252.266l-.21.192a.585.585 0 00-.107.12.27.27 0 00-.05.125.335.335 0 00.105.275l.28.303zm6.352-1.365a3.546 3.546 0 001.519-.186 3.22 3.22 0 001.282-.86c.375-.402.687-.926.936-1.57.25-.645.413-1.417.491-2.313.08-.9.052-1.69-.082-2.366-.133-.676-.35-1.246-.65-1.706a3.228 3.228 0 00-1.113-1.069c-.441-.251-.93-.4-1.463-.447a3.501 3.501 0 00-1.512.187 3.2 3.2 0 00-1.27.86c-.374.403-.683.925-.93 1.567-.247.643-.41 1.416-.489 2.317-.078.896-.052 1.685.08 2.363.13.678.345 1.247.643 1.708A3.2 3.2 0 0026.9 46.47c.438.251.923.4 1.457.447zm.127-1.459a1.63 1.63 0 01-.71-.237c-.224-.137-.413-.358-.567-.663-.154-.305-.263-.707-.326-1.204-.064-.498-.063-1.12.002-1.865.065-.744.172-1.356.321-1.836.149-.48.326-.855.53-1.13.205-.272.43-.458.674-.553.244-.097.491-.133.742-.111.254.022.495.101.721.238.226.138.417.358.574.663.157.306.267.708.333 1.205.067.498.066 1.12.001 1.865-.065.745-.174 1.357-.325 1.836-.151.479-.33.855-.537 1.129-.208.273-.434.458-.681.553a1.646 1.646 0 01-.752.11zm8.09 2.178a3.546 3.546 0 001.52-.186 3.22 3.22 0 001.281-.86c.376-.402.687-.926.937-1.57.249-.645.413-1.417.491-2.313.079-.9.051-1.69-.082-2.367-.134-.675-.35-1.245-.65-1.705a3.228 3.228 0 00-1.113-1.069 3.56 3.56 0 00-1.464-.447 3.501 3.501 0 00-1.512.187 3.2 3.2 0 00-1.27.86c-.373.403-.683.925-.93 1.567-.247.643-.41 1.416-.488 2.317-.079.896-.052 1.685.08 2.363.13.678.345 1.247.643 1.708a3.2 3.2 0 001.1 1.068c.438.251.923.4 1.457.447zm.128-1.459a1.63 1.63 0 01-.711-.237c-.224-.137-.412-.358-.566-.663-.154-.305-.264-.707-.327-1.204-.064-.498-.062-1.12.003-1.865.065-.744.172-1.356.321-1.836.148-.48.326-.855.53-1.13.205-.273.429-.458.673-.553a1.62 1.62 0 011.464.128c.226.136.416.357.573.662.156.306.268.708.333 1.205.067.498.067 1.12.002 1.865-.065.745-.174 1.357-.325 1.836-.152.479-.331.855-.538 1.129-.207.273-.433.458-.68.552a1.646 1.646 0 01-.752.111zm8.09 2.178a3.546 3.546 0 001.519-.187 3.22 3.22 0 001.282-.86c.375-.4.687-.925.936-1.57.25-.644.413-1.416.492-2.312.078-.901.051-1.69-.082-2.367-.134-.675-.35-1.245-.65-1.705a3.228 3.228 0 00-1.113-1.069 3.56 3.56 0 00-1.464-.447 3.501 3.501 0 00-1.512.187 3.211 3.211 0 00-1.27.86c-.374.402-.684.924-.931 1.567-.246.643-.409 1.416-.488 2.317-.078.896-.052 1.684.08 2.363.131.678.344 1.247.642 1.708.298.462.666.817 1.102 1.068.438.251.923.4 1.457.447zm.128-1.459a1.63 1.63 0 01-.711-.238c-.224-.137-.413-.357-.567-.662-.154-.305-.263-.707-.326-1.204-.064-.498-.063-1.12.002-1.865.066-.744.172-1.356.322-1.836.148-.48.325-.855.53-1.13.205-.273.429-.458.673-.553a1.614 1.614 0 011.463.128c.225.136.417.357.574.662.156.305.267.708.333 1.205.067.498.067 1.12.002 1.865-.066.745-.174 1.357-.326 1.836-.151.479-.33.855-.537 1.129-.208.273-.435.458-.681.552a1.65 1.65 0 01-.752.111zm-24.798-29.64l.352-4.022-.725-.064-.352 4.023.725.063zm-4.073-1.053c.524-.136 1.175-.656 1.392-1.208.198.531.728 1.099 1.136 1.298l.46-.544c-.62-.267-1.198-1.014-1.124-1.867l.048-.548-.756-.066-.051.585c-.073.835-.662 1.51-1.495 1.733l.39.616zm4.072 2.44l.05-.573-3.106-.272.102-1.165-.73-.064-.153 1.738 3.838.336zm2.552.38l.201-2.298 1.184.104-.201 2.297.725.063.2-2.297 1.191.104.05-.572-.818-.072c.182-.656.318-1.578.388-2.37l-3.798-.332-.05.58 3.08.269c-.046.523-.174 1.347-.308 1.793l-3.482-.305-.05.573 1.158.101-.201 2.297.732.064zm8.07.7l.486-5.548-.725-.064-.485 5.548.725.063zM29.16 14.84l.048-.548-1.605-.14-.047.547 1.604.14zm.725.866l.048-.548-3.224-.282-.048.548 3.224.282zm-3.58 2.792c1.036.09 2.598.14 3.55.117l-.013-.56a23.77 23.77 0 01-1.418-.011l.037-.424c.591-.042 1.025-.356 1.067-.835.05-.567-.481-1.002-1.25-1.069-.762-.066-1.354.27-1.404.837-.04.467.308.843.863.998l-.04.46c-.478-.036-.962-.07-1.433-.112l.04.599zm1.855-1.43c-.347-.031-.579-.24-.56-.451.018-.212.283-.371.63-.34.352.03.585.232.566.444-.019.212-.283.377-.636.346zm8.118 1.87l.376-4.29-.726-.063-.28 3.206-1.053-.092-.046.523 1.053.092-.049.56.725.064zm-2.72-2.314c.807.07 1.42-.303 1.472-.9.052-.598-.487-1.085-1.293-1.155-.805-.07-1.438.313-1.49.898-.053.61.506 1.086 1.31 1.157zm.048-.548c-.422-.037-.65-.29-.628-.532.02-.243.292-.47.712-.433.41.035.642.307.62.55-.02.242-.295.45-.704.414zm.36 2.39l.09-1.04c.43.006.843.004 1.227-.025l.003-.54c-.783.032-2.178-.02-3.536-.14.022.19.035.392.05.582.415.037.955.078 1.533.11l-.087.99.72.062zm2.303 1.587l.05-.578-3.329-.29.093-1.06-.725-.063-.144 1.637 4.055.355zm6.76-1.672l.097-1.104.775.068.052-.598-.775-.067.127-1.45-.725-.063-.276 3.15.726.064zm-1.666-2.744l.048-.548-1.637-.143-.047.548 1.636.143zm.662.855l.05-.562-3.205-.28-.05.561 3.205.28zm-1.711 1.733c.75.065 1.338-.234 1.384-.752.044-.51-.483-.914-1.233-.98-.769-.067-1.358.24-1.402.75-.046.517.488.915 1.25.982zm.046-.523c-.33-.029-.597-.184-.578-.396.017-.2.302-.312.637-.283.316.028.583.189.565.388-.018.212-.309.318-.624.29zm2.597 3.075l.048-.548-3.05-.267.024-.274 2.914.255.113-1.295-3.645-.319-.047.542 2.914.255-.023.261-2.908-.254-.115 1.315 3.775.33zm5.6-1.034l.352-4.023-.72-.063-.351 4.023.719.063zm-2.818-1.132c.911.08 1.544-.436 1.613-1.233.069-.784-.463-1.42-1.374-1.5-.905-.08-1.546.455-1.614 1.239-.07.796.47 1.416 1.375 1.495zm.052-.598c-.465-.04-.722-.39-.683-.83.037-.424.35-.723.815-.682.479.042.73.39.692.813-.039.442-.346.741-.824.7zm2.769 3.117l.05-.573-3.098-.271.105-1.203-.732-.064-.155 1.775 3.83.336zm3.507.457l.186-2.123 2.145.188.051-.586-.787-.069c.186-.692.34-1.727.409-2.524l-3.838-.336-.05.573 3.112.272c-.014.163-.037.355-.062.566l-3.272-.155.037.587 3.156.113a8.43 8.43 0 01-.186.843l-3.509-.307-.05.585 2.12.186-.187 2.124.725.063zm7.422-4.15l.05-.574-4.01-.35-.05.572 4.01.351zm.26 2.807l.051-.577-2.145-.188.042-.48 1.63.142.05-.578-.755-.067.242-.845-.698-.167-.226.953-1.103-.097-.04-.976-.703.045.061.872-.757-.067-.05.58 1.623.141-.042.48-2.118-.186-.05.58 4.99.436zm-.739 1.8l.05-.573-3.061-.268.086-.985-.72-.063-.135 1.557 3.781.33z" fill="#FFF" fill-rule="nonzero"/><g transform="translate(49 24)"><g fill="#000" filter="url(#d)" opacity=".1"><use filter="url(#e)" xlink:href="#f"/><use xlink:href="#f"/></g><use fill="#000" filter="url(#g)" xlink:href="#h"/><circle cx="47" cy="23" r="23.5" fill="#D0A70B" stroke="#1C1814"/><path fill="#FFD73E" stroke="#1C1814" stroke-linecap="round" d="M62.013 36.822c8.653-4.275 25.44-20.032 19.118-25.274-7.102-4.173-8.443 9.802-15.916 12.631-2.349 7.191-5.734 14.505-3.202 12.643zm-38.026 0C15.334 32.547-1.453 16.79 4.869 11.548c7.102-4.173 8.443 9.802 15.916 12.631 2.349 7.191 5.734 14.505 3.202 12.643z"/><path stroke="#1C1814" stroke-linecap="round" d="M6.905 6.599c3.057-1.414 5.34-.734 6.848 2.042m-3.035-5.449c1.61-.329 2.743.1 3.4 1.285"/><circle cx="43" cy="23" r="23.5" fill="#FFD73E" stroke="#1C1814"/><path stroke="#1C1814" stroke-dasharray="2" stroke-linecap="round" d="M43 43c11.046 0 20-8.954 20-20S54.046 3 43 3s-20 8.954-20 20 8.954 20 20 20z" opacity=".7"/><path fill="#1C1814" d="M36.5 20a1.5 1.5 0 11-.001 3.001A1.5 1.5 0 0136.5 20zm13 0a1.5 1.5 0 11-.001 3.001A1.5 1.5 0 0149.5 20z"/><path stroke="#1C1814" stroke-linecap="round" d="M37 27c4 2.667 8 2.667 12 0"/></g></g></svg>