<svg xmlns="http://www.w3.org/2000/svg" width="24" height="24"><path d="M24 12c0 6.627-5.373 12-12 12S0 18.627 0 12 5.373 0 12 0s12 5.373 12 12z" fill="#c08eff"/><path d="M12.15 10.22a.24.24 0 00-.339-.011l-.011.011-.8 1.18a.999.999 0 000 1.2l.85 1.13a.24.24 0 00.339.011l.011-.011.85-1.13a.999.999 0 000-1.2l-.85-1.13-.05-.05zm.24-5.09c.076.061.14.136.19.22L15 9.41 19.09 8a.69.69 0 01.863.455c.007.021.012.043.017.065.04.151.04.309 0 .46L18.3 15H5.7L4 8.93a.897.897 0 010-.46.7.7 0 01.78-.54h.1L9 9.41l2.41-4.06a.66.66 0 01.98-.22zm2.86 11.37a.75.75 0 10.75.75.76.76 0 00-.75-.75zm-3.25 0a.75.75 0 10.75.75.76.76 0 00-.75-.75zm-3 0a.75.75 0 10.75.75.76.76 0 00-.75-.75zm9.16-1l-.65 2.4a1.51 1.51 0 01-1.45 1.1H7.94a1.51 1.51 0 01-1.45-1.1l-.65-2.4h12.32z" fill="#fff"/><path d="M18.3 15h-6.13l7.59-5.32L18.3 15zm-2.24 4H7.94a1.44 1.44 0 01-1-.37l1.4-1a.76.76 0 001.41-.38.734.734 0 00-.16-.44l1.86-1.31h6.71l-.65 2.4a1.51 1.51 0 01-1.45 1.1zm-3.31-1.75A.75.75 0 1012 18a.76.76 0 00.75-.75zm3.25 0a.75.75 0 10-.75.75.76.76 0 00.75-.75z" fill="#cda6ff" opacity=".1"/></svg>