<svg xmlns="http://www.w3.org/2000/svg" width="24" height="24"><filter id="a"><feGaussianBlur stdDeviation="1"/></filter><path d="M24 12c0 6.627-5.373 12-12 12S0 18.627 0 12 5.373 0 12 0s12 5.373 12 12z" fill="#585448"/><path transform="translate(0 1)" d="M12.9 3.8l6.47 4.73a1.55 1.55 0 01.55 1.73l-2.46 7.67A1.54 1.54 0 0116 19H8a1.54 1.54 0 01-1.46-1.07l-2.46-7.67a1.55 1.55 0 01.55-1.73L11.1 3.8a1.5 1.5 0 011.8 0z" filter="url(#a)" opacity=".25"/><path d="M12.9 3.8l6.47 4.73a1.55 1.55 0 01.55 1.73l-2.46 7.67A1.54 1.54 0 0116 19H8a1.54 1.54 0 01-1.46-1.07l-2.46-7.67a1.55 1.55 0 01.55-1.73L11.1 3.8a1.5 1.5 0 011.8 0z" fill="#fad77f"/><path d="M19.94 10.16v.1l-2.46 7.67A1.54 1.54 0 0116 19H8a1.412 1.412 0 01-.54-.11l12.48-8.73z" fill="#fff" opacity=".3"/><path d="M12.36 8a4.806 4.806 0 00-1.7.29 3.729 3.729 0 00-1.3.83c-.359.353-.639.78-.82 1.25A4.384 4.384 0 008.25 12a4.076 4.076 0 00.3 1.58c.189.471.472.9.83 1.26.364.354.791.636 1.26.83a4.076 4.076 0 001.58.3c.296.016.594.016.89 0 .273-.04.533-.09.78-.15.236-.07.466-.157.69-.26.142-.07.279-.15.41-.24l.21-.14v-3.35h-2.77v1a.28.28 0 00.1.23.311.311 0 00.19.09h.84v1.18c-.174.073-.355.13-.54.17a2.618 2.618 0 01-.66.07 2.277 2.277 0 01-.91-.18 2.002 2.002 0 01-.71-.5 2.29 2.29 0 01-.47-.81A3.147 3.147 0 0110.1 12a3.294 3.294 0 01.15-1c.094-.286.243-.551.44-.78.19-.216.425-.387.69-.5.287-.123.597-.184.91-.18.166-.011.334-.011.5 0 .139.011.277.038.41.08.133.041.263.091.39.15L14 10a.54.54 0 00.33.11c.081 0 .16-.02.23-.06a.597.597 0 00.12-.11l.06-.07.52-.79a3.392 3.392 0 00-1.19-.75 4.327 4.327 0 00-.79-.22 5.183 5.183 0 00-.92-.11z" fill="#585448"/></svg>