<svg xmlns="http://www.w3.org/2000/svg" width="24" height="24"><filter id="a"><feGaussianBlur stdDeviation="1"/></filter><path d="M24 12c0 6.627-5.373 12-12 12S0 18.627 0 12 5.373 0 12 0s12 5.373 12 12z" fill="#584e48"/><path transform="translate(0 1)" d="M18.44 6a1.49 1.49 0 011.3 2.24l-6.43 11.44a1.51 1.51 0 01-2.05.57 1.654 1.654 0 01-.57-.57L4.26 8.24a1.51 1.51 0 01.57-2c.22-.14.47-.222.73-.24h12.88z" filter="url(#a)" opacity=".25"/><path d="M18.44 6a1.49 1.49 0 011.3 2.24l-6.43 11.44a1.51 1.51 0 01-2.05.57 1.654 1.654 0 01-.57-.57L4.26 8.24a1.51 1.51 0 01.57-2c.22-.14.47-.222.73-.24h12.88z" fill="#e79c64"/><path d="M8.28 15.39l2.41 4.29c.14.234.336.43.57.57a1.51 1.51 0 002.05-.57l5.39-9.6-10.42 5.31z" fill="#fff" opacity=".3"/><path d="M11.84 9c.161-.001.322.015.48.05.121.025.236.073.34.14.088.07.154.163.19.27.1.278.1.582 0 .86a.667.667 0 01-.24.26 1.01 1.01 0 01-.37.14 2.507 2.507 0 01-.49 0h-.86V9h.95zm.16 2.89c.175-.004.35.016.52.06.119.03.229.088.32.17a.477.477 0 01.18.26c.017.116.017.234 0 .35a1.29 1.29 0 010 .34.76.76 0 01-.16.29.899.899 0 01-.33.22c-.171.057-.35.084-.53.08h-1.12v-1.77H12zm-.16-4.09H9.23v7.1h2.84c.383.007.764-.047 1.13-.16.306-.095.592-.247.84-.45.22-.184.395-.417.51-.68.122-.267.183-.557.18-.85a1.406 1.406 0 00-.34-1 1.945 1.945 0 00-1-.55c.198-.069.386-.163.56-.28.142-.095.267-.214.37-.35.097-.127.171-.269.22-.42.04-.15.06-.305.06-.46a2.172 2.172 0 00-.14-.79 1.487 1.487 0 00-.48-.61 2.524 2.524 0 00-.84-.38 3.92 3.92 0 00-1-.13l-.3.01z" fill="#584e48"/></svg>