<svg xmlns="http://www.w3.org/2000/svg" width="24" height="24"><filter id="a"><feGaussianBlur stdDeviation="1"/></filter><path d="M24 12c0 6.627-5.373 12-12 12S0 18.627 0 12 5.373 0 12 0s12 5.373 12 12z" fill="#4f4858"/><path transform="translate(0 1)" d="M12.15 10.22a.24.24 0 00-.339-.011l-.011.011-.8 1.18a.999.999 0 000 1.2l.85 1.13a.24.24 0 00.339.011l.011-.011.85-1.13a.999.999 0 000-1.2l-.85-1.13-.05-.05zm.24-5.09c.076.061.14.136.19.22L15 9.41 19.09 8a.69.69 0 01.863.455c.007.021.012.043.017.065.04.151.04.309 0 .46L18.3 15H5.7L4 8.93a.897.897 0 010-.46.7.7 0 01.78-.54h.1L9 9.41l2.41-4.06a.66.66 0 01.98-.22zm2.86 11.37a.75.75 0 10.75.75.76.76 0 00-.75-.75zm-3.25 0a.75.75 0 10.75.75.76.76 0 00-.75-.75zm-3 0a.75.75 0 10.75.75.76.76 0 00-.75-.75zm9.16-1l-.65 2.4a1.51 1.51 0 01-1.45 1.1H7.94a1.51 1.51 0 01-1.45-1.1l-.65-2.4h12.32z" filter="url(#a)" opacity=".25"/><path d="M12.15 10.22a.24.24 0 00-.339-.011l-.011.011-.8 1.18a.999.999 0 000 1.2l.85 1.13a.24.24 0 00.339.011l.011-.011.85-1.13a.999.999 0 000-1.2l-.85-1.13-.05-.05zm.24-5.09c.076.061.14.136.19.22L15 9.41 19.09 8a.69.69 0 01.863.455c.007.021.012.043.017.065.04.151.04.309 0 .46L18.3 15H5.7L4 8.93a.897.897 0 010-.46.7.7 0 01.78-.54h.1L9 9.41l2.41-4.06a.66.66 0 01.98-.22zm2.86 11.37a.75.75 0 10.75.75.76.76 0 00-.75-.75zm-3.25 0a.75.75 0 10.75.75.76.76 0 00-.75-.75zm-3 0a.75.75 0 10.75.75.76.76 0 00-.75-.75zm9.16-1l-.65 2.4a1.51 1.51 0 01-1.45 1.1H7.94a1.51 1.51 0 01-1.45-1.1l-.65-2.4h12.32z" fill="#cda6ff"/><path d="M19.66 10.05L18.3 15h-5.71l7.07-4.95zm-7.78 5.45h6.28l-.65 2.4a1.51 1.51 0 01-1.45 1.1H7.94a1.466 1.466 0 01-.74-.22l1.35-1A.705.705 0 009 18a.76.76 0 00.75-.75.649.649 0 00-.05-.25l2.18-1.5zm2.62 1.75a.75.75 0 10.75-.75.76.76 0 00-.75.75zM12 16.5a.75.75 0 10.75.75.76.76 0 00-.75-.75z" fill="#fff" opacity=".2"/></svg>