<svg xmlns="http://www.w3.org/2000/svg" viewBox="0 0 24 24" width="24" height="24"><path d="M10,12c0,0.6-0.4,1-1,1s-1-0.4-1-1s0.4-1,1-1S10,11.4,10,12z M15,11c-0.6,0-1,0.4-1,1s0.4,1,1,1s1-0.4,1-1 S15.6,11,15,11z M19,12c0,3.9-3.1,7-7,7s-7-3.1-7-7s3.1-7,7-7S19,8.1,19,12z M17.8,12c0-3-2.3-5.5-5.2-5.8l0,1.2 C12.6,7.7,12.3,8,12,8s-0.6-0.3-0.6-0.6V6.2C8.5,6.5,6.2,9,6.2,12s2.3,5.5,5.2,5.8v-1.2c0-0.3,0.3-0.6,0.6-0.6s0.6,0.3,0.6,0.6 l0,1.2C15.5,17.5,17.8,15,17.8,12z M22,4v16c0,1.1-0.9,2-2,2H4c-1.1,0-2-0.9-2-2V4c0-1.1,0.9-2,2-2h16C21.1,2,22,2.9,22,4z M20.8,4 c0-0.4-0.3-0.7-0.7-0.8l-0.1,0H4c-0.4,0-0.7,0.3-0.8,0.7l0,0.1v16c0,0.4,0.3,0.7,0.7,0.8l0.1,0h16c0.4,0,0.7-0.3,0.8-0.7l0-0.1V4z"/></svg>