<svg xmlns="http://www.w3.org/2000/svg" viewBox="0 0 24 24" width="24" height="24"><path d="M12.5,6l0.4,6.7l4.5,3c0.2,0.1,0.3,0.5,0.1,0.7c-0.1,0.2-0.4,0.3-0.6,0.2L11.6,14c-0.3-0.1-0.4-0.4-0.5-0.6c0-0.1-0.1-0.2-0.1-0.3l0-0.1l0.4-7c0-0.3,0.3-0.5,0.5-0.5C12.3,5.5,12.5,5.7,12.5,6z M14.8,3.8c0.4,0,0.8-0.3,0.8-0.8s-0.3-0.8-0.8-0.8S14.1,2.6,14.1,3S14.4,3.8,14.8,3.8z M17.5,5.1c0.4,0,0.8-0.3,0.8-0.8s-0.3-0.8-0.8-0.8s-0.8,0.3-0.8,0.8S17.1,5.1,17.5,5.1z M19.7,5.8c-0.4,0-0.8,0.3-0.8,0.8s0.3,0.8,0.8,0.8s0.8-0.3,0.8-0.8S20.1,5.8,19.7,5.8z M21,10c0.4,0,0.8-0.3,0.8-0.8S21.4,8.5,21,8.5s-0.8,0.3-0.8,0.8S20.5,10,21,10z M21.4,11.5c-0.3,0-0.5,0.2-0.6,0.5l0,0.3c-0.1,4.7-4,8.5-8.8,8.5c-4.9,0-8.8-3.9-8.8-8.8S7.1,3.2,12,3.2v0c0,0,0.1,0,0.1,0c0.3,0,0.6-0.3,0.6-0.6c0-0.3-0.3-0.6-0.6-0.6c0,0-0.1,0-0.1,0l-0.3,0C6.3,2.2,2,6.6,2,12c0,5.5,4.5,10,10,10s10-4.5,10-10h0C21.9,11.7,21.7,11.5,21.4,11.5z M21,2c-0.8,0-1.5,0.3-2.1,0.8c1.6,1.2,2.9,2.8,3.7,4.7C23.4,7,24,6.1,24,5C24,3.3,22.7,2,21,2z M5.1,2.8C4.5,2.3,3.8,2,3,2C1.3,2,0,3.3,0,5c0,1.1,0.6,2,1.4,2.5C2.2,5.7,3.5,4,5.1,2.8z"/></svg>