<svg xmlns="http://www.w3.org/2000/svg" viewBox="0 0 24 24" width="24" height="24"><path d="M15,17.8c0-0.4,0.3-0.8,0.8-0.8s0.8,0.3,0.8,0.8s-0.3,0.8-0.8,0.8S15,18.2,15,17.8z M12,18.5 c0.4,0,0.8-0.3,0.8-0.8S12.4,17,12,17s-0.8,0.3-0.8,0.8S11.6,18.5,12,18.5z M8.3,18.5c0.4,0,0.8-0.3,0.8-0.8S8.8,17,8.3,17 s-0.8,0.3-0.8,0.8S7.9,18.5,8.3,18.5z M21.9,8.5l-3,11c-0.2,0.9-1.1,1.6-2,1.6H7c-1,0-1.8-0.6-2-1.6l-3-11C2,8.2,2,7.9,2.1,7.6 c0.2-0.7,0.9-1.2,1.7-1.1l0.2,0l4.4,1.6l2.6-4.4c0.4-0.7,1.3-1,2-0.4c0.2,0.1,0.3,0.3,0.4,0.4l2.6,4.4l4.4-1.6 c0.7-0.3,1.5,0.2,1.8,0.9l0,0.1C22,7.9,22,8.2,21.9,8.5z M18.7,16H5.3l0.8,3.1c0.1,0.4,0.4,0.6,0.7,0.7l0.1,0H17 c0.4,0,0.8-0.3,0.9-0.7L18.7,16z M20.8,8L20.8,8c-0.1-0.3-0.2-0.3-0.3-0.3l-5.3,1.9l-3.1-5.3c0,0,0-0.1-0.1-0.1l0,0 c-0.1,0-0.1,0-0.2,0.1L8.8,9.6L3.5,7.7l-0.1,0c-0.1,0-0.2,0.1-0.2,0.2c0,0.1,0,0.2,0,0.2L5,14.8h14l1.8-6.6 C20.8,8.1,20.8,8.1,20.8,8z"/></svg>
