<svg xmlns="http://www.w3.org/2000/svg" viewBox="0 0 24 24" width="24" height="24"><path d="M21.2,20.1v1.2h-9.6v-1.2H21.2L21.2,20.1z M13.4,4.8l0.4,0.4l0.4,0.4l3.8,3.8l0.8,0.8l-8.5,8.5 c-0.1,0.1-0.1,0.1-0.2,0.1l-6.6,2c-0.1,0-0.1,0-0.2,0c-0.2,0-0.3-0.1-0.4-0.2c-0.2-0.1-0.2-0.4-0.1-0.6l2-6.7c0-0.1,0.1-0.2,0.1-0.2 L13.4,4.8z M15.3,2.9c0.2-0.2,0.6-0.2,0.8,0l4.6,4.7c0.1,0.1,0.2,0.3,0.2,0.4s-0.1,0.3-0.2,0.4l-1.2,1.2l-0.4-0.4l-0.4-0.4l-3.8-3.8 l-0.8-0.8L15.3,2.9z M5.9,19l3-0.9l-3.2-3.3l-0.9,3C5,18,5.2,18.2,5.5,18.5C5.6,18.6,5.8,18.8,5.9,19L6,19.1L5.9,19L5.9,19z"/></svg>