<svg xmlns="http://www.w3.org/2000/svg" width="24" height="24" viewBox="0 0 24 24"><path d="M4,1v12c0,2.2,1.8,4,4,4h1c0.6,0,1,0.4,1,1v3c0,1.1,0.9,2,2,2s2-0.9,2-2v-3c0-0.6,0.4-1,1-1h1c2.2,0,4-1.8,4-4V1H4z  M18.8,13l0,0.2c-0.1,1.5-1.3,2.6-2.8,2.6h-1l-0.2,0c-1.1,0.1-2,1-2,2.2v3l0,0.1c0,0.4-0.4,0.7-0.8,0.7c-0.4,0-0.8-0.4-0.8-0.8v-3 l0-0.2c-0.1-1.1-1-2-2.2-2H8l-0.2,0c-1.5-0.1-2.6-1.3-2.6-2.8v-2.8h13.6V13z M18.8,9H5.2V2.2h2.2v3.4l0,0.1c0,0.3,0.3,0.5,0.6,0.5 c0.3,0,0.6-0.3,0.6-0.6V2.2h5.8v2.4l0,0.1c0,0.3,0.3,0.5,0.6,0.5c0.3,0,0.6-0.3,0.6-0.6V2.2h0.8v4.4l0,0.1c0,0.3,0.3,0.5,0.6,0.5 c0.3,0,0.6-0.3,0.6-0.6V2.2h1.2V9z"/></svg>