<svg xmlns="http://www.w3.org/2000/svg" viewBox="0 0 24 24" width="24" height="24"><path d="M12,8.4c-2,0-3.6,1.6-3.6,3.6s1.6,3.6,3.6,3.6s3.6-1.6,3.6-3.6S14,8.4,12,8.4z M12,14.4c-1.3,0-2.4-1.1-2.4-2.4s1.1-2.4,2.4-2.4s2.4,1.1,2.4,2.4S13.3,14.4,12,14.4z M16.4,8.2C16.4,8.6,16,9,15.6,9c-0.4,0-0.8-0.4-0.8-0.8s0.4-0.8,0.8-0.8C16,7.4,16.4,7.8,16.4,8.2z M15.3,5.1H8.7c-2,0-3.6,1.6-3.6,3.6v6.6c0,2,1.6,3.6,3.6,3.6h6.6c2,0,3.6-1.6,3.6-3.6V8.7C18.9,6.7,17.3,5.1,15.3,5.1z M17.7,15.3c0,1.3-1.1,2.4-2.4,2.4H8.7c-1.3,0-2.4-1.1-2.4-2.4V8.7c0-1.3,1.1-2.4,2.4-2.4h6.6c1.3,0,2.4,1.1,2.4,2.4V15.3z"/></svg>