<svg xmlns="http://www.w3.org/2000/svg" viewBox="0 0 24 24" width="24" height="24"><path d="M21,20.2c-0.8-2.7-2.6-4.3-5.7-4.9c2-1.1,3.3-3.3,3.3-5.7C18.6,6,15.6,3,12,3S5.4,6,5.4,9.6c0,2.4,1.3,4.6,3.3,5.7 c-3,0.6-4.9,2.2-5.6,4.9c-0.1,0.3,0.1,0.6,0.4,0.7c0.3,0.1,0.6-0.1,0.7-0.4c0.8-3,3.3-4.4,7.8-4.4c4.5,0,7,1.4,7.8,4.4 c0.1,0.3,0.4,0.5,0.7,0.4C20.9,20.9,21.1,20.6,21,20.2z M6.6,9.6c0-3,2.4-5.4,5.4-5.4s5.4,2.4,5.4,5.4S15,15,12,15S6.6,12.6,6.6,9.6 z M13.9,11.2c0.2,0.2,0.1,0.5-0.1,0.7c-0.5,0.4-1.1,0.6-1.8,0.6c-0.7,0-1.3-0.2-1.8-0.6c-0.2-0.2-0.3-0.5-0.1-0.7 c0.2-0.2,0.5-0.3,0.7-0.1c0.3,0.3,0.8,0.4,1.2,0.4c0.4,0,0.9-0.1,1.2-0.4C13.4,10.9,13.7,11,13.9,11.2z"/></svg>