<svg xmlns="http://www.w3.org/2000/svg" viewBox="0 0 24 24" width="24" height="24"><path d="M22,14.5c0-0.8-0.7-1.3-1.8-1.7V5.6l0-0.1C20.1,4.6,19.4,4,18.6,4h-15L3.5,4C2.6,4.1,2,4.8,2,5.6v10l0,0.1 c0.1,0.8,0.8,1.5,1.6,1.5h9.2v1.6l0,0.1c0.1,1.3,2.2,2.1,4.6,2.1c2.5,0,4.6-0.8,4.6-2.2v-2.1h0l0-0.1V14.5z M20.8,14.5 c0,0.2-0.3,0.4-0.9,0.6l-0.3,0.1c-0.6,0.2-1.3,0.3-2.2,0.3c-0.8,0-1.6-0.1-2.2-0.3l-0.3-0.1c-0.6-0.2-0.9-0.4-0.9-0.6 c0-0.2,0.3-0.4,0.9-0.6l0.3-0.1c0.6-0.2,1.3-0.3,2.2-0.3c0.8,0,1.6,0.1,2.2,0.3l0.3,0.1C20.5,14.1,20.8,14.3,20.8,14.5z M20.8,16 l0,0.6l0,0c-0.1,0.4-1.6,0.9-3.4,0.9c-1.9,0-3.4-0.6-3.4-1V16c0.8,0.4,2.1,0.6,3.4,0.6C18.7,16.6,20,16.4,20.8,16z M3.5,16 c-0.2,0-0.3-0.2-0.3-0.4v-10l0-0.1c0-0.2,0.2-0.3,0.4-0.3h15l0.1,0c0.2,0,0.3,0.2,0.3,0.4v6.9c-0.5-0.1-1-0.1-1.6-0.1 c-2.4,0-4.5,0.7-4.6,2l0,0.1V16L3.5,16L3.5,16z M20.8,18.8L20.8,18.8c-0.1,0.4-1.6,1-3.4,1c-1.9,0-3.4-0.6-3.4-1v-0.7 c0.8,0.4,2.1,0.7,3.4,0.7v0c1.3,0,2.6-0.2,3.4-0.7L20.8,18.8z M13.2,13.5l1.1-3.5h1.2V9h-0.9l0.5-1.5H14L13.5,9H12l-0.4-1.5h-1 L10.1,9H8.5L8.1,7.5H7L7.5,9h-1v1h1.3l1.1,3.5h1l1-3.5h0.4l1,3.5H13.2z M13.2,10l-0.5,1.6L12.3,10H13.2z M9.3,11.6L8.8,10h1 L9.3,11.6z"/></svg>