<svg xmlns="http://www.w3.org/2000/svg" viewBox="0 0 24 24" width="24" height="24"><path d="M8.4,9.1H2.6C2.3,9.1,2,8.8,2,8.5C2,8.2,2.2,8,2.5,7.9l0.1,0h5.8C8.7,7.9,9,8.2,9,8.5C9,8.8,8.8,9,8.4,9.1L8.4,9.1z  M8.5,12.5c0.3,0,0.5-0.3,0.5-0.6c0-0.3-0.3-0.6-0.6-0.6H3.6l-0.1,0c-0.3,0-0.5,0.3-0.5,0.6c0,0.3,0.3,0.6,0.6,0.6L8.5,12.5 L8.5,12.5z M22,12.6v3.3c0,0.8-0.6,1.5-1.5,1.6l-0.1,0H19c-0.3,1.1-1.3,2-2.5,2s-2.3-0.9-2.5-2h-3.8c-0.3,1.1-1.3,2-2.5,2 c-1.4,0-2.6-1.2-2.6-2.6c0-1.4,1.2-2.6,2.6-2.6c1.2,0,2.3,0.9,2.5,2H14c0.3-1.1,1.3-2,2.5-2s2.3,0.9,2.5,2h1.4 c0.2,0,0.4-0.1,0.4-0.3l0-0.1l0-2.9l-0.3-0.5h-7.1V6.1c0-0.2-0.1-0.4-0.3-0.4l-0.1,0H5.6C5.3,5.7,5,5.4,5,5.1c0-0.3,0.2-0.5,0.5-0.6 l0.1,0H13c0.8,0,1.5,0.6,1.6,1.4l3.6,0L22,12.6z M19.9,11.3l-2.4-4.2h-2.9v4.2H19.9z M9,16.9c0-0.8-0.6-1.4-1.4-1.4 c-0.8,0-1.4,0.6-1.4,1.4c0,0.8,0.6,1.4,1.4,1.4C8.4,18.3,9,17.7,9,16.9z M17.9,16.9c0-0.8-0.6-1.4-1.4-1.4s-1.4,0.6-1.4,1.4 c0,0.8,0.6,1.4,1.4,1.4S17.9,17.7,17.9,16.9z"/></svg>