<svg xmlns="http://www.w3.org/2000/svg" viewBox="0 0 24 24" width="24" height="24"><path d="M20,2H4C2.9,2,2,2.9,2,4v16c0,1.1,0.9,2,2,2h16c1.1,0,2-0.9,2-2V4C22,2.9,21.1,2,20,2z M4,20.8L4,20.8l-0.2,0 c-0.3-0.1-0.5-0.3-0.6-0.7l0-0.1V7.5v0l0.1,0.1l0.2,0.3l0.2,0.3l0.2,0.3l0.1,0.2l0.2,0.4l0.2,0.4l0.2,0.4l0.2,0.4l0.2,0.5 c0.9,2.3,1.7,5.6,1.8,10.2L4,20.8z M9.1,20.8H8l0-0.3l0-0.6c-0.1-2.5-0.4-4.6-0.8-6.4L7,12.9l-0.1-0.5c-0.2-0.9-0.5-1.7-0.8-2.4 L5.9,9.6L5.7,9.2C5.6,9,5.5,8.7,5.4,8.5L5.2,8.1L4.9,7.8L4.8,7.5L4.6,7.2L4.4,6.9L4.2,6.6L4,6.4L3.8,6.1L3.5,5.8L3.3,5.6L3.2,5.5V4 l0-0.1l0-0.1c0.1-0.3,0.3-0.5,0.7-0.6l0.1,0h2.1v0l0.2,0.3l0.2,0.3l0.1,0.2l0.2,0.4L7,4.8l0.2,0.3l0.2,0.4l0.2,0.4l0.2,0.5l0.2,0.6 l0.1,0.3C8,7.6,8.1,7.9,8.2,8.1l0.1,0.6l0.1,0.6l0.1,0.6l0.1,0.4C9.2,13,9.5,16.5,9.1,20.8z M16.7,20.8l-0.1-0.2l-0.2-0.5l-0.2-0.5 c-0.3-0.8-0.5-1.8-0.5-2.3c0-0.1,0.1-0.2,0.1-0.2c0.1,0,0.1,0,0.1,0l0.1,0.1l0.1,0.1l0.1,0.1l0.1,0.1l0.1,0.1l0.1,0.2l0.1,0.2 l0.2,0.2l0.2,0.3l0.1,0.1l0.2,0.3l0.2,0.4l0.1,0.2l0.2,0.4l0.2,0.5l0.1,0.3l0.1,0.3L16.7,20.8z M20.8,20L20.8,20l0,0.2 c-0.1,0.3-0.3,0.5-0.7,0.6l-0.1,0l-0.2,0l-0.1-0.1l-0.1-0.3c-1-2.4-2-3.8-2.9-4.3c-0.4-0.2-0.9-0.3-1.4,0c-0.5,0.2-0.8,0.7-0.8,1.2 c-0.1,0.9,0.3,2.1,0.6,3.1l0.2,0.5l-1.6,0l-0.1-0.5l-0.1-0.5l-0.1-0.5l0-0.3l-0.1-0.5l-0.1-0.5l-0.1-0.5l0-0.3l0-0.5l0-0.2 c-0.1-1.6,0.1-2.8,0.8-3.3c0,0,0.1,0,0.1-0.1c0.7-0.3,1.8,0.1,3,1.3l0,0l0.3,0.3l0.2,0.2c0.1,0.1,0.3,0.3,0.4,0.5l0.3,0.4l0.3,0.4 l0.2,0.2c0.1,0.1,0.2,0.3,0.3,0.5l0.3,0.5l0.2,0.3c0.1,0.2,0.3,0.5,0.4,0.7l0.3,0.6l0.2,0.3C20.6,19.5,20.7,19.7,20.8,20L20.8,20z  M20.8,17.3l-0.2-0.4c-0.4-0.7-0.8-1.2-1.2-1.7l-0.3-0.4l-0.2-0.3c-1.4-1.7-2.6-2.4-3.6-2.6l-0.2,0l-0.2,0c-0.2,0-0.4,0-0.6,0 l-0.2,0l-0.2,0l-0.1,0l-0.2,0.1l-0.2,0.1c-0.1,0-0.2,0.1-0.2,0.1c-1.5,0.9-1.6,3.3-1.4,5.5l0.1,0.5l0.1,0.5l0.1,0.5l0.1,0.5l0.1,0.4 l0.1,0.4l0.1,0.5l-2.1,0l0-0.3l0-0.6c0.3-4.2,0-7.6-0.6-10.3L9.7,9L9.6,8.4L9.5,8.1L9.3,7.5L9.2,7.1L9.1,6.7L8.9,6.2L8.8,6L8.7,5.6 L8.5,5.1L8.3,4.7L8.3,4.6L8.1,4.2L8,3.9L7.8,3.6L7.6,3.2h3v0l0.1,0.3l0.1,0.2L10.9,4L11,4.3l0.1,0.2l0.1,0.3l0.2,0.3l0.2,0.4 l0.2,0.4l0.1,0.2c1.4,2.4,4.1,5.5,8.9,7.3V17.3z M20.6,12l-0.4-0.2c-3.9-1.7-6.1-4.4-7.3-6.5l-0.2-0.4l-0.1-0.2l-0.1-0.2l-0.2-0.4 l-0.2-0.4L12,3.5l-0.1-0.3h3.5l0,0.2l0.1,0.2l0.1,0.3l0.1,0.3l0.1,0.2l0.1,0.3L16,5c0.7,1.5,2.1,3.6,4.8,5.3l0,1.7L20.6,12z  M20.8,8.8L20.8,8.8l-0.4-0.3c-1.8-1.4-2.8-2.9-3.3-4L17,4.2l-0.1-0.3l-0.1-0.3l-0.1-0.3l0-0.1l3.3,0l0.1,0l0.1,0 c0.3,0.1,0.5,0.3,0.6,0.7l0,0.1L20.8,8.8z"/></svg>