<svg xmlns="http://www.w3.org/2000/svg" viewBox="0 0 24 24" width="24" height="24"><path d="M4,17.6c0,0.6-0.4,1-1,1s-1-0.4-1-1s0.4-1,1-1S4,17,4,17.6z M6.6,7h11.8C18.7,7,19,6.7,19,6.4c0-0.3-0.3-0.6-0.6-0.6H6.6 C6.3,5.8,6,6.1,6,6.4C6,6.7,6.3,7,6.6,7z M21.4,11.4H6.6C6.3,11.4,6,11.7,6,12s0.3,0.6,0.6,0.6h14.8c0.3,0,0.6-0.3,0.6-0.6 S21.7,11.4,21.4,11.4z M3,11c-0.6,0-1,0.4-1,1s0.4,1,1,1s1-0.4,1-1S3.6,11,3,11z M18.4,17H6.6C6.3,17,6,17.3,6,17.6 c0,0.3,0.3,0.6,0.6,0.6h11.8c0.3,0,0.6-0.3,0.6-0.6S18.7,17,18.4,17z M3,5.4c-0.6,0-1,0.4-1,1s0.4,1,1,1s1-0.4,1-1S3.6,5.4,3,5.4z" /></svg>