<svg xmlns="http://www.w3.org/2000/svg" viewBox="0 0 24 24" width="24" height="24"><path d="M17.7,3.5H9C8.5,2.8,7.5,2.4,6.1,2.4c-1.7,0-3,0.7-3.1,1.7c0,0,0,0,0,0l-1,15c0,0,0,0,0,0.1c0,0,0,0,0,0.1 c0,1.3,1.8,2.3,4.1,2.3c0.2,0,0.4,0,0.6,0c0,0,0.1,0,0.1,0h15.1L17.7,3.5z M4.2,4.2C4.2,4.2,4.2,4.2,4.2,4.2L4.2,4.2 c0-0.2,0.7-0.6,1.9-0.6C7,3.6,7.5,3.8,7.8,4l1.1,13.6C8.1,17.2,7.2,17,6.1,17C5,17,4,17.2,3.3,17.6L4.2,4.2z M6.1,20.4 c-1.7,0-2.9-0.7-2.9-1.1s1.2-1.1,2.9-1.1c1.7,0,2.9,0.7,2.9,1.1l0,0C9,19.7,7.8,20.4,6.1,20.4z M9.7,20.4c0.3-0.3,0.4-0.6,0.5-0.9 c0,0,0,0,0,0c0,0,0-0.1,0-0.1c0,0,0,0,0,0s0,0,0,0L9.1,4.7h7.7l3.6,15.7h0H9.7z"/></svg>