<svg xmlns="http://www.w3.org/2000/svg" viewBox="0 0 24 24" width="24" height="24"><path d="M16.7,16.9c0.5-0.3,0.9-0.7,1.3-1.2c0.4-0.4,0.7-0.9,1-1.5c0.3-0.5,0.5-1.1,0.6-1.7c0.1-0.6,0.2-1.2,0.2-1.9 c0-1.1-0.2-2.1-0.5-3s-0.9-1.7-1.5-2.4C17,4.5,16.2,4,15.2,3.6c-0.9-0.4-2-0.6-3.1-0.6S9.9,3.2,9,3.6C8.1,4,7.3,4.5,6.6,5.2 C5.9,5.8,5.4,6.7,5,7.6c-0.4,0.9-0.5,1.9-0.5,3c0,1.1,0.2,2.1,0.5,3s0.9,1.7,1.6,2.4c0.7,0.7,1.5,1.2,2.4,1.6c0.9,0.4,2,0.6,3.1,0.6 c0.4,0,0.8,0,1.2-0.1c0.4,0,0.7-0.1,1.1-0.2l2.2,2.4c0.2,0.2,0.5,0.4,0.7,0.5c0.3,0.1,0.6,0.1,0.9,0.1h2.3L16.7,16.9z M16.5,12.8 c-0.2,0.6-0.5,1.2-0.9,1.6c-0.4,0.5-0.9,0.8-1.5,1c-0.6,0.2-1.2,0.4-2,0.4c-0.7,0-1.4-0.1-2-0.4c-0.6-0.2-1.1-0.6-1.5-1 c-0.4-0.5-0.7-1-1-1.7c-0.2-0.6-0.3-1.4-0.3-2.2s0.1-1.6,0.3-2.2c0.2-0.7,0.5-1.2,1-1.7C9,6.3,9.5,6,10.1,5.7c0.6-0.2,1.3-0.4,2-0.4 c0.7,0,1.4,0.1,2,0.4c0.6,0.2,1.1,0.6,1.5,1c0.4,0.5,0.7,1,0.9,1.7c0.2,0.6,0.3,1.4,0.3,2.2S16.7,12.2,16.5,12.8z"/></svg>