<svg xmlns="http://www.w3.org/2000/svg" width="24" height="24" viewBox="0 0 24 24"><path d="M12.6,13.6v2.8c0,0.3-0.3,0.6-0.6,0.6s-0.6-0.3-0.6-0.6v-2.8c0-0.3,0.3-0.6,0.6-0.6S12.6,13.3,12.6,13.6z M20,11v8c0,1.1-0.9,2-2,2H6c-1.1,0-2-0.9-2-2v-8c0-1.1,0.9-2,2-2h1V8c0-2.8,2.2-5,5-5s5,2.2,5,5v1h1C19.1,9,20,9.9,20,11z M8.2,7.8h7.6l0-0.2c-0.2-1.9-1.7-3.3-3.6-3.4l-0.2,0c-2,0-3.6,1.5-3.8,3.4L8.2,7.8z M8.2,9h7.6V7.8H8.2V9z M18.8,11c0-0.4-0.3-0.7-0.7-0.8l-0.1,0H6c-0.4,0-0.7,0.3-0.8,0.7l0,0.1v8c0,0.4,0.3,0.7,0.7,0.8l0.1,0h12c0.4,0,0.7-0.3,0.8-0.7l0-0.1V11z"/></svg>