<svg xmlns="http://www.w3.org/2000/svg" width="40" height="40" viewBox="0 0 40 40">
    <g fill="none" fill-rule="evenodd">
        <g stroke="#1C1814" stroke-width="1.2">
            <g>
                <g>
                    <g transform="translate(-118 -200) translate(0 160) translate(104 40) translate(14)">
                        <g fill="#FFF" transform="translate(5 2)">
                            <path d="M1.6 0.6H28.400000000000002V35.4H1.6z"/>
                            <rect width="28.8" height="1" x=".6" y="35.4" rx=".5"/>
                            <rect width="28.8" height="1" x=".6" y=".6" rx=".5"/>
                        </g>
                        <path fill="#62D7AB" stroke-linejoin="round" d="M31.476 2.6C30.092 3 29.4 3.833 29.4 5.1l-.001.057.001 9.443c0 1.105-.895 2-2 2-1.096 0-1.986-.882-2-1.975V8.1c0-.828-.672-1.5-1.5-1.5s-1.5.672-1.5 1.5h0v2.5h0c0 1.105-.895 2-2 2s-2-.895-2-2l-.001-5.543-.002-.128C18.343 3.628 17.68 2.6 16.4 2.6h15.076z"/>
                        <circle cx="11.5" cy="10.5" r="1.9" fill="#FFF"/>
                        <path stroke-linecap="round" stroke-linejoin="round" d="M23.485 4.97c-5.794 0-10.49 6.044-10.49 13.5s4.696 13.5 10.49 13.5c3.503 0 6.39-2.58 8.296-5.976" transform="rotate(-60 22.388 18.47)"/>
                    </g>
                </g>
            </g>
        </g>
    </g>
</svg>
