<svg xmlns="http://www.w3.org/2000/svg" viewBox="0 0 24 24" width="24" height="24"><path d="M15.8,10.3l-0.2-0.2l-0.2,0.2c-0.9,0.8-1.9,1.2-3.2,1.2l-0.3,0c-1.4,0-2.5-0.4-3.5-1.2l-0.2-0.2l-0.2,0.2c-0.8,0.7-1.8,1.1-2.9,1.2l-0.3,0l-0.3,0c-1.1,0-2.1-0.3-2.9-0.8l0,11.2h20.3V10.7c-0.8,0.5-1.8,0.8-2.9,0.8C17.9,11.6,16.7,11.1,15.8,10.3z M8,15.8c-0.6,0-1-0.4-1-1c0-0.6,0.4-1,1-1s1,0.4,1,1C9,15.3,8.6,15.8,8,15.8z M14,18.8h-4c-0.3,0-0.5-0.2-0.5-0.5s0.2-0.5,0.5-0.5h4c0.3,0,0.5,0.2,0.5,0.5S14.3,18.8,14,18.8z M16,15.8c-0.6,0-1-0.4-1-1c0-0.6,0.4-1,1-1s1,0.4,1,1C17,15.3,16.6,15.8,16,15.8z M0.8,7.3l0-0.1l0.6-1.4L2,4.3L2.2,4l1.1-2.5h17.4l1.4,3.1l0.8,1.9l0.3,0.7l0,0.2c0,1.9-1.6,3.4-4,3.4c-1.3,0-2.4-0.5-3.2-1.4L15.6,9l-0.4,0.5c-0.8,0.8-1.8,1.3-3,1.3l-0.3,0c-1.3,0-2.4-0.5-3.2-1.4L8.4,9L8,9.4c-0.8,0.8-1.8,1.3-3,1.3l-0.3,0C2.4,10.8,0.8,9.3,0.8,7.3z"/></svg>