<svg xmlns="http://www.w3.org/2000/svg" viewBox="0 0 24 24" width="24" height="24"><path d="M12,10c-1.7,0-3,1.3-3,3s1.3,3,3,3s3-1.3,3-3S13.7,10,12,10z M12,14.8c-1,0-1.8-0.8-1.8-1.8s0.8-1.8,1.8-1.8s1.8,0.8,1.8,1.8S13,14.8,12,14.8z M19.5,6h-3.3l-0.8-1.3C15.2,4.3,14.7,4,14.2,4H9.8c-0.5,0-1,0.3-1.3,0.7L7.8,6H4.5C3.7,6,3,6.7,3,7.5v11C3,19.3,3.7,20,4.5,20h15c0.8,0,1.5-0.7,1.5-1.5v-11C21,6.7,20.3,6,19.5,6z M19.8,18.5L19.8,18.5c0,0.2-0.2,0.3-0.3,0.3h-15l-0.1,0c-0.1,0-0.2-0.1-0.2-0.3v-11l0-0.1c0-0.1,0.1-0.2,0.3-0.2h4l1.1-1.9l0,0c0.1-0.1,0.1-0.1,0.2-0.1h4.3l0.1,0c0.1,0,0.2,0.1,0.2,0.1l1.1,1.9h4l0.1,0c0.1,0,0.2,0.1,0.2,0.3V18.5z"/></svg>