<svg xmlns="http://www.w3.org/2000/svg" viewBox="0 0 24 24" width="24" height="24"><path d="M10.4,9.7l4,2.3l-4,2.3V9.7L10.4,9.7z M20.9,11.8v0.3c0,0.4,0,2.8-0.4,4.1c-0.2,0.9-1,1.6-1.9,1.9c-1.3,0.3-5.5,0.4-6.5,0.4h-0.3c-1,0-5.2,0-6.5-0.4c-0.9-0.2-1.6-1-1.9-1.9c-0.3-1.1-0.4-3.3-0.4-3.9v-0.4c0-0.7,0.1-2.8,0.4-3.9C3.7,7,4.4,6.2,5.3,6c1.2-0.3,4.9-0.4,6.3-0.4h0.8c1.3,0,5.1,0.1,6.2,0.4c0.9,0.2,1.6,1,1.9,1.9C20.9,9,20.9,11.1,20.9,11.8z M19.4,8.2L19.4,8.2c-0.1-0.5-0.5-0.9-1-1c-1-0.3-4.9-0.3-6.3-0.3c-1.4,0-5.3,0.1-6.3,0.3c-0.5,0.1-0.9,0.5-1,1C4.3,9.4,4.3,12,4.3,12c0,0,0,2.6,0.3,3.8c0.1,0.5,0.5,0.9,1,1c1,0.3,4.9,0.3,6.3,0.3c1.4,0,5.3-0.1,6.3-0.3c0.5-0.1,0.9-0.5,1-1c0.3-1.2,0.3-3.8,0.3-3.8C19.7,12,19.7,9.4,19.4,8.2z"/></svg>