<svg xmlns="http://www.w3.org/2000/svg" viewBox="0 0 24 24" width="24" height="24"><path d="M19,5l-5,0l1.1-1.3c0.2-0.3,0.2-0.6-0.1-0.8h0c-0.3-0.2-0.6-0.2-0.8,0.1l-1.7,2h-1L9.8,3C9.6,2.7,9.2,2.7,9,2.9 L8.9,3c-0.2,0.2-0.2,0.5,0,0.8L10,5H5C3.9,5,3,5.9,3,7v12c0,1.1,0.9,2,2,2h14c1.1,0,2-0.9,2-2V7C21,5.9,20.1,5,19,5z M11.4,6.2v13.6 H5l-0.1,0c-0.4,0-0.7-0.4-0.7-0.8V7l0-0.1c0-0.4,0.4-0.7,0.8-0.7H11.4L11.4,6.2z M19.8,19L19.8,19c-0.1,0.5-0.4,0.8-0.8,0.8h-6.4 V6.2H19l0.1,0c0.4,0,0.7,0.4,0.7,0.8V19z"/></svg>