<svg xmlns="http://www.w3.org/2000/svg" viewBox="0 0 24 24" width="24" height="24"><path d="M4.9,19.1c0.3,0.3,0.3,0.8,0,1.1c-0.3,0.3-0.8,0.3-1.1,0c-0.3-0.3-0.3-0.8,0-1.1C4.1,18.8,4.6,18.8,4.9,19.1 L4.9,19.1z M8.3,21.3L8.3,21.3c-0.4-0.2-0.9,0-1,0.4c-0.2,0.4,0,0.9,0.4,1c0.4,0.2,0.9,0,1-0.4C8.9,21.9,8.7,21.4,8.3,21.3z  M4.9,4.9c0.3-0.3,0.3-0.8,0-1.1h0c-0.3-0.3-0.8-0.3-1.1,0c-0.3,0.3-0.3,0.8,0,1.1C4.1,5.2,4.6,5.2,4.9,4.9z M1.7,15.5 c-0.4,0.2-0.6,0.6-0.4,1c0.2,0.4,0.6,0.6,1,0.4c0.4-0.2,0.6-0.6,0.4-1C2.6,15.5,2.2,15.3,1.7,15.5z M1.7,8.7c0.4,0.2,0.9,0,1-0.4 c0.2-0.4,0-0.9-0.4-1c-0.4-0.2-0.9,0-1,0.4C1.1,8.1,1.3,8.5,1.7,8.7z M12,2c0.4,0,0.8-0.4,0.8-0.8S12.4,0.4,12,0.4s-0.8,0.4-0.8,0.8 S11.6,2,12,2z M12,22c-0.4,0-0.8,0.4-0.8,0.8s0.4,0.8,0.8,0.8s0.8-0.4,0.8-0.8S12.4,22,12,22z M2,12c0-0.4-0.4-0.8-0.8-0.8 S0.4,11.6,0.4,12s0.4,0.8,0.8,0.8S2,12.4,2,12z M8.1,2.8c0.4-0.2,0.6-0.6,0.4-1c-0.2-0.4-0.6-0.6-1-0.4C7.1,1.5,6.9,2,7,2.4 C7.2,2.8,7.7,3,8.1,2.8z M22.3,15.3c-0.4-0.2-0.9,0-1,0.4c-0.2,0.4,0,0.9,0.4,1c0.4,0.2,0.9,0,1-0.4C22.9,15.9,22.7,15.5,22.3,15.3z  M22.3,8.5c0.4-0.2,0.6-0.6,0.4-1c-0.2-0.4-0.6-0.6-1-0.4c-0.4,0.2-0.6,0.6-0.4,1C21.4,8.5,21.8,8.7,22.3,8.5z M20.2,19.1 c-0.3-0.3-0.8-0.3-1.1,0c-0.3,0.3-0.3,0.8,0,1.1c0.3,0.3,0.8,0.3,1.1,0C20.5,19.9,20.5,19.4,20.2,19.1L20.2,19.1z M14.4,8.5 c-0.3,0-0.6,0.3-0.6,0.6v3.7c0,0.1,0,0.2,0,0.3c0,0.1,0,0.2,0,0.3l-3.7-4.7c0,0-0.1-0.1-0.1-0.1c0,0-0.1,0-0.1-0.1c0,0-0.1,0-0.1,0 c0,0-0.1,0-0.1,0H9v6.4c0,0.3,0.3,0.6,0.6,0.6s0.6-0.3,0.6-0.6v-3.7c0-0.1,0-0.2,0-0.3c0-0.1,0-0.2,0-0.3l3.7,4.7 c0.1,0.1,0.1,0.1,0.2,0.2c0.1,0,0.2,0,0.3,0H15V9.1C15,8.8,14.7,8.5,14.4,8.5z M22.8,11.2c-0.4,0-0.8,0.4-0.8,0.8s0.4,0.8,0.8,0.8 s0.8-0.4,0.8-0.8S23.2,11.2,22.8,11.2z M20.2,4.9c0.3-0.3,0.3-0.8,0-1.1c-0.3-0.3-0.8-0.3-1.1,0c-0.3,0.3-0.3,0.8,0,1.1 C19.4,5.2,19.9,5.2,20.2,4.9z M15.7,2.7c0.4,0.2,0.9,0,1-0.4c0.2-0.4,0-0.9-0.4-1c-0.4-0.2-0.9,0-1,0.4C15.1,2.1,15.3,2.6,15.7,2.7z  M17,21.6c-0.2-0.4-0.6-0.6-1-0.4c-0.4,0.2-0.6,0.6-0.4,1c0.2,0.4,0.6,0.6,1,0.4C16.9,22.5,17.1,22,17,21.6L17,21.6z"/></svg>