<svg xmlns="http://www.w3.org/2000/svg" width="40" height="40" viewBox="0 0 40 40">
    <g fill="none" fill-rule="evenodd">
        <g>
            <g>
                <g>
                    <g>
                        <g transform="translate(-286 -200) translate(0 160) translate(272 40) translate(14) scale(-1 1) rotate(-5 48.26 338.775)">
                            <path fill="#1C1814" d="M1.6 5c.331 0 .6.269.6.6v16.838c0 .31-.252.562-.562.562-.31 0-.563-.251-.564-.562L1.003 5.6c-.002-.33.265-.599.594-.6H1.6z" transform="matrix(-1 0 0 1 3.2 0)"/>
                            <circle cx="3.5" cy="3.5" r="3.5" fill="#62D7AB" stroke="#1C1814" stroke-width="1.2" transform="matrix(-1 0 0 1 7 0)"/>
                        </g>
                        <g>
                            <path fill="#FFF" stroke="#1C1814" stroke-width="1.2" d="M2 3.428c.371 0 .727.148.99.41h0L33.162 34.01c.273.273.41.632.41.99s-.137.717-.41.99c-.263.263-.62.41-.99.41h0H2c-.387 0-.737-.157-.99-.41S.6 35.387.6 35h0V4.828c0-.386.157-.736.41-.99.253-.253.603-.41.99-.41z" transform="translate(-286 -200) translate(0 160) translate(272 40) translate(14) translate(3)"/>
                            <path fill="#FFF" stroke="#1C1814" stroke-width="1.2" d="M7.717 18.131c.39-.117.49-.075.566 0h0l10.586 10.586c.078.078.117.18.117.283 0 .102-.04.205-.117.283-.075.075-.177.117-.283.117h0H8c-.11 0-.21-.045-.283-.117C7.645 29.21 7.6 29.11 7.6 29h0V18.414c0-.11.045-.21.117-.283z" transform="translate(-286 -200) translate(0 160) translate(272 40) translate(14) translate(3)"/>
                            <path fill="#1C1814" d="M6.6 33c.331 0 .6.269.6.6v2.8c0 .331-.269.6-.6.6-.331 0-.6-.269-.6-.6v-2.8c0-.331.269-.6.6-.6zm3 1c.331 0 .6.269.6.6v1.8c0 .331-.269.6-.6.6-.331 0-.6-.269-.6-.6v-1.8c0-.331.269-.6.6-.6zm3-1c.331 0 .6.269.6.6v2.8c0 .331-.269.6-.6.6-.331 0-.6-.269-.6-.6v-2.8c0-.331.269-.6.6-.6zm3 1c.331 0 .6.269.6.6v1.8c0 .331-.269.6-.6.6-.331 0-.6-.269-.6-.6v-1.8c0-.331.269-.6.6-.6zm3-1c.331 0 .6.269.6.6v2.8c0 .331-.269.6-.6.6-.331 0-.6-.269-.6-.6v-2.8c0-.331.269-.6.6-.6zm3 1c.331 0 .6.269.6.6v1.8c0 .331-.269.6-.6.6-.331 0-.6-.269-.6-.6v-1.8c0-.331.269-.6.6-.6zm3-1c.331 0 .6.269.6.6v2.8c0 .331-.269.6-.6.6-.331 0-.6-.269-.6-.6v-2.8c0-.331.269-.6.6-.6z" transform="translate(-286 -200) translate(0 160) translate(272 40) translate(14) translate(3)"/>
                        </g>
                        <g transform="translate(-286 -200) translate(0 160) translate(272 40) translate(14) rotate(85 11.304 27.204)">
                            <path fill="#1C1814" d="M1.6 5c.331 0 .6.269.6.6v16.838c0 .31-.252.562-.562.562-.31 0-.563-.251-.564-.562L1.003 5.6c-.002-.33.265-.599.594-.6H1.6z" transform="matrix(-1 0 0 1 3.2 0)"/>
                            <circle cx="3.5" cy="3.5" r="3.5" fill="#62D7AB" stroke="#1C1814" stroke-width="1.2" transform="matrix(-1 0 0 1 7 0)"/>
                        </g>
                    </g>
                </g>
            </g>
        </g>
    </g>
</svg>
