<svg xmlns="http://www.w3.org/2000/svg" viewBox="0 0 24 24" width="24" height="24"><path d="M18,5.4v9c0,0.8-0.6,1.4-1.3,1.4H8.7c-0.2,0-1.7,0-2.3,0.9L6,17l-0.7,0.7l-0.7,0.8c-0.1,0-0.1,0.1-0.2,0.1l0,0c0,0-0.1-0.1-0.1-0.4V5.1c0-0.8,0.6-1.4,1.3-1.4h11.1c0.6,0,1.1,0.4,1.2,1C18,4.8,18,5,18,5.1C18,5.1,18,5.4,18,5.4zM19.8,5.3L19.8,5.3l-1.7-1.6C17.8,3.3,17.3,3,16.7,3H5.6c-1.1,0-2,1-2,2.1v13.1c0,0.4,0.1,0.6,0.2,0.8c0,0.1,0.1,0.1,0.2,0.2l1.6,1.6c0,0,0.1,0.1,0.1,0.1l0,0l0,0c0,0,0.1,0,0.1,0.1C5.8,21,5.9,21,6,21c0.3,0,0.6-0.2,0.6-0.2l1.9-2c0.4-0.5,1.5-0.6,1.8-0.6h8.1c1.1,0,2-1,2-2.1V6.8C20.4,6.2,20.2,5.7,19.8,5.3L19.8,5.3z M8.4,7.8c0.7,0,1.2,0.5,1.2,1.2v2.5c0,0.6-0.5,1.2-1.2,1.2s-1.2-0.5-1.2-1.2V9C7.2,8.3,7.7,7.8,8.4,7.8z M14.4,7.8c0.7,0,1.2,0.5,1.2,1.2v2.5c0,0.6-0.5,1.2-1.2,1.2s-1.2-0.5-1.2-1.2V9C13.2,8.3,13.7,7.8,14.4,7.8z"/></svg>