<svg xmlns="http://www.w3.org/2000/svg" viewBox="0 0 24 24" width="24" height="24"><path d="M13.9,13.7c0.2,0.2,0.2,0.5,0,0.8l-0.1,0.1l-1.8,1.7c-0.1,0.1-0.3,0.2-0.4,0.2c-0.2,0-0.3-0.1-0.4-0.2 c-0.2-0.2-0.2-0.5,0-0.8l0.1-0.1l1.8-1.7C13.3,13.4,13.7,13.4,13.9,13.7z M17.3,13.6c0,3-2.4,5.4-5.4,5.4c-3,0-5.4-2.4-5.4-5.4 c0-3,2.4-5.4,5.4-5.4v0C14.9,8.2,17.3,10.6,17.3,13.6z M16.1,13.6c0-2.3-1.9-4.2-4.2-4.2s-4.2,1.9-4.2,4.2c0,2.3,1.9,4.2,4.2,4.2 S16.1,15.9,16.1,13.6z M13.1,10.9l-1.8,1.7l-0.1,0.1c-0.2,0.2-0.2,0.6,0,0.8c0.1,0.1,0.3,0.2,0.4,0.2c0.1,0,0.3-0.1,0.4-0.2l1.8-1.7 l0.1-0.1c0.2-0.2,0.2-0.6,0-0.8C13.7,10.7,13.3,10.7,13.1,10.9z M20.3,13.6c0,4.6-3.8,8.4-8.4,8.4c-4.6,0-8.4-3.8-8.4-8.4 c0-2.7,1.3-5.2,3.4-6.7c0,0,0-0.1,0.1-0.1l0,0L11,2.4C11.2,2.2,11.5,2,11.8,2L12,2c0.3,0,0.6,0.1,0.8,0.3l0.1,0.1L17.1,7 c0,0,0,0.1,0.1,0.1C19.1,8.6,20.3,11,20.3,13.6z M9.8,5.5c0.7-0.2,1.4-0.3,2.1-0.3c0.6,0,1.3,0.1,1.9,0.2l0.4,0.1l-2-2.1h0 c-0.1-0.1-0.3-0.1-0.4-0.1l-0.1,0L9.8,5.5z M19.1,13.6c0-4-3.2-7.2-7.2-7.2c-4,0-7.2,3.2-7.2,7.2c0,4,3.2,7.2,7.2,7.2 C15.9,20.8,19.1,17.6,19.1,13.6z"/></svg>