<svg xmlns="http://www.w3.org/2000/svg" viewBox="0 0 24 24" width="24" height="24"><path d="M12,3.2c-4.9,0-8.8,3.9-8.8,8.8c0,2,0.7,3.9,1.9,5.5l-1.8,2.4c-0.1,0.2-0.2,0.4-0.1,0.6 c0.1,0.2,0.3,0.3,0.5,0.3H12c4.9,0,8.8-3.9,8.8-8.8C20.8,7.1,16.9,3.2,12,3.2z M8.4,12.9c-0.5,0-0.9-0.4-0.9-0.9 c0-0.5,0.4-0.9,0.9-0.9v0c0.5,0,0.9,0.4,0.9,0.9S8.9,12.9,8.4,12.9z M12,12.9c-0.5,0-0.9-0.4-0.9-0.9c0-0.5,0.4-0.9,0.9-0.9l0,0 c0.5,0,0.9,0.4,0.9,0.9S12.5,12.9,12,12.9z M15.6,12.9c-0.5,0-0.9-0.4-0.9-0.9c0-0.5,0.4-0.9,0.9-0.9v0c0.5,0,0.9,0.4,0.9,0.9 S16.1,12.9,15.6,12.9z"/></svg>