<svg xmlns="http://www.w3.org/2000/svg" width="24" height="24" viewBox="0 0 24 24"><path d="M9.5,1C10.3,1,11,1.7,11,2.5v4C11,5.7,11.7,5,12.5,5c0.7,0,1.3,0.5,1.4,1.1C14.1,6,14.3,6,14.5,6c0.7,0,1.3,0.5,1.4,1.1C16.1,7,16.3,7,16.5,7c0.7,0,1.3,0.5,1.4,1.1C18.1,8,18.3,8,18.5,8C19.3,8,20,8.7,20,9.5v6c0,0.1,0,0.2,0,0.3c-0.1,1.1-0.3,2.2-0.6,3.2l-0.7,2l-0.3,1c-0.2,0.6-0.8,1-1.4,1H10c-0.5,0-1.3-0.5-1.8-1c-0.5-0.5-2.3-2.1-3.2-4c-0.6-1.3-0.9-3.6-1-7l0-1.5C4,8.7,4.7,8,5.5,8c0.7,0,1.2,0.4,1.4,1l0,0.1C7,9.2,7,9.3,7,9.4l0,3.1C7,12.8,7.2,13,7.5,13c0.2,0,0.4-0.2,0.5-0.4l0-0.1v-10C8,1.7,8.7,1,9.5,1z"/></svg>