<svg xmlns="http://www.w3.org/2000/svg" width="24" height="24" viewBox="0 0 24 24"><path d="M22.6,6.6c0.1-0.1,0.2-0.2,0.2-0.3c0.1-0.3-0.1-0.5-0.3-0.6L8.2,1.6C7.1,1.2,5.9,1.9,5.6,3L4.7,6.5 c-2.5,1.6-3.9,3.9-3.2,5.3c0.3,0.5,0.8,0.8,1.5,0.9l-1.2,4.7c-0.3,1.1,0.4,2.3,1.5,2.6l10.3,2.8c1.1,0.3,2.3-0.4,2.6-1.5l3.4-12.5 L22.6,6.6z M2.6,11.1c-0.1-0.2,0-0.8,0.4-1.5c0.3-0.4,0.7-0.9,1.2-1.3l-0.8,3.1C2.9,11.4,2.7,11.3,2.6,11.1z M15.1,20.9L15.1,20.9 c-0.2,0.5-0.7,0.8-1.1,0.6L3.6,18.7l-0.1,0c-0.4-0.2-0.7-0.6-0.6-1.1l1.3-4.9c1.2-0.1,2.6-0.6,4-1.3c2.4-1.4,4-3.4,3.9-4.9l0,0 c0-0.3-0.3-0.6-0.6-0.6l-0.1,0c-0.3,0-0.5,0.3-0.5,0.6l0,0.1l0,0c0,0.3-0.1,0.8-0.5,1.3c-0.6,0.9-1.6,1.8-2.8,2.5 c-1,0.6-2.1,1-3,1.1l2.2-8.1l0-0.1C7,2.8,7.5,2.6,7.9,2.7l0,0l12.8,3.7l-2.1,1.5L15.1,20.9z M23,18c0,1.1-0.9,2-2,2 c-1.1,0-2-0.9-2-2c0-0.7,0.7-2.4,2-5C22.3,15.6,23,17.3,23,18z"/></svg>
