<svg xmlns="http://www.w3.org/2000/svg" viewBox="0 0 24 24" width="24" height="24"><path d="M15.7,15c0,0.3-0.3,0.6-0.6,0.6c-0.3,0-0.6-0.3-0.6-0.6c0-0.3,0.3-0.6,0.6-0.6C15.4,14.4,15.7,14.7,15.7,15z  M9.1,14.4c-0.3,0-0.6,0.3-0.6,0.6c0,0.3,0.3,0.6,0.6,0.6c0.3,0,0.6-0.3,0.6-0.6C9.7,14.7,9.4,14.4,9.1,14.4z M20.2,15.6v1.5h1.2 c0.3,0,0.6,0.3,0.6,0.6c0,0.3-0.3,0.6-0.6,0.6H2.5c-0.3,0-0.6-0.3-0.6-0.6c0-0.3,0.3-0.6,0.6-0.6H4v-1.5H2.6C2.3,15.6,2,15.3,2,15 s0.3-0.6,0.6-0.6H4v-1.8H2.6C2.3,12.6,2,12.3,2,12s0.3-0.6,0.6-0.6H4V9.6H2.6C2.3,9.6,2,9.3,2,9s0.3-0.6,0.6-0.6H4V6.9H2.6 C2.3,6.9,2,6.6,2,6.3s0.3-0.6,0.6-0.6h18.9c0.3,0,0.6,0.3,0.6,0.6s-0.3,0.6-0.6,0.6h-1.3v1.5h1.3c0.3,0,0.6,0.3,0.6,0.6 s-0.3,0.6-0.6,0.6h-1.3v1.8h1.3c0.3,0,0.6,0.3,0.6,0.6s-0.3,0.6-0.6,0.6h-1.3v1.8h1.3c0.3,0,0.6,0.3,0.6,0.6s-0.3,0.6-0.6,0.6H20.2z  M6,6.9H5.2v10.2H6V6.9z M17,6.9H7.2v10.2H17V6.9z M19,6.9h-0.8v10.2H19V15c0,0,0,0,0,0s0,0,0,0V9c0,0,0,0,0,0s0,0,0,0V6.9z  M15.1,9.6c0.3,0,0.6-0.3,0.6-0.6c0-0.3-0.3-0.6-0.6-0.6c-0.3,0-0.6,0.3-0.6,0.6C14.5,9.3,14.8,9.6,15.1,9.6z M12,15.6L8.3,12 L12,8.4l3.6,3.6L12,15.6z M12,14l2-2l-2-2v0l-2,2L12,14z M9.1,9.6c0.3,0,0.6-0.3,0.6-0.6c0-0.3-0.3-0.6-0.6-0.6 C8.8,8.4,8.5,8.7,8.5,9C8.5,9.3,8.8,9.6,9.1,9.6z"/></svg>