<svg xmlns="http://www.w3.org/2000/svg" viewBox="0 0 24 24" width="24" height="24"><path d="M20.9,17.5l-0.9-2l0-5.5l0-0.3C19.9,5.4,16.4,2,12,2h0l-0.3,0l-0.2,0c-4.2,0.3-7.6,3.7-7.6,8l0,5.5l-0.9,2 L3,17.6c0,0.1,0,0.2,0,0.3C3,18.5,3.5,19,4.1,19h15.8l0.1,0c0.1,0,0.2,0,0.3-0.1l0.1-0.1l0.1-0.1C21,18.5,21.1,17.9,20.9,17.5z  M15,14.1c0,0.5-0.5,0.8-0.9,0.8c-0.4,0-1-0.1-1.2-0.5l-2.2-3.7v3.4c0,0.5-0.4,0.8-0.8,0.8C9.4,15,9,14.6,9,14.2V8.9 C9,8.3,9.5,8.1,9.9,8c0.4,0,1,0.1,1.2,0.5l2.2,3.7V8.8c0-0.5,0.4-0.8,0.8-0.8v0C14.6,8,15,8.3,15,8.8V14.1z M9.2,20.2h5.6 C14.3,21.3,13.2,22,12,22S9.7,21.3,9.2,20.2z"/></svg>