<svg xmlns="http://www.w3.org/2000/svg" viewBox="0 0 24 24" width="24" height="24"><path d="M11,8.8C11,8.3,11.3,8,11.8,8s0.8,0.3,0.8,0.8c0,0.4-0.3,0.8-0.8,0.8S11,9.2,11,8.8z M9.8,6.5 c0.4,0,0.8-0.3,0.8-0.8c0-0.4-0.3-0.8-0.8-0.8S9,5.3,9,5.8C9,6.2,9.3,6.5,9.8,6.5z M13.8,6.5c0.4,0,0.8-0.3,0.8-0.8 c0-0.4-0.3-0.8-0.8-0.8S13,5.3,13,5.8C13,6.2,13.3,6.5,13.8,6.5z M13.8,12.5c0.4,0,0.8-0.3,0.8-0.8c0-0.4-0.3-0.8-0.8-0.8 S13,11.3,13,11.8C13,12.2,13.3,12.5,13.8,12.5z M5.8,6.5c0.4,0,0.8-0.3,0.8-0.8C6.5,5.3,6.2,5,5.8,5S5,5.3,5,5.8 C5,6.2,5.3,6.5,5.8,6.5z M9.8,12.5c0.4,0,0.8-0.3,0.8-0.8c0-0.4-0.3-0.8-0.8-0.8S9,11.3,9,11.8C9,12.2,9.3,12.5,9.8,12.5z M22,18 c0,2.2-0.9,4-2,4H4c-1.1,0-2-1.8-2-4V4c0-1.1,0.9-2,2-2h12c1.1,0,2,0.9,2,2v10h2l0.1,0C21.2,14.1,22,15.9,22,18z M3.2,14.3 C3.4,14.1,3.7,14,4,14h12.8V4l0-0.1c0-0.4-0.4-0.7-0.8-0.7H4l-0.1,0C3.5,3.3,3.2,3.6,3.2,4L3.2,14.3z M4.8,18c0-1.6-0.5-2.7-0.8-2.8 H4c-0.2,0.1-0.8,1.2-0.8,2.8c0,1.6,0.6,2.8,0.8,2.8S4.8,19.6,4.8,18z M20.8,18c0-0.9-0.2-1.7-0.4-2.2c-0.1-0.3-0.2-0.4-0.3-0.5 L20,15.2l0,0H5.4l0,0C5.8,15.9,6,16.9,6,18s-0.2,2.1-0.6,2.8l14.6,0l0,0C20.3,20.7,20.8,19.6,20.8,18z M5.8,12.5 c0.4,0,0.8-0.3,0.8-0.8c0-0.4-0.3-0.8-0.8-0.8S5,11.3,5,11.8C5,12.2,5.3,12.5,5.8,12.5z M7.8,9.5c0.4,0,0.8-0.3,0.8-0.8 C8.5,8.3,8.2,8,7.8,8S7,8.3,7,8.8C7,9.2,7.3,9.5,7.8,9.5z"/></svg>