<svg xmlns="http://www.w3.org/2000/svg" viewBox="0 0 24 24" width="24" height="24"><path d="M12.9,12c0,0.5-0.4,0.9-0.9,0.9s-0.9-0.4-0.9-0.9c0-0.5,0.4-0.9,0.9-0.9l0,0C12.5,11.1,12.9,11.5,12.9,12z  M8.4,11.1L8.4,11.1c-0.5,0-0.9,0.4-0.9,0.9c0,0.5,0.4,0.9,0.9,0.9c0.5,0,0.9-0.4,0.9-0.9S8.9,11.1,8.4,11.1z M15.6,11.1L15.6,11.1 c-0.5,0-0.9,0.4-0.9,0.9c0,0.5,0.4,0.9,0.9,0.9c0.5,0,0.9-0.4,0.9-0.9S16.1,11.1,15.6,11.1z M20.8,12c0,4.9-3.9,8.8-8.8,8.8H3.8 c-0.2,0-0.4-0.1-0.5-0.3c-0.1-0.2-0.1-0.4,0.1-0.6l1.8-2.4C3.9,15.9,3.2,14,3.2,12c0-4.9,3.9-8.8,8.8-8.8C16.9,3.2,20.8,7.1,20.8,12 z M19.6,12c0-4.2-3.4-7.6-7.6-7.6c-4.2,0-7.6,3.4-7.6,7.6c0,1.9,0.7,3.6,1.9,5c0.2,0.2,0.2,0.5,0,0.8L5,19.6h7 C16.2,19.6,19.6,16.2,19.6,12z"/></svg>