<svg xmlns="http://www.w3.org/2000/svg" width="24" height="24" viewBox="0 0 24 24"><path d="M21.7,11.7c-2.2-4.2-5.5-6.3-9.7-6.3c-4.1,0-7.4,2-9.6,6L2.1,12l0.1,0.3c2.2,4.2,5.5,6.3,9.7,6.3c4.1,0,7.4-2,9.6-6l0.3-0.6L21.7,11.7z M20.3,12.4c-2,3.4-4.7,5-8.3,5l-0.3,0c-3.4-0.1-6.1-1.8-8-5L3.5,12l0.2-0.4c2-3.4,4.7-5,8.3-5l0.3,0c3.4,0.1,6.1,1.8,8,5l0.2,0.4L20.3,12.4z M15.6,12c0,2-1.6,3.6-3.6,3.6S8.4,14,8.4,12c0-0.4,0.1-0.8,0.2-1.2c0.1-0.3,0.5-0.5,0.8-0.4c0.3,0.1,0.5,0.5,0.4,0.8c-0.1,0.3-0.1,0.5-0.1,0.8c0,1.3,1.1,2.4,2.4,2.4s2.4-1.1,2.4-2.4S13.3,9.6,12,9.6c-0.3,0-0.5,0-0.8,0.1c-0.1,0-0.3,0.1-0.4,0.2c-0.3,0.2-0.7,0.1-0.8-0.2C9.8,9.4,9.9,9,10.2,8.9c0.2-0.1,0.4-0.2,0.6-0.3c0.4-0.1,0.8-0.2,1.2-0.2C14,8.4,15.6,10,15.6,12z M12,13c-0.6,0-1-0.4-1-1s0.4-1,1-1s1,0.4,1,1S12.6,13,12,13z"/></svg>