<svg xmlns="http://www.w3.org/2000/svg" viewBox="0 0 24 24" width="24" height="24"><path d="M21,20.2c-0.8-2.7-2.6-4.3-5.7-4.9c2-1.1,3.3-3.3,3.3-5.7C18.6,6,15.6,3,12,3S5.4,6,5.4,9.6c0,2.4,1.3,4.6,3.3,5.7 c-3,0.6-4.9,2.2-5.6,4.9c-0.1,0.3,0.1,0.6,0.4,0.7c0.1,0,0.1,0,0.2,0h0.2L4,21h7.6l4.5,0h0.3l3.4,0h0.6c0.1,0,0.1,0,0.2,0 C20.9,20.9,21.1,20.6,21,20.2z M13.8,11.9c-0.5,0.4-1.1,0.6-1.8,0.6c-0.7,0-1.3-0.2-1.8-0.6c-0.2-0.2-0.3-0.5-0.1-0.7 c0.2-0.2,0.5-0.3,0.7-0.1c0.3,0.3,0.8,0.4,1.2,0.4c0.4,0,0.9-0.1,1.2-0.4c0.2-0.2,0.5-0.1,0.7,0.1C14.1,11.4,14,11.7,13.8,11.9z"/></svg>