<svg xmlns="http://www.w3.org/2000/svg" viewBox="0 0 24 24" width="24" height="24"><path d="M9,21h6c0,1.7-1.3,3-3,3c-1.6,0-2.9-1.2-3-2.8L9,21z M23,18c0,1.1-0.9,2-2,2H3c-1.1,0-2-0.9-2-2 c0-0.8,0.4-1.4,1.1-1.8c0,0,0.1-0.1,0.2-0.1c0.9-0.3,1.5-0.9,1.7-1.9l0,0V10c0-3.7,2.6-6.9,6-7.8c0-0.1,0-0.2,0-0.2c0-1.1,0.9-2,2-2 s2,0.9,2,2c0,0.1,0,0.2,0,0.2c3.5,0.9,6,4,6,7.8v4.4c0.1,0.8,0.5,1.4,1.2,1.6C22.2,16.1,23,17,23,18z M9,13c0-0.6-0.4-1-1-1 s-1,0.4-1,1s0.4,1,1,1S9,13.6,9,13z M14.5,16.5c0-0.3-0.2-0.5-0.5-0.5h-4c-0.3,0-0.5,0.2-0.5,0.5S9.7,17,10,17h4 C14.3,17,14.5,16.8,14.5,16.5z M17,13c0-0.6-0.4-1-1-1s-1,0.4-1,1s0.4,1,1,1S17,13.6,17,13z"/></svg>