<svg xmlns="http://www.w3.org/2000/svg" viewBox="0 0 24 24" width="24" height="24"><path d="M24,9V5c0-1.1-0.9-2-2-2H2C0.9,3,0,3.9,0,5v13c0,1.1,0.9,2,2,2h20c1.1,0,2-0.9,2-2v-4c-1.1-0.2-2-1.2-2-2.5S22.9,9.3,24,9z M5,11c-0.6,0-1-0.4-1-1s0.4-1,1-1s1,0.4,1,1S5.6,11,5,11z M11,14H7c-0.3,0-0.5-0.2-0.5-0.5S6.7,13,7,13h4c0.3,0,0.5,0.2,0.5,0.5S11.3,14,11,14z M13,11c-0.6,0-1-0.4-1-1s0.4-1,1-1s1,0.4,1,1S13.6,11,13,11z M19,19h-1v-1h1V19z M19,17h-1v-1h1V17z M19,15h-1v-1h1V15z M19,13h-1v-1h1V13z M19,11h-1v-1h1V11z M19,9h-1V8h1V9z M19,7h-1V6h1V7z M19,5h-1V4h1V5z"/></svg>