<svg xmlns="http://www.w3.org/2000/svg" viewBox="0 0 24 24" width="24" height="24"><path d="M8.2,8.3c0,0.3-0.2,0.5-0.5,0.6l-0.1,0H6.1c-0.3,0-0.6-0.3-0.6-0.6C5.5,8,5.7,7.7,6,7.7l0.1,0h1.6 C8,7.7,8.2,7.9,8.2,8.3z M7.6,5.7L7.6,5.7l-1.6,0L6,5.7C5.7,5.8,5.5,6,5.5,6.3c0,0.3,0.3,0.6,0.6,0.6h1.6l0.1,0 c0.3,0,0.5-0.3,0.5-0.6C8.2,6,8,5.7,7.6,5.7z M21.7,8.3c0,0.3-0.2,0.5-0.5,0.6l-0.1,0h-1.6c-0.1,0.9-0.8,1.7-1.7,1.7l-0.2,0h-1.6 c-0.7,1.1-1.8,1.8-3.1,1.9l-0.2,0h-5v1.4h1.3c0.3,0,0.6,0.3,0.6,0.6c0,0.3-0.2,0.5-0.5,0.6l-0.1,0H7.8v4.3h0.8 c0.3,0,0.6,0.3,0.6,0.6c0,0.3-0.2,0.5-0.5,0.6l-0.1,0h-6C2.3,20.6,2,20.3,2,20c0-0.3,0.2-0.5,0.5-0.6l0.1,0h0.8V5 c0-0.9,0.6-1.6,1.4-1.6l0.1,0h7.8c1.6,0,2.9,1,3.6,2.3l0.1,0.2h1.2c0.9,0,1.6,0.7,1.8,1.6l0,0.2h1.6C21.4,7.7,21.7,7.9,21.7,8.3z  M6.6,12.5L6.6,12.5h-2v6.8h2V12.5z M15.6,7.6c0-1.6-1.2-2.9-2.7-3l-0.2,0H5c-0.2,0-0.3,0.2-0.4,0.3l0,0.1v6.3h8.2 c1.5,0,2.7-1.2,2.8-2.8l0-0.2V7.6z M18.3,7.8c0-0.3-0.2-0.6-0.5-0.7l-0.1,0h-0.9l0,0.3l0,0.2v0.7c0,0.3,0,0.6-0.1,0.9l-0.1,0.2h1.1 c0.3,0,0.6-0.3,0.6-0.6l0-0.1V7.8z"/></svg>