<svg xmlns="http://www.w3.org/2000/svg" viewBox="0 0 24 24" width="24" height="24"><path d="M18.1,4.1L18.1,4.1c-0.3-0.2-0.6-0.2-0.8,0.1C17,4.4,17.1,4.8,17.4,5c0.8,0.6,1.4,1.3,2,2.1l-5.5,3.2 c-0.5-0.5-1.1-0.8-1.8-0.8s-1.3,0.3-1.8,0.8L4.7,7.1C5.2,6.3,5.9,5.6,6.6,5c0.3-0.2,0.3-0.6,0.1-0.8C6.5,3.9,6.2,3.9,5.9,4.1 C3.5,6,2,8.9,2,12c0,5.5,4.5,10,10,10s10-4.5,10-10C22,8.9,20.5,5.9,18.1,4.1z M3.2,12c0-1.4,0.3-2.7,0.9-3.9l5.5,3.2 c-0.1,0.2-0.1,0.5-0.1,0.7s0,0.5,0.1,0.7l-5.5,3.2C3.5,14.7,3.2,13.4,3.2,12z M11.4,20.8c-2.8-0.2-5.2-1.7-6.7-3.9l5.5-3.2v0 c0.3,0.3,0.7,0.6,1.2,0.7V20.8z M10.7,12c0-0.7,0.6-1.3,1.3-1.3s1.3,0.6,1.3,1.3s-0.6,1.3-1.3,1.3S10.7,12.7,10.7,12z M12.6,20.8 v-6.4c0.5-0.1,0.9-0.4,1.2-0.7l5.5,3.2C17.8,19.1,15.4,20.6,12.6,20.8z M14.4,12.7c0.1-0.2,0.1-0.5,0.1-0.7c0-0.2,0-0.5-0.1-0.7 l5.5-3.2c0.6,1.2,0.9,2.5,0.9,3.9c0,1.4-0.3,2.7-0.9,3.9L14.4,12.7z M10.8,7.1c0,0.1,0.1,0.2,0.2,0.3L11.3,8l0.2,0.3 c0.2,0.4,0.8,0.4,1,0l0.3-0.6L13,7.4l0.3-0.5c0.9-1.6,1.3-2.8,1.3-3.5c0-1.6-1.1-2.9-2.6-2.9S9.4,1.7,9.4,3.3c0,0.7,0.4,1.8,1.1,3.3 L10.8,7.1z M12,1.6c0.8,0,1.4,0.8,1.4,1.7l0,0.1c0,0.5-0.3,1.2-0.8,2.2l-0.3,0.5l-0.3,0.5L12,6.8l-0.1-0.2l-0.3-0.5 c-0.7-1.3-1-2.2-1-2.8C10.6,2.4,11.3,1.6,12,1.6z"/></svg>