<svg xmlns="http://www.w3.org/2000/svg" width="24" height="24" viewBox="0 0 24 24"><path d="M12,2C6.5,2,2,6.5,2,12s4.5,10,10,10s10-4.5,10-10S17.5,2,12,2z M12,20.8c-4.9,0-8.8-3.9-8.8-8.8S7.1,3.2,12,3.2s8.8,3.9,8.8,8.8S16.9,20.8,12,20.8z M12.9,16.9c0,0.5-0.4,0.9-0.9,0.9s-0.9-0.4-0.9-0.9c0-0.5,0.4-0.9,0.9-0.9S12.9,16.4,12.9,16.9z M15.1,10c0,1.4-0.9,2.5-2.3,3l-0.2,0.1l0,0v1.4c0,0.3-0.2,0.5-0.5,0.6l-0.1,0c-0.3,0-0.5-0.2-0.6-0.5l0-0.1V13c0-0.6,0.3-0.8,0.7-1l0.3-0.1c0.9-0.3,1.5-1,1.5-1.9c0-1-0.9-1.9-1.9-1.9S10.1,9,10.1,10c0,0.3-0.3,0.6-0.6,0.6S8.9,10.3,8.9,10c0-1.7,1.4-3.1,3.1-3.1S15.1,8.3,15.1,10z"/></svg>