<svg xmlns="http://www.w3.org/2000/svg" xmlns:xlink="http://www.w3.org/1999/xlink" width="24" height="24" viewBox="0 0 24 24">
    <defs>
        <rect id="d6hbmzmeya" width="24" height="24" x="0" y="0" rx="8"/>
    </defs>
    <g fill="none" fill-rule="evenodd">
        <g>
            <g>
                <g transform="translate(-32 -720) translate(20 708) translate(12 12)">
                    <mask id="r2vi4mmxrb" fill="#fff">
                        <use xlink:href="#d6hbmzmeya"/>
                    </mask>
                    <use fill="#1EC68C" xlink:href="#d6hbmzmeya"/>
                    <g fill="#FFF" mask="url(#r2vi4mmxrb)">
                        <path d="M5.543 4C6.498 4 7.364 4.383 8 5.003h.004C8.65 4.374 9.533 3.989 10.504 4c1.927.022 3.465 1.618 3.496 3.544V10.92c0 .567-.435 1.031-.988 1.076-.628.051-1.145-.446-1.164-1.073V7.547c0-.782-.65-1.415-1.436-1.387-.737.027-1.312.648-1.332 1.383V10.92c0 .567-.435 1.031-.989 1.076-.627.052-1.145-.446-1.164-1.073V7.547c0-.782-.649-1.415-1.435-1.387-.737.027-1.312.648-1.333 1.383V10.92c0 .567-.435 1.031-.989 1.076-.627.051-1.145-.446-1.163-1.073l-.001-.035V8.026c0-.087 0-.172-.002-.254L2 7.648C1.951 5.65 3.55 4 5.543 4z" transform="translate(4 4)"/>
                    </g>
                </g>
            </g>
        </g>
    </g>
</svg>
