<svg xmlns="http://www.w3.org/2000/svg" viewBox="0 0 24 24" width="24" height="24"><path d="M17.5,11c0.3,0,0.5,0.2,0.5,0.5c0,0.3-0.2,0.5-0.5,0.5h-1.3v0.8h1.3c0.3,0,0.5,0.2,0.5,0.5s-0.2,0.5-0.5,0.5h-1.8c-0.3,0-0.5-0.2-0.5-0.5V9.7c0-0.3,0.2-0.5,0.5-0.5h1.8c0.3,0,0.5,0.2,0.5,0.5s-0.2,0.5-0.5,0.5h-1.3V11H17.5z M14.6,13.2c0,0.2-0.1,0.4-0.3,0.4c0,0-0.1,0-0.1,0c-0.1,0-0.3-0.1-0.4-0.2L11.9,11v2.2c0,0.3-0.2,0.5-0.5,0.5c-0.3,0-0.5-0.2-0.5-0.5V9.7c0-0.2,0.1-0.4,0.3-0.4c0,0,0.1,0,0.1,0c0.1,0,0.3,0.1,0.4,0.2l1.8,2.5V9.7c0-0.3,0.2-0.5,0.5-0.5c0.3,0,0.5,0.2,0.5,0.5V13.2z M10.3,13.2c0,0.3-0.2,0.5-0.5,0.5s-0.5-0.2-0.5-0.5V9.7c0-0.3,0.2-0.5,0.5-0.5s0.5,0.2,0.5,0.5V13.2z M8.5,13.7H6.7c-0.3,0-0.5-0.2-0.5-0.5V9.7c0-0.3,0.2-0.5,0.5-0.5s0.5,0.2,0.5,0.5v3.1h1.3c0.3,0,0.5,0.2,0.5,0.5S8.7,13.7,8.5,13.7z M21,11.3c0-4-4-7.3-9-7.3c-5,0-9,3.3-9,7.3c0,3.6,3.2,6.6,7.5,7.2c0.3,0.1,0.7,0.2,0.8,0.4c0.1,0.2,0.1,0.6,0,0.8c0,0-0.1,0.6-0.1,0.8c0,0.2-0.2,0.9,0.8,0.5s5.2-3.1,7.1-5.2C20.4,14.4,21,12.9,21,11.3z"/></svg>