<svg xmlns="http://www.w3.org/2000/svg" viewBox="0 0 24 24" width="24" height="24"><path d="M10.8,11.2c0,0.3-0.2,0.5-0.5,0.5c-0.3,0-0.5-0.2-0.5-0.5c0-0.3,0.2-0.5,0.5-0.5C10.5,10.7,10.8,10.9,10.8,11.2 z M10.3,7.8L10.3,7.8C10,7.8,9.8,8,9.8,8.3c0,0.3,0.2,0.5,0.5,0.5c0.3,0,0.5-0.2,0.5-0.5C10.8,8,10.5,7.8,10.3,7.8z M14.2,10.7 c-0.3,0-0.5,0.2-0.5,0.5c0,0.3,0.2,0.5,0.5,0.5c0.3,0,0.5-0.2,0.5-0.5C14.7,10.9,14.5,10.7,14.2,10.7z M21.9,12.5v5.2H21v1.1h-1.2 v-1.1H4v1.1H2.8v-1.1H2.1v-5.2c0-1.3,1-2.3,2.3-2.4l0.2,0h0.1c0.4,0,0.8,0.1,1.1,0.3l0.2,0.1l0-3.7c0-0.9,0.8-1.7,1.7-1.7l0.2,0h8.5 h0c1,0,1.8,0.7,1.8,1.6l0,0.1v3.7c0.3-0.2,0.7-0.3,1.1-0.4l0.2,0h0.1c1.3,0,2.3,1,2.4,2.3L21.9,12.5z M5.9,16.5l0-4 c0-0.6-0.5-1.1-1.1-1.2l-0.1,0H4.5c-0.6,0-1.2,0.5-1.2,1.1l0,0.1v4H5.9z M16.8,15.1c0-0.3-0.2-0.6-0.5-0.6c0,0-0.1,0-0.1,0H7.7 c-0.3,0-0.6,0.2-0.6,0.5l0,0.1v1.4h9.7V15.1z M16.9,6.7c0-0.3-0.2-0.5-0.5-0.5l-0.1,0H7.8c-0.3,0-0.6,0.2-0.6,0.5l0,0.1l0,6.6 c0.1,0,0.3-0.1,0.4-0.1l0.2,0h8.4c0.2,0,0.4,0,0.6,0.1l0.1,0.1V6.7z M20.7,12.5c0-0.6-0.5-1.1-1.1-1.2l-0.1,0h-0.1 c-0.6,0-1.2,0.5-1.2,1.1l0,0.1v4h2.6V12.5z M14.2,7.8L14.2,7.8c-0.3,0-0.5,0.2-0.5,0.5c0,0.3,0.2,0.5,0.5,0.5c0.3,0,0.5-0.2,0.5-0.5 C14.7,8,14.5,7.8,14.2,7.8z"/></svg>