<svg xmlns="http://www.w3.org/2000/svg" viewBox="0 0 24 24" width="24" height="24"><path d="M19.4,11.8c0.3,0,0.5,0.2,0.6,0.5l0,0.1v7c0,0.8-0.7,1.5-1.5,1.6l-0.1,0H5.7c-0.9,0-1.6-0.6-1.7-1.5l0-0.1v-7c0-0.3,0.3-0.6,0.6-0.6c0.3,0,0.5,0.2,0.6,0.5l0,0.1v7c0,0.2,0.2,0.4,0.4,0.4l0.1,0h12.7c0.2,0,0.4-0.1,0.5-0.3l0-0.1v-7C18.8,12.1,19.1,11.8,19.4,11.8z M14.5,12.4c1.2,0,2.1,0.9,2.1,2.1s-0.9,2.1-2.1,2.1s-2.1-0.9-2.1-2.1S13.3,12.4,14.5,12.4z M14.5,13.6c-0.5,0-0.9,0.4-0.9,0.9s0.4,0.9,0.9,0.9s0.9-0.4,0.9-0.9S15,13.6,14.5,13.6z M12,2l9.8,7.9c0.3,0.2,0.3,0.6,0.1,0.8c-0.2,0.2-0.5,0.3-0.8,0.1L21,10.9l-9-7.3l-9,7.3c-0.2,0.2-0.6,0.2-0.8,0l-0.1-0.1c-0.2-0.2-0.2-0.6,0-0.8l0.1-0.1L12,2z"/></svg>
