<svg xmlns="http://www.w3.org/2000/svg" viewBox="0 0 24 24" width="24" height="24"><path d="M17.5,14.5h-1v-1h1V14.5z M17.5,11.5h-1v1h1V11.5z M17.5,9.5h-1v1h1V9.5z M17.5,7.5h-1v1h1V7.5z M21,12 c0,0.6,0.4,1,1,1v5c0,0.6-0.4,1-1,1H3c-0.6,0-1-0.4-1-1V6c0-0.6,0.4-1,1-1h18c0.6,0,1,0.4,1,1v5C21.4,11,21,11.4,21,12z M20.8,6.2 H3.2v11.6h17.6v-4l-0.1-0.1c-0.5-0.4-0.9-1-0.9-1.6l0-0.2c0-0.7,0.4-1.4,0.9-1.8l0.1-0.1V6.2z M17.5,15.5h-1v1h1V15.5z M8.4,15 c0.1,0,0.2,0,0.2,0c0,0,0.1,0,0.1-0.1l0,0l4.4-5.7h-0.9c-0.1,0-0.2,0-0.2,0.1l-0.1,0.1l-0.1,0.1L7.4,15H8.4z M7.3,11.2 c-0.1-0.2-0.1-0.4-0.1-0.6c0-0.2,0-0.4,0.1-0.6c0.1-0.2,0.2-0.3,0.3-0.5C7.7,9.4,7.9,9.3,8,9.2c0.2-0.1,0.4-0.1,0.6-0.1 s0.4,0,0.6,0.1c0.2,0.1,0.3,0.2,0.4,0.3C9.7,9.6,9.8,9.8,9.9,10s0.1,0.4,0.1,0.6c0,0.2,0,0.4-0.1,0.6c-0.1,0.2-0.2,0.3-0.3,0.5 s-0.3,0.2-0.4,0.3C9,12,8.8,12,8.6,12c-0.2,0-0.4,0-0.6-0.1c-0.2-0.1-0.3-0.2-0.4-0.3C7.5,11.5,7.4,11.3,7.3,11.2z M8.2,10.6 c0,0.1,0,0.2,0,0.3c0,0.1,0,0.2,0.1,0.2c0,0.1,0.1,0.1,0.1,0.1c0.1,0,0.1,0,0.2,0c0.1,0,0.1,0,0.2,0c0.1,0,0.1-0.1,0.1-0.1 C9,11.1,9,11,9,10.9s0-0.2,0-0.3c0-0.1,0-0.2,0-0.3C9,10.2,9,10.1,8.9,10c0-0.1-0.1-0.1-0.1-0.1c-0.1,0-0.1,0-0.2,0 c-0.1,0-0.1,0-0.2,0C8.4,9.9,8.3,10,8.3,10c0,0.1-0.1,0.1-0.1,0.2C8.2,10.3,8.2,10.4,8.2,10.6z M13,12.6c0.1,0.1,0.2,0.3,0.3,0.5 c0.1,0.2,0.1,0.4,0.1,0.6c0,0.2,0,0.4-0.1,0.6c-0.1,0.2-0.2,0.3-0.3,0.5c-0.1,0.1-0.3,0.2-0.4,0.3c-0.2,0.1-0.3,0.1-0.5,0.1 c-0.2,0-0.4,0-0.6-0.1c-0.2-0.1-0.3-0.2-0.4-0.3c-0.1-0.1-0.2-0.3-0.3-0.5s-0.1-0.4-0.1-0.6c0-0.2,0-0.4,0.1-0.6 c0.1-0.2,0.2-0.3,0.3-0.5c0.1-0.1,0.3-0.2,0.4-0.3c0.2-0.1,0.4-0.1,0.6-0.1c0.2,0,0.4,0,0.6,0.1C12.7,12.3,12.8,12.4,13,12.6z  M12.4,13.6c0-0.1,0-0.2,0-0.3c0-0.1-0.1-0.2-0.1-0.2c0-0.1-0.1-0.1-0.1-0.1c-0.1,0-0.1,0-0.2,0c-0.1,0-0.1,0-0.2,0 c-0.1,0-0.1,0.1-0.1,0.1c0,0.1-0.1,0.1-0.1,0.2c0,0.1,0,0.2,0,0.3c0,0.1,0,0.2,0,0.3c0,0.1,0,0.2,0.1,0.2c0,0,0.1,0.1,0.1,0.1 s0.1,0,0.2,0c0.1,0,0.1,0,0.2,0c0.1,0,0.1-0.1,0.1-0.1c0,0,0.1-0.1,0.1-0.2C12.4,13.9,12.4,13.8,12.4,13.6z"/></svg>