<svg xmlns="http://www.w3.org/2000/svg" viewBox="0 0 24 24" width="24" height="24"><path d="M20.3,10.6h-3.9v-1h-1.2v1h-2.8V5.7c0-1.5,0.6-1.5,0.9-1.5c0.3,0,0.9,0,0.9,1.5v0.5h1.2V5.7 c0-2.4-1.5-2.7-2.1-2.7c-0.6,0-2.1,0.3-2.1,2.7v4.9H8.4v-1H7.2v1H3.6c-0.9,0-1.6,0.7-1.6,1.6v0.5c0,0.8,0.6,1.5,1.3,1.6v1 C3.3,18.5,5.9,21,9,21h5.9c3.1,0,5.6-2.5,5.6-5.6v-1c0.8-0.1,1.4-0.8,1.4-1.6v-0.5C21.9,11.3,21.2,10.6,20.3,10.6z M19.3,15.4 c0,2.4-2,4.4-4.4,4.4H9c-2.4,0-4.4-2-4.4-4.4v-1h14.8V15.4z M20.7,12.7c0,0.1-0.1,0.2-0.2,0.3v0H3.3v0c-0.1-0.1-0.1-0.2-0.1-0.3 v-0.5c0-0.2,0.2-0.4,0.4-0.4h16.7c0.2,0,0.4,0.2,0.4,0.4V12.7z"/></svg>