<svg xmlns="http://www.w3.org/2000/svg" viewBox="0 0 24 24" width="24" height="24"><path d="M12.5,12c0,0.6-0.4,1-1,1c-0.6,0-1-0.4-1-1c0-0.6,0.4-1,1-1C12.1,11,12.5,11.5,12.5,12z M21.3,12 c0,1.2-0.9,2.1-2,2.2l-0.2,0l-1.5,0v6c0,0.9-0.7,1.6-1.5,1.7l-0.1,0H6.7c-0.9,0-1.6-0.7-1.7-1.5l0-0.1V3.7C5,2.8,5.7,2.1,6.5,2 l0.1,0h9.3c0.9,0,1.6,0.7,1.7,1.5l0,0.1l-0.1,6.1l1.6,0C20.3,9.8,21.3,10.8,21.3,12z M16.4,14.2l-2.1,0c-0.7,0.9-1.7,1.4-2.8,1.4 c-2,0-3.6-1.6-3.6-3.6s1.6-3.6,3.6-3.6c1,0,2,0.4,2.6,1.2l0.1,0.2l2,0l0.1-6.1c0-0.2-0.2-0.4-0.4-0.5l-0.1,0H6.7 c-0.2,0-0.4,0.2-0.5,0.4l0,0.1v16.5c0,0.2,0.2,0.4,0.4,0.5l0.1,0h9.3c0.2,0,0.4-0.2,0.5-0.4l0-0.1V14.2z M20.1,12 c0-0.5-0.4-0.9-0.9-1l-0.1,0l-5.5,0l-0.2-0.3c-0.4-0.7-1.2-1.1-2-1.1v0c-1.3,0-2.4,1.1-2.4,2.4c0,1.3,1.1,2.4,2.4,2.4 c0.8,0,1.5-0.4,1.9-1l0.1-0.2l0.2-0.3l5.5,0C19.7,13,20.1,12.6,20.1,12z"/></svg>