<svg xmlns="http://www.w3.org/2000/svg" viewBox="0 0 24 24" width="24" height="24"><path d="M13,17c0,0.6-0.4,1-1,1s-1-0.4-1-1c0-0.6,0.4-1,1-1S13,16.4,13,17z M8,9c-0.6,0-1,0.4-1,1c0,0.6,0.4,1,1,1 s1-0.4,1-1C9,9.4,8.6,9,8,9z M12,12.5c-0.6,0-1,0.4-1,1c0,0.6,0.4,1,1,1s1-0.4,1-1C13,12.9,12.6,12.5,12,12.5z M8,12.5 c-0.6,0-1,0.4-1,1c0,0.6,0.4,1,1,1s1-0.4,1-1C9,12.9,8.6,12.5,8,12.5z M8,16c-0.6,0-1,0.4-1,1c0,0.6,0.4,1,1,1s1-0.4,1-1 C9,16.4,8.6,16,8,16z M16,12.5c-0.6,0-1,0.4-1,1c0,0.6,0.4,1,1,1c0.6,0,1-0.4,1-1C17,12.9,16.6,12.5,16,12.5z M16,9 c-0.6,0-1,0.4-1,1c0,0.6,0.4,1,1,1c0.6,0,1-0.4,1-1C17,9.4,16.6,9,16,9z M12,9c-0.6,0-1,0.4-1,1c0,0.6,0.4,1,1,1s1-0.4,1-1 C13,9.4,12.6,9,12,9z M22,6.8v12.5c0,1.5-1.2,2.8-2.8,2.8H4.8C3.2,22,2,20.8,2,19.3V6.8C2,5.2,3.2,4,4.8,4H7V2.8C7,2.3,7.3,2,7.8,2 c0.4,0,0.7,0.3,0.7,0.6l0,0.1V4h2.8V2.8C11.3,2.3,11.6,2,12,2c0.4,0,0.7,0.3,0.7,0.6l0,0.1V4h2.8V2.8c0-0.4,0.3-0.8,0.8-0.8 c0.4,0,0.7,0.3,0.7,0.6l0,0.1V4h2.3C20.8,4,22,5.2,22,6.8z M20.5,6.8c0-0.7-0.6-1.3-1.3-1.3H17v0.8C17,6.7,16.7,7,16.3,7 c-0.4,0-0.7-0.3-0.7-0.6l0-0.1V5.5h-2.8v0.8C12.8,6.7,12.4,7,12,7c-0.4,0-0.7-0.3-0.7-0.6l0-0.1V5.5H8.5v0.8C8.5,6.7,8.2,7,7.8,7 C7.4,7,7.1,6.7,7,6.4l0-0.1V5.5H4.8c-0.7,0-1.3,0.6-1.3,1.3v12.5c0,0.7,0.6,1.3,1.3,1.3h14.5c0.7,0,1.3-0.6,1.3-1.3V6.8z M16,16 c-0.6,0-1,0.4-1,1c0,0.6,0.4,1,1,1c0.6,0,1-0.4,1-1C17,16.4,16.6,16,16,16z"/></svg>