<svg xmlns="http://www.w3.org/2000/svg" viewBox="0 0 24 24" width="24" height="24"><path d="M7,9.8L7,9.8l0,6.1c0,0.3-0.3,0.6-0.6,0.6c-0.3,0-0.5-0.2-0.6-0.5l0-0.1v-6c0-0.3,0.3-0.6,0.6-0.6l0,0 C6.7,9.3,7,9.5,7,9.8z M17.4,9.3L17.4,9.3c-0.3,0-0.6,0.3-0.6,0.6v6l0,0.1c0,0.3,0.3,0.5,0.6,0.5c0.3,0,0.6-0.3,0.6-0.6v-6l0-0.1 C18,9.5,17.7,9.3,17.4,9.3z M21.3,8v12c0,0.6-0.4,1.2-0.9,1.4c-0.2,0.1-0.4,0.1-0.6,0.1c-0.3,0-0.5-0.1-0.8-0.2l-0.1-0.1l-4.1-2.3 c-0.5,0.8-1.7,1.3-2.9,1.3c-1.2,0-2.2-0.4-2.7-1.1l-0.1-0.1L5,21.2c-0.2,0.2-0.5,0.3-0.8,0.3c-0.2,0-0.4,0-0.6-0.1 c-0.5-0.2-0.8-0.7-0.9-1.3l0-0.2V8c0-0.6,0.3-1.1,0.7-1.3l0.1-0.1l5.2-2.3C8.8,4.1,9,4.1,9.2,4.1c0.1-1,1.4-1.8,2.9-1.8 c1.6,0,2.8,0.8,2.9,1.8c0.1,0,0.1,0,0.2,0l0.1,0l5.1,2.3c0.5,0.3,0.8,0.7,0.9,1.3L21.3,8z M8.9,17.7l0-12.3L4,7.6 c-0.1,0-0.1,0.1-0.2,0.3l0,0.1v12c0,0.2,0.1,0.3,0.2,0.4c0.1,0,0.2,0,0.2,0l0.1,0L8.9,17.7z M13.9,5.9c-0.5,0.2-1.1,0.4-1.7,0.4 c-0.7,0-1.3-0.2-1.8-0.4l-0.2-0.1l0,12.3c0,0.4,0.8,0.9,1.8,0.9c1,0,1.8-0.5,1.9-0.9l0-0.1V5.9z M13.9,4.3c0-0.3-0.7-0.8-1.7-0.8 c-1,0-1.7,0.5-1.7,0.8c0,0.3,0.7,0.8,1.7,0.8C13.2,5.1,13.9,4.6,13.9,4.3z M20.2,8c0-0.1-0.1-0.2-0.1-0.3l-0.1,0L15,5.4l0,12.3 l4.5,2.5c0.2,0.1,0.3,0.1,0.3,0.1c0.1,0,0.2-0.1,0.2-0.3l0-0.1V8z"/></svg>