<svg xmlns="http://www.w3.org/2000/svg" viewBox="0 0 24 24" width="24" height="24"><path d="M12,3c-5,0-9,4-9,9s4,9,9,9s9-4,9-9S17,3,12,3z M12,19.8c-4.3,0-7.8-3.5-7.8-7.8S7.7,4.2,12,4.2 s7.8,3.5,7.8,7.8S16.3,19.8,12,19.8z M14.2,9.7c-0.2-0.2-0.4-0.3-0.7-0.4c-0.3-0.1-0.6-0.1-1-0.1h-1.9V15h1.1v-2h0.8 c0.4,0,0.7,0,1-0.1c0.3-0.1,0.5-0.2,0.7-0.4c0.2-0.2,0.3-0.4,0.4-0.6c0.1-0.2,0.1-0.5,0.1-0.8c0-0.3,0-0.5-0.1-0.7 C14.5,10.1,14.4,9.9,14.2,9.7z M13.6,11.5c0,0.1-0.1,0.2-0.2,0.3C13.3,11.9,13.2,12,13,12c-0.1,0-0.3,0.1-0.5,0.1h-0.8V10h0.8 c0.2,0,0.4,0,0.5,0.1c0.1,0,0.3,0.1,0.4,0.2c0.1,0.1,0.2,0.2,0.2,0.3c0,0.1,0.1,0.3,0.1,0.4C13.7,11.2,13.6,11.4,13.6,11.5z"/></svg>