<svg xmlns="http://www.w3.org/2000/svg" viewBox="0 0 24 24" width="24" height="24"><path d="M21.8,10.2L21.8,10.2l-8.1-6.6c-0.9-0.8-2.3-0.8-3.3,0l-8.1,6.6C2,10.4,1.9,10.8,2.1,11c0.2,0.3,0.6,0.3,0.8,0.1l1-0.8v7.1 c0,2,1.6,3.6,3.6,3.6h8.8c2,0,3.6-1.6,3.6-3.6v-7.1l1,0.8c0.1,0.1,0.2,0.1,0.4,0.1c0.2,0,0.3-0.1,0.5-0.2 C22.1,10.8,22,10.4,21.8,10.2z M15,16c-1.1,0-2-0.9-2-2c0-1.1,0.9-2,2-2s2,0.9,2,2C17,15.1,16.1,16,15,16z M15.8,14 c0,0.4-0.4,0.8-0.8,0.8c-0.4,0-0.8-0.4-0.8-0.8c0-0.4,0.4-0.8,0.8-0.8C15.4,13.2,15.8,13.5,15.8,14z"/></svg>