<svg xmlns="http://www.w3.org/2000/svg" viewBox="0 0 24 24" width="24" height="24"><path d="M21,17.9l-1.4-7.8l0-0.2c-0.3-1.2-1.3-2-2.5-2h-1.4V6.6l0-0.2C15.5,4.5,13.9,3,12,3c-2,0-3.6,1.6-3.6,3.6l0,1.4 H7c-1.3,0-2.3,0.9-2.6,2.1L3,17.9c0,0.2,0,0.3,0,0.5C3,19.8,4.2,21,5.6,21h12.8c0.2,0,0.3,0,0.5,0C20.3,20.7,21.2,19.4,21,17.9z  M9.6,6.6l0-0.2c0.1-1.3,1.1-2.3,2.4-2.3h0c1.3,0,2.4,1.1,2.4,2.4l0,1.4H9.6V6.6z M18.6,19.8c-0.1,0-0.2,0-0.2,0H5.6 c-0.8,0-1.4-0.6-1.4-1.4c0-0.1,0-0.2,0-0.3l1.4-7.8l0-0.1c0.2-0.6,0.7-1,1.3-1h1.4V11l0,0.1c0,0.3,0.3,0.5,0.6,0.5 c0.3,0,0.6-0.3,0.6-0.6V9.2h4.8V11l0,0.1c0,0.3,0.3,0.5,0.6,0.5c0.3,0,0.6-0.3,0.6-0.6V9.2H17c0.7,0,1.3,0.5,1.4,1.2l1.4,7.8 C19.9,18.9,19.4,19.6,18.6,19.8z"/></svg>