<svg xmlns="http://www.w3.org/2000/svg" viewBox="0 0 24 24" width="24" height="24"><path d="M11.9,11.2c0.2,0.2,0.1,0.5-0.1,0.7c-0.5,0.4-1.1,0.6-1.8,0.6c-0.7,0-1.3-0.2-1.8-0.6c-0.2-0.2-0.3-0.5-0.1-0.7 c0.2-0.2,0.5-0.3,0.7-0.1c0.3,0.3,0.8,0.4,1.2,0.4c0.4,0,0.9-0.1,1.2-0.4C11.4,10.9,11.7,11,11.9,11.2z M6.8,8C6.3,8,6,8.3,6,8.8 s0.3,0.8,0.8,0.8c0.4,0,0.8-0.3,0.8-0.8S7.2,8,6.8,8z M13.3,8c-0.4,0-0.8,0.3-0.8,0.8s0.3,0.8,0.8,0.8c0.4,0,0.8-0.3,0.8-0.8 S13.7,8,13.3,8z M22,6.6v6.9c0,0.6-0.4,1-1,1c-0.1,0-0.3,0-0.4-0.1L18,13.2V16c0,1.1-0.9,2-2,2H9.6l-2.8,3.6c-0.3,0.4-1,0.5-1.4,0.2 C5.1,21.6,5,21.3,5,21v-3H4c-1.1,0-2-0.9-2-2V5c0-1.1,0.9-2,2-2h12c1.1,0,2,0.9,2,2v1.8l2.6-1.2c0.5-0.2,1.1,0,1.3,0.5 C22,6.3,22,6.4,22,6.6z M20.8,6.9l-4,1.8V5c0-0.4-0.3-0.7-0.7-0.8l-0.1,0H4c-0.4,0-0.7,0.3-0.8,0.7l0,0.1v11c0,0.4,0.3,0.7,0.7,0.8 l0.1,0h2.2v3.6l2.9-3.6H16c0.4,0,0.7-0.3,0.8-0.7l0-0.1v-4.7l4,1.8V6.9z"/></svg>