<svg xmlns="http://www.w3.org/2000/svg" viewBox="0 0 24 24" width="24" height="24"><path d="M22,12c0,0.6-0.4,1-1,1h-1.8l-1.7,5.9c-0.2,0.6-0.7,1-1.3,1.1l-0.1,0c-0.7,0-1.2-0.4-1.4-1.1l-2.6-9.1l-2.6,9.1 c-0.2,0.6-0.7,1-1.3,1.1l-0.1,0c-0.7,0-1.2-0.4-1.4-1.1L5,13H3c-0.6,0-1-0.4-1-1s0.4-1,1-1h1.4L3.3,7.1C3.2,6.6,3.4,6.2,3.9,6 C3.9,6,4,6,4.1,6c0.7,0,1.2,0.4,1.4,1.1l2.6,9.1l2.6-9.1c0.2-0.6,0.7-1,1.3-1.1l0.1,0c0.7,0,1.2,0.4,1.4,1.1l2.6,9.1l2.6-9.1 c0.2-0.6,0.7-1,1.3-1.1l0.1,0c0.1,0,0.2,0,0.2,0C20.7,6.1,21,6.5,20.9,7l0,0.1L19.8,11H21C21.6,11,22,11.4,22,12z"/></svg>