<svg xmlns="http://www.w3.org/2000/svg" width="24" height="24" viewBox="0 0 24 24"><path d="M20,10.8C19.9,9.7,19.2,9,18.2,9h-5.4l0.7-1.8c0.5-2,0.2-3-0.8-3.7c-1.1-0.8-2.5-0.7-2.8,0.7L9.8,4.7C9.7,4.9,9.7,5.1,9.6,5.3c-0.2,0.5-0.3,1-0.5,1.5c-0.4,0.9-0.8,1.5-1.4,2C7.5,8.9,7.3,9,6.9,9H4v11h2.8l0.1,0c0.4,0,0.7-0.3,1.1-0.8L8,19.1l0.1,0.1C8.5,19.7,9,20,9.5,20h7c0.8,0,1.4-0.5,1.7-1.2l0.4-1.3c1-3.4,1.5-5.5,1.5-6.5L20,10.8z M6.8,10.2v8.5l0,0c0,0,0,0,0,0H5.2v-8.6H6.8L6.8,10.2z M17,18.3c-0.1,0.3-0.3,0.5-0.6,0.5h-7l0,0c-0.2,0-0.5-0.4-0.9-1.1L8,16.8V10l0.1,0c0.1-0.1,0.2-0.1,0.3-0.2c0.8-0.6,1.3-1.5,1.8-2.5c0.2-0.5,0.4-1,0.6-1.6l0.1-0.4l0.2-0.8c0.1-0.3,0.4-0.4,0.9-0.1l0.1,0.1c0.6,0.4,0.7,0.9,0.3,2.3l-1,2.5l-0.3,0.8h7.1c0.3,0,0.6,0.2,0.6,0.7C18.8,11.9,18.2,14.4,17,18.3z"/></svg>