<svg xmlns="http://www.w3.org/2000/svg" viewBox="0 0 24 24" width="24" height="24"><path d="M12,8.4c-2,0-3.6,1.6-3.6,3.6s1.6,3.6,3.6,3.6s3.6-1.6,3.6-3.6S14,8.4,12,8.4z M12,14.4c-1.3,0-2.4-1.1-2.4-2.4 s1.1-2.4,2.4-2.4s2.4,1.1,2.4,2.4S13.3,14.4,12,14.4z M21.7,11.7c-2.2-4.2-5.5-6.3-9.7-6.3c-4.1,0-7.4,2-9.6,6L2.1,12l0.1,0.3 c2.2,4.2,5.5,6.3,9.7,6.3c4.1,0,7.4-2,9.6-6l0.3-0.6L21.7,11.7z M20.3,12.4c-2,3.4-4.7,5-8.3,5l-0.3,0c-3.4-0.1-6.1-1.8-8-5L3.5,12 l0.2-0.4c2-3.4,4.7-5,8.3-5l0.3,0c3.4,0.1,6.1,1.8,8,5l0.2,0.4L20.3,12.4z"/></svg>