<?xml version="1.0" encoding="utf-8"?>
<!-- Generator: Adobe Illustrator 24.3.0, SVG Export Plug-In . SVG Version: 6.00 Build 0)  -->
<svg version="1.1" id="Layer_1" xmlns="http://www.w3.org/2000/svg" xmlns:xlink="http://www.w3.org/1999/xlink" x="0px" y="0px"
	 viewBox="0 0 24 24" style="enable-background:new 0 0 24 24;" xml:space="preserve">
<style type="text/css">
	.st0{filter:url(#Adobe_OpacityMaskFilter);}
	.st1{fill-rule:evenodd;clip-rule:evenodd;fill:#FFFFFF;}
	.st2{mask:url(#hbfb7erfjb_1_);fill-rule:evenodd;clip-rule:evenodd;fill:#EF4384;}
	.st3{filter:url(#Adobe_OpacityMaskFilter_1_);}
	.st4{mask:url(#hbfb7erfjb_2_);fill-rule:evenodd;clip-rule:evenodd;fill:#DF1A59;}
	.st5{filter:url(#Adobe_OpacityMaskFilter_2_);}
	.st6{mask:url(#hbfb7erfjb_3_);fill-rule:evenodd;clip-rule:evenodd;fill:#F06FAB;}
	.st7{filter:url(#Adobe_OpacityMaskFilter_3_);}
	.st8{mask:url(#hbfb7erfjb_4_);fill-rule:evenodd;clip-rule:evenodd;fill:#6E036B;}
	.st9{filter:url(#Adobe_OpacityMaskFilter_4_);}
	.st10{mask:url(#hbfb7erfjb_5_);fill-rule:evenodd;clip-rule:evenodd;fill:#4F2F6D;}
	.st11{filter:url(#Adobe_OpacityMaskFilter_5_);}
	.st12{mask:url(#hbfb7erfjb_6_);fill-rule:evenodd;clip-rule:evenodd;fill:#D7A3CD;}
	.st13{filter:url(#Adobe_OpacityMaskFilter_6_);}
	.st14{mask:url(#hbfb7erfjb_7_);fill-rule:evenodd;clip-rule:evenodd;fill:#C954A0;}
	.st15{filter:url(#Adobe_OpacityMaskFilter_7_);}
	.st16{mask:url(#hbfb7erfjb_8_);fill-rule:evenodd;clip-rule:evenodd;fill:#FDDCCE;}
	.st17{filter:url(#Adobe_OpacityMaskFilter_8_);}
	.st18{mask:url(#hbfb7erfjb_9_);fill-rule:evenodd;clip-rule:evenodd;fill:#FFC622;}
	.st19{filter:url(#Adobe_OpacityMaskFilter_9_);}
	.st20{mask:url(#hbfb7erfjb_10_);fill-rule:evenodd;clip-rule:evenodd;fill:#D56025;}
	.st21{filter:url(#Adobe_OpacityMaskFilter_10_);}
	.st22{mask:url(#hbfb7erfjb_11_);fill-rule:evenodd;clip-rule:evenodd;fill:#F99300;}
	.st23{filter:url(#Adobe_OpacityMaskFilter_11_);}
	.st24{mask:url(#hbfb7erfjb_12_);fill-rule:evenodd;clip-rule:evenodd;fill:#FA9EA0;}
</style>
<defs>
	<filter id="Adobe_OpacityMaskFilter" filterUnits="userSpaceOnUse" x="2" y="2" width="20" height="20">
		<feColorMatrix  type="matrix" values="1 0 0 0 0  0 1 0 0 0  0 0 1 0 0  0 0 0 1 0"/>
	</filter>
</defs>
<mask maskUnits="userSpaceOnUse" x="2" y="2" width="20" height="20" id="hbfb7erfjb_1_">
	<g class="st0">
		<circle id="mr6uajdnca_2_" class="st1" cx="12" cy="12" r="10"/>
	</g>
</mask>
<path class="st2" d="M2,2h20v20H2V2z"/>
<defs>
	<filter id="Adobe_OpacityMaskFilter_1_" filterUnits="userSpaceOnUse" x="2" y="17.6" width="11.7" height="4.4">
		<feColorMatrix  type="matrix" values="1 0 0 0 0  0 1 0 0 0  0 0 1 0 0  0 0 0 1 0"/>
	</filter>
</defs>
<mask maskUnits="userSpaceOnUse" x="2" y="17.6" width="11.7" height="4.4" id="hbfb7erfjb_2_">
	<g class="st3">
		<circle id="mr6uajdnca_3_" class="st1" cx="12" cy="12" r="10"/>
	</g>
</mask>
<path class="st4" d="M2,17.6L13.7,22H2V17.6z"/>
<defs>
	<filter id="Adobe_OpacityMaskFilter_2_" filterUnits="userSpaceOnUse" x="11.4" y="10.3" width="7.1" height="11.7">
		<feColorMatrix  type="matrix" values="1 0 0 0 0  0 1 0 0 0  0 0 1 0 0  0 0 0 1 0"/>
	</filter>
</defs>
<mask maskUnits="userSpaceOnUse" x="11.4" y="10.3" width="7.1" height="11.7" id="hbfb7erfjb_3_">
	<g class="st5">
		<circle id="mr6uajdnca_4_" class="st1" cx="12" cy="12" r="10"/>
	</g>
</mask>
<path class="st6" d="M11.4,12.1l5.3-1.8L18.5,22h-0.9L11.4,12.1z"/>
<defs>
	<filter id="Adobe_OpacityMaskFilter_3_" filterUnits="userSpaceOnUse" x="16.8" y="10.3" width="5.2" height="11.7">
		<feColorMatrix  type="matrix" values="1 0 0 0 0  0 1 0 0 0  0 0 1 0 0  0 0 0 1 0"/>
	</filter>
</defs>
<mask maskUnits="userSpaceOnUse" x="16.8" y="10.3" width="5.2" height="11.7" id="hbfb7erfjb_4_">
	<g class="st7">
		<circle id="mr6uajdnca_5_" class="st1" cx="12" cy="12" r="10"/>
	</g>
</mask>
<path class="st8" d="M16.8,10.3L22,18v4h-3.5L16.8,10.3z"/>
<defs>
	<filter id="Adobe_OpacityMaskFilter_4_" filterUnits="userSpaceOnUse" x="16.8" y="8.6" width="5.2" height="10.6">
		<feColorMatrix  type="matrix" values="1 0 0 0 0  0 1 0 0 0  0 0 1 0 0  0 0 0 1 0"/>
	</filter>
</defs>
<mask maskUnits="userSpaceOnUse" x="16.8" y="8.6" width="5.2" height="10.6" id="hbfb7erfjb_5_">
	<g class="st9">
		<circle id="mr6uajdnca_6_" class="st1" cx="12" cy="12" r="10"/>
	</g>
</mask>
<path class="st10" d="M16.8,10.3L22,8.6v10.6L16.8,10.3z"/>
<defs>
	<filter id="Adobe_OpacityMaskFilter_5_" filterUnits="userSpaceOnUse" x="16.8" y="5.6" width="5.2" height="4.7">
		<feColorMatrix  type="matrix" values="1 0 0 0 0  0 1 0 0 0  0 0 1 0 0  0 0 0 1 0"/>
	</filter>
</defs>
<mask maskUnits="userSpaceOnUse" x="16.8" y="5.6" width="5.2" height="4.7" id="hbfb7erfjb_6_">
	<g class="st11">
		<circle id="mr6uajdnca_7_" class="st1" cx="12" cy="12" r="10"/>
	</g>
</mask>
<path class="st12" d="M16.8,10.3L22,9.2V5.6L16.8,10.3z"/>
<defs>
	<filter id="Adobe_OpacityMaskFilter_6_" filterUnits="userSpaceOnUse" x="16.8" y="2" width="5.2" height="8.3">
		<feColorMatrix  type="matrix" values="1 0 0 0 0  0 1 0 0 0  0 0 1 0 0  0 0 0 1 0"/>
	</filter>
</defs>
<mask maskUnits="userSpaceOnUse" x="16.8" y="2" width="5.2" height="8.3" id="hbfb7erfjb_7_">
	<g class="st13">
		<circle id="mr6uajdnca_8_" class="st1" cx="12" cy="12" r="10"/>
	</g>
</mask>
<path class="st14" d="M16.8,10.3L22,2v5.3L16.8,10.3z"/>
<defs>
	<filter id="Adobe_OpacityMaskFilter_7_" filterUnits="userSpaceOnUse" x="12.8" y="2" width="9.2" height="8.3">
		<feColorMatrix  type="matrix" values="1 0 0 0 0  0 1 0 0 0  0 0 1 0 0  0 0 0 1 0"/>
	</filter>
</defs>
<mask maskUnits="userSpaceOnUse" x="12.8" y="2" width="9.2" height="8.3" id="hbfb7erfjb_8_">
	<g class="st15">
		<circle id="mr6uajdnca_9_" class="st1" cx="12" cy="12" r="10"/>
	</g>
</mask>
<path class="st16" d="M16.8,10.3l-3.9-2.1L18.9,2H22v1.7L16.8,10.3z"/>
<defs>
	<filter id="Adobe_OpacityMaskFilter_8_" filterUnits="userSpaceOnUse" x="2" y="2" width="20" height="6.1">
		<feColorMatrix  type="matrix" values="1 0 0 0 0  0 1 0 0 0  0 0 1 0 0  0 0 0 1 0"/>
	</filter>
</defs>
<mask maskUnits="userSpaceOnUse" x="2" y="2" width="20" height="6.1" id="hbfb7erfjb_9_">
	<g class="st17">
		<circle id="mr6uajdnca_10_" class="st1" cx="12" cy="12" r="10"/>
	</g>
</mask>
<path class="st18" d="M12.8,8.1L2,3.4V2h20L12.8,8.1z"/>
<defs>
	<filter id="Adobe_OpacityMaskFilter_9_" filterUnits="userSpaceOnUse" x="2" y="2" width="10.8" height="6.1">
		<feColorMatrix  type="matrix" values="1 0 0 0 0  0 1 0 0 0  0 0 1 0 0  0 0 0 1 0"/>
	</filter>
</defs>
<mask maskUnits="userSpaceOnUse" x="2" y="2" width="10.8" height="6.1" id="hbfb7erfjb_10_">
	<g class="st19">
		<circle id="mr6uajdnca_11_" class="st1" cx="12" cy="12" r="10"/>
	</g>
</mask>
<path class="st20" d="M12.8,8.1L2,2v5L12.8,8.1z"/>
<defs>
	<filter id="Adobe_OpacityMaskFilter_10_" filterUnits="userSpaceOnUse" x="2" y="6.1" width="10.8" height="11.7">
		<feColorMatrix  type="matrix" values="1 0 0 0 0  0 1 0 0 0  0 0 1 0 0  0 0 0 1 0"/>
	</filter>
</defs>
<mask maskUnits="userSpaceOnUse" x="2" y="6.1" width="10.8" height="11.7" id="hbfb7erfjb_11_">
	<g class="st21">
		<circle id="mr6uajdnca_12_" class="st1" cx="12" cy="12" r="10"/>
	</g>
</mask>
<path class="st22" d="M12.8,8.1L2,17.8V6.1L12.8,8.1z"/>
<defs>
	<filter id="Adobe_OpacityMaskFilter_11_" filterUnits="userSpaceOnUse" x="2" y="8.1" width="14.8" height="9.4">
		<feColorMatrix  type="matrix" values="1 0 0 0 0  0 1 0 0 0  0 0 1 0 0  0 0 0 1 0"/>
	</filter>
</defs>
<mask maskUnits="userSpaceOnUse" x="2" y="8.1" width="14.8" height="9.4" id="hbfb7erfjb_12_">
	<g class="st23">
		<circle id="mr6uajdnca_13_" class="st1" cx="12" cy="12" r="10"/>
	</g>
</mask>
<path class="st24" d="M12.8,8.1L2,17.6l14.8-7.3L12.8,8.1z"/>
</svg>
