<svg xmlns="http://www.w3.org/2000/svg" viewBox="0 0 24 24" width="24" height="24"><path d="M8.2,1.6C7.9,1.2,8,0.5,8.4,0.2C8.6,0.1,8.8,0,9,0h6c0.6,0,1,0.4,1,1c0,0.2-0.1,0.4-0.2,0.6l-1,1.4H9.3L8.2,1.6 z M23,15.6C23,22,18.1,23,12,23S1,22,1,15.6C1,10.8,5.8,6,9.3,4h5.5C18.2,6,23,10.8,23,15.6z M9,13c0-0.6-0.4-1-1-1s-1,0.4-1,1 s0.4,1,1,1S9,13.6,9,13z M14.5,16.5c0-0.3-0.2-0.5-0.5-0.5h-4c-0.3,0-0.5,0.2-0.5,0.5S9.7,17,10,17h4C14.3,17,14.5,16.8,14.5,16.5z  M17,13c0-0.6-0.4-1-1-1s-1,0.4-1,1s0.4,1,1,1S17,13.6,17,13z"/></svg>