<svg xmlns="http://www.w3.org/2000/svg" viewBox="0 0 24 24" width="24" height="24"><path d="M9.6,9.7v4.7H8v-4.2c0-1.3-0.7-1.4-0.8-1.4h0V7C9.5,7,9.6,9.2,9.6,9.7z M6.6,11.9c0,2.6-2.4,2.7-2.4,2.7c-1,0-1.4-0.7-1.4-0.7v0.6H1V7.2h1.7v2.7c0.7-0.7,1.5-0.7,1.5-0.7C6.5,9.2,6.6,11.9,6.6,11.9z M4.9,11.9c0-0.6-0.5-1.1-1.1-1.1c-0.6,0-1.1,0.5-1.1,1.1c0,0.6,0.5,1.1,1.1,1.1C4.4,13,4.9,12.5,4.9,11.9z M23,9.4v4.9c0,2.6-2.2,2.7-2.5,2.7h-0.7v-1.5h0.4c1.2,0,1.1-1.3,1.1-1.3v-0.4c-0.5,0.6-1.3,0.7-1.5,0.7h0c-2.2,0-2.4-2.2-2.4-2.5v0c0-2.5,2-2.6,2.4-2.6h0c1,0,1.5,0.7,1.5,0.7V9.4H23z M21.4,11.9c0-0.6-0.5-1.1-1.1-1.1c-0.6,0-1.1,0.5-1.1,1.1c0,0.6,0.5,1.1,1.1,1.1C20.9,13,21.4,12.5,21.4,11.9z M16.6,11.9L16.6,11.9c0,2.7-2.9,2.7-2.9,2.7c-2.7,0-2.8-2.2-2.8-2.6v-0.1c0-2.5,2.5-2.6,2.8-2.7l0,0C16.4,9.3,16.6,11.5,16.6,11.9z M14.8,11.9c0-0.6-0.5-1.1-1.1-1.1c-0.6,0-1.1,0.5-1.1,1.1c0,0.6,0.5,1.1,1.1,1.1C14.3,13,14.8,12.5,14.8,11.9z"/></svg>