<svg xmlns="http://www.w3.org/2000/svg" viewBox="0 0 24 24" width="24" height="24"><path d="M22,21.4c0,0,0-0.1,0-0.1c0,0,0-0.1,0-0.1c0,0,0,0,0,0L12.7,5.9l1.8-2.9c0.2-0.3,0.1-0.7-0.2-0.8 c-0.3-0.2-0.7-0.1-0.8,0.2L12,4.7l-1.5-2.4C10.3,2,10,1.9,9.7,2.1C9.4,2.3,9.3,2.6,9.5,2.9l1.8,2.9L2.1,21.1c0,0,0,0,0,0 c0,0,0,0.1,0,0.1c0,0,0,0.1,0,0.1c0,0,0,0,0,0c0,0,0,0,0,0.1c0,0,0,0.1,0,0.1c0,0,0,0.1,0,0.1c0,0,0,0.1,0.1,0.1 c0,0,0.1,0.1,0.1,0.1c0,0,0,0,0.1,0c0,0,0,0,0,0C2.4,22,2.5,22,2.6,22h18.8c0.1,0,0.2,0,0.3-0.1c0,0,0,0,0,0c0,0,0,0,0.1,0 c0,0,0.1-0.1,0.1-0.1c0,0,0-0.1,0.1-0.1c0,0,0-0.1,0-0.1c0,0,0-0.1,0-0.1C22,21.4,22,21.4,22,21.4C22,21.4,22,21.4,22,21.4z M12,7 l1.6,2.6L12,10.8l-1.6-1.2L12,7z M8.5,20.8H3.7L5,18.6h3.5V20.8z M14.2,20.8H9.7v-3v0c0-1.3,1-2.3,2.3-2.3c1.3,0,2.3,1,2.3,2.3V20.8 z M11.9,14.3c-1.8,0-3.3,1.4-3.4,3.1H5.7l4.1-6.8l2.2,1.7l2.2-1.6l4.1,6.7h-2.9C15.2,15.7,13.7,14.3,11.9,14.3z M15.4,20.8v-2.2H19 c0,0,0,0,0,0l1.3,2.2H15.4z"/></svg>