<svg xmlns="http://www.w3.org/2000/svg" viewBox="0 0 24 24" width="24" height="24"><path d="M18.2,5.5C18.2,5.5,18.2,5.5,18.2,5.5C18.3,5.5,18.3,5.5,18.2,5.5L18.2,5.5z M18.7,5.4L18.7,5.4l-0.4,0.1C18.5,5.4,18.6,5.4,18.7,5.4z M20.5,4.9c-0.1,0-0.2,0-0.2,0.1c0,0,0,0,0,0L20.5,4.9z M12,6c1.8,0,3.5-0.1,5-0.3l0.4-0.1l0.1,0c0.2,0,0.3-0.1,0.5-0.1c0.1,0,0.2,0,0.3,0c0.1,0,0.3-0.1,0.4-0.1c0.2-0.1,0.5-0.1,0.7-0.2c0.3-0.1,0.5-0.1,0.8-0.2c0,0,0,0,0.1,0C22,4.5,23,3.8,23,3c0-1.7-4.9-3-11-3S1,1.3,1,3S5.9,6,12,6z M20.5,5.8c1-0.3,1.9-0.8,2.5-1.2V20c0,1.7-4.9,3-11,3c-6,0-10.8-1.3-11-2.9L1,20L1,4.6C2.8,6,7.1,7,12,7c1.8,0,3.5-0.1,5-0.4v3.9c0,0.3,0.2,0.5,0.5,0.5s0.5-0.2,0.5-0.5v-2l0-0.1C18,8.2,18.3,8,18.5,8C18.8,8,19,8.2,19,8.5V12c0,0.6,0.2,1,0.8,1s0.8-0.4,0.8-1L20.5,5.8z M6,13c0-0.6-0.4-1-1-1s-1,0.4-1,1s0.4,1,1,1S6,13.6,6,13z M11.5,16.5c0-0.3-0.2-0.5-0.5-0.5H7c-0.3,0-0.5,0.2-0.5,0.5S6.7,17,7,17h4C11.3,17,11.5,16.8,11.5,16.5z M14,13c0-0.6-0.4-1-1-1s-1,0.4-1,1s0.4,1,1,1S14,13.6,14,13z M23,4.6L23,4.6C23,4.6,23,4.6,23,4.6L23,4.6z"/></svg>