<svg xmlns="http://www.w3.org/2000/svg" width="24" height="24" viewBox="0 0 24 24"><path d="M22.8,13.2l-5.5-3.7L12,13L6.8,9.5l-5.5,3.7C1.1,13.2,1,13.3,1,13.4c-0.3,0.5-0.2,1.1,0.3,1.4l9.6,6.4 c0.3,0.2,0.7,0.3,1.1,0.3l0.2,0c0.3,0,0.7-0.1,0.9-0.3l9.6-6.4c0.1-0.1,0.2-0.2,0.3-0.3C23.3,14.1,23.2,13.5,22.8,13.2z M2,14 l4.8-3.2l4.3,2.8l-4.8,3.2L2,14z M12.5,20.3l-0.1,0.1c-0.3,0.1-0.6,0.1-0.9-0.1l-4.3-2.8l4.8-3.2l4.8,3.2L12.5,20.3z M17.8,16.8 L13,13.7l4.3-2.8L22,14L17.8,16.8z M19,6.4l-5.9-3.7c-0.6-0.4-1.5-0.4-2.1,0L5,6.4l7,4.4L19,6.4z M11.5,3.6l0.1-0.1 c0.3-0.1,0.6-0.1,0.8,0.1l4.4,2.8L12,9.5L7.1,6.4L11.5,3.6z"/></svg>
