<svg xmlns="http://www.w3.org/2000/svg" width="24" height="24" viewBox="0 0 24 24"><path d="M19,2H5C4.4,2,4,2.4,4,3v18c0,0.6,0.4,1,1,1h14c0.6,0,1-0.4,1-1V3C20,2.4,19.6,2,19,2z M8,19c-0.4,0-0.8-0.3-0.8-0.8 s0.3-0.8,0.8-0.8s0.8,0.3,0.8,0.8S8.4,19,8,19z M8,15.3c-0.4,0-0.8-0.3-0.8-0.8s0.3-0.8,0.8-0.8s0.8,0.3,0.8,0.8S8.4,15.3,8,15.3z  M8,11.5c-0.4,0-0.8-0.3-0.8-0.8S7.6,10,8,10s0.8,0.3,0.8,0.8S8.4,11.5,8,11.5z M12,19c-0.4,0-0.8-0.3-0.8-0.8s0.3-0.8,0.8-0.8 s0.8,0.3,0.8,0.8S12.4,19,12,19z M12,15.3c-0.4,0-0.8-0.3-0.8-0.8s0.3-0.8,0.8-0.8s0.8,0.3,0.8,0.8S12.4,15.3,12,15.3z M12,11.5 c-0.4,0-0.8-0.3-0.8-0.8S11.6,10,12,10s0.8,0.3,0.8,0.8S12.4,11.5,12,11.5z M16.6,18.6c0,0.3-0.3,0.6-0.6,0.6 c-0.3,0-0.6-0.3-0.6-0.6v-4.5c0-0.3,0.3-0.6,0.6-0.6c0.3,0,0.6,0.3,0.6,0.6V18.6z M16,11.5c-0.4,0-0.8-0.3-0.8-0.8S15.6,10,16,10 s0.8,0.3,0.8,0.8S16.4,11.5,16,11.5z M18.5,7c0,0.3-0.3,0.5-0.6,0.5H6.1C5.8,7.5,5.5,7.3,5.5,7V4c0-0.3,0.3-0.5,0.6-0.5h11.8 c0.3,0,0.6,0.2,0.6,0.5V7z"/></svg>
