<svg xmlns="http://www.w3.org/2000/svg" viewBox="0 0 24 24" width="24" height="24"><path d="M5.6,19.8H15V21H5.6c-1.4,0-2.5-1.1-2.6-2.4l0-0.2V5.6C3,4.2,4.1,3.1,5.4,3l0.2,0h12.8c1.4,0,2.5,1.1,2.6,2.4l0,0.2V15h-1.2 V5.6c0-0.7-0.6-1.3-1.3-1.4l-0.1,0H5.6c-0.7,0-1.3,0.6-1.4,1.3l0,0.1v12.8c0,0.7,0.6,1.3,1.3,1.4L5.6,19.8z M20.4,20.4 c-0.8,0.8-2.1,0.8-2.9,0l-7.2-7.1v-2.1l-0.8-0.8l0.8-0.8l0.8,0.8c0.8,0,2,0,2,0l7.2,7.2C21.2,18.4,21.2,19.6,20.4,20.4z M11.6,12.8 l5.9,5.8l1.2-1.2l-5.9-5.9h-1.2V12.8z M19.6,18.4L19.6,18.4l-1.2,1.1l0.1,0.1c0.3,0.3,0.8,0.3,1.1,0.1l0.1-0.1 C19.9,19.3,19.9,18.7,19.6,18.4z"/></svg>