<svg xmlns="http://www.w3.org/2000/svg" width="40" height="40" viewBox="0 0 40 40">
    <g fill="none" fill-rule="evenodd">
        <g>
            <g>
                <g>
                    <g transform="translate(-34 -200) translate(0 160) translate(20 40) translate(14)">
                        <rect width="26.8" height="34.8" x="6.6" y="2.6" fill="#FFF" stroke="#1C1814" stroke-width="1.2" rx="2"/>
                        <rect width="18.8" height="4.8" x="10.6" y="8.6" fill="#62D7AB" stroke="#1C1814" stroke-width="1.2" rx="1"/>
                        <path fill="#1C1814" d="M17.5 31c.552 0 1 .448 1 1s-.448 1-1 1-1-.448-1-1 .448-1 1-1zm-5 0c.552 0 1 .448 1 1s-.448 1-1 1-1-.448-1-1 .448-1 1-1zm10 0c.552 0 1 .448 1 1s-.448 1-1 1-1-.448-1-1 .448-1 1-1zm5-5c.331 0 .6.269.6.6v5.8c0 .331-.269.6-.6.6-.331 0-.6-.269-.6-.6v-5.8c0-.331.269-.6.6-.6zm-10-1c.552 0 1 .448 1 1s-.448 1-1 1-1-.448-1-1 .448-1 1-1zm-5 0c.552 0 1 .448 1 1s-.448 1-1 1-1-.448-1-1 .448-1 1-1zm10 0c.552 0 1 .448 1 1s-.448 1-1 1-1-.448-1-1 .448-1 1-1zm-5-6c.552 0 1 .448 1 1s-.448 1-1 1-1-.448-1-1 .448-1 1-1zm-5 0c.552 0 1 .448 1 1s-.448 1-1 1-1-.448-1-1 .448-1 1-1zm10 0c.552 0 1 .448 1 1s-.448 1-1 1-1-.448-1-1 .448-1 1-1zm5 0c.552 0 1 .448 1 1s-.448 1-1 1-1-.448-1-1 .448-1 1-1z"/>
                    </g>
                </g>
            </g>
        </g>
    </g>
</svg>
