<svg xmlns="http://www.w3.org/2000/svg" viewBox="0 0 24 24" width="24" height="24"><path d="M15,13.7c0,1.7-1.2,2.6-3.2,2.6c-1.1,0-2.1-0.2-2.8-0.6v-1.4c0.7,0.3,1.3,0.5,2.5,0.5c1.2,0,1.7-0.4,1.7-1 c0-0.6-0.3-0.9-1.2-1.1l-0.8-0.2C9.8,12.4,9,11.7,9,10.2c0-1.5,1-2.5,3.1-2.5c1.1,0,1.9,0.2,2.4,0.5v1.4c-0.5-0.2-1.3-0.5-2.3-0.5 c-1,0-1.5,0.3-1.5,1c0,0.6,0.3,0.8,1.1,1l0.8,0.2C14.4,11.6,15,12.3,15,13.7z M21,12c0,5-4,9-9,9s-9-4-9-9s4-9,9-9S21,7,21,12z  M19.7,12c0-4.2-3.4-7.7-7.7-7.7S4.3,7.8,4.3,12s3.4,7.7,7.7,7.7S19.7,16.2,19.7,12z"/></svg>