<svg xmlns="http://www.w3.org/2000/svg" width="24" height="24" viewBox="0 0 24 24"><path d="M15.5,14.9c-0.7,0-1.4,0.3-1.9,0.8l-3.6-2.8c0-0.1,0-0.2,0-0.3c0-0.3-0.1-0.7-0.2-0.9l3.9-3.1c0.5,0.4,1.1,0.6,1.7,0.6 c1.4,0,2.6-1.2,2.6-2.6s-1.2-2.6-2.6-2.6s-2.6,1.2-2.6,2.6c0,0.3,0.1,0.7,0.2,1l-3.9,3.1c-0.5-0.4-1.1-0.7-1.7-0.7 c-1.4,0-2.6,1.2-2.6,2.6s1.2,2.6,2.6,2.6c0.9,0,1.6-0.4,2.1-1.1l3.4,2.7c-0.1,0.2-0.1,0.5-0.1,0.8c0,1.4,1.2,2.6,2.6,2.6 s2.6-1.2,2.6-2.6S16.9,14.9,15.5,14.9z M15.5,5.1c0.8,0,1.4,0.6,1.4,1.4s-0.6,1.4-1.4,1.4s-1.4-0.6-1.4-1.4S14.7,5.1,15.5,5.1z  M7.5,13.9c-0.8,0-1.4-0.6-1.4-1.4s0.6-1.4,1.4-1.4s1.4,0.6,1.4,1.4S8.3,13.9,7.5,13.9z M15.5,18.9c-0.8,0-1.4-0.6-1.4-1.4 s0.6-1.4,1.4-1.4s1.4,0.6,1.4,1.4S16.3,18.9,15.5,18.9z"/></svg>
