<svg xmlns="http://www.w3.org/2000/svg" viewBox="0 0 24 24" width="24" height="24"><path d="M10.5,9.8c0,0.4-0.3,0.8-0.8,0.8C9.3,10.5,9,10.2,9,9.8S9.3,9,9.8,9C10.2,9,10.5,9.3,10.5,9.8z M14.2,12.1 c-0.3,0.3-0.8,0.4-1.2,0.4c-0.4,0-0.9-0.1-1.2-0.4c-0.2-0.2-0.5-0.1-0.7,0.1c-0.2,0.2-0.1,0.5,0.1,0.7c0.5,0.4,1.1,0.6,1.8,0.6 c0.7,0,1.3-0.2,1.8-0.6c0.2-0.2,0.3-0.5,0.1-0.7C14.7,12,14.4,11.9,14.2,12.1z M20.8,12.2c0,4.9-3.9,8.8-8.8,8.8H3.8 c-0.2,0-0.4-0.1-0.5-0.3c-0.1-0.2-0.1-0.4,0.1-0.6l1.8-2.4c-1.2-1.6-1.9-3.5-1.9-5.5c0-4.9,3.9-8.8,8.8-8.8 C16.9,3.4,20.8,7.3,20.8,12.2z M19.6,12.2c0-4.2-3.4-7.6-7.6-7.6c-4.2,0-7.6,3.4-7.6,7.6c0,1.9,0.7,3.6,1.9,5c0.2,0.2,0.2,0.5,0,0.8 L5,19.8h7C16.2,19.8,19.6,16.4,19.6,12.2z M16.3,9c-0.4,0-0.8,0.3-0.8,0.8s0.3,0.8,0.8,0.8c0.4,0,0.8-0.3,0.8-0.8S16.7,9,16.3,9z"/></svg>