<svg xmlns="http://www.w3.org/2000/svg" viewBox="0 0 24 24" width="24" height="24"><path d="M23,7.7l-6.1-1.8l-3.6-5.3c-0.1-0.1-0.2-0.3-0.4-0.4v0c-0.7-0.5-1.6-0.3-2,0.4L7.2,5.9L1,7.7C0.9,7.8,0.7,7.9,0.6,8C-0.1,8.5-0.2,9.4,0.3,10l3.9,5.1L4,21.5c0,0.2,0,0.4,0.1,0.5c0.3,0.8,1.1,1.2,1.9,0.9l6-2.1l6,2.1c0.2,0.1,0.4,0.1,0.5,0.1c0.8,0,1.4-0.7,1.4-1.5l-0.2-6.4l3.9-5.1c0.1-0.1,0.2-0.3,0.2-0.5C24.2,8.8,23.7,8,23,7.7z M8,12c-0.6,0-1-0.4-1-1s0.4-1,1-1s1,0.4,1,1S8.6,12,8,12z M14,15h-4c-0.3,0-0.5-0.2-0.5-0.5S9.7,14,10,14h4c0.3,0,0.5,0.2,0.5,0.5S14.3,15,14,15z M16,12c-0.6,0-1-0.4-1-1s0.4-1,1-1s1,0.4,1,1S16.6,12,16,12z"/></svg>