<svg xmlns="http://www.w3.org/2000/svg" viewBox="0 0 24 24" width="24" height="24"><path d="M10.6,14.6c0-0.3,0.2-0.5,0.5-0.6l0.1,0h1.4c0.3,0,0.6,0.3,0.6,0.6c0,0.3-0.2,0.5-0.5,0.6l-0.1,0h-1.4 C10.9,15.2,10.6,14.9,10.6,14.6z M21.1,4.6v10.6c0,0.8-0.6,1.5-1.5,1.6l-0.1,0h-5.3l0.8,2.7l0,0h1.3c0.3,0,0.6,0.3,0.6,0.6 c0,0.3-0.2,0.5-0.5,0.6l-0.1,0H7.6c-0.3,0-0.6-0.3-0.6-0.6c0-0.3,0.2-0.5,0.5-0.6l0.1,0h1.3l0,0l0.8-2.7H4.5c-0.8,0-1.5-0.6-1.6-1.5 l0-0.1V4.6c0-0.8,0.6-1.5,1.5-1.6l0.1,0h15c0.8,0,1.5,0.6,1.6,1.5L21.1,4.6z M13.8,19.5l-0.8-2.7H11l-0.8,2.7H13.8z M19.9,13.6H4.1 v1.6c0,0.2,0.1,0.4,0.3,0.4l0.1,0h15c0.2,0,0.4-0.1,0.4-0.3l0-0.1V13.6z M19.9,4.6c0-0.2-0.1-0.4-0.3-0.4l-0.1,0h-15 c-0.2,0-0.4,0.1-0.4,0.3l0,0.1v7.8h15.8V4.6z"/></svg>