<svg xmlns="http://www.w3.org/2000/svg" viewBox="0 0 24 24" width="24" height="24"><path d="M18.6,4.5c1.3,0,2.4,1.1,2.4,2.4v7.9c0,1.3-1.1,2.4-2.4,2.4H14l-1.6,3.7l0,0l0,0l0,0c0,0.1-0.1,0.2-0.3,0.3l0,0l0,0c-0.2,0-0.3-0.2-0.3-0.2l0,0l0,0l0,0l-1.6-3.7H5.4c-1.3,0-2.4-1.1-2.4-2.4V6.9c0-1.3,1.1-2.4,2.4-2.4H18.6z M17.8,10c-0.2-0.2-0.4-0.3-0.6-0.4l0,0l0,0l0,0l0,0l0,0l0,0h-0.1l-0.1,0c-0.7,0.1-1.1,0.4-1.3,0.8l0,0l0,0l0,0l0,0l0,0l0,0l0,0l0,0l0,0l0,0.1l0,0l0,0.1l0,0l0,0.1l0,0.1v0.5c0,0.6,0.3,1,0.7,1.2l0,0c0,0,0.1,0,0.1,0l0,0l0,0l0,0l0,0l0,0l0.1,0l0.1,0l0,0l0,0l0.1,0l0,0c0.5,0,0.7-0.1,0.9-0.2l0,0l0,0l0,0l0,0l0,0l0,0l0,0l0,0l0,0l0,0v0c0,0.6-0.2,0.8-0.4,0.9l0,0l0,0l0,0l0,0l0,0l0,0l0,0l0,0h-0.3v1h0.5c0.8,0,1.2-0.4,1.4-0.8l0,0l0-0.1l0,0l0,0l0,0l0,0l0,0l0,0l0,0l0,0l0,0l0-0.1l0-0.1l0-0.1l0,0l0-0.1V9.7h-1.1C17.8,9.7,17.8,10,17.8,10z M13,9.6c-1,0-1.8,0.7-1.8,1.6c0,0.9,0.8,1.6,1.8,1.6s1.8-0.7,1.8-1.6C14.8,10.4,14,9.6,13,9.6L13,9.6z M6.3,10V8.3l-0.5,0l-0.3,0H5.3l-0.1,0l0,0l0,0v4.4h1.1v-0.3l0,0l0,0l0,0l0,0l0,0l0,0c0.1,0.1,0.4,0.2,0.7,0.3l0,0l0,0l0.1,0l0.1,0l0.1,0l0.1,0l0,0l0,0l0,0l0,0l0,0l0,0l0,0l0,0l0,0l0,0l0,0c0.4-0.2,0.7-0.5,0.7-1.2l0,0l0,0l0-0.1v0l0-0.1l0-0.1l0-0.1l0,0l0,0l0,0l0,0l0,0l0,0l0,0l0,0l0,0l0,0l0-0.1l0-0.1l0-0.1l0-0.1C8.4,10.1,8,9.7,7.3,9.6l0,0h0l0,0l0,0l-0.1,0l0,0l0,0l0,0l-0.1,0l-0.1,0C6.6,9.7,6.4,9.8,6.3,10C6.3,10,6.3,10,6.3,10z M9,8.2v1.1l0,0l0,0l0,0l0,0l0,0l0,0c0.1,0.1,0.3,0.2,0.3,0.4l0,0v3h1.1v-3l0,0v0l0,0l0,0l0,0l0-0.1l0,0l0,0l0,0l0,0l0,0l0,0l0,0l0,0l0,0l0,0l0,0l0,0l0,0C10.2,8.6,9.8,8.2,9,8.2L9,8.2z M13,10.6c0.4,0,0.7,0.3,0.7,0.7c0,0.4-0.3,0.7-0.7,0.7s-0.7-0.3-0.7-0.7S12.7,10.6,13,10.6z M17.1,10.6c0.4,0,0.7,0.3,0.7,0.7c0,0.4-0.3,0.7-0.7,0.7c-0.4,0-0.7-0.3-0.7-0.7C16.5,10.9,16.8,10.6,17.1,10.6L17.1,10.6z M6.9,10.7c0.3,0,0.6,0.3,0.6,0.6c0,0.3-0.3,0.6-0.6,0.6s-0.6-0.3-0.6-0.6C6.3,10.9,6.6,10.7,6.9,10.7z"/></svg>