<svg xmlns="http://www.w3.org/2000/svg" width="24" height="24" viewBox="0 0 24 24"><path d="M16,4.4l-0.2,0c-1.5,0.1-2.8,0.8-3.7,1.9L12,6.4l-0.1-0.1C11,5.2,9.5,4.4,8,4.4c-2.6,0-4.6,2-4.6,4.5c0,0.8,0.2,1.6,0.6,2.4C4.6,12.4,5.5,13.5,7,15l4.1,3.9c0.2,0.2,0.4,0.4,0.5,0.5c0.2,0.2,0.6,0.2,0.8,0l1.3-1.2c1.3-1.2,3-2.8,3.3-3.2l0.5-0.5c1.2-1.2,1.9-2.1,2.4-3.1c0.4-0.8,0.6-1.6,0.6-2.4C20.6,6.4,18.6,4.4,16,4.4z M18.9,10.8c-0.5,0.9-1.2,1.8-2.5,3.1L16,14.4c-0.7,0.7-2.7,2.6-3.8,3.7L12,18.2l-4.2-4c-1.4-1.4-2.2-2.4-2.7-3.3c-0.3-0.6-0.5-1.3-0.5-1.9C4.6,7,6.1,5.6,8,5.6c1.5,0,2.9,1,3.4,2.2c0.2,0.5,0.9,0.5,1.1,0c0.5-1.3,2-2.2,3.4-2.2c1.9,0,3.4,1.4,3.4,3.3C19.4,9.6,19.2,10.2,18.9,10.8z"/></svg>