<svg xmlns="http://www.w3.org/2000/svg" viewBox="0 0 24 24" width="24" height="24"><path d="M21.8,13.2v-3c0-0.3-0.3-0.6-0.6-0.6c-0.3,0-0.6,0.3-0.6,0.6v1.3l-7.7-5.1c-0.1-0.1-0.2-0.1-0.3-0.1V3.6 C12.6,3.3,12.3,3,12,3s-0.6,0.3-0.6,0.6v2.7c-0.1,0-0.2,0.1-0.3,0.1l-7.7,5.1v-1.3c0-0.3-0.3-0.6-0.6-0.6s-0.6,0.3-0.6,0.6v3 c0,0.5,0.3,1,0.7,1.3l8.2,5.4c0.3,0.2,0.6,0.3,0.9,0.3s0.6-0.1,0.9-0.3l8.2-5.4C21.5,14.2,21.8,13.7,21.8,13.2L21.8,13.2z M11.8,7.5 c0.1,0,0.1-0.1,0.2-0.1s0.2,0,0.2,0.1l5.5,3.6l-1.9,1.2l-5.8-3.8L11.8,7.5z M14.8,13.1l-2.7,1.8l-2.6-1.7l2.7-1.8L14.8,13.1z  M3.6,13.5c-0.2-0.1-0.2-0.3-0.2-0.3c0-0.1,0-0.2,0.2-0.3L9,9.3l2,1.3l-5.9,4L3.6,13.5z M12.2,18.9c-0.1,0.1-0.3,0.1-0.4,0l-5.5-3.6 l2.1-1.4l5.7,3.8L12.2,18.9z M20.4,13.5L15.2,17l-2-1.4l5.7-3.8l1.6,1c0.2,0.1,0.2,0.3,0.2,0.3C20.6,13.3,20.6,13.4,20.4,13.5z"/></svg>