<svg xmlns="http://www.w3.org/2000/svg" viewBox="0 0 24 24" width="24" height="24"><path d="M12.8,18.3c0,0.4-0.3,0.8-0.8,0.8s-0.8-0.3-0.8-0.8s0.3-0.8,0.8-0.8S12.8,17.8,12.8,18.3z M8,10c-0.4,0-0.8,0.3-0.8,0.8 s0.3,0.8,0.8,0.8s0.8-0.3,0.8-0.8S8.4,10,8,10z M12,13.8c-0.4,0-0.8,0.3-0.8,0.8s0.3,0.8,0.8,0.8s0.8-0.3,0.8-0.8S12.4,13.8,12,13.8 z M8,13.8c-0.4,0-0.8,0.3-0.8,0.8s0.3,0.8,0.8,0.8s0.8-0.3,0.8-0.8S8.4,13.8,8,13.8z M8,17.5c-0.4,0-0.8,0.3-0.8,0.8S7.6,19,8,19 s0.8-0.3,0.8-0.8S8.4,17.5,8,17.5z M12,10c-0.4,0-0.8,0.3-0.8,0.8s0.3,0.8,0.8,0.8s0.8-0.3,0.8-0.8S12.4,10,12,10z M17.5,4h-11 C6.2,4,6,4.2,6,4.5v3C6,7.8,6.2,8,6.5,8h11C17.8,8,18,7.8,18,7.5v-3C18,4.2,17.8,4,17.5,4z M20.6,3v18c0,0.9-0.7,1.6-1.6,1.6H5 c-0.9,0-1.6-0.7-1.6-1.6V3c0-0.9,0.7-1.6,1.6-1.6h14C19.9,1.4,20.6,2.1,20.6,3z M19.4,3c0-0.2-0.2-0.4-0.4-0.4H5 C4.8,2.6,4.6,2.8,4.6,3v18c0,0.2,0.2,0.4,0.4,0.4h14c0.2,0,0.4-0.2,0.4-0.4V3z M16,10c-0.4,0-0.8,0.3-0.8,0.8s0.3,0.8,0.8,0.8 s0.8-0.3,0.8-0.8S16.4,10,16,10z M16,13.5c-0.3,0-0.6,0.3-0.6,0.6v4.5c0,0.3,0.3,0.6,0.6,0.6c0.3,0,0.6-0.3,0.6-0.6v-4.5 C16.6,13.8,16.3,13.5,16,13.5z"/></svg>