<svg xmlns="http://www.w3.org/2000/svg" viewBox="0 0 24 24" width="24" height="24"><path d="M20.8,7L19.6,6c-0.4-0.4-0.9-0.5-1.5-0.4V4.7c0-0.9-0.8-1.7-1.7-1.7H5.7C4.8,3,4,3.8,4,4.7v14.6 C4,20.2,4.8,21,5.7,21h10.7c0.9,0,1.7-0.8,1.7-1.7v-6.9l2.7-2.9c0.3-0.3,0.5-0.8,0.4-1.2C21.3,7.8,21.1,7.3,20.8,7z M17,19.3 L17,19.3c0,0.3-0.2,0.5-0.5,0.5H5.7c-0.3,0-0.5-0.2-0.5-0.5V4.7c0-0.3,0.2-0.5,0.5-0.5h10.7c0.3,0,0.5,0.2,0.5,0.5v1.7l-1,1.1H7.6 C7.3,7.5,7,7.8,7,8.1c0,0.3,0.3,0.6,0.6,0.6h7.2l-2.1,2.2H7.6c-0.3,0-0.6,0.3-0.6,0.6c0,0.3,0.3,0.6,0.6,0.6h4l-1.3,1.3l-0.1,1H7.6 C7.3,14.4,7,14.6,7,15c0,0.3,0.3,0.6,0.6,0.6h2.5l-0.3,2.1l4.1-0.7l3.1-3.3V19.3z M20,8.6l-6.7,7.2l-2.1,0.4l0.3-2.2l6.6-7l0,0 c0.2-0.2,0.5-0.2,0.7,0L20,7.9c0.1,0.1,0.2,0.2,0.2,0.3C20.2,8.4,20.1,8.5,20,8.6z"/></svg>