<svg xmlns="http://www.w3.org/2000/svg" width="24" height="24" viewBox="0 0 24 24"><path d="M20,15.7l-2.1-2.1c-0.8-0.8-1.9-0.8-2.7,0L14,14.8l-0.5-0.3l-0.1-0.1c-1.1-0.7-2.2-1.7-3.1-2.9L10,11.3 c-0.3-0.4-0.6-0.8-0.8-1.2l0-0.1l0.2-0.2l0.9-0.9c0.8-0.8,0.8-1.9,0-2.8l-2-2L8.3,4C7.5,3.2,6.4,3.2,5.6,4L4.4,5.1L4.3,5.3 C3.8,5.8,3.5,6.4,3.4,7.1C3.3,8.1,3.5,8.9,3.9,10c0.6,1.7,1.6,3.3,2.9,4.9c1.7,2,3.7,3.6,6,4.7c1.2,0.6,2.3,0.9,3.4,1 c1,0.1,1.9-0.2,2.5-1l0.2-0.2l0.1-0.1l0.8-0.8l0.1-0.1C20.8,17.6,20.8,16.5,20,15.7z M19.1,17.6l-0.8,0.8l-0.3,0.3l-0.2,0.2 c-0.4,0.4-0.9,0.6-1.5,0.6c-0.9-0.1-1.9-0.3-3-0.9c-2.2-1.1-4-2.5-5.6-4.4c-1.2-1.5-2.1-3-2.7-4.5C4.7,8.7,4.6,7.9,4.6,7.2 c0-0.4,0.2-0.8,0.5-1l0.3-0.2l1.1-1.1c0.3-0.3,0.7-0.3,1,0v0l2.1,2.1c0.4,0.4,0.4,0.7,0,1.1L9,8.5L8.6,8.9L8.3,9.3 C8,9.6,7.9,9.9,8,10.3c0.3,0.7,0.7,1.3,1.3,2c1.1,1.3,2.2,2.3,3.4,3.1l0.2,0.1l0.3,0.1l0.5,0.2c0.4,0.2,0.8,0.1,1.1-0.2l0.7-0.7 l0.6-0.6c0.3-0.3,0.7-0.3,1,0l2.1,2.1C19.5,16.9,19.5,17.2,19.1,17.6z"/></svg>
