<svg xmlns="http://www.w3.org/2000/svg" width="40" height="40" viewBox="0 0 40 40">
    <g fill="none" fill-rule="evenodd">
        <g>
            <g>
                <g>
                    <g>
                        <g>
                            <path fill="#FFF" stroke="#1C1814" stroke-width="1.2" d="M26 .6c.387 0 .737.157.99.41s.41.603.41.99h0v8.398l2.132-3.041c.222-.317.551-.514.904-.576.353-.062.73.01 1.046.232h0l1.1.77c.275.193.462.47.546.776.084.306.065.64-.074.947h0L27.4 22.015V34c0 .387-.157.737-.41.99s-.603.41-.99.41h0H2c-.387 0-.737-.157-.99-.41S.6 34.387.6 34h0V2c0-.387.157-.737.41-.99S1.613.6 2 .6h24z" transform="translate(-202 -200) translate(0 160) translate(188 40) translate(14) translate(6 2)"/>
                            <path fill="#1C1814" d="M24.6 26c.331 0 .6.269.6.6v8.8c0 .331-.269.6-.6.6-.331 0-.6-.269-.6-.6v-8.8c0-.331.269-.6.6-.6zm-3 7c.331 0 .6.269.6.6v1.8c0 .331-.269.6-.6.6-.331 0-.6-.269-.6-.6v-1.8c0-.331.269-.6.6-.6zm0-3c.331 0 .6.269.6.6v.8c0 .331-.269.6-.6.6-.331 0-.6-.269-.6-.6v-.8c0-.331.269-.6.6-.6zM3.6 8c.331 0 .6.269.6.6v1.8c0 .331-.269.6-.6.6-.331 0-.6-.269-.6-.6V8.6c0-.331.269-.6.6-.6zm0-8c.331 0 .6.269.6.6v5.8c0 .331-.269.6-.6.6-.331 0-.6-.269-.6-.6V.6c0-.331.269-.6.6-.6zm19 0c.331 0 .6.269.6.6v4.8c0 .331-.269.6-.6.6-.331 0-.6-.269-.6-.6V.6c0-.331.269-.6.6-.6zm-16 0c.331 0 .6.269.6.6v2.8c0 .331-.269.6-.6.6-.331 0-.6-.269-.6-.6V.6c0-.331.269-.6.6-.6z" transform="translate(-202 -200) translate(0 160) translate(188 40) translate(14) translate(6 2) rotate(180 14.1 18)"/>
                        </g>
                        <g transform="translate(-202 -200) translate(0 160) translate(188 40) translate(14) translate(13.5 12)">
                            <rect width="8" height="1.2" x="7.5" y="11" fill="#1C1814" rx=".6" transform="rotate(45 11.5 11.6)"/>
                            <circle cx="6" cy="6" r="5.4" fill="#62D7AB" stroke="#1C1814" stroke-width="1.2"/>
                        </g>
                    </g>
                </g>
            </g>
        </g>
    </g>
</svg>
