<svg xmlns="http://www.w3.org/2000/svg" viewBox="0 0 24 24" width="24" height="24"><path d="M20,13.5L20,13.5l0,6.5H4v-6.4C4,13.3,4.3,13,4.6,13c0.3,0,0.5,0.2,0.6,0.5l0,0.1l0,5.2h13.6l0-5.2c0-0.3,0.2-0.5,0.5-0.6l0.1,0C19.7,13,19.9,13.2,20,13.5z M21.6,8.6c0,2-1.4,3.6-3.6,3.6c-1.2,0-2.2-0.5-2.9-1.4L15,10.7l-0.1,0.1c-0.7,0.8-1.6,1.3-2.7,1.4l-0.2,0c-1.2,0-2.2-0.5-2.9-1.4L9,10.7l-0.1,0.1c-0.7,0.8-1.6,1.3-2.7,1.4l-0.2,0c-2.2,0-3.6-1.6-3.6-3.6l0-0.2c0.2-0.7,0.6-1.7,1.1-2.9l1-2.5h14.8l0.2,0.4c0.8,1.9,1.4,3.3,1.8,4.4l0.2,0.6L21.6,8.6z M8.4,9.4V4.2h-3C4.7,5.8,4.2,7.1,3.9,8L3.6,8.7l0,0.1C3.7,10,4.5,10.9,5.8,11L6,11C7.1,11,7.8,10.5,8.4,9.4z M14.4,9.4V4.2H9.6v5.2c0.6,1.1,1.3,1.6,2.4,1.6C13.1,11,13.8,10.5,14.4,9.4z M20.4,8.7l-0.2-0.5c-0.2-0.4-0.4-1-0.6-1.6l-1-2.4h-3v5.3c0.6,1.1,1.3,1.5,2.4,1.5C19.4,11,20.4,10,20.4,8.7z"/></svg>