<svg xmlns="http://www.w3.org/2000/svg" viewBox="0 0 24 24" width="24" height="24"><path d="M13.8,8.7c0,0.1-0.1,0.2-0.2,0.2l-0.1,0H13v0.5c0,0.1-0.1,0.3-0.3,0.3c-0.1,0-0.2-0.1-0.2-0.2l0-0.1V9H12 c-0.1,0-0.3-0.1-0.3-0.3c0-0.1,0.1-0.2,0.2-0.2l0.1,0h0.5V8c0-0.1,0.1-0.3,0.3-0.3c0.1,0,0.2,0.1,0.2,0.2L13,8v0.5h0.5 C13.7,8.5,13.8,8.6,13.8,8.7z M13.5,16.5H13V16l0-0.1c0-0.1-0.1-0.2-0.2-0.2v0c-0.1,0-0.3,0.1-0.3,0.3v0.5H12l-0.1,0 c-0.1,0-0.2,0.1-0.2,0.2c0,0.1,0.1,0.3,0.3,0.3h0.5v0.5l0,0.1c0,0.1,0.1,0.2,0.2,0.2c0.1,0,0.3-0.1,0.3-0.3V17h0.5l0.1,0 c0.1,0,0.2-0.1,0.2-0.2C13.8,16.6,13.7,16.5,13.5,16.5z M18.5,8.5H18V8l0-0.1c0-0.1-0.1-0.2-0.2-0.2c-0.1,0-0.3,0.1-0.3,0.3v0.5H17 l-0.1,0c-0.1,0-0.2,0.1-0.2,0.2C16.8,8.9,16.9,9,17,9h0.5v0.5l0,0.1c0,0.1,0.1,0.2,0.2,0.2c0.1,0,0.3-0.1,0.3-0.3V9h0.5l0.1,0 c0.1,0,0.2-0.1,0.2-0.2C18.8,8.6,18.7,8.5,18.5,8.5z M21.8,5.9v13.7c0,0.8-0.6,1.5-1.5,1.6l-0.1,0H6.3c-2.2,0-4-1.7-4.3-3.9l0-0.2h0 V6.4c0-2.3,1.8-4.2,4.1-4.2c1.4,0,2.7,0.8,3.4,1.9l0.1,0.2h10.6c0.8,0,1.5,0.6,1.6,1.5L21.8,5.9z M3.2,14c0.7-0.8,1.8-1.2,2.9-1.2 c1.1,0,2,0.4,2.8,1.1L9,14.1V6.4c0-1.6-1.3-3-2.9-3c-1.5,0-2.8,1.2-2.9,2.8l0,0.2V14z M20.6,5.9c0-0.2-0.1-0.4-0.3-0.4l-0.1,0H10.1 c0,0.2,0.1,0.4,0.1,0.6l0,0.2v10.7c0,0.3-0.3,0.6-0.6,0.6c-0.3,0-0.6-0.3-0.6-0.6C9,15.4,7.7,14,6.1,14c-1.6,0-2.9,1.3-2.9,3 c0.1,1.6,1.3,2.9,2.9,3l0.2,0h13.9c0.2,0,0.4-0.1,0.4-0.3l0-0.1V5.9z M18.5,16.5H18V16l0-0.1c0-0.1-0.1-0.2-0.2-0.2v0 c-0.1,0-0.3,0.1-0.3,0.3v0.5H17l-0.1,0c-0.1,0-0.2,0.1-0.2,0.2c0,0.1,0.1,0.3,0.3,0.3h0.5v0.5l0,0.1c0,0.1,0.1,0.2,0.2,0.2 c0.1,0,0.3-0.1,0.3-0.3V17h0.5l0.1,0c0.1,0,0.2-0.1,0.2-0.2C18.8,16.6,18.7,16.5,18.5,16.5z M16,12.5h-0.5V12l0-0.1 c0-0.1-0.1-0.2-0.2-0.2c-0.1,0-0.3,0.1-0.3,0.3v0.5h-0.5l-0.1,0c-0.1,0-0.2,0.1-0.2,0.2c0,0.1,0.1,0.3,0.3,0.3H15v0.5l0,0.1 c0,0.1,0.1,0.2,0.2,0.2c0.1,0,0.3-0.1,0.3-0.3V13H16l0.1,0c0.1,0,0.2-0.1,0.2-0.2C16.3,12.6,16.2,12.5,16,12.5z"/></svg>