<svg xmlns="http://www.w3.org/2000/svg" viewBox="0 0 24 24" width="24" height="24"><path d="M6.7,7.7C6.6,7.2,6.1,6.8,5.6,6.8c-0.5,0-1,0.3-1.2,0.8l-2.9,8c-0.1,0.3,0,0.6,0.3,0.7c0.1,0,0.1,0,0.2,0 c0.5,0,0.9-0.3,1.1-0.8v0L3.6,14h3.6l0.6,1.6C8,16.1,8.4,16.4,9,16.4c0.3,0,0.6-0.3,0.6-0.6c0-0.1,0-0.1,0-0.2L6.7,7.7z M4.1,12.7 l1.3-3.8h0l1.3,3.8H4.1z M22.4,15.7c0,0.4-0.3,0.7-0.7,0.7h-4.1c-0.6,0-1-0.4-1-1V7.7c0-0.5,0.4-0.9,0.9-0.9c0.5,0,0.9,0.4,0.9,0.9 v7.4h3.4C22.1,15.1,22.4,15.4,22.4,15.7z M16,15.7c0,0.4-0.3,0.7-0.7,0.7h-4.1c-0.6,0-1-0.4-1-1V7.7c0-0.5,0.4-0.9,0.9-0.9 c0.5,0,0.9,0.4,0.9,0.9v7.4h3.4C15.7,15.1,16,15.4,16,15.7z"/></svg>