<svg xmlns="http://www.w3.org/2000/svg" viewBox="0 0 24 24" width="24" height="24"><path d="M20.7,7.8c-0.1-0.5-0.5-0.8-1-0.8h-3.1V5.1l0-0.2c-0.1-2.5-2.1-4.5-4.6-4.5c-2.5,0-4.6,2.1-4.6,4.7V7H4.3c-0.5,0-0.9,0.4-1,0.8l-2.1,14c0,0,0,0.1,0,0.2c0,0.6,0.4,1,1,1h19.7c0.1,0,0.1,0,0.2,0c0.5-0.1,0.9-0.6,0.8-1.1L20.7,7.8z M8.6,5.1l0-0.2c0.1-1.9,1.6-3.3,3.4-3.3c1.9,0,3.4,1.6,3.4,3.5V7H8.6V5.1z M8,15c-0.6,0-1-0.4-1-1s0.4-1,1-1s1,0.4,1,1S8.6,15,8,15z M14,18h-4c-0.3,0-0.5-0.2-0.5-0.5S9.7,17,10,17h4c0.3,0,0.5,0.2,0.5,0.5S14.3,18,14,18z M16,15c-0.6,0-1-0.4-1-1s0.4-1,1-1s1,0.4,1,1S16.6,15,16,15z"/></svg>