<svg xmlns="http://www.w3.org/2000/svg" viewBox="0 0 24 24" width="24" height="24"><path d="M4.6,9.4C3.2,9.4,2,10.6,2,12s1.2,2.6,2.6,2.6c1.4,0,2.6-1.2,2.6-2.6S6,9.4,4.6,9.4z M4.6,13.4c-0.8,0-1.4-0.6-1.4-1.4s0.6-1.4,1.4-1.4C5.4,10.6,6,11.2,6,12S5.4,13.4,4.6,13.4z M19.4,9.4c-1.4,0-2.6,1.2-2.6,2.6s1.2,2.6,2.6,2.6c1.4,0,2.6-1.2,2.6-2.6S20.8,9.4,19.4,9.4z M19.4,13.4c-0.8,0-1.4-0.6-1.4-1.4s0.6-1.4,1.4-1.4c0.8,0,1.4,0.6,1.4,1.4S20.2,13.4,19.4,13.4z M12,9.4c-1.4,0-2.6,1.2-2.6,2.6s1.2,2.6,2.6,2.6s2.6-1.2,2.6-2.6S13.4,9.4,12,9.4z M12,13.4c-0.8,0-1.4-0.6-1.4-1.4s0.6-1.4,1.4-1.4s1.4,0.6,1.4,1.4S12.8,13.4,12,13.4z"/></svg>