<svg xmlns="http://www.w3.org/2000/svg" viewBox="0 0 64 48" width="64" height="48">
<path style="fill: #F7D6B2" d="M57,48H24.3l-0.1-0.8c-0.3-1.9-0.3-13.4,0.1-15.3h32.1C56.4,31.9,57.5,45.3,57,48z"/>
<path style="fill: #ECC59B" d="M57,41.4l-8.2,2.5c0,0-5,0-9.4,4C33,42.7,26.7,40.4,24,39.5c0-3.3,0.1-6.6,0.3-7.6h32.1c0,0.2,0.3,3.6,0.5,7.3l0,0.7l0,1L57,41.4L57,41.4z"/>
<path style="fill: #FFF3C2" d="M58.9,35.1c1,0.1,1.9-0.6,2-1.6l1.9-18.2c0.1-1-0.6-1.9-1.6-2l-7.8-0.8c-0.3,0.8-1.1,1.3-1.9,1.2c-0.8-0.1-1.5-0.7-1.6-1.6L24.8,9.5c-1-0.1-1.9,0.6-2,1.6l-1.9,18.2c-0.1,1,0.6,1.9,1.6,2L58.9,35.1L58.9,35.1z"/>
<path style="fill: #FFEA8C" d="M18.8,37.4c-0.8,0-1.4-0.6-1.4-1.4V16.9c0-0.8,0.6-1.4,1.4-1.4h26.1c0.4,0.9,1.2,1.4,2.2,1.4c1,0,1.8-0.6,2.2-1.4h7.9c0.8,0,1.4,0.6,1.4,1.4V36c0,0.8-0.6,1.4-1.4,1.4H18.8z"/>
<path style="fill: #F9DA82" d="M57.1,14.9h-8.2c-0.2,0.8-1,1.4-1.8,1.4c-0.9,0-1.6-0.6-1.8-1.4H18.8c-1.1,0-1.9,0.9-1.9,1.9V36c0,1.1,0.9,1.9,1.9,1.9h38.3c1.1,0,1.9-0.9,1.9-1.9V16.9C59,15.8,58.1,14.9,57.1,14.9 M57.1,15.9c0.5,0,0.9,0.4,0.9,0.9V36c0,0.5-0.4,0.9-0.9,0.9H18.8c-0.5,0-0.9-0.4-0.9-0.9V16.9c0-0.5,0.4-0.9,0.9-0.9h25.8c0.5,0.9,1.5,1.4,2.5,1.4c1,0,2-0.6,2.5-1.4H57.1"/>
<path style="fill: #EF8B30" d="M29.1,28.1c0.1,0,0.3,0,0.4,0.1c0.1,0,0.2,0.1,0.3,0.2c0.1,0.1,0.1,0.2,0.2,0.3c0,0.1,0.1,0.2,0.1,0.3c0,0.2,0,0.3-0.1,0.5c-0.1,0.2-0.1,0.4-0.2,0.5c-0.1,0.2-0.2,0.4-0.4,0.5c-0.2,0.2-0.3,0.3-0.5,0.5l-0.3-0.2c0,0-0.1-0.1-0.1-0.1c0,0,0-0.1,0-0.1c0,0,0-0.1,0-0.1c0,0,0.1-0.1,0.1-0.1c0,0,0.1-0.1,0.1-0.1c0.1-0.1,0.1-0.1,0.2-0.2c0.1-0.1,0.1-0.1,0.1-0.2c0-0.1,0.1-0.2,0.1-0.3c-0.1,0-0.2,0-0.3-0.1c-0.1,0-0.2-0.1-0.2-0.2c-0.1-0.1-0.1-0.2-0.2-0.2c0-0.1-0.1-0.2-0.1-0.3c0-0.1,0-0.2,0.1-0.3c0-0.1,0.1-0.2,0.2-0.2c0.1-0.1,0.2-0.1,0.3-0.2C28.8,28.2,28.9,28.2,29.1,28.1z M25.2,22.8c0.4,0,0.7,0,1,0.1c0.3,0.1,0.5,0.2,0.7,0.4c0.2,0.2,0.3,0.4,0.4,0.6c0.1,0.2,0.1,0.4,0.1,0.7c0,0.2,0,0.4-0.1,0.6c0,0.2-0.1,0.3-0.2,0.4c-0.1,0.1-0.2,0.2-0.3,0.3c-0.1,0.1-0.3,0.2-0.5,0.2c0.8,0.3,1.2,0.8,1.2,1.6c0,0.4-0.1,0.7-0.2,1c-0.1,0.3-0.3,0.5-0.6,0.7c-0.2,0.2-0.5,0.3-0.8,0.4c-0.3,0.1-0.6,0.1-1,0.1c-0.3,0-0.7,0-0.9-0.1c-0.3-0.1-0.5-0.2-0.7-0.3c-0.2-0.1-0.4-0.3-0.6-0.6c-0.2-0.2-0.3-0.5-0.4-0.8l0.7-0.3c0.1,0,0.1,0,0.2-0.1c0.1,0,0.1,0,0.2,0c0.1,0,0.2,0,0.3,0.1c0.1,0,0.1,0.1,0.2,0.2c0.2,0.3,0.3,0.5,0.5,0.6c0.2,0.1,0.4,0.2,0.6,0.2c0.2,0,0.3,0,0.5-0.1c0.1-0.1,0.2-0.1,0.3-0.2c0.1-0.1,0.1-0.2,0.2-0.3c0-0.1,0.1-0.2,0.1-0.3c0-0.1,0-0.3,0-0.4c0-0.1-0.1-0.2-0.2-0.3c-0.1-0.1-0.3-0.1-0.5-0.2c-0.2,0-0.5-0.1-0.8-0.1v-1c0.3,0,0.5,0,0.7-0.1c0.2,0,0.3-0.1,0.4-0.2c0.1-0.1,0.2-0.2,0.2-0.3c0-0.1,0.1-0.2,0.1-0.4c0-0.3-0.1-0.5-0.2-0.6c-0.1-0.1-0.4-0.2-0.6-0.2c-0.1,0-0.2,0-0.3,0c-0.1,0-0.2,0.1-0.3,0.1c-0.1,0.1-0.1,0.1-0.2,0.2c-0.1,0.1-0.1,0.1-0.1,0.2c-0.1,0.1-0.1,0.2-0.2,0.3c-0.1,0.1-0.2,0.1-0.3,0.1c0,0-0.1,0-0.1,0c0,0-0.1,0-0.1,0l-0.8-0.1c0.1-0.3,0.2-0.6,0.3-0.9c0.2-0.3,0.3-0.5,0.6-0.6c0.2-0.2,0.5-0.3,0.8-0.4C24.6,22.8,24.9,22.8,25.2,22.8L25.2,22.8z M33.1,22.8c0.4,0,0.7,0.1,1.1,0.2c0.3,0.1,0.6,0.4,0.9,0.6c0.2,0.3,0.4,0.7,0.6,1.1c0.1,0.4,0.2,1,0.2,1.6c0,0.6-0.1,1.1-0.2,1.6c-0.1,0.4-0.3,0.8-0.6,1.1c-0.2,0.3-0.5,0.5-0.9,0.6c-0.3,0.1-0.7,0.2-1.1,0.2c-0.4,0-0.7-0.1-1.1-0.2c-0.3-0.1-0.6-0.4-0.9-0.6c-0.2-0.3-0.4-0.7-0.6-1.1c-0.1-0.4-0.2-1-0.2-1.6c0-0.6,0.1-1.1,0.2-1.6c0.1-0.4,0.3-0.8,0.6-1.1c0.2-0.3,0.5-0.5,0.9-0.6C32.4,22.8,32.8,22.8,33.1,22.8z M38.9,22.8c0.4,0,0.7,0.1,1.1,0.2c0.3,0.1,0.6,0.4,0.9,0.6c0.2,0.3,0.4,0.7,0.6,1.1c0.1,0.4,0.2,1,0.2,1.6c0,0.6-0.1,1.1-0.2,1.6c-0.1,0.4-0.3,0.8-0.6,1.1c-0.2,0.3-0.5,0.5-0.9,0.6c-0.3,0.1-0.7,0.2-1.1,0.2c-0.4,0-0.7-0.1-1.1-0.2c-0.3-0.1-0.6-0.4-0.9-0.6c-0.2-0.3-0.4-0.7-0.6-1.1c-0.1-0.4-0.2-1-0.2-1.6c0-0.6,0.1-1.1,0.2-1.6c0.1-0.4,0.3-0.8,0.6-1.1c0.2-0.3,0.5-0.5,0.9-0.6C38.2,22.8,38.6,22.8,38.9,22.8z M44.8,22.8c0.4,0,0.7,0.1,1.1,0.2c0.3,0.1,0.6,0.4,0.9,0.6c0.2,0.3,0.4,0.7,0.6,1.1c0.1,0.4,0.2,1,0.2,1.6c0,0.6-0.1,1.1-0.2,1.6c-0.1,0.4-0.3,0.8-0.6,1.1c-0.2,0.3-0.5,0.5-0.9,0.6c-0.3,0.1-0.7,0.2-1.1,0.2c-0.4,0-0.7-0.1-1.1-0.2c-0.3-0.1-0.6-0.4-0.9-0.6c-0.2-0.3-0.4-0.7-0.6-1.1c-0.1-0.4-0.2-1-0.2-1.6c0-0.6,0.1-1.1,0.2-1.6c0.1-0.4,0.3-0.8,0.6-1.1c0.2-0.3,0.5-0.5,0.9-0.6C44,22.8,44.4,22.8,44.8,22.8z M33.1,23.9c-0.1,0-0.3,0-0.4,0.1c-0.1,0.1-0.2,0.2-0.4,0.4c-0.1,0.2-0.2,0.4-0.2,0.7c-0.1,0.3-0.1,0.7-0.1,1.2c0,0.5,0,0.9,0.1,1.2c0.1,0.3,0.1,0.5,0.2,0.7c0.1,0.2,0.2,0.3,0.4,0.4c0.1,0.1,0.3,0.1,0.4,0.1c0.1,0,0.3,0,0.4-0.1c0.1-0.1,0.3-0.2,0.4-0.4c0.1-0.2,0.2-0.4,0.3-0.7c0.1-0.3,0.1-0.7,0.1-1.2c0-0.5,0-0.9-0.1-1.2c-0.1-0.3-0.1-0.5-0.3-0.7c-0.1-0.2-0.2-0.3-0.4-0.4C33.4,24,33.3,23.9,33.1,23.9z M38.9,23.9c-0.1,0-0.3,0-0.4,0.1c-0.1,0.1-0.2,0.2-0.3,0.4c-0.1,0.2-0.2,0.4-0.2,0.7c-0.1,0.3-0.1,0.7-0.1,1.2c0,0.5,0,0.9,0.1,1.2c0.1,0.3,0.1,0.5,0.2,0.7c0.1,0.2,0.2,0.3,0.3,0.4c0.1,0.1,0.3,0.1,0.4,0.1c0.1,0,0.3,0,0.4-0.1c0.1-0.1,0.3-0.2,0.4-0.4c0.1-0.2,0.2-0.4,0.3-0.7c0.1-0.3,0.1-0.7,0.1-1.2c0-0.5,0-0.9-0.1-1.2c-0.1-0.3-0.1-0.5-0.3-0.7c-0.1-0.2-0.2-0.3-0.4-0.4C39.2,24,39.1,23.9,38.9,23.9z M44.8,23.9c-0.1,0-0.3,0-0.4,0.1c-0.1,0.1-0.2,0.2-0.4,0.4c-0.1,0.2-0.2,0.4-0.2,0.7c-0.1,0.3-0.1,0.7-0.1,1.2c0,0.5,0,0.9,0.1,1.2c0.1,0.3,0.1,0.5,0.2,0.7s0.2,0.3,0.4,0.4c0.1,0.1,0.3,0.1,0.4,0.1c0.1,0,0.3,0,0.4-0.1c0.1-0.1,0.3-0.2,0.4-0.4c0.1-0.2,0.2-0.4,0.3-0.7c0.1-0.3,0.1-0.7,0.1-1.2c0-0.5,0-0.9-0.1-1.2c-0.1-0.3-0.1-0.5-0.3-0.7c-0.1-0.2-0.2-0.3-0.4-0.4C45,24,44.9,23.9,44.8,23.9z"/>
<path style="fill: #F7D6B2" d="M49,29.9v17h8v-17c0-2.2-1.8-4-4-4C50.8,25.9,49,27.7,49,29.9"/>
<path style="fill: #FFFFFF; opacity: 0.5" d="M18.6,11.8c-0.4,0.1-0.8-0.1-0.9-0.5l-1.2-4.3C16.4,6.5,16.6,6.1,17,6c0.4-0.1,0.8,0.1,0.9,0.5l1.2,4.3C19.2,11.3,19,11.7,18.6,11.8z M13.2,15.9L9.1,14c-0.4-0.2-0.8,0-1,0.4c-0.2,0.4,0,0.8,0.4,1l4.1,1.9c0.4,0.2,0.8,0,1-0.4C13.7,16.5,13.6,16.1,13.2,15.9z M12.2,9.2c-0.3-0.3-0.8-0.3-1.1,0v0c-0.3,0.3-0.3,0.8,0,1.1l3.2,3.2c0.3,0.3,0.8,0.3,1.1,0c0.3-0.3,0.3-0.8,0-1.1L12.2,9.2z"/>
</svg>