<svg xmlns="http://www.w3.org/2000/svg" viewBox="0 0 88 24" width="88" height="24"><path class="st0" d="M17,6.7c2,0,3.4,0.6,4.4,1.7c0.8,0.9,1.2,2.1,1.2,3.4c0,1.5-0.5,2.8-1.5,3.7c-1,1-2.4,1.5-4.1,1.5c-1.6,0-2.8-0.4-3.8-1.2c-1.2-1-1.8-2.3-1.8-3.9c0-1.5,0.5-2.7,1.5-3.7C13.9,7.2,15.2,6.7,17,6.7L17,6.7z M44.2,6.7c1.1,0,2,0.1,2.7,0.2c0.7,0.1,1.3,0.4,1.7,0.8c0.3,0.3,0.6,0.7,0.8,1.2c0.2,0.5,0.3,1,0.3,1.5v4.4c0,0.5,0,0.8,0.1,1.1c0.1,0.3,0.2,0.6,0.4,1h-3.5c-0.1-0.3-0.2-0.4-0.3-0.6c0-0.1-0.1-0.3-0.1-0.6c-0.5,0.5-1,0.8-1.5,1c-0.7,0.3-1.4,0.4-2.3,0.4c-1.2,0-2.1-0.3-2.7-0.8s-0.9-1.2-0.9-2c0-0.8,0.2-1.4,0.7-1.9s1.2-0.8,2.4-1.1c0.8-0.2,1.5-0.3,2-0.4l0.3-0.1c0.2,0,0.3-0.1,0.4-0.1c0.4-0.1,0.9-0.3,1.3-0.5c0-0.5-0.1-0.8-0.3-1c-0.2-0.2-0.5-0.3-1-0.3c-0.6,0-1.1,0.1-1.4,0.3c-0.2,0.2-0.4,0.4-0.6,0.9l-3.6-0.4c0.1-0.6,0.3-1.1,0.6-1.5c0.3-0.4,0.6-0.7,1.1-0.9c0.3-0.2,0.8-0.3,1.4-0.4C42.9,6.7,43.5,6.7,44.2,6.7z M74.3,6.7c1.4,0,2.5,0.2,3.3,0.6c0.8,0.4,1.4,1,1.9,1.9c0.4,0.8,0.6,1.9,0.6,3.2v0.4h-7.5c0.1,0.6,0.2,1.1,0.5,1.4c0.4,0.4,0.8,0.6,1.4,0.6c0.4,0,0.7-0.1,1.1-0.3c0.2-0.1,0.4-0.3,0.7-0.6l3.7,0.3c-0.6,1-1.2,1.7-2,2.1c-0.8,0.4-1.9,0.6-3.4,0.6c-1.3,0-2.3-0.2-3.1-0.6s-1.4-1-1.8-1.8c-0.5-0.8-0.7-1.7-0.7-2.8c0-1.5,0.5-2.8,1.5-3.7C71.2,7.2,72.6,6.7,74.3,6.7L74.3,6.7z M7,6.7c1,0,1.9,0.3,2.4,0.9c0.6,0.6,0.9,1.6,0.9,2.9v6.3H6.6v-5.4c0-0.6-0.1-1.1-0.3-1.3C6,9.8,5.7,9.6,5.3,9.6c-0.5,0-0.8,0.2-1.1,0.5c-0.3,0.3-0.4,1-0.4,1.9v4.7H0V6.9h3.5v1.6C4,7.9,4.5,7.4,5.1,7.1C5.6,6.8,6.3,6.7,7,6.7L7,6.7z M34.5,6.7c1,0,1.8,0.3,2.4,0.9c0.6,0.6,0.9,1.6,0.9,2.9v6.3h-3.8v-5.4c0-0.6-0.1-1.1-0.3-1.3c-0.2-0.3-0.5-0.4-1-0.4c-0.5,0-0.8,0.2-1.1,0.5c-0.3,0.3-0.4,1-0.4,1.9v4.7h-3.7V6.9H31v1.6c0.5-0.7,1.1-1.1,1.6-1.4C33.1,6.8,33.8,6.7,34.5,6.7L34.5,6.7z M64.4,6.7c1.1,0,1.9,0.3,2.5,0.9c0.6,0.6,0.9,1.6,0.9,3v6.2H64v-5.6c0-0.4-0.1-0.8-0.3-1c-0.3-0.3-0.6-0.5-0.9-0.5c-0.4,0-0.8,0.2-1.1,0.5c-0.3,0.3-0.4,0.8-0.4,1.6v5.1h-3.8v-5.4c0-0.4,0-0.7-0.1-0.9c-0.1-0.2-0.2-0.4-0.4-0.6c-0.2-0.2-0.4-0.2-0.7-0.2c-0.4,0-0.8,0.2-1.1,0.5c-0.3,0.3-0.4,0.9-0.4,1.6v5h-3.8V6.9h3.5v1.4c0.5-0.6,1-1,1.5-1.3c0.5-0.3,1.1-0.4,1.9-0.4c0.8,0,1.4,0.1,1.9,0.4c0.5,0.3,0.8,0.7,1.1,1.2c0.6-0.6,1.1-1.1,1.6-1.3C63.1,6.8,63.7,6.7,64.4,6.7z M46,12.1c-0.5,0.2-1.1,0.4-1.6,0.5c-0.8,0.2-1.2,0.4-1.4,0.6c-0.2,0.2-0.3,0.4-0.3,0.7c0,0.3,0.1,0.5,0.3,0.7c0.2,0.2,0.5,0.3,0.9,0.3c0.4,0,0.8-0.1,1.2-0.3c0.4-0.2,0.6-0.5,0.8-0.7c0.2-0.3,0.2-0.7,0.2-1.1C46,12.7,46,12.1,46,12.1z M17,9.3c-0.5,0-1,0.2-1.4,0.6c-0.4,0.4-0.5,1.1-0.5,1.9c0,0.9,0.2,1.5,0.5,2c0.4,0.4,0.8,0.6,1.3,0.6c0.5,0,1-0.2,1.3-0.6c0.3-0.4,0.5-1.1,0.5-2c0-0.9-0.2-1.5-0.5-1.9C18,9.5,17.5,9.3,17,9.3z M85,5c0.3,0,0.5,0,0.8,0.1c0.3,0.1,0.5,0.2,0.7,0.3c0.2,0.1,0.4,0.3,0.6,0.5c0.2,0.2,0.3,0.4,0.5,0.6c0.1,0.2,0.2,0.5,0.3,0.7C88,7.5,88,7.7,88,8c0,0.3,0,0.5-0.1,0.8c-0.1,0.3-0.2,0.5-0.3,0.7c-0.1,0.2-0.3,0.4-0.5,0.6c-0.2,0.2-0.4,0.3-0.6,0.5c-0.2,0.1-0.5,0.2-0.7,0.3C85.5,11,85.3,11,85,11c-0.3,0-0.5,0-0.8-0.1c-0.3-0.1-0.5-0.2-0.7-0.3c-0.2-0.1-0.4-0.3-0.6-0.5c-0.2-0.2-0.3-0.4-0.5-0.6c-0.1-0.2-0.2-0.5-0.3-0.7C82.1,8.6,82,8.3,82,8c0-0.3,0-0.5,0.1-0.8c0.1-0.3,0.2-0.5,0.3-0.7c0.1-0.2,0.3-0.4,0.5-0.6c0.2-0.2,0.4-0.3,0.6-0.5c0.2-0.1,0.5-0.2,0.7-0.3C84.5,5,84.7,5,85,5z M74.5,8.9c-0.6,0-1.1,0.2-1.4,0.7c-0.2,0.3-0.4,0.7-0.4,1.3h3.7c-0.1-0.7-0.3-1.3-0.6-1.6C75.4,9.1,75,8.9,74.5,8.9L74.5,8.9z M85,5.9c-0.2,0-0.4,0-0.6,0.1C84.3,6,84.1,6.1,84,6.2c-0.2,0.1-0.3,0.2-0.4,0.3c-0.1,0.1-0.2,0.3-0.3,0.4c-0.1,0.2-0.2,0.3-0.2,0.5c0,0.2-0.1,0.4-0.1,0.5c0,0.2,0,0.4,0.1,0.6c0.1,0.2,0.1,0.3,0.2,0.5c0.1,0.2,0.2,0.3,0.3,0.4c0.1,0.1,0.3,0.2,0.4,0.3c0.2,0.1,0.3,0.2,0.5,0.2c0.2,0.1,0.4,0.1,0.5,0.1c0.3,0,0.6-0.1,0.8-0.2c0.3-0.1,0.5-0.3,0.7-0.4c0.2-0.2,0.3-0.4,0.4-0.7C87,8.6,87.1,8.3,87.1,8c0-0.2,0-0.4-0.1-0.6C87,7.3,86.9,7.1,86.8,7c-0.1-0.2-0.2-0.3-0.3-0.4c-0.1-0.1-0.3-0.2-0.4-0.3C85.9,6.1,85.7,6,85.6,6C85.4,5.9,85.2,5.9,85,5.9L85,5.9z M85.4,6.6c0.1,0,0.3,0,0.4,0.1c0.1,0.1,0.2,0.1,0.3,0.2c0.1,0.1,0.1,0.2,0.2,0.3c0,0.1,0.1,0.2,0.1,0.4c0,0.2,0,0.3-0.1,0.5c-0.1,0.1-0.2,0.3-0.3,0.3l0.5,1c0,0,0,0,0,0c0,0,0,0,0,0c0,0,0,0.1-0.1,0.1h-0.7c0,0-0.1,0-0.1-0.1L85,8.5h-0.3v0.9c0,0,0,0.1,0,0.1c0,0,0,0-0.1,0H84c0,0,0,0-0.1,0c0,0,0,0,0-0.1V6.7c0,0,0-0.1,0-0.1c0,0,0,0,0.1,0C84,6.6,85.4,6.6,85.4,6.6z M85.2,7.2h-0.4v0.5h0.4c0.1,0,0.1,0,0.2-0.1c0-0.1,0.1-0.1,0.1-0.2c0,0,0-0.1,0-0.1c0,0,0-0.1-0.1-0.1c0,0-0.1,0-0.1-0.1S85.2,7.2,85.2,7.2z"/></svg>