<svg xmlns="http://www.w3.org/2000/svg" xmlns:xlink="http://www.w3.org/1999/xlink" width="143" height="86" viewBox="0 0 143 86">
    <defs>
        <filter id="xw9wyryz0b" width="114.6%" height="128%" x="-7.3%" y="-10%" filterUnits="objectBoundingBox">
            <feOffset dy="2" in="SourceAlpha" result="shadowOffsetOuter1"/>
            <feGaussianBlur in="shadowOffsetOuter1" result="shadowBlurOuter1" stdDeviation="2"/>
            <feColorMatrix in="shadowBlurOuter1" values="0 0 0 0 0 0 0 0 0 0 0 0 0 0 0 0 0 0 0.16 0"/>
        </filter>
        <filter id="vjuc13vckd" width="168.4%" height="236.8%" x="-34.2%" y="-57.9%" filterUnits="objectBoundingBox">
            <feGaussianBlur in="SourceGraphic" stdDeviation="3"/>
        </filter>
        <filter id="ozlw643poe" width="184.2%" height="268.4%" x="-42.1%" y="-73.7%" filterUnits="objectBoundingBox">
            <feOffset dy="2" in="SourceAlpha" result="shadowOffsetOuter1"/>
            <feGaussianBlur in="shadowOffsetOuter1" result="shadowBlurOuter1" stdDeviation="2"/>
            <feColorMatrix in="shadowBlurOuter1" values="0 0 0 0 0 0 0 0 0 0 0 0 0 0 0 0 0 0 0.16 0"/>
        </filter>
        <filter id="43pia6umxg" width="134.8%" height="134.8%" x="-17.4%" y="-13%" filterUnits="objectBoundingBox">
            <feMorphology in="SourceAlpha" operator="dilate" radius="1" result="shadowSpreadOuter1"/>
            <feOffset dy="2" in="shadowSpreadOuter1" result="shadowOffsetOuter1"/>
            <feGaussianBlur in="shadowOffsetOuter1" result="shadowBlurOuter1" stdDeviation="2"/>
            <feComposite in="shadowBlurOuter1" in2="SourceAlpha" operator="out" result="shadowBlurOuter1"/>
            <feColorMatrix in="shadowBlurOuter1" values="0 0 0 0 0 0 0 0 0 0 0 0 0 0 0 0 0 0 0.16 0"/>
        </filter>
        <path id="iwvh4w7sza" d="M94 .304c1.105 0 2 .895 2 2v18.624c-2.028.414-3.556 2.216-3.556 4.376s1.528 3.961 3.556 4.375v18.625c0 1.104-.895 2-2 2H2c-1.105 0-2-.896-2-2v-46c0-1.105.895-2 2-2h92z"/>
        <path id="fxos02lyof" d="M50.485 46.901c8.724 0 20.522-4.253 26.352-9.5 5.83-5.246 3.484-9.5-5.24-9.5-8.723 0-20.521 4.254-26.351 9.5-5.83 5.247-3.484 9.5 5.24 9.5z"/>
        <circle id="4amg3v8aih" cx="47" cy="23" r="23"/>
    </defs>
    <g fill="none" fill-rule="evenodd">
        <g>
            <g>
                <g>
                    <g>
                        <g>
                            <g transform="translate(-213 -435) translate(0 48) translate(20 290) translate(197 99) rotate(5 -7.26 51.404) translate(1 .696)">
                                <mask id="qsisfd7vxc" fill="#fff">
                                    <use xlink:href="#iwvh4w7sza"/>
                                </mask>
                                <g>
                                    <use fill="#000" filter="url(#xw9wyryz0b)" xlink:href="#iwvh4w7sza"/>
                                    <use fill="#1EC68C" xlink:href="#iwvh4w7sza"/>
                                </g>
                                <path fill="#1C1814" fill-rule="nonzero" d="M60.373 25.036c1.636 0 3.206-.31 4.711-.929 1.506-.619 2.827-1.494 3.965-2.625 1.138-1.13 2.05-2.482 2.738-4.053.687-1.572 1.03-3.31 1.03-5.215 0-1.976-.307-3.768-.924-5.375-.616-1.607-1.475-2.982-2.577-4.125-1.103-1.143-2.418-2.03-3.947-2.66-1.529-.631-3.194-.947-4.996-.947-1.801 0-3.454.316-4.96.947-1.505.63-2.809 1.517-3.91 2.66C50.4 3.857 49.54 5.232 48.923 6.84c-.616 1.607-.924 3.4-.924 5.375 0 1.905.308 3.643.924 5.215.617 1.571 1.476 2.922 2.578 4.053 1.102 1.131 2.406 2.006 3.911 2.625 1.506.62 3.159.929 4.96.929zm-2.062 26.607c.759 0 1.405-.149 1.938-.447.533-.297.978-.672 1.333-1.125l39.04-50.464h-8.035c-.925 0-1.648.173-2.17.518-.52.345-.96.72-1.315 1.125l-39.04 50.393h8.25zm2.062-33.5c-.569 0-1.09-.095-1.564-.286-.474-.19-.877-.512-1.209-.964-.332-.453-.593-1.06-.782-1.822-.19-.761-.285-1.714-.285-2.857 0-1.214.095-2.22.285-3.018.19-.797.45-1.434.782-1.91s.735-.81 1.209-1c.474-.19.995-.286 1.564-.286.57 0 1.097.095 1.583.286.485.19.906.524 1.262 1 .355.476.634 1.113.835 1.91.202.798.303 1.804.303 3.018 0 1.143-.101 2.096-.303 2.857-.201.762-.48 1.37-.835 1.822-.356.452-.777.774-1.262.964-.486.19-1.014.286-1.583.286zM90.17 52.286c1.635 0 3.206-.31 4.711-.929 1.505-.619 2.827-1.494 3.964-2.625 1.138-1.13 2.05-2.488 2.738-4.071.688-1.584 1.031-3.328 1.031-5.232 0-1.977-.308-3.768-.924-5.375-.616-1.608-1.476-2.983-2.578-4.125-1.102-1.143-2.418-2.03-3.947-2.661-1.528-.631-3.194-.947-4.995-.947-1.802 0-3.455.316-4.96.947-1.505.63-2.809 1.518-3.911 2.66-1.102 1.143-1.962 2.518-2.578 4.126-.616 1.607-.924 3.398-.924 5.375 0 1.904.308 3.648.924 5.232.616 1.583 1.476 2.94 2.578 4.071 1.102 1.131 2.406 2.006 3.91 2.625 1.506.62 3.16.929 4.96.929zm0-6.929c-.569 0-1.09-.095-1.565-.286-.474-.19-.877-.511-1.208-.964-.332-.452-.593-1.06-.783-1.821-.19-.762-.284-1.715-.284-2.857 0-1.19.095-2.185.284-2.983.19-.797.45-1.434.783-1.91.331-.476.734-.81 1.208-1 .475-.19.996-.286 1.565-.286s1.096.095 1.582.286c.486.19.907.524 1.262 1 .356.476.634 1.113.836 1.91.201.798.302 1.792.302 2.983 0 1.142-.1 2.095-.302 2.857-.202.762-.48 1.369-.836 1.821-.355.453-.776.774-1.262.964-.486.19-1.013.286-1.582.286z" mask="url(#qsisfd7vxc)" opacity=".028"/>
                                <path fill="#F4F4F4" fill-rule="nonzero" d="M74.444 4.545v1.339c0 .123.224.223.5.223.277 0 .5-.1.5-.223v-1.34c0-.123-.223-.223-.5-.223-.276 0-.5.1-.5.224zm0 2.678v1.34c0 .123.224.223.5.223.277 0 .5-.1.5-.223v-1.34c0-.123-.223-.223-.5-.223-.276 0-.5.1-.5.223zm0 2.679v1.34c0 .122.224.222.5.222.277 0 .5-.1.5-.223v-1.34c0-.122-.223-.222-.5-.222-.276 0-.5.1-.5.223zm0 2.678v1.34c0 .123.224.223.5.223.277 0 .5-.1.5-.223v-1.34c0-.123-.223-.223-.5-.223-.276 0-.5.1-.5.223zm0 2.679v1.34c0 .122.224.222.5.222.277 0 .5-.1.5-.223v-1.34c0-.122-.223-.222-.5-.222-.276 0-.5.1-.5.223zm0 2.678v1.34c0 .123.224.223.5.223.277 0 .5-.1.5-.223v-1.34c0-.123-.223-.223-.5-.223-.276 0-.5.1-.5.224zm0 2.68v1.338c0 .124.224.224.5.224.277 0 .5-.1.5-.224v-1.339c0-.123-.223-.223-.5-.223-.276 0-.5.1-.5.223zm0 2.678v1.339c0 .123.224.223.5.223.277 0 .5-.1.5-.223v-1.34c0-.123-.223-.223-.5-.223-.276 0-.5.1-.5.224zm0 2.678v1.34c0 .123.224.223.5.223.277 0 .5-.1.5-.224v-1.339c0-.123-.223-.223-.5-.223-.276 0-.5.1-.5.223zm0 2.679v1.34c0 .122.224.222.5.222.277 0 .5-.1.5-.223v-1.34c0-.122-.223-.222-.5-.222-.276 0-.5.1-.5.223zm0 2.678v1.34c0 .123.224.223.5.223.277 0 .5-.1.5-.223v-1.34c0-.123-.223-.223-.5-.223-.276 0-.5.1-.5.223zm0 2.679v1.34c0 .122.224.222.5.222.277 0 .5-.1.5-.223v-1.34c0-.122-.223-.222-.5-.222-.276 0-.5.1-.5.223zm0 2.678v1.34c0 .123.224.223.5.223.277 0 .5-.1.5-.223v-1.34c0-.123-.223-.223-.5-.223-.276 0-.5.1-.5.224zm0 2.68v1.338c0 .124.224.224.5.224.277 0 .5-.1.5-.224v-1.339c0-.123-.223-.223-.5-.223-.276 0-.5.1-.5.223zm0 2.678v1.339c0 .123.224.223.5.223.277 0 .5-.1.5-.223v-1.34c0-.123-.223-.223-.5-.223-.276 0-.5.1-.5.224zm0 2.678v1.34c0 .123.224.223.5.223.277 0 .5-.1.5-.224v-1.339c0-.123-.223-.223-.5-.223-.276 0-.5.1-.5.223z" mask="url(#qsisfd7vxc)" opacity=".4"/>
                                <path fill="#FFF" fill-rule="nonzero" d="M71.647 27.536v-1.688c0-.187.045-.346.134-.475.09-.129.215-.194.376-.194.154 0 .266.053.336.157.07.104.106.246.106.425v1.775h1.02v-1.682c0-.087.01-.171.032-.253.02-.08.053-.153.096-.215.044-.063.098-.113.162-.15.064-.038.14-.057.227-.057.091 0 .165.018.22.054.057.035.101.082.135.14.033.059.056.128.068.21.013.08.019.165.019.253v1.7h1.02V25.61c0-.146-.02-.295-.059-.447-.04-.152-.103-.29-.19-.413-.087-.123-.202-.223-.345-.3-.143-.077-.32-.115-.532-.115-.232 0-.43.048-.591.143-.162.096-.295.225-.398.388-.087-.17-.209-.302-.364-.394-.156-.091-.346-.137-.57-.137-.116 0-.223.014-.32.043-.098.03-.186.068-.265.116-.078.048-.146.103-.202.166-.056.062-.102.127-.14.193h-.012v-.43h-.99v3.112h1.027zm6.285.1c.236 0 .458-.04.665-.119.208-.08.39-.19.548-.334.158-.144.282-.32.373-.525.091-.207.137-.437.137-.691 0-.254-.046-.483-.137-.688-.091-.204-.215-.377-.373-.518-.158-.142-.34-.25-.548-.325-.207-.075-.429-.113-.665-.113-.233 0-.454.038-.663.113-.21.075-.392.183-.548.325-.155.141-.279.314-.37.518-.091.205-.137.434-.137.688 0 .254.046.484.137.69.091.207.215.382.37.526.156.143.338.255.548.334.21.08.43.119.663.119zm.006-.863c-.12 0-.226-.023-.318-.069-.09-.045-.168-.107-.23-.184s-.109-.163-.14-.26c-.03-.095-.046-.193-.046-.293 0-.1.015-.198.046-.294.031-.096.077-.18.137-.253.06-.073.136-.132.227-.178.091-.046.197-.069.318-.069.12 0 .226.023.317.069.091.046.168.105.23.178s.11.157.143.253c.033.096.05.194.05.294 0 .1-.016.198-.047.294-.03.096-.077.182-.14.26-.062.076-.139.138-.23.183-.091.046-.197.07-.317.07zm3.926.863c.236 0 .458-.04.666-.119.207-.08.39-.19.547-.334.158-.144.282-.32.374-.525.09-.207.137-.437.137-.691 0-.254-.046-.483-.137-.688-.092-.204-.216-.377-.374-.518-.157-.142-.34-.25-.547-.325-.208-.075-.43-.113-.666-.113-.232 0-.453.038-.663.113-.21.075-.392.183-.547.325-.156.141-.28.314-.37.518-.092.205-.137.434-.137.688 0 .254.045.484.137.69.09.207.214.382.37.526.155.143.338.255.547.334.21.08.43.119.663.119zm.006-.863c-.12 0-.226-.023-.317-.069-.091-.045-.168-.107-.23-.184-.063-.077-.11-.163-.14-.26-.031-.095-.047-.193-.047-.293 0-.1.016-.198.047-.294.03-.096.076-.18.137-.253.06-.073.135-.132.227-.178.09-.046.197-.069.317-.069s.226.023.317.069c.092.046.168.105.23.178.063.073.11.157.144.253.033.096.05.194.05.294 0 .1-.016.198-.047.294-.031.096-.078.182-.14.26-.062.076-.14.138-.23.183-.092.046-.197.07-.318.07zm3.391.763v-1.688c0-.087.012-.172.035-.253.022-.081.057-.153.102-.216.046-.062.103-.111.171-.146.069-.036.149-.054.24-.054s.167.018.227.054c.06.035.107.083.14.143.033.06.057.13.072.21.014.079.021.162.021.25v1.7h1.027V25.61c0-.154-.02-.309-.06-.463-.039-.154-.103-.29-.192-.41-.09-.118-.206-.215-.352-.29-.145-.075-.321-.112-.528-.112-.108 0-.21.014-.305.043-.096.03-.184.067-.265.113-.08.046-.151.101-.211.166-.06.064-.11.13-.147.196h-.012v-.43h-.99v3.112h1.027zm4.269 1.5c.274 0 .523-.037.75-.11.226-.073.417-.183.575-.33.158-.149.28-.335.367-.56.087-.225.13-.49.13-.794v-2.819h-.964v.4h-.012c-.108-.166-.251-.29-.43-.369-.178-.079-.364-.118-.56-.118-.232 0-.439.045-.622.134-.182.09-.337.21-.463.36-.127.15-.223.322-.29.518-.066.196-.099.402-.099.619 0 .217.033.422.1.616.066.193.162.363.289.509.126.146.28.261.463.347.183.085.392.128.629.128.207 0 .392-.038.554-.113.161-.075.29-.175.385-.3h.02v.188c0 .262-.072.473-.216.631-.143.159-.364.238-.662.238-.174 0-.352-.033-.532-.097-.18-.065-.346-.164-.495-.297l-.51.731c.211.159.461.28.75.363.288.083.569.125.843.125zm.1-2.282c-.117 0-.22-.021-.309-.065s-.165-.102-.227-.175-.11-.157-.143-.253c-.033-.096-.05-.196-.05-.3 0-.109.017-.21.05-.307.033-.095.081-.179.143-.25.062-.07.138-.127.227-.168.09-.042.192-.063.308-.063.116 0 .22.021.311.063.092.041.17.099.237.172.066.073.117.157.152.253.036.096.053.196.053.3 0 .108-.017.21-.053.306-.035.096-.085.18-.149.25-.064.07-.143.128-.236.172-.094.044-.199.065-.315.065zm4.094.882c.236 0 .458-.04.665-.119.208-.08.39-.19.548-.334.158-.144.282-.32.373-.525.091-.207.137-.437.137-.691 0-.254-.046-.483-.137-.688-.091-.204-.215-.377-.373-.518-.158-.142-.34-.25-.548-.325-.207-.075-.429-.113-.665-.113-.233 0-.454.038-.663.113-.21.075-.392.183-.548.325-.155.141-.279.314-.37.518-.091.205-.137.434-.137.688 0 .254.046.484.137.69.091.207.215.382.37.526.156.143.338.255.548.334.21.08.43.119.663.119zm.006-.863c-.12 0-.226-.023-.318-.069-.09-.045-.168-.107-.23-.184s-.109-.163-.14-.26c-.03-.095-.046-.193-.046-.293 0-.1.015-.198.046-.294.031-.096.077-.18.137-.253.06-.073.136-.132.227-.178.091-.046.197-.069.318-.069.12 0 .226.023.317.069.091.046.168.105.23.178s.11.157.143.253c.033.096.05.194.05.294 0 .1-.016.198-.047.294-.03.096-.077.182-.14.26-.062.076-.139.138-.23.183-.091.046-.197.07-.317.07zm3.385.763v-1.6c0-.063.012-.136.037-.219.025-.083.065-.16.121-.231.056-.071.131-.132.224-.182.094-.05.209-.075.346-.075.041 0 .084.003.127.007.044.004.088.012.134.025l.044-.9c-.025-.009-.057-.015-.097-.019s-.08-.006-.121-.006c-.191 0-.359.05-.504.15-.145.1-.257.229-.336.387h-.013v-.45h-.983v3.113h1.02zm1.966-3.544c.079 0 .154-.015.227-.044.073-.029.135-.069.187-.119.052-.05.093-.109.124-.178.031-.068.047-.142.047-.222 0-.079-.016-.153-.047-.221-.031-.07-.072-.129-.124-.179-.052-.05-.114-.09-.187-.118-.073-.03-.148-.044-.227-.044-.083 0-.16.016-.23.047s-.133.072-.187.122c-.054.05-.095.11-.124.178-.03.069-.044.14-.044.215 0 .155.056.287.168.397.112.11.251.166.417.166zm.51 3.544v-3.113h-1.02v3.113h1.02z" mask="url(#qsisfd7vxc)" opacity=".4" transform="rotate(90 85.143 25.951)"/>
                            </g>
                            <g fill="#FFF" fill-rule="nonzero">
                                <g>
                                    <path d="M42.005 12.96V8.04h-.832v3.678h-1.209v.6h1.21v.643h.831zm-3.328-2.364c.925 0 1.586-.485 1.586-1.171s-.661-1.186-1.586-1.186c-.924 0-1.607.5-1.607 1.172 0 .7.683 1.185 1.607 1.185zm0-.628c-.483 0-.768-.264-.768-.543s.285-.564.768-.564c.47 0 .761.285.761.564 0 .279-.291.543-.76.543zm.647 2.686V11.46c.491-.036.96-.079 1.394-.15l-.05-.615c-.888.115-2.481.193-4.039.193.043.215.079.443.114.657.477 0 1.095-.007 1.757-.028v1.136h.824zm2.78 1.578v-.664h-3.818v-1.214h-.832v1.878h4.65zM4.231 14.4c.474 0 .923-.069 1.348-.207.424-.138.797-.342 1.12-.61.322-.27.578-.602.768-.997.19-.396.284-.85.284-1.365 0-.604-.152-1.107-.455-1.507-.303-.4-.763-.697-1.38-.893.256-.085.485-.192.687-.321.201-.129.372-.286.512-.471.14-.186.246-.404.32-.654.073-.25.11-.54.11-.868 0-.376-.072-.726-.217-1.05-.145-.324-.352-.606-.622-.846s-.596-.429-.978-.565c-.382-.135-.81-.203-1.284-.203-.455 0-.88.063-1.276.19-.396.125-.747.313-1.052.563-.306.25-.561.562-.765.936-.204.374-.341.808-.412 1.304L1.863 7c.085.014.166.021.242.021.161 0 .291-.039.391-.117.1-.079.178-.209.235-.39.109-.347.3-.632.576-.853.275-.222.62-.332 1.038-.332.46 0 .822.125 1.088.375.265.25.398.62.398 1.11 0 .229-.033.438-.1.629-.066.19-.183.353-.351.49-.169.135-.395.24-.68.317-.284.076-.642.117-1.073.121V9.63c.521 0 .937.04 1.248.121.31.081.548.193.714.336.166.143.275.315.327.518.053.202.079.427.079.675 0 .195-.037.389-.11.582-.074.193-.185.368-.335.525-.15.157-.335.284-.558.382-.223.097-.484.146-.782.146-.266 0-.494-.039-.686-.118-.192-.078-.36-.18-.502-.307-.142-.126-.264-.27-.366-.432-.102-.162-.196-.326-.28-.493-.053-.1-.128-.176-.225-.228-.097-.053-.207-.079-.33-.079-.138 0-.273.029-.406.086l-.775.321c.142.443.313.834.512 1.172.2.338.44.624.725.857.285.233.619.41 1.003.528.384.12.834.179 1.351.179zm5.12 1.914c.251-.2.474-.419.669-.657.194-.238.357-.483.49-.736.133-.252.234-.504.302-.757.07-.252.104-.493.104-.721 0-.162-.022-.316-.064-.46-.043-.146-.11-.275-.2-.387-.09-.111-.201-.2-.334-.264s-.289-.096-.47-.096c-.15 0-.29.025-.419.075-.128.05-.237.119-.327.207-.09.088-.16.19-.21.307-.05.117-.074.242-.074.375 0 .152.025.293.074.421.05.129.119.24.207.336.087.095.193.17.316.225.123.055.258.082.405.082-.028.143-.074.278-.138.404-.064.126-.134.243-.21.35-.076.107-.152.202-.228.286l-.192.21c-.037.038-.07.081-.096.129-.026.047-.039.09-.039.128 0 .105.043.193.128.265l.306.278zM15.56 14.4c.536 0 1.035-.106 1.497-.318.462-.212.863-.534 1.202-.968.339-.433.604-.982.796-1.646.192-.664.288-1.447.288-2.347 0-.904-.096-1.688-.288-2.35-.192-.661-.457-1.21-.796-1.642-.34-.434-.74-.756-1.202-.968-.462-.212-.961-.318-1.497-.318-.536 0-1.032.106-1.49.318-.457.212-.854.534-1.19.968-.337.433-.6.98-.79 1.642-.19.662-.285 1.446-.285 2.35 0 .9.095 1.683.285 2.347.19.664.453 1.213.79 1.646.336.434.733.756 1.19.968.458.212.954.318 1.49.318zm0-1.464c-.251 0-.494-.059-.729-.175-.234-.117-.442-.32-.622-.611-.18-.29-.324-.681-.43-1.171-.107-.49-.16-1.11-.16-1.858 0-.747.053-1.366.16-1.857.106-.49.25-.88.43-1.171.18-.29.388-.494.622-.61.235-.118.478-.176.73-.176.255 0 .502.058.739.175.237.117.446.32.629.61.183.291.328.682.437 1.172.11.49.164 1.11.164 1.857 0 .748-.055 1.367-.164 1.858-.109.49-.254.88-.437 1.171-.183.29-.392.494-.63.61-.236.117-.483.176-.739.176zm8.249 1.464c.536 0 1.035-.106 1.497-.318.462-.212.863-.534 1.202-.968.339-.433.604-.982.796-1.646.192-.664.288-1.447.288-2.347 0-.904-.096-1.688-.288-2.35-.192-.661-.457-1.21-.796-1.642-.34-.434-.74-.756-1.202-.968-.462-.212-.961-.318-1.497-.318-.536 0-1.032.106-1.49.318-.457.212-.854.534-1.19.968-.337.433-.6.98-.79 1.642-.19.662-.285 1.446-.285 2.35 0 .9.095 1.683.285 2.347.19.664.453 1.213.79 1.646.336.434.733.756 1.19.968.458.212.954.318 1.49.318zm0-1.464c-.251 0-.494-.059-.729-.175-.235-.117-.442-.32-.622-.611-.18-.29-.324-.681-.43-1.171-.107-.49-.16-1.11-.16-1.858 0-.747.053-1.366.16-1.857.106-.49.25-.88.43-1.171.18-.29.387-.494.622-.61.235-.118.478-.176.729-.176.256 0 .503.058.74.175.237.117.446.32.629.61.182.291.328.682.437 1.172.11.49.164 1.11.164 1.857 0 .748-.055 1.367-.164 1.858-.109.49-.255.88-.437 1.171-.183.29-.392.494-.63.61-.236.117-.483.176-.739.176zm8.249 1.464c.536 0 1.035-.106 1.497-.318.462-.212.863-.534 1.202-.968.339-.433.604-.982.796-1.646.192-.664.288-1.447.288-2.347 0-.904-.096-1.688-.288-2.35-.192-.661-.457-1.21-.796-1.642-.34-.434-.74-.756-1.202-.968-.462-.212-.961-.318-1.497-.318-.536 0-1.032.106-1.49.318-.457.212-.854.534-1.191.968-.337.433-.6.98-.79 1.642-.189.662-.284 1.446-.284 2.35 0 .9.095 1.683.285 2.347.19.664.452 1.213.789 1.646.337.434.734.756 1.191.968.458.212.954.318 1.49.318zm0-1.464c-.251 0-.494-.059-.729-.175-.235-.117-.442-.32-.622-.611-.18-.29-.324-.681-.43-1.171-.107-.49-.16-1.11-.16-1.858 0-.747.053-1.366.16-1.857.106-.49.25-.88.43-1.171.18-.29.387-.494.622-.61.235-.118.478-.176.729-.176.256 0 .502.058.74.175.236.117.446.32.629.61.182.291.328.682.437 1.172.11.49.164 1.11.164 1.857 0 .748-.055 1.367-.164 1.858-.109.49-.255.88-.437 1.171-.183.29-.393.494-.63.61-.237.117-.483.176-.74.176z" transform="translate(-213 -435) translate(0 48) translate(20 290) translate(197 99) rotate(5 -7.26 51.404) translate(8.111 8.143) translate(0 19.643)"/>
                                </g>
                                <path d="M4.772 5.213V1.175h-.728v4.038h.728zm-4.15-.694c.51-.181 1.114-.756 1.282-1.325.243.512.821 1.031 1.244 1.194l.411-.582c-.64-.212-1.282-.906-1.282-1.762v-.55h-.759v.587C1.518 2.92.99 3.644.18 3.938l.442.58zm4.269 2.075v-.575H1.773V4.85H1.04v1.744h3.852zm2.576.156V4.444h1.188V6.75h.728V4.444h1.195v-.575h-.822c.125-.669.18-1.6.18-2.394H6.124v.581h3.092c0 .525-.056 1.357-.15 1.813H5.57v.575h1.163V6.75h.735zm8.101-.006V1.175h-.728v5.569h.728zm-2.004-4.725v-.55h-1.611v.55h1.611zm.797.8v-.55h-3.236v.55h3.236zm-3.323 3.093c1.04 0 2.601-.087 3.547-.193l-.062-.557c-.405.05-.89.082-1.413.113V4.85c.585-.094.99-.444.99-.925 0-.569-.567-.956-1.338-.956-.766 0-1.326.387-1.326.956 0 .469.38.813.946.919v.462c-.479.006-.964.013-1.437.013l.093.593zm1.724-1.587c-.349 0-.598-.188-.598-.4 0-.212.25-.394.598-.394.354 0 .603.181.603.394 0 .213-.249.4-.603.4zm8.25 1.156V1.175h-.728v3.219h-1.057v.525h1.057v.562h.728zM18.1 3.413c.81 0 1.388-.425 1.388-1.025 0-.6-.579-1.038-1.388-1.038-.808 0-1.406.438-1.406 1.025 0 .612.598 1.038 1.406 1.038zm0-.55c-.423 0-.672-.232-.672-.475 0-.244.25-.494.672-.494.411 0 .666.25.666.494 0 .243-.255.474-.666.474zm.567 2.35V4.168c.429-.031.84-.069 1.22-.131l-.044-.538c-.778.1-2.172.169-3.535.169.038.187.069.387.1.575.417 0 .958-.006 1.537-.025v.994h.722zm2.433 1.38v-.58h-3.342V4.95h-.728v1.644h4.07zm6.589-2.255V3.23h.778v-.6h-.778V1.175h-.728v3.163h.728zM25.79 1.75V1.2h-1.643v.55h1.643zm.734.794V1.98h-3.217v.563h3.217zM24.97 4.419c.753 0 1.313-.35 1.313-.869 0-.512-.56-.869-1.313-.869-.772 0-1.332.357-1.332.869 0 .519.566.869 1.332.869zm0-.525c-.33 0-.61-.131-.61-.344 0-.2.274-.337.61-.337.317 0 .597.137.597.337 0 .213-.28.344-.597.344zm2.856 2.837v-.55h-3.062v-.275h2.925v-1.3H24.03v.544h2.925v.262h-2.919v1.32h3.79zm5.488-1.518V1.175h-.722v4.038h.722zm-2.906-.882c.915 0 1.5-.569 1.5-1.369 0-.787-.585-1.375-1.5-1.375-.908 0-1.5.588-1.5 1.375 0 .8.592 1.37 1.5 1.37zm0-.6c-.467 0-.753-.325-.753-.768 0-.425.286-.75.753-.75.48 0 .76.325.76.75 0 .443-.28.768-.76.768zm3.03 2.863v-.575h-3.11V4.812h-.735v1.782h3.845zm3.534.15V4.613h2.153v-.588h-.79c.125-.706.187-1.75.187-2.55H34.67v.575h3.124c0 .163-.006.356-.013.569l-3.273.131.088.581 3.154-.162c-.03.331-.068.643-.112.856h-3.522v.587h2.128v2.132h.728zm7.032-4.781v-.576h-4.026v.575h4.026zm.504 2.774v-.58h-2.153v-.482h1.636v-.581h-.759l.168-.863-.71-.106-.142.969H41.44l-.124-.969-.697.106.137.863h-.76v.581h1.63v.481H39.5v.582h5.009zm-.58 1.857v-.575h-3.073V5.03h-.722v1.563h3.796z" transform="translate(-213 -435) translate(0 48) translate(20 290) translate(197 99) rotate(5 -7.26 51.404) translate(8.111 8.143)"/>
                            </g>
                        </g>
                        <g transform="translate(-213 -435) translate(0 48) translate(20 290) translate(197 99) translate(45 22)">
                            <g fill="#000" filter="url(#vjuc13vckd)" opacity=".1">
                                <use filter="url(#ozlw643poe)" xlink:href="#fxos02lyof"/>
                                <use xlink:href="#fxos02lyof"/>
                            </g>
                            <g>
                                <use fill="#000" filter="url(#43pia6umxg)" xlink:href="#4amg3v8aih"/>
                                <circle cx="47" cy="23" r="23.5" fill="#D0A70B" stroke="#1C1814"/>
                            </g>
                            <path fill="#FFD73E" stroke="#1C1814" stroke-linecap="round" d="M83.128 34.975c-9.264-2.708-28.532-15.31-23.216-21.571 6.269-5.342 10.017 8.187 17.867 9.676 3.562 6.674 8.166 13.289 5.349 11.895z" transform="scale(-1 1) rotate(10 0 -793.587)"/>
                            <path fill="#FFD73E" stroke="#1C1814" stroke-linecap="round" d="M26.128 34.975c-9.264-2.708-28.532-15.31-23.216-21.571 6.269-5.342 10.017 8.187 17.867 9.676 3.562 6.674 8.166 13.289 5.349 11.895z" transform="rotate(10 14.5 23.662)"/>
                            <path stroke="#1C1814" stroke-linecap="round" d="M6.872 6.903c2.922-1.675 5.255-1.196 7 1.438" transform="rotate(5 10.372 7.134)"/>
                            <path stroke="#1C1814" stroke-linecap="round" d="M10.677 3.343c1.575-.468 2.742-.14 3.5.984" transform="rotate(5 12.427 3.732)"/>
                            <circle cx="43" cy="23" r="23.5" fill="#FFD73E" stroke="#1C1814"/>
                            <path stroke="#1C1814" stroke-dasharray="2" stroke-linecap="round" d="M43 43c11.046 0 20-8.954 20-20S54.046 3 43 3s-20 8.954-20 20 8.954 20 20 20z" opacity=".7"/>
                            <path fill="#1C1814" d="M36.5 20c.828 0 1.5.672 1.5 1.5s-.672 1.5-1.5 1.5-1.5-.672-1.5-1.5.672-1.5 1.5-1.5zm13 0c.828 0 1.5.672 1.5 1.5s-.672 1.5-1.5 1.5-1.5-.672-1.5-1.5.672-1.5 1.5-1.5z"/>
                            <path stroke="#1C1814" stroke-linecap="round" d="M37 27c4 2.667 8 2.667 12 0"/>
                        </g>
                    </g>
                </g>
            </g>
        </g>
    </g>
</svg>
