<svg xmlns="http://www.w3.org/2000/svg" viewBox="0 0 48 20" width="48" height="20"><path d="M31.8,4.6c1.6,0,2.6,0.4,3.5,1.1c0.2,0.2,0.4,0.5,0.4,0.9c0,0.6-0.5,1.1-1.1,1.1c-0.3,0-0.5-0.1-0.7-0.2c-0.6-0.5-1.3-0.7-2.1-0.7c-1.8,0-3,1.5-3,3.2v0c0,1.8,1.2,3.3,3,3.3c1,0,1.6-0.3,2.3-0.8c0.2-0.1,0.4-0.3,0.7-0.3c0.6,0,1.1,0.5,1.1,1.1c0,0.4-0.2,0.6-0.4,0.8c-0.9,0.8-2,1.3-3.7,1.3c-3.1,0-5.3-2.4-5.3-5.3v0C26.4,7,28.7,4.6,31.8,4.6zM42,4.6c3.2,0,5.5,2.4,5.5,5.3v0c0,3-2.3,5.4-5.5,5.4c-3.2,0-5.5-2.4-5.5-5.3v0C36.4,7,38.8,4.6,42,4.6zM4.2,4.7c2.5,0,4,1.5,4,3.6v0C8.2,10.7,6.4,12,4,12H2.3v2.2c0,0.6-0.5,1.1-1.1,1.1S0,14.8,0,14.1V5.9c0-0.6,0.5-1.1,1.1-1.1L4.2,4.7L4.2,4.7zM12.9,4.6c0.6,0,1.1,0.3,1.3,0.9l3.6,8.2C18,13.9,18,14,18,14.2c0,0.6-0.5,1.1-1.1,1.1c-0.5,0-0.9-0.3-1.1-0.8l-0.7-1.6h-4.6l-0.7,1.7c-0.2,0.4-0.6,0.7-1.1,0.7c-0.6,0-1.1-0.5-1.1-1.1c0-0.2,0.1-0.3,0.1-0.5l3.6-8.2c0.3-0.6,0.7-0.9,1.3-0.9C12.8,4.6,12.9,4.6,12.9,4.6zM25.2,4.7c0.7,0,1.1,0.5,1.1,1.1c0,0.3-0.1,0.6-0.3,0.8l-3.4,4.5v3c0,0.6-0.5,1.1-1.1,1.1s-1.1-0.5-1.1-1.1v-3l-3.4-4.6c-0.2-0.2-0.3-0.5-0.3-0.8c0-0.6,0.5-1.1,1.1-1.1c0.5,0,0.8,0.3,1.1,0.7l2.5,3.6l2.6-3.7C24.4,5,24.8,4.7,25.2,4.7L25.2,4.7z M41.9,6.7c-1.8,0-3.1,1.5-3.1,3.2v0c0,1.8,1.3,3.3,3.1,3.3c1.8,0,3.1-1.5,3.1-3.2v0C45.1,8.2,43.8,6.7,41.9,6.7z M12.8,7.4l-1.4,3.4h2.9L12.8,7.4L12.8,7.4z M4.1,6.8H2.3V10h1.8c1.1,0,1.8-0.7,1.8-1.6v0C5.9,7.3,5.2,6.8,4.1,6.8z"/></svg>