<svg xmlns="http://www.w3.org/2000/svg" viewBox="0 0 224 122" width="224" height="122">
<filter id="couponStyles"><feDropShadow dx="1" dy="2" stdDeviation="1" flood-opacity="0.25"/></filter>
<path style="fill: rgba(30,198,140,1); filter:url(#couponStyles);" d="M218,3c1.1,0,2,0.9,2,2v44.2c-4.6,0.9-8,5-8,9.8s3.4,8.9,8,9.8V113c0,1.1-0.9,2-2,2H6c-1.1,0-2-0.9-2-2V5c0-1.1,0.9-2,2-2C6,3,218,3,218,3z"/>
<path style="fill: rgba(0,0,0,0.03);" d="M220,5v9.8l-77.4,99.7c-0.1,0.2-0.3,0.3-0.5,0.5H119L204.5,5.1c0.7-0.8,1.5-1.5,2.4-2.1H218C219.1,3,220,3.9,220,5z M220,68.8V113c0,1.1-0.9,2-2,2h-26.8c-1.6-1-3-2.2-4.3-3.5c-2.5-2.5-4.4-5.6-5.8-9.1s-2.1-7.5-2.1-11.7c0-4.4,0.7-8.4,2.1-12c1.4-3.6,3.3-6.7,5.8-9.2c2.5-2.6,5.4-4.5,8.8-6c3.4-1.4,7.1-2.1,11.2-2.1c1.9,0,3.7,0.2,5.5,0.5C213.4,65.3,216.3,68.1,220,68.8z M215.8,90.6c0-2.7-0.2-4.9-0.7-6.7c-0.5-1.8-1.1-3.2-1.9-4.3c-0.8-1.1-1.7-1.8-2.8-2.2s-2.3-0.6-3.6-0.6c-1.3,0-2.5,0.2-3.5,0.6c-1.1,0.4-2,1.2-2.7,2.2s-1.3,2.5-1.8,4.3c-0.4,1.8-0.6,4-0.6,6.7c0,2.6,0.2,4.7,0.6,6.4c0.4,1.7,1,3.1,1.8,4.1s1.7,1.7,2.7,2.2c1.1,0.4,2.2,0.6,3.5,0.6c1.3,0,2.5-0.2,3.6-0.6s2-1.1,2.8-2.2c0.8-1,1.4-2.4,1.9-4.1C215.6,95.3,215.8,93.2,215.8,90.6z M119.9,50.4c-2.5-2.5-4.4-5.6-5.8-9.1c-1.4-3.5-2.1-7.4-2.1-11.7c0-4.4,0.7-8.4,2.1-12c1.4-3.6,3.3-6.7,5.8-9.2c2.2-2.3,4.7-4,7.6-5.4h24.8c2.9,1.4,5.5,3.1,7.7,5.4c2.5,2.6,4.4,5.6,5.8,9.2c1.4,3.6,2.1,7.6,2.1,12c0,4.3-0.8,8.2-2.3,11.7c-1.5,3.5-3.6,6.5-6.2,9.1s-5.5,4.5-8.9,5.9s-6.9,2.1-10.6,2.1c-4.1,0-7.8-0.7-11.2-2.1S122.4,53,119.9,50.4z M131.2,29.7c0,2.6,0.2,4.7,0.6,6.4c0.4,1.7,1,3.1,1.8,4.1c0.7,1,1.7,1.7,2.7,2.2s2.2,0.6,3.5,0.6c1.3,0,2.5-0.2,3.6-0.6c1.1-0.4,2-1.1,2.8-2.2s1.4-2.4,1.9-4.1c0.5-1.7,0.7-3.8,0.7-6.4c0-2.7-0.2-5-0.7-6.8c-0.5-1.8-1.1-3.2-1.9-4.3s-1.7-1.8-2.8-2.2c-1.1-0.4-2.3-0.6-3.6-0.6c-1.3,0-2.5,0.2-3.5,0.6s-2,1.2-2.7,2.2s-1.3,2.5-1.8,4.3C131.4,24.7,131.2,27,131.2,29.7z"/>
<path style="fill: rgba(255,255,255,0.4);" d="M171.5,12.5v3c0,0.3,0.2,0.5,0.5,0.5s0.5-0.2,0.5-0.5v-3c0-0.3-0.2-0.5-0.5-0.5S171.5,12.2,171.5,12.5z M171.5,18.5v3c0,0.3,0.2,0.5,0.5,0.5s0.5-0.2,0.5-0.5v-3c0-0.3-0.2-0.5-0.5-0.5S171.5,18.2,171.5,18.5z M171.5,24.5v3c0,0.3,0.2,0.5,0.5,0.5s0.5-0.2,0.5-0.5v-3c0-0.3-0.2-0.5-0.5-0.5S171.5,24.2,171.5,24.5z M171.5,30.5v3c0,0.3,0.2,0.5,0.5,0.5s0.5-0.2,0.5-0.5v-3c0-0.3-0.2-0.5-0.5-0.5S171.5,30.2,171.5,30.5z M171.5,36.5v3c0,0.3,0.2,0.5,0.5,0.5s0.5-0.2,0.5-0.5v-3c0-0.3-0.2-0.5-0.5-0.5S171.5,36.2,171.5,36.5z M171.5,42.5v3c0,0.3,0.2,0.5,0.5,0.5s0.5-0.2,0.5-0.5v-3c0-0.3-0.2-0.5-0.5-0.5S171.5,42.2,171.5,42.5z M171.5,48.5v3c0,0.3,0.2,0.5,0.5,0.5s0.5-0.2,0.5-0.5v-3c0-0.3-0.2-0.5-0.5-0.5S171.5,48.2,171.5,48.5z M171.5,54.5v3c0,0.3,0.2,0.5,0.5,0.5s0.5-0.2,0.5-0.5v-3c0-0.3-0.2-0.5-0.5-0.5S171.5,54.2,171.5,54.5z M171.5,60.5v3c0,0.3,0.2,0.5,0.5,0.5s0.5-0.2,0.5-0.5v-3c0-0.3-0.2-0.5-0.5-0.5S171.5,60.2,171.5,60.5z M171.5,66.5v3c0,0.3,0.2,0.5,0.5,0.5s0.5-0.2,0.5-0.5v-3c0-0.3-0.2-0.5-0.5-0.5S171.5,66.2,171.5,66.5z M171.5,72.5v3c0,0.3,0.2,0.5,0.5,0.5s0.5-0.2,0.5-0.5v-3c0-0.3-0.2-0.5-0.5-0.5S171.5,72.2,171.5,72.5z M171.5,78.5v3c0,0.3,0.2,0.5,0.5,0.5s0.5-0.2,0.5-0.5v-3c0-0.3-0.2-0.5-0.5-0.5S171.5,78.2,171.5,78.5z M171.5,84.5v3c0,0.3,0.2,0.5,0.5,0.5s0.5-0.2,0.5-0.5v-3c0-0.3-0.2-0.5-0.5-0.5S171.5,84.2,171.5,84.5z M171.5,90.5v3c0,0.3,0.2,0.5,0.5,0.5s0.5-0.2,0.5-0.5v-3c0-0.3-0.2-0.5-0.5-0.5S171.5,90.2,171.5,90.5z M171.5,96.5v3c0,0.3,0.2,0.5,0.5,0.5s0.5-0.2,0.5-0.5v-3c0-0.3-0.2-0.5-0.5-0.5S171.5,96.2,171.5,96.5z M171.5,102.5v3c0,0.3,0.2,0.5,0.5,0.5s0.5-0.2,0.5-0.5v-3c0-0.3-0.2-0.5-0.5-0.5S171.5,102.2,171.5,102.5z"/>
<path style="fill: rgba(255,255,255,0.4);" d="M192,30.1h3.8c0.4,0,0.8,0.1,1.1,0.3c0.3,0.2,0.4,0.5,0.4,0.8c0,0.3-0.1,0.6-0.3,0.8c-0.2,0.2-0.6,0.2-1,0.2h-4v2.3h3.8c0.2,0,0.4,0,0.6,0.1c0.2,0,0.3,0.1,0.5,0.2c0.1,0.1,0.3,0.2,0.3,0.4c0.1,0.1,0.1,0.3,0.1,0.5c0,0.2,0,0.4-0.1,0.5c-0.1,0.1-0.2,0.2-0.3,0.3c-0.1,0.1-0.3,0.1-0.5,0.2c-0.2,0-0.4,0-0.6,0H192V39h4.3c0.3,0,0.7,0,1-0.1c0.3-0.1,0.6-0.2,0.9-0.4c0.3-0.2,0.5-0.5,0.7-0.8c0.2-0.3,0.3-0.7,0.3-1.2c0-0.5-0.1-1-0.3-1.3c-0.2-0.4-0.5-0.7-0.9-0.9c0.4-0.2,0.7-0.5,0.9-0.8s0.3-0.8,0.3-1.3c0-0.3,0-0.5-0.1-0.7c-0.1-0.2-0.2-0.4-0.3-0.6s-0.2-0.3-0.4-0.5s-0.3-0.2-0.4-0.3v0h1v-2.2h-7V30.1L192,30.1z M191.8,44.2c0,0.5,0.1,1,0.3,1.5s0.4,0.9,0.7,1.2c0.3,0.4,0.7,0.6,1.2,0.8c0.5,0.2,1,0.3,1.5,0.3c0.6,0,1.1-0.1,1.5-0.3s0.8-0.5,1.2-0.8s0.6-0.8,0.7-1.2s0.3-1,0.3-1.5c0-0.5-0.1-1-0.3-1.5s-0.4-0.9-0.7-1.2c-0.3-0.4-0.7-0.6-1.2-0.8c-0.5-0.2-1-0.3-1.5-0.3s-1.1,0.1-1.5,0.3c-0.5,0.2-0.9,0.5-1.2,0.8c-0.3,0.4-0.6,0.8-0.7,1.2C191.9,43.2,191.8,43.7,191.8,44.2z M193.7,44.2c0-0.3,0.1-0.5,0.2-0.7c0.1-0.2,0.2-0.4,0.4-0.5c0.2-0.1,0.4-0.2,0.6-0.3s0.4-0.1,0.7-0.1s0.4,0,0.7,0.1c0.2,0.1,0.4,0.2,0.6,0.3c0.2,0.1,0.3,0.3,0.4,0.5s0.2,0.4,0.2,0.7c0,0.3-0.1,0.5-0.2,0.7c-0.1,0.2-0.2,0.4-0.4,0.5c-0.2,0.1-0.4,0.2-0.6,0.3c-0.2,0.1-0.4,0.1-0.7,0.1s-0.4,0-0.7-0.1c-0.2-0.1-0.4-0.2-0.6-0.3s-0.3-0.3-0.4-0.5C193.8,44.7,193.7,44.5,193.7,44.2z M191.8,53.1c0,0.5,0.1,1,0.3,1.5s0.4,0.9,0.7,1.2c0.3,0.4,0.7,0.6,1.2,0.8c0.5,0.2,1,0.3,1.5,0.3c0.6,0,1.1-0.1,1.5-0.3s0.8-0.5,1.2-0.8s0.6-0.8,0.7-1.2s0.3-1,0.3-1.5c0-0.5-0.1-1-0.3-1.5s-0.4-0.9-0.7-1.2c-0.3-0.4-0.7-0.6-1.2-0.8c-0.5-0.2-1-0.3-1.5-0.3s-1.1,0.1-1.5,0.3c-0.5,0.2-0.9,0.5-1.2,0.8c-0.3,0.4-0.6,0.8-0.7,1.2C191.9,52.1,191.8,52.5,191.8,53.1z M193.7,53.1c0-0.3,0.1-0.5,0.2-0.7c0.1-0.2,0.2-0.4,0.4-0.5c0.2-0.1,0.4-0.2,0.6-0.3s0.4-0.1,0.7-0.1s0.4,0,0.7,0.1c0.2,0.1,0.4,0.2,0.6,0.3c0.2,0.1,0.3,0.3,0.4,0.5s0.2,0.4,0.2,0.7c0,0.3-0.1,0.5-0.2,0.7c-0.1,0.2-0.2,0.4-0.4,0.5c-0.2,0.1-0.4,0.2-0.6,0.3c-0.2,0.1-0.4,0.1-0.7,0.1s-0.4,0-0.7-0.1c-0.2-0.1-0.4-0.2-0.6-0.3s-0.3-0.3-0.4-0.5C193.8,53.6,193.7,53.4,193.7,53.1z M192,60.7h3.8c0.2,0,0.4,0,0.6,0.1c0.2,0.1,0.3,0.1,0.5,0.2c0.1,0.1,0.3,0.2,0.3,0.4c0.1,0.2,0.1,0.3,0.1,0.5s0,0.4-0.1,0.5c-0.1,0.1-0.2,0.2-0.3,0.3s-0.3,0.1-0.5,0.2s-0.4,0-0.6,0H192v2.3h4.3c0.3,0,0.7,0,1-0.1c0.3-0.1,0.7-0.2,0.9-0.4c0.3-0.2,0.5-0.5,0.7-0.8s0.3-0.7,0.3-1.2c0-0.2,0-0.5-0.1-0.7c-0.1-0.2-0.2-0.4-0.3-0.6c-0.1-0.2-0.2-0.3-0.4-0.5c-0.1-0.1-0.3-0.2-0.4-0.3v0h1v-2.2h-7V60.7L192,60.7z M188.7,70.3c0,0.6,0.1,1.2,0.2,1.7s0.4,0.9,0.7,1.3c0.3,0.4,0.7,0.6,1.3,0.8s1.1,0.3,1.8,0.3h6.3v-2.2h-0.9v0c0.4-0.2,0.6-0.6,0.8-1c0.2-0.4,0.3-0.8,0.3-1.3c0-0.5-0.1-1-0.3-1.4c-0.2-0.4-0.5-0.8-0.8-1s-0.7-0.5-1.2-0.7c-0.4-0.1-0.9-0.2-1.4-0.2c-0.5,0-0.9,0.1-1.4,0.2c-0.4,0.1-0.8,0.4-1.1,0.7s-0.6,0.6-0.8,1C192,69,192,69.5,192,70c0,0.5,0.1,0.9,0.3,1.2s0.4,0.7,0.7,0.9v0h-0.4c-0.6,0-1.1-0.2-1.4-0.5c-0.4-0.3-0.5-0.8-0.5-1.5c0-0.4,0.1-0.8,0.2-1.2s0.4-0.8,0.7-1.1l-1.6-1.1c-0.4,0.5-0.6,1-0.8,1.7C188.8,69.1,188.7,69.7,188.7,70.3L188.7,70.3z M193.8,70.5c0-0.3,0-0.5,0.1-0.7c0.1-0.2,0.2-0.4,0.4-0.5c0.2-0.1,0.4-0.2,0.6-0.3c0.2-0.1,0.4-0.1,0.7-0.1c0.2,0,0.5,0,0.7,0.1s0.4,0.2,0.6,0.3c0.2,0.1,0.3,0.3,0.4,0.5c0.1,0.2,0.1,0.4,0.1,0.7c0,0.3,0,0.5-0.1,0.7s-0.2,0.4-0.4,0.5c-0.2,0.1-0.4,0.3-0.6,0.3c-0.2,0.1-0.4,0.1-0.7,0.1c-0.2,0-0.5,0-0.7-0.1c-0.2-0.1-0.4-0.2-0.6-0.3c-0.2-0.1-0.3-0.3-0.4-0.5C193.8,71,193.8,70.8,193.8,70.5z M191.8,79.8c0,0.5,0.1,1,0.3,1.5s0.4,0.9,0.7,1.2c0.3,0.4,0.7,0.6,1.2,0.8c0.5,0.2,1,0.3,1.5,0.3c0.6,0,1.1-0.1,1.5-0.3s0.8-0.5,1.2-0.8s0.6-0.8,0.7-1.2s0.3-1,0.3-1.5c0-0.5-0.1-1-0.3-1.5s-0.4-0.9-0.7-1.2c-0.3-0.4-0.7-0.6-1.2-0.8c-0.5-0.2-1-0.3-1.5-0.3s-1.1,0.1-1.5,0.3c-0.5,0.2-0.9,0.5-1.2,0.8c-0.3,0.4-0.6,0.8-0.7,1.2C191.9,78.7,191.8,79.2,191.8,79.8z M193.7,79.8c0-0.3,0.1-0.5,0.2-0.7c0.1-0.2,0.2-0.4,0.4-0.5c0.2-0.1,0.4-0.2,0.6-0.3s0.4-0.1,0.7-0.1s0.4,0,0.7,0.1c0.2,0.1,0.4,0.2,0.6,0.3c0.2,0.1,0.3,0.3,0.4,0.5s0.2,0.4,0.2,0.7c0,0.3-0.1,0.5-0.2,0.7c-0.1,0.2-0.2,0.4-0.4,0.5c-0.2,0.1-0.4,0.2-0.6,0.3c-0.2,0.1-0.4,0.1-0.7,0.1s-0.4,0-0.7-0.1c-0.2-0.1-0.4-0.2-0.6-0.3s-0.3-0.3-0.4-0.5C193.8,80.3,193.7,80,193.7,79.8z M192,87.4h3.6c0.1,0,0.3,0,0.5,0.1s0.4,0.1,0.5,0.3c0.2,0.1,0.3,0.3,0.4,0.5c0.1,0.2,0.2,0.5,0.2,0.8c0,0.1,0,0.2,0,0.3c0,0.1,0,0.2-0.1,0.3l2,0.1c0-0.1,0-0.1,0-0.2c0-0.1,0-0.2,0-0.3c0-0.4-0.1-0.8-0.3-1.1s-0.5-0.6-0.9-0.8v0h1v-2.2h-7V87.4z M200,91.8c0,0.2,0,0.3,0.1,0.5c0.1,0.2,0.2,0.3,0.3,0.4s0.2,0.2,0.4,0.3c0.2,0.1,0.3,0.1,0.5,0.1s0.3,0,0.5-0.1c0.2-0.1,0.3-0.2,0.4-0.3s0.2-0.3,0.3-0.4c0.1-0.2,0.1-0.3,0.1-0.5c0-0.2,0-0.4-0.1-0.5c-0.1-0.2-0.2-0.3-0.3-0.4s-0.2-0.2-0.4-0.3c-0.2-0.1-0.3-0.1-0.5-0.1c-0.3,0-0.6,0.1-0.9,0.4S200,91.4,200,91.8z M192,93h7v-2.3h-7V93z"/>
</svg>