<svg xmlns="http://www.w3.org/2000/svg" viewBox="0 0 24 24" width="24" height="24"><path d="M38.2,7.2c-0.2-0.3-0.5-0.5-0.8-0.7c-0.3-0.2-0.6-0.3-0.9-0.4C36.2,6.1,35.9,6,35.7,6c-0.2,0-0.5,0-0.7,0h-2.4c-0.2,0-0.3,0-0.4,0.1C32.1,6.2,32,6.4,32,6.6v10.3c0,0,0,0,0,0.1h1.5c0,0,0,0,0-0.1v-4h1.3c0.7,0,1.3-0.1,1.8-0.3c0.5-0.2,0.9-0.4,1.3-0.7c0.3-0.3,0.6-0.7,0.8-1.1c0.2-0.4,0.3-0.9,0.3-1.5c0-0.4-0.1-0.8-0.2-1.1C38.6,7.8,38.4,7.5,38.2,7.2z M37.2,10.3c-0.1,0.3-0.3,0.5-0.5,0.7c-0.2,0.2-0.5,0.4-0.8,0.5c-0.3,0.1-0.7,0.2-1.1,0.2h-1.3V7.2h1.4v0c0.3,0,0.5,0,0.8,0.1c0.3,0,0.5,0.1,0.8,0.3c0.3,0.1,0.5,0.4,0.6,0.7c0.2,0.3,0.3,0.7,0.3,1.1C37.3,9.7,37.3,10,37.2,10.3z M46.2,9.5c-0.2-0.2-0.6-0.4-1-0.6c-0.4-0.1-0.9-0.2-1.4-0.2c-0.3,0-0.6,0-0.9,0.1c-0.3,0.1-0.6,0.1-0.8,0.2c-0.2,0.1-0.5,0.2-0.7,0.3c-0.2,0.1-0.3,0.2-0.4,0.3c-0.1,0.1-0.1,0.2-0.1,0.2c0,0.1,0,0.2,0,0.3c0,0.1,0,0.2,0,0.2c0,0.1,0,0.1,0.1,0.2c0,0,0.1,0.1,0.1,0.1c0,0,0.1,0,0.1,0c0.1,0,0.2,0,0.3-0.1c0.1-0.1,0.3-0.2,0.5-0.3c0.2-0.1,0.5-0.2,0.7-0.3c0.3-0.1,0.6-0.1,1-0.1c0.3,0,0.6,0,0.8,0.1c0.2,0.1,0.4,0.2,0.6,0.3c0.1,0.2,0.2,0.3,0.3,0.6c0.1,0.2,0.1,0.5,0.1,0.8v0.6h-1.1c-0.6,0-1.2,0.1-1.6,0.2c-0.5,0.1-0.9,0.3-1.2,0.5c-0.3,0.2-0.6,0.5-0.8,0.8c-0.2,0.3-0.3,0.7-0.3,1.1c0,0.4,0.1,0.7,0.2,1c0.1,0.3,0.3,0.5,0.5,0.7c0.2,0.2,0.5,0.4,0.9,0.5c0.3,0.1,0.7,0.2,1.1,0.2c0.5,0,0.9-0.1,1.3-0.3c0.4-0.2,0.8-0.5,1.1-0.8v0.8c0,0.1,0,0.1,0.1,0.2c0,0,0,0,0.1,0h0.9c0,0,0.1,0,0.1,0c0,0,0.1-0.1,0.1-0.2v-5.2c0-0.5-0.1-0.9-0.2-1.3C46.6,10.1,46.5,9.8,46.2,9.5z M45.5,15c-0.4,0.4-0.7,0.7-1,0.9c-0.3,0.2-0.7,0.3-1,0.3c-0.5,0-0.8-0.1-1.1-0.4c-0.3-0.2-0.4-0.6-0.4-1c0-0.2,0-0.4,0.1-0.6c0.1-0.2,0.2-0.3,0.4-0.5c0.2-0.1,0.4-0.2,0.7-0.3s0.6-0.1,1-0.1h1.2V15z M56,9.2c0,0.1,0,0.2-0.1,0.3l-2.8,7.7l-1,2.8c0,0.1-0.1,0.2-0.3,0.2c-0.1,0-0.4,0.1-0.6,0.1c-0.2,0-0.3,0-0.4,0c-0.1,0-0.2,0-0.2-0.1c-0.1,0-0.1-0.1-0.1-0.1c0-0.1,0-0.1,0-0.2l1.1-2.7c-0.1,0-0.1-0.1-0.1-0.1c0-0.1-0.1-0.1-0.1-0.2l-2.8-7.4c0-0.1-0.1-0.2-0.1-0.3c0-0.1,0-0.1,0.1-0.2c0,0,0,0,0.1,0h1.2C50,9,50,9,50,9.1c0,0,0.1,0.1,0.1,0.2l2.2,6.2h0l2.2-6.2c0-0.1,0.1-0.2,0.1-0.2c0,0,0,0,0,0h1.2c0,0,0,0,0.1,0C56,9,56,9.1,56,9.2z M8,3v18h18V3H8z M21.5,16.1h-3.1L15.6,12v4.2h-3.1V7.9h3.1l2.8,4.2V7.9h3.1V16.1z"/></svg>
