<svg xmlns="http://www.w3.org/2000/svg" xmlns:xlink="http://www.w3.org/1999/xlink" width="86" height="52" viewBox="0 0 86 52">
    <defs>
        <filter id="y4x4cn7dra" width="168.4%" height="236.8%" x="-34.2%" y="-57.9%" filterUnits="objectBoundingBox">
            <feGaussianBlur in="SourceGraphic" stdDeviation="3"/>
        </filter>
        <filter id="rxzaaklv7b" width="184.2%" height="268.4%" x="-42.1%" y="-73.7%" filterUnits="objectBoundingBox">
            <feOffset dy="2" in="SourceAlpha" result="shadowOffsetOuter1"/>
            <feGaussianBlur in="shadowOffsetOuter1" result="shadowBlurOuter1" stdDeviation="2"/>
            <feColorMatrix in="shadowBlurOuter1" values="0 0 0 0 0 0 0 0 0 0 0 0 0 0 0 0 0 0 0.16 0"/>
        </filter>
        <filter id="bcfncwuazd" width="134.8%" height="134.8%" x="-17.4%" y="-13%" filterUnits="objectBoundingBox">
            <feMorphology in="SourceAlpha" operator="dilate" radius="1" result="shadowSpreadOuter1"/>
            <feOffset dy="2" in="shadowSpreadOuter1" result="shadowOffsetOuter1"/>
            <feGaussianBlur in="shadowOffsetOuter1" result="shadowBlurOuter1" stdDeviation="2"/>
            <feComposite in="shadowBlurOuter1" in2="SourceAlpha" operator="out" result="shadowBlurOuter1"/>
            <feColorMatrix in="shadowBlurOuter1" values="0 0 0 0 0 0 0 0 0 0 0 0 0 0 0 0 0 0 0.16 0"/>
        </filter>
        <circle id="mcpjrvt6ye" cx="47" cy="23" r="23"/>
        <path id="5gpajgf9hc" d="M50.485 46.901c8.724 0 20.522-4.253 26.352-9.5 5.83-5.246 3.484-9.5-5.24-9.5-8.723 0-20.521 4.254-26.351 9.5-5.83 5.247-3.484 9.5 5.24 9.5z"/>
    </defs>
    <g fill="none" fill-rule="evenodd">
        <g>
            <g>
                <g>
                    <g>
                        <g transform="translate(-236 -485) translate(0 48) translate(20 344) translate(216 93) translate(0 1)">
                            <g fill="#000" filter="url(#y4x4cn7dra)" opacity=".1">
                                <use filter="url(#rxzaaklv7b)" xlink:href="#5gpajgf9hc"/>
                                <use xlink:href="#5gpajgf9hc"/>
                            </g>
                            <g>
                                <use fill="#000" filter="url(#bcfncwuazd)" xlink:href="#mcpjrvt6ye"/>
                                <circle cx="47" cy="23" r="23.5" fill="#D0A70B" stroke="#1C1814"/>
                            </g>
                            <path fill="#FFD73E" stroke="#1C1814" stroke-linecap="round" d="M83.128 34.975c-9.264-2.708-28.532-15.31-23.216-21.571 6.269-5.342 10.017 8.187 17.867 9.676 3.562 6.674 8.166 13.289 5.349 11.895z" transform="scale(-1 1) rotate(10 0 -793.587)"/>
                            <path fill="#FFD73E" stroke="#1C1814" stroke-linecap="round" d="M26.128 34.975c-9.264-2.708-28.532-15.31-23.216-21.571 6.269-5.342 10.017 8.187 17.867 9.676 3.562 6.674 8.166 13.289 5.349 11.895z" transform="rotate(10 14.5 23.662)"/>
                            <path stroke="#1C1814" stroke-linecap="round" d="M6.872 6.903c2.922-1.675 5.255-1.196 7 1.438" transform="rotate(5 10.372 7.134)"/>
                            <path stroke="#1C1814" stroke-linecap="round" d="M10.677 3.343c1.575-.468 2.742-.14 3.5.984" transform="rotate(5 12.427 3.732)"/>
                            <circle cx="43" cy="23" r="23.5" fill="#FFD73E" stroke="#1C1814"/>
                            <path stroke="#1C1814" stroke-dasharray="2" stroke-linecap="round" d="M43 43c11.046 0 20-8.954 20-20S54.046 3 43 3s-20 8.954-20 20 8.954 20 20 20z" opacity=".7"/>
                            <path fill="#1C1814" d="M36.5 20c.828 0 1.5.672 1.5 1.5s-.672 1.5-1.5 1.5-1.5-.672-1.5-1.5.672-1.5 1.5-1.5zm13 0c.828 0 1.5.672 1.5 1.5s-.672 1.5-1.5 1.5-1.5-.672-1.5-1.5.672-1.5 1.5-1.5z"/>
                            <path stroke="#1C1814" stroke-linecap="round" d="M37 27c4 2.667 8 2.667 12 0"/>
                        </g>
                    </g>
                </g>
            </g>
        </g>
    </g>
</svg>
