<svg xmlns="http://www.w3.org/2000/svg" viewBox="0 0 49 20" width="48" height="20"><path d="M3.7,4.6c1.4,0,2.7,0.5,3.4,1L6.6,6.6C5.9,6.2,4.9,5.7,3.7,5.7c-1.3,0-2.1,0.6-2.1,1.5c0,1,0.7,1.6,1.8,1.8l1.1,0.2c1.8,0.4,2.8,1.2,2.8,2.9c0,1.9-1.7,3.2-3.8,3.2c-1.3,0-2.7-0.5-3.5-0.9l0.4-1.2c0.7,0.5,2,0.9,3,0.9c1.5,0,2.5-0.8,2.5-1.9c0-1-0.6-1.5-1.9-1.8l-1.2-0.3C1.5,10,0.2,9,0.2,7.4C0.2,5.8,1.5,4.6,3.7,4.6z M11.6,4.6c1.4,0,2.7,0.5,3.4,1l-0.5,1.1c-0.7-0.5-1.7-0.9-2.9-0.9c-1.3,0-2.1,0.6-2.1,1.5c0,1,0.7,1.6,1.8,1.8l1.1,0.2c1.8,0.4,2.8,1.2,2.8,2.9c0,1.9-1.7,3.2-3.9,3.2c-1.3,0-2.7-0.5-3.5-0.9l0.4-1.2c0.7,0.5,2,0.9,3,0.9c1.5,0,2.5-0.8,2.5-1.9c0-1-0.6-1.5-1.9-1.8l-1.2-0.3C9.4,10,8.1,9,8.1,7.4C8.1,5.8,9.4,4.6,11.6,4.6z M20.8,4.6c1.3,0,2.5,0.4,3.2,0.9l-0.5,1.1c-0.7-0.5-1.5-0.8-2.7-0.8c-1.9,0-3.5,1.7-3.5,4v0.3c0,2.1,1.3,4.1,3.4,4.1c1.1,0,1.9-0.3,2.3-0.7v-2.7H21V9.7h3.4v4.4c-0.7,0.8-2,1.3-3.7,1.3c-2.7,0-4.7-2.1-4.7-5.4V9.8C15.9,6.4,18.3,4.6,20.8,4.6L20.8,4.6z M29.7,4.9c2.3,0,3.7,1,3.7,3.2c0,2.2-1.5,3.3-3.6,3.3h-2.4v4h-1.3V4.9H29.7L29.7,4.9z M41.4,4.9l3,3.7l2.8-3.7h1.4L45,9.7v5.7h-1.3V9.7l-3.8-4.9H41.4L41.4,4.9z M48.2,13.8c0.2,0,0.4,0.1,0.6,0.2s0.2,0.4,0.2,0.6c0,0.2-0.1,0.4-0.2,0.6s-0.3,0.2-0.6,0.2c-0.3,0-0.5-0.1-0.6-0.2s-0.2-0.4-0.2-0.6c0-0.2,0.1-0.4,0.2-0.6S47.9,13.8,48.2,13.8L48.2,13.8z M37.5,4.9l2,5.3h2.5l0,1.2h-2l1.5,4H40l-0.8-2.1l-0.7-1.8l0-0.1h-2v-1.2h1.6l-1.4-3.8l-3.3,9H32l4.1-10.6L37.5,4.9L37.5,4.9z M29.6,6h-2.1v4.2h2.1c1.6,0,2.5-0.7,2.5-2.1C32.1,6.7,31.2,6,29.6,6z"/></svg>
