<svg xmlns="http://www.w3.org/2000/svg" viewBox="0 0 24 24" width="24" height="24">
<path style="fill:#FDD036;" d="M24,12c0,6.627-5.373,12-12,12S0,18.627,0,12S5.373,0,12,0S24,5.373,24,12z"/>
<path style="fill:#FFFFFF;" d="M18.44,6c0.823-0.007,1.496,0.655,1.502,1.477c0.002,0.268-0.068,0.531-0.202,0.763l-6.43,11.44c-0.411,0.721-1.326,0.975-2.05,0.57c-0.234-0.14-0.43-0.336-0.57-0.57L4.26,8.24c-0.373-0.712-0.122-1.591,0.57-2C5.05,6.1,5.3,6.018,5.56,6H18.44z"/>
<path style="fill:#FDD036; opacity:0.1;" d="M18.7,10.08l-5.39,9.6c-0.411,0.721-1.326,0.975-2.05,0.57c-0.234-0.14-0.43-0.336-0.57-0.57l-2.41-4.29L18.7,10.08z"/>
<path style="fill:#FDD036;" d="M14.5,8H10v7.2h1.63v-2.8H14v-1.29h-2.37V9.28h2.87V8z"/>
</svg>
