<svg xmlns="http://www.w3.org/2000/svg" viewBox="0 0 24 24" width="24" height="24">
<filter id="dropshadow"><feGaussianBlur stdDeviation="1"/></filter>
<path style="fill:#584E48;" d="M24,12c0,6.627-5.373,12-12,12S0,18.627,0,12S5.373,0,12,0S24,5.373,24,12z"/>
<path style="filter: url('#dropshadow'); opacity: 0.25;" transform="translate(0,1)" d="M18.44,6c0.823-0.007,1.496,0.655,1.502,1.477c0.002,0.268-0.068,0.531-0.202,0.763l-6.43,11.44c-0.411,0.721-1.326,0.975-2.05,0.57c-0.234-0.14-0.43-0.336-0.57-0.57L4.26,8.24c-0.373-0.712-0.122-1.591,0.57-2C5.05,6.1,5.3,6.018,5.56,6H18.44z"/>
<path style="fill:#E79C64;" d="M18.44,6c0.823-0.007,1.496,0.655,1.502,1.477c0.002,0.268-0.068,0.531-0.202,0.763l-6.43,11.44c-0.411,0.721-1.326,0.975-2.05,0.57c-0.234-0.14-0.43-0.336-0.57-0.57L4.26,8.24c-0.373-0.712-0.122-1.591,0.57-2C5.05,6.1,5.3,6.018,5.56,6H18.44z"/>
<path style="fill:#FFFFFF; opacity:0.3;" d="M8.28,15.39l2.41,4.29c0.14,0.234,0.336,0.43,0.57,0.57c0.724,0.405,1.639,0.151,2.05-0.57l5.39-9.6L8.28,15.39z"/>
<path style="fill:#584E48;" d="M11.84,9c0.161-0.001,0.322,0.015,0.48,0.05c0.121,0.025,0.236,0.073,0.34,0.14c0.088,0.07,0.154,0.163,0.19,0.27c0.1,0.278,0.1,0.582,0,0.86c-0.055,0.107-0.138,0.196-0.24,0.26c-0.113,0.071-0.239,0.118-0.37,0.14c-0.163,0.016-0.327,0.016-0.49,0h-0.86V9H11.84z M12,11.89c0.175-0.004,0.35,0.016,0.52,0.06c0.119,0.03,0.229,0.088,0.32,0.17c0.088,0.064,0.151,0.155,0.18,0.26c0.017,0.116,0.017,0.234,0,0.35c0.015,0.113,0.015,0.227,0,0.34c-0.031,0.107-0.086,0.206-0.16,0.29c-0.092,0.097-0.205,0.172-0.33,0.22c-0.171,0.057-0.35,0.084-0.53,0.08h-1.12v-1.77H12z M11.84,7.8H9.23v7.1h2.84c0.383,0.007,0.764-0.047,1.13-0.16c0.306-0.095,0.592-0.247,0.84-0.45c0.22-0.184,0.395-0.417,0.51-0.68c0.122-0.267,0.183-0.557,0.18-0.85c0.021-0.365-0.101-0.723-0.34-1c-0.271-0.279-0.619-0.471-1-0.55c0.198-0.069,0.386-0.163,0.56-0.28c0.142-0.095,0.267-0.214,0.37-0.35c0.097-0.127,0.171-0.269,0.22-0.42c0.04-0.15,0.06-0.305,0.06-0.46c0.003-0.27-0.045-0.538-0.14-0.79c-0.103-0.242-0.269-0.453-0.48-0.61c-0.254-0.177-0.539-0.306-0.84-0.38c-0.326-0.086-0.662-0.13-1-0.13L11.84,7.8z"/>
</svg>